G04 EAGLE Gerber X2 export*
%TF.Part,Single*%
%TF.FileFunction,Paste,Top*%
%TF.FilePolarity,Positive*%
%TF.GenerationSoftware,Autodesk,EAGLE,9.0.0*%
%TF.CreationDate,2018-06-20T06:24:19Z*%
G75*
%MOMM*%
%FSLAX34Y34*%
%LPD*%
%AMOC8*
5,1,8,0,0,1.08239X$1,22.5*%
G01*
%ADD10R,0.254000X0.177800*%
%ADD11R,0.850000X0.900000*%
%ADD12R,0.177800X0.254000*%
%ADD13R,0.250000X0.300000*%
%ADD14R,1.600000X0.350000*%
%ADD15R,0.900000X0.850000*%
%ADD16R,0.750000X0.750000*%
%ADD17R,0.650000X0.800000*%
%ADD18R,0.201250X0.595000*%
%ADD19R,0.595000X0.201250*%
%ADD20R,1.321200X1.321200*%


D10*
X96919Y6708D03*
X96919Y3406D03*
D11*
X42203Y95563D03*
X53803Y95563D03*
D10*
X42337Y6161D03*
X42337Y2859D03*
X30291Y7703D03*
X30291Y4401D03*
D12*
X16635Y89315D03*
X13333Y89315D03*
D13*
X13940Y30568D03*
X8940Y30568D03*
D14*
X11791Y3828D03*
X11791Y10328D03*
D15*
X55091Y134452D03*
X55091Y146052D03*
D16*
X78000Y148500D03*
X78000Y159000D03*
D17*
X180524Y194470D03*
X195524Y194470D03*
D16*
X106611Y147622D03*
X96111Y147622D03*
D18*
X50366Y14181D03*
X46366Y14181D03*
X42366Y14181D03*
X38366Y14181D03*
X34366Y14181D03*
X30366Y14181D03*
X54366Y14181D03*
X58366Y14181D03*
X62366Y14181D03*
X66366Y14181D03*
X70366Y14181D03*
X74366Y14181D03*
D19*
X80966Y20781D03*
X80966Y24781D03*
X80966Y28781D03*
X80966Y32781D03*
X80966Y36781D03*
X80966Y40781D03*
X80966Y44781D03*
X80966Y48781D03*
X80966Y52781D03*
X80966Y56781D03*
X80966Y60781D03*
X80966Y64781D03*
D18*
X74366Y71381D03*
X70366Y71381D03*
X66366Y71381D03*
X62366Y71381D03*
X58366Y71381D03*
X50366Y71381D03*
X54366Y71381D03*
X46366Y71381D03*
X42366Y71381D03*
X38366Y71381D03*
X30366Y71381D03*
X34366Y71381D03*
D19*
X23766Y64781D03*
X23766Y60781D03*
X23766Y56781D03*
X23766Y52781D03*
X23766Y48781D03*
X23766Y44781D03*
X23766Y40781D03*
X23766Y36781D03*
X23766Y32781D03*
X23766Y28781D03*
X23766Y24781D03*
X23766Y20781D03*
D20*
X40866Y54281D03*
X40866Y31281D03*
X63866Y31281D03*
X63866Y54281D03*
D10*
X96919Y-233292D03*
X96919Y-236594D03*
D11*
X42203Y-144437D03*
X53803Y-144437D03*
D10*
X42337Y-233839D03*
X42337Y-237141D03*
X30291Y-232297D03*
X30291Y-235599D03*
D12*
X16635Y-150685D03*
X13333Y-150685D03*
D13*
X13940Y-209432D03*
X8940Y-209432D03*
D14*
X11791Y-236172D03*
X11791Y-229672D03*
D15*
X54091Y-124048D03*
X54091Y-112448D03*
D18*
X50366Y-225819D03*
X46366Y-225819D03*
X42366Y-225819D03*
X38366Y-225819D03*
X34366Y-225819D03*
X30366Y-225819D03*
X54366Y-225819D03*
X58366Y-225819D03*
X62366Y-225819D03*
X66366Y-225819D03*
X70366Y-225819D03*
X74366Y-225819D03*
D19*
X80966Y-219219D03*
X80966Y-215219D03*
X80966Y-211219D03*
X80966Y-207219D03*
X80966Y-203219D03*
X80966Y-199219D03*
X80966Y-195219D03*
X80966Y-191219D03*
X80966Y-187219D03*
X80966Y-183219D03*
X80966Y-179219D03*
X80966Y-175219D03*
D18*
X74366Y-168619D03*
X70366Y-168619D03*
X66366Y-168619D03*
X62366Y-168619D03*
X58366Y-168619D03*
X50366Y-168619D03*
X54366Y-168619D03*
X46366Y-168619D03*
X42366Y-168619D03*
X38366Y-168619D03*
X30366Y-168619D03*
X34366Y-168619D03*
D19*
X23766Y-175219D03*
X23766Y-179219D03*
X23766Y-183219D03*
X23766Y-187219D03*
X23766Y-191219D03*
X23766Y-195219D03*
X23766Y-199219D03*
X23766Y-203219D03*
X23766Y-207219D03*
X23766Y-211219D03*
X23766Y-215219D03*
X23766Y-219219D03*
D20*
X40866Y-185719D03*
X40866Y-208719D03*
X63866Y-208719D03*
X63866Y-185719D03*
D10*
X96919Y-473292D03*
X96919Y-476594D03*
D11*
X42203Y-384437D03*
X53803Y-384437D03*
D10*
X42337Y-473839D03*
X42337Y-477141D03*
X30291Y-472297D03*
X30291Y-475599D03*
D12*
X16635Y-390685D03*
X13333Y-390685D03*
D13*
X13940Y-449432D03*
X8940Y-449432D03*
D14*
X89791Y-390172D03*
X89791Y-383672D03*
D15*
X55091Y-345548D03*
X55091Y-333948D03*
D16*
X78000Y-331500D03*
X78000Y-321000D03*
D17*
X180524Y-285530D03*
X195524Y-285530D03*
D16*
X106611Y-332378D03*
X96111Y-332378D03*
D18*
X50366Y-465819D03*
X46366Y-465819D03*
X42366Y-465819D03*
X38366Y-465819D03*
X34366Y-465819D03*
X30366Y-465819D03*
X54366Y-465819D03*
X58366Y-465819D03*
X62366Y-465819D03*
X66366Y-465819D03*
X70366Y-465819D03*
X74366Y-465819D03*
D19*
X80966Y-459219D03*
X80966Y-455219D03*
X80966Y-451219D03*
X80966Y-447219D03*
X80966Y-443219D03*
X80966Y-439219D03*
X80966Y-435219D03*
X80966Y-431219D03*
X80966Y-427219D03*
X80966Y-423219D03*
X80966Y-419219D03*
X80966Y-415219D03*
D18*
X74366Y-408619D03*
X70366Y-408619D03*
X66366Y-408619D03*
X62366Y-408619D03*
X58366Y-408619D03*
X50366Y-408619D03*
X54366Y-408619D03*
X46366Y-408619D03*
X42366Y-408619D03*
X38366Y-408619D03*
X30366Y-408619D03*
X34366Y-408619D03*
D19*
X23766Y-415219D03*
X23766Y-419219D03*
X23766Y-423219D03*
X23766Y-427219D03*
X23766Y-431219D03*
X23766Y-435219D03*
X23766Y-439219D03*
X23766Y-443219D03*
X23766Y-447219D03*
X23766Y-451219D03*
X23766Y-455219D03*
X23766Y-459219D03*
D20*
X40866Y-425719D03*
X40866Y-448719D03*
X63866Y-448719D03*
X63866Y-425719D03*
D12*
X12476Y-456000D03*
X15778Y-456000D03*
X4476Y-456000D03*
X7778Y-456000D03*
D10*
X96919Y-713292D03*
X96919Y-716594D03*
D11*
X42203Y-624437D03*
X53803Y-624437D03*
D10*
X42337Y-713839D03*
X42337Y-717141D03*
X30291Y-712297D03*
X30291Y-715599D03*
D12*
X16635Y-630685D03*
X13333Y-630685D03*
D13*
X13940Y-689432D03*
X8940Y-689432D03*
D14*
X88791Y-630172D03*
X88791Y-623672D03*
D15*
X54091Y-604048D03*
X54091Y-592448D03*
D18*
X50366Y-705819D03*
X46366Y-705819D03*
X42366Y-705819D03*
X38366Y-705819D03*
X34366Y-705819D03*
X30366Y-705819D03*
X54366Y-705819D03*
X58366Y-705819D03*
X62366Y-705819D03*
X66366Y-705819D03*
X70366Y-705819D03*
X74366Y-705819D03*
D19*
X80966Y-699219D03*
X80966Y-695219D03*
X80966Y-691219D03*
X80966Y-687219D03*
X80966Y-683219D03*
X80966Y-679219D03*
X80966Y-675219D03*
X80966Y-671219D03*
X80966Y-667219D03*
X80966Y-663219D03*
X80966Y-659219D03*
X80966Y-655219D03*
D18*
X74366Y-648619D03*
X70366Y-648619D03*
X66366Y-648619D03*
X62366Y-648619D03*
X58366Y-648619D03*
X50366Y-648619D03*
X54366Y-648619D03*
X46366Y-648619D03*
X42366Y-648619D03*
X38366Y-648619D03*
X30366Y-648619D03*
X34366Y-648619D03*
D19*
X23766Y-655219D03*
X23766Y-659219D03*
X23766Y-663219D03*
X23766Y-667219D03*
X23766Y-671219D03*
X23766Y-675219D03*
X23766Y-679219D03*
X23766Y-683219D03*
X23766Y-687219D03*
X23766Y-691219D03*
X23766Y-695219D03*
X23766Y-699219D03*
D20*
X40866Y-665719D03*
X40866Y-688719D03*
X63866Y-688719D03*
X63866Y-665719D03*
D12*
X13976Y-695500D03*
X17278Y-695500D03*
X6476Y-696000D03*
X9778Y-696000D03*
D10*
X96919Y-953292D03*
X96919Y-956594D03*
D11*
X42203Y-864437D03*
X53803Y-864437D03*
D10*
X42337Y-953839D03*
X42337Y-957141D03*
X30291Y-952297D03*
X30291Y-955599D03*
D12*
X16635Y-870685D03*
X13333Y-870685D03*
D13*
X13940Y-929432D03*
X8940Y-929432D03*
D14*
X11791Y-956172D03*
X11791Y-949672D03*
D15*
X55091Y-825548D03*
X55091Y-813948D03*
D16*
X78000Y-811500D03*
X78000Y-801000D03*
D17*
X180524Y-765530D03*
X195524Y-765530D03*
D16*
X106611Y-812378D03*
X96111Y-812378D03*
D18*
X50366Y-945819D03*
X46366Y-945819D03*
X42366Y-945819D03*
X38366Y-945819D03*
X34366Y-945819D03*
X30366Y-945819D03*
X54366Y-945819D03*
X58366Y-945819D03*
X62366Y-945819D03*
X66366Y-945819D03*
X70366Y-945819D03*
X74366Y-945819D03*
D19*
X80966Y-939219D03*
X80966Y-935219D03*
X80966Y-931219D03*
X80966Y-927219D03*
X80966Y-923219D03*
X80966Y-919219D03*
X80966Y-915219D03*
X80966Y-911219D03*
X80966Y-907219D03*
X80966Y-903219D03*
X80966Y-899219D03*
X80966Y-895219D03*
D18*
X74366Y-888619D03*
X70366Y-888619D03*
X66366Y-888619D03*
X62366Y-888619D03*
X58366Y-888619D03*
X50366Y-888619D03*
X54366Y-888619D03*
X46366Y-888619D03*
X42366Y-888619D03*
X38366Y-888619D03*
X30366Y-888619D03*
X34366Y-888619D03*
D19*
X23766Y-895219D03*
X23766Y-899219D03*
X23766Y-903219D03*
X23766Y-907219D03*
X23766Y-911219D03*
X23766Y-915219D03*
X23766Y-919219D03*
X23766Y-923219D03*
X23766Y-927219D03*
X23766Y-931219D03*
X23766Y-935219D03*
X23766Y-939219D03*
D20*
X40866Y-905719D03*
X40866Y-928719D03*
X63866Y-928719D03*
X63866Y-905719D03*
D10*
X366919Y6708D03*
X366919Y3406D03*
D11*
X312203Y95563D03*
X323803Y95563D03*
D10*
X312337Y6161D03*
X312337Y2859D03*
X300291Y7703D03*
X300291Y4401D03*
D12*
X286635Y89315D03*
X283333Y89315D03*
D13*
X283940Y30568D03*
X278940Y30568D03*
D14*
X281791Y3828D03*
X281791Y10328D03*
D15*
X325091Y134452D03*
X325091Y146052D03*
D16*
X348000Y148500D03*
X348000Y159000D03*
D17*
X450524Y194470D03*
X465524Y194470D03*
D16*
X376611Y147622D03*
X366111Y147622D03*
D18*
X320366Y14181D03*
X316366Y14181D03*
X312366Y14181D03*
X308366Y14181D03*
X304366Y14181D03*
X300366Y14181D03*
X324366Y14181D03*
X328366Y14181D03*
X332366Y14181D03*
X336366Y14181D03*
X340366Y14181D03*
X344366Y14181D03*
D19*
X350966Y20781D03*
X350966Y24781D03*
X350966Y28781D03*
X350966Y32781D03*
X350966Y36781D03*
X350966Y40781D03*
X350966Y44781D03*
X350966Y48781D03*
X350966Y52781D03*
X350966Y56781D03*
X350966Y60781D03*
X350966Y64781D03*
D18*
X344366Y71381D03*
X340366Y71381D03*
X336366Y71381D03*
X332366Y71381D03*
X328366Y71381D03*
X320366Y71381D03*
X324366Y71381D03*
X316366Y71381D03*
X312366Y71381D03*
X308366Y71381D03*
X300366Y71381D03*
X304366Y71381D03*
D19*
X293766Y64781D03*
X293766Y60781D03*
X293766Y56781D03*
X293766Y52781D03*
X293766Y48781D03*
X293766Y44781D03*
X293766Y40781D03*
X293766Y36781D03*
X293766Y32781D03*
X293766Y28781D03*
X293766Y24781D03*
X293766Y20781D03*
D20*
X310866Y54281D03*
X310866Y31281D03*
X333866Y31281D03*
X333866Y54281D03*
D10*
X366919Y-233292D03*
X366919Y-236594D03*
D11*
X312203Y-144437D03*
X323803Y-144437D03*
D10*
X312337Y-233839D03*
X312337Y-237141D03*
X300291Y-232297D03*
X300291Y-235599D03*
D12*
X286635Y-150685D03*
X283333Y-150685D03*
D13*
X283940Y-209432D03*
X278940Y-209432D03*
D14*
X281791Y-236172D03*
X281791Y-229672D03*
D15*
X324091Y-124048D03*
X324091Y-112448D03*
D18*
X320366Y-225819D03*
X316366Y-225819D03*
X312366Y-225819D03*
X308366Y-225819D03*
X304366Y-225819D03*
X300366Y-225819D03*
X324366Y-225819D03*
X328366Y-225819D03*
X332366Y-225819D03*
X336366Y-225819D03*
X340366Y-225819D03*
X344366Y-225819D03*
D19*
X350966Y-219219D03*
X350966Y-215219D03*
X350966Y-211219D03*
X350966Y-207219D03*
X350966Y-203219D03*
X350966Y-199219D03*
X350966Y-195219D03*
X350966Y-191219D03*
X350966Y-187219D03*
X350966Y-183219D03*
X350966Y-179219D03*
X350966Y-175219D03*
D18*
X344366Y-168619D03*
X340366Y-168619D03*
X336366Y-168619D03*
X332366Y-168619D03*
X328366Y-168619D03*
X320366Y-168619D03*
X324366Y-168619D03*
X316366Y-168619D03*
X312366Y-168619D03*
X308366Y-168619D03*
X300366Y-168619D03*
X304366Y-168619D03*
D19*
X293766Y-175219D03*
X293766Y-179219D03*
X293766Y-183219D03*
X293766Y-187219D03*
X293766Y-191219D03*
X293766Y-195219D03*
X293766Y-199219D03*
X293766Y-203219D03*
X293766Y-207219D03*
X293766Y-211219D03*
X293766Y-215219D03*
X293766Y-219219D03*
D20*
X310866Y-185719D03*
X310866Y-208719D03*
X333866Y-208719D03*
X333866Y-185719D03*
D10*
X366919Y-473292D03*
X366919Y-476594D03*
D11*
X312203Y-384437D03*
X323803Y-384437D03*
D10*
X312337Y-473839D03*
X312337Y-477141D03*
X300291Y-472297D03*
X300291Y-475599D03*
D12*
X286635Y-390685D03*
X283333Y-390685D03*
D13*
X283940Y-449432D03*
X278940Y-449432D03*
D14*
X359791Y-390172D03*
X359791Y-383672D03*
D15*
X325091Y-345548D03*
X325091Y-333948D03*
D16*
X348000Y-331500D03*
X348000Y-321000D03*
D17*
X450524Y-285530D03*
X465524Y-285530D03*
D16*
X376611Y-332378D03*
X366111Y-332378D03*
D18*
X320366Y-465819D03*
X316366Y-465819D03*
X312366Y-465819D03*
X308366Y-465819D03*
X304366Y-465819D03*
X300366Y-465819D03*
X324366Y-465819D03*
X328366Y-465819D03*
X332366Y-465819D03*
X336366Y-465819D03*
X340366Y-465819D03*
X344366Y-465819D03*
D19*
X350966Y-459219D03*
X350966Y-455219D03*
X350966Y-451219D03*
X350966Y-447219D03*
X350966Y-443219D03*
X350966Y-439219D03*
X350966Y-435219D03*
X350966Y-431219D03*
X350966Y-427219D03*
X350966Y-423219D03*
X350966Y-419219D03*
X350966Y-415219D03*
D18*
X344366Y-408619D03*
X340366Y-408619D03*
X336366Y-408619D03*
X332366Y-408619D03*
X328366Y-408619D03*
X320366Y-408619D03*
X324366Y-408619D03*
X316366Y-408619D03*
X312366Y-408619D03*
X308366Y-408619D03*
X300366Y-408619D03*
X304366Y-408619D03*
D19*
X293766Y-415219D03*
X293766Y-419219D03*
X293766Y-423219D03*
X293766Y-427219D03*
X293766Y-431219D03*
X293766Y-435219D03*
X293766Y-439219D03*
X293766Y-443219D03*
X293766Y-447219D03*
X293766Y-451219D03*
X293766Y-455219D03*
X293766Y-459219D03*
D20*
X310866Y-425719D03*
X310866Y-448719D03*
X333866Y-448719D03*
X333866Y-425719D03*
D12*
X282476Y-456000D03*
X285778Y-456000D03*
X274476Y-456000D03*
X277778Y-456000D03*
D10*
X366919Y-713292D03*
X366919Y-716594D03*
D11*
X312203Y-624437D03*
X323803Y-624437D03*
D10*
X312337Y-713839D03*
X312337Y-717141D03*
X300291Y-712297D03*
X300291Y-715599D03*
D12*
X286635Y-630685D03*
X283333Y-630685D03*
D13*
X283940Y-689432D03*
X278940Y-689432D03*
D14*
X358791Y-630172D03*
X358791Y-623672D03*
D15*
X324091Y-604048D03*
X324091Y-592448D03*
D18*
X320366Y-705819D03*
X316366Y-705819D03*
X312366Y-705819D03*
X308366Y-705819D03*
X304366Y-705819D03*
X300366Y-705819D03*
X324366Y-705819D03*
X328366Y-705819D03*
X332366Y-705819D03*
X336366Y-705819D03*
X340366Y-705819D03*
X344366Y-705819D03*
D19*
X350966Y-699219D03*
X350966Y-695219D03*
X350966Y-691219D03*
X350966Y-687219D03*
X350966Y-683219D03*
X350966Y-679219D03*
X350966Y-675219D03*
X350966Y-671219D03*
X350966Y-667219D03*
X350966Y-663219D03*
X350966Y-659219D03*
X350966Y-655219D03*
D18*
X344366Y-648619D03*
X340366Y-648619D03*
X336366Y-648619D03*
X332366Y-648619D03*
X328366Y-648619D03*
X320366Y-648619D03*
X324366Y-648619D03*
X316366Y-648619D03*
X312366Y-648619D03*
X308366Y-648619D03*
X300366Y-648619D03*
X304366Y-648619D03*
D19*
X293766Y-655219D03*
X293766Y-659219D03*
X293766Y-663219D03*
X293766Y-667219D03*
X293766Y-671219D03*
X293766Y-675219D03*
X293766Y-679219D03*
X293766Y-683219D03*
X293766Y-687219D03*
X293766Y-691219D03*
X293766Y-695219D03*
X293766Y-699219D03*
D20*
X310866Y-665719D03*
X310866Y-688719D03*
X333866Y-688719D03*
X333866Y-665719D03*
D12*
X283976Y-695500D03*
X287278Y-695500D03*
X276476Y-696000D03*
X279778Y-696000D03*
D10*
X366919Y-953292D03*
X366919Y-956594D03*
D11*
X312203Y-864437D03*
X323803Y-864437D03*
D10*
X312337Y-953839D03*
X312337Y-957141D03*
X300291Y-952297D03*
X300291Y-955599D03*
D12*
X286635Y-870685D03*
X283333Y-870685D03*
D13*
X283940Y-929432D03*
X278940Y-929432D03*
D14*
X281791Y-956172D03*
X281791Y-949672D03*
D15*
X325091Y-825548D03*
X325091Y-813948D03*
D16*
X348000Y-811500D03*
X348000Y-801000D03*
D17*
X450524Y-765530D03*
X465524Y-765530D03*
D16*
X376611Y-812378D03*
X366111Y-812378D03*
D18*
X320366Y-945819D03*
X316366Y-945819D03*
X312366Y-945819D03*
X308366Y-945819D03*
X304366Y-945819D03*
X300366Y-945819D03*
X324366Y-945819D03*
X328366Y-945819D03*
X332366Y-945819D03*
X336366Y-945819D03*
X340366Y-945819D03*
X344366Y-945819D03*
D19*
X350966Y-939219D03*
X350966Y-935219D03*
X350966Y-931219D03*
X350966Y-927219D03*
X350966Y-923219D03*
X350966Y-919219D03*
X350966Y-915219D03*
X350966Y-911219D03*
X350966Y-907219D03*
X350966Y-903219D03*
X350966Y-899219D03*
X350966Y-895219D03*
D18*
X344366Y-888619D03*
X340366Y-888619D03*
X336366Y-888619D03*
X332366Y-888619D03*
X328366Y-888619D03*
X320366Y-888619D03*
X324366Y-888619D03*
X316366Y-888619D03*
X312366Y-888619D03*
X308366Y-888619D03*
X300366Y-888619D03*
X304366Y-888619D03*
D19*
X293766Y-895219D03*
X293766Y-899219D03*
X293766Y-903219D03*
X293766Y-907219D03*
X293766Y-911219D03*
X293766Y-915219D03*
X293766Y-919219D03*
X293766Y-923219D03*
X293766Y-927219D03*
X293766Y-931219D03*
X293766Y-935219D03*
X293766Y-939219D03*
D20*
X310866Y-905719D03*
X310866Y-928719D03*
X333866Y-928719D03*
X333866Y-905719D03*
D10*
X636919Y6708D03*
X636919Y3406D03*
D11*
X582203Y95563D03*
X593803Y95563D03*
D10*
X582337Y6161D03*
X582337Y2859D03*
X570291Y7703D03*
X570291Y4401D03*
D12*
X556635Y89315D03*
X553333Y89315D03*
D13*
X553940Y30568D03*
X548940Y30568D03*
D14*
X551791Y3828D03*
X551791Y10328D03*
D15*
X595091Y134452D03*
X595091Y146052D03*
D16*
X618000Y148500D03*
X618000Y159000D03*
D17*
X720524Y194470D03*
X735524Y194470D03*
D16*
X646611Y147622D03*
X636111Y147622D03*
D18*
X590366Y14181D03*
X586366Y14181D03*
X582366Y14181D03*
X578366Y14181D03*
X574366Y14181D03*
X570366Y14181D03*
X594366Y14181D03*
X598366Y14181D03*
X602366Y14181D03*
X606366Y14181D03*
X610366Y14181D03*
X614366Y14181D03*
D19*
X620966Y20781D03*
X620966Y24781D03*
X620966Y28781D03*
X620966Y32781D03*
X620966Y36781D03*
X620966Y40781D03*
X620966Y44781D03*
X620966Y48781D03*
X620966Y52781D03*
X620966Y56781D03*
X620966Y60781D03*
X620966Y64781D03*
D18*
X614366Y71381D03*
X610366Y71381D03*
X606366Y71381D03*
X602366Y71381D03*
X598366Y71381D03*
X590366Y71381D03*
X594366Y71381D03*
X586366Y71381D03*
X582366Y71381D03*
X578366Y71381D03*
X570366Y71381D03*
X574366Y71381D03*
D19*
X563766Y64781D03*
X563766Y60781D03*
X563766Y56781D03*
X563766Y52781D03*
X563766Y48781D03*
X563766Y44781D03*
X563766Y40781D03*
X563766Y36781D03*
X563766Y32781D03*
X563766Y28781D03*
X563766Y24781D03*
X563766Y20781D03*
D20*
X580866Y54281D03*
X580866Y31281D03*
X603866Y31281D03*
X603866Y54281D03*
D10*
X636919Y-233292D03*
X636919Y-236594D03*
D11*
X582203Y-144437D03*
X593803Y-144437D03*
D10*
X582337Y-233839D03*
X582337Y-237141D03*
X570291Y-232297D03*
X570291Y-235599D03*
D12*
X556635Y-150685D03*
X553333Y-150685D03*
D13*
X553940Y-209432D03*
X548940Y-209432D03*
D14*
X551791Y-236172D03*
X551791Y-229672D03*
D15*
X594091Y-124048D03*
X594091Y-112448D03*
D18*
X590366Y-225819D03*
X586366Y-225819D03*
X582366Y-225819D03*
X578366Y-225819D03*
X574366Y-225819D03*
X570366Y-225819D03*
X594366Y-225819D03*
X598366Y-225819D03*
X602366Y-225819D03*
X606366Y-225819D03*
X610366Y-225819D03*
X614366Y-225819D03*
D19*
X620966Y-219219D03*
X620966Y-215219D03*
X620966Y-211219D03*
X620966Y-207219D03*
X620966Y-203219D03*
X620966Y-199219D03*
X620966Y-195219D03*
X620966Y-191219D03*
X620966Y-187219D03*
X620966Y-183219D03*
X620966Y-179219D03*
X620966Y-175219D03*
D18*
X614366Y-168619D03*
X610366Y-168619D03*
X606366Y-168619D03*
X602366Y-168619D03*
X598366Y-168619D03*
X590366Y-168619D03*
X594366Y-168619D03*
X586366Y-168619D03*
X582366Y-168619D03*
X578366Y-168619D03*
X570366Y-168619D03*
X574366Y-168619D03*
D19*
X563766Y-175219D03*
X563766Y-179219D03*
X563766Y-183219D03*
X563766Y-187219D03*
X563766Y-191219D03*
X563766Y-195219D03*
X563766Y-199219D03*
X563766Y-203219D03*
X563766Y-207219D03*
X563766Y-211219D03*
X563766Y-215219D03*
X563766Y-219219D03*
D20*
X580866Y-185719D03*
X580866Y-208719D03*
X603866Y-208719D03*
X603866Y-185719D03*
D10*
X636919Y-473292D03*
X636919Y-476594D03*
D11*
X582203Y-384437D03*
X593803Y-384437D03*
D10*
X582337Y-473839D03*
X582337Y-477141D03*
X570291Y-472297D03*
X570291Y-475599D03*
D12*
X556635Y-390685D03*
X553333Y-390685D03*
D13*
X553940Y-449432D03*
X548940Y-449432D03*
D14*
X629791Y-390172D03*
X629791Y-383672D03*
D15*
X595091Y-345548D03*
X595091Y-333948D03*
D16*
X618000Y-331500D03*
X618000Y-321000D03*
D17*
X720524Y-285530D03*
X735524Y-285530D03*
D16*
X646611Y-332378D03*
X636111Y-332378D03*
D18*
X590366Y-465819D03*
X586366Y-465819D03*
X582366Y-465819D03*
X578366Y-465819D03*
X574366Y-465819D03*
X570366Y-465819D03*
X594366Y-465819D03*
X598366Y-465819D03*
X602366Y-465819D03*
X606366Y-465819D03*
X610366Y-465819D03*
X614366Y-465819D03*
D19*
X620966Y-459219D03*
X620966Y-455219D03*
X620966Y-451219D03*
X620966Y-447219D03*
X620966Y-443219D03*
X620966Y-439219D03*
X620966Y-435219D03*
X620966Y-431219D03*
X620966Y-427219D03*
X620966Y-423219D03*
X620966Y-419219D03*
X620966Y-415219D03*
D18*
X614366Y-408619D03*
X610366Y-408619D03*
X606366Y-408619D03*
X602366Y-408619D03*
X598366Y-408619D03*
X590366Y-408619D03*
X594366Y-408619D03*
X586366Y-408619D03*
X582366Y-408619D03*
X578366Y-408619D03*
X570366Y-408619D03*
X574366Y-408619D03*
D19*
X563766Y-415219D03*
X563766Y-419219D03*
X563766Y-423219D03*
X563766Y-427219D03*
X563766Y-431219D03*
X563766Y-435219D03*
X563766Y-439219D03*
X563766Y-443219D03*
X563766Y-447219D03*
X563766Y-451219D03*
X563766Y-455219D03*
X563766Y-459219D03*
D20*
X580866Y-425719D03*
X580866Y-448719D03*
X603866Y-448719D03*
X603866Y-425719D03*
D12*
X552476Y-456000D03*
X555778Y-456000D03*
X544476Y-456000D03*
X547778Y-456000D03*
D10*
X636919Y-713292D03*
X636919Y-716594D03*
D11*
X582203Y-624437D03*
X593803Y-624437D03*
D10*
X582337Y-713839D03*
X582337Y-717141D03*
X570291Y-712297D03*
X570291Y-715599D03*
D12*
X556635Y-630685D03*
X553333Y-630685D03*
D13*
X553940Y-689432D03*
X548940Y-689432D03*
D14*
X628791Y-630172D03*
X628791Y-623672D03*
D15*
X594091Y-604048D03*
X594091Y-592448D03*
D18*
X590366Y-705819D03*
X586366Y-705819D03*
X582366Y-705819D03*
X578366Y-705819D03*
X574366Y-705819D03*
X570366Y-705819D03*
X594366Y-705819D03*
X598366Y-705819D03*
X602366Y-705819D03*
X606366Y-705819D03*
X610366Y-705819D03*
X614366Y-705819D03*
D19*
X620966Y-699219D03*
X620966Y-695219D03*
X620966Y-691219D03*
X620966Y-687219D03*
X620966Y-683219D03*
X620966Y-679219D03*
X620966Y-675219D03*
X620966Y-671219D03*
X620966Y-667219D03*
X620966Y-663219D03*
X620966Y-659219D03*
X620966Y-655219D03*
D18*
X614366Y-648619D03*
X610366Y-648619D03*
X606366Y-648619D03*
X602366Y-648619D03*
X598366Y-648619D03*
X590366Y-648619D03*
X594366Y-648619D03*
X586366Y-648619D03*
X582366Y-648619D03*
X578366Y-648619D03*
X570366Y-648619D03*
X574366Y-648619D03*
D19*
X563766Y-655219D03*
X563766Y-659219D03*
X563766Y-663219D03*
X563766Y-667219D03*
X563766Y-671219D03*
X563766Y-675219D03*
X563766Y-679219D03*
X563766Y-683219D03*
X563766Y-687219D03*
X563766Y-691219D03*
X563766Y-695219D03*
X563766Y-699219D03*
D20*
X580866Y-665719D03*
X580866Y-688719D03*
X603866Y-688719D03*
X603866Y-665719D03*
D12*
X553976Y-695500D03*
X557278Y-695500D03*
X546476Y-696000D03*
X549778Y-696000D03*
D10*
X636919Y-953292D03*
X636919Y-956594D03*
D11*
X582203Y-864437D03*
X593803Y-864437D03*
D10*
X582337Y-953839D03*
X582337Y-957141D03*
X570291Y-952297D03*
X570291Y-955599D03*
D12*
X556635Y-870685D03*
X553333Y-870685D03*
D13*
X553940Y-929432D03*
X548940Y-929432D03*
D14*
X551791Y-956172D03*
X551791Y-949672D03*
D15*
X595091Y-825548D03*
X595091Y-813948D03*
D16*
X618000Y-811500D03*
X618000Y-801000D03*
D17*
X720524Y-765530D03*
X735524Y-765530D03*
D16*
X646611Y-812378D03*
X636111Y-812378D03*
D18*
X590366Y-945819D03*
X586366Y-945819D03*
X582366Y-945819D03*
X578366Y-945819D03*
X574366Y-945819D03*
X570366Y-945819D03*
X594366Y-945819D03*
X598366Y-945819D03*
X602366Y-945819D03*
X606366Y-945819D03*
X610366Y-945819D03*
X614366Y-945819D03*
D19*
X620966Y-939219D03*
X620966Y-935219D03*
X620966Y-931219D03*
X620966Y-927219D03*
X620966Y-923219D03*
X620966Y-919219D03*
X620966Y-915219D03*
X620966Y-911219D03*
X620966Y-907219D03*
X620966Y-903219D03*
X620966Y-899219D03*
X620966Y-895219D03*
D18*
X614366Y-888619D03*
X610366Y-888619D03*
X606366Y-888619D03*
X602366Y-888619D03*
X598366Y-888619D03*
X590366Y-888619D03*
X594366Y-888619D03*
X586366Y-888619D03*
X582366Y-888619D03*
X578366Y-888619D03*
X570366Y-888619D03*
X574366Y-888619D03*
D19*
X563766Y-895219D03*
X563766Y-899219D03*
X563766Y-903219D03*
X563766Y-907219D03*
X563766Y-911219D03*
X563766Y-915219D03*
X563766Y-919219D03*
X563766Y-923219D03*
X563766Y-927219D03*
X563766Y-931219D03*
X563766Y-935219D03*
X563766Y-939219D03*
D20*
X580866Y-905719D03*
X580866Y-928719D03*
X603866Y-928719D03*
X603866Y-905719D03*
D10*
X906919Y6708D03*
X906919Y3406D03*
D11*
X852203Y95563D03*
X863803Y95563D03*
D10*
X852337Y6161D03*
X852337Y2859D03*
X840291Y7703D03*
X840291Y4401D03*
D12*
X826635Y89315D03*
X823333Y89315D03*
D13*
X823940Y30568D03*
X818940Y30568D03*
D14*
X821791Y3828D03*
X821791Y10328D03*
D15*
X865091Y134452D03*
X865091Y146052D03*
D16*
X888000Y148500D03*
X888000Y159000D03*
D17*
X990524Y194470D03*
X1005524Y194470D03*
D16*
X916611Y147622D03*
X906111Y147622D03*
D18*
X860366Y14181D03*
X856366Y14181D03*
X852366Y14181D03*
X848366Y14181D03*
X844366Y14181D03*
X840366Y14181D03*
X864366Y14181D03*
X868366Y14181D03*
X872366Y14181D03*
X876366Y14181D03*
X880366Y14181D03*
X884366Y14181D03*
D19*
X890966Y20781D03*
X890966Y24781D03*
X890966Y28781D03*
X890966Y32781D03*
X890966Y36781D03*
X890966Y40781D03*
X890966Y44781D03*
X890966Y48781D03*
X890966Y52781D03*
X890966Y56781D03*
X890966Y60781D03*
X890966Y64781D03*
D18*
X884366Y71381D03*
X880366Y71381D03*
X876366Y71381D03*
X872366Y71381D03*
X868366Y71381D03*
X860366Y71381D03*
X864366Y71381D03*
X856366Y71381D03*
X852366Y71381D03*
X848366Y71381D03*
X840366Y71381D03*
X844366Y71381D03*
D19*
X833766Y64781D03*
X833766Y60781D03*
X833766Y56781D03*
X833766Y52781D03*
X833766Y48781D03*
X833766Y44781D03*
X833766Y40781D03*
X833766Y36781D03*
X833766Y32781D03*
X833766Y28781D03*
X833766Y24781D03*
X833766Y20781D03*
D20*
X850866Y54281D03*
X850866Y31281D03*
X873866Y31281D03*
X873866Y54281D03*
D10*
X906919Y-233292D03*
X906919Y-236594D03*
D11*
X852203Y-144437D03*
X863803Y-144437D03*
D10*
X852337Y-233839D03*
X852337Y-237141D03*
X840291Y-232297D03*
X840291Y-235599D03*
D12*
X826635Y-150685D03*
X823333Y-150685D03*
D13*
X823940Y-209432D03*
X818940Y-209432D03*
D14*
X821791Y-236172D03*
X821791Y-229672D03*
D15*
X864091Y-124048D03*
X864091Y-112448D03*
D18*
X860366Y-225819D03*
X856366Y-225819D03*
X852366Y-225819D03*
X848366Y-225819D03*
X844366Y-225819D03*
X840366Y-225819D03*
X864366Y-225819D03*
X868366Y-225819D03*
X872366Y-225819D03*
X876366Y-225819D03*
X880366Y-225819D03*
X884366Y-225819D03*
D19*
X890966Y-219219D03*
X890966Y-215219D03*
X890966Y-211219D03*
X890966Y-207219D03*
X890966Y-203219D03*
X890966Y-199219D03*
X890966Y-195219D03*
X890966Y-191219D03*
X890966Y-187219D03*
X890966Y-183219D03*
X890966Y-179219D03*
X890966Y-175219D03*
D18*
X884366Y-168619D03*
X880366Y-168619D03*
X876366Y-168619D03*
X872366Y-168619D03*
X868366Y-168619D03*
X860366Y-168619D03*
X864366Y-168619D03*
X856366Y-168619D03*
X852366Y-168619D03*
X848366Y-168619D03*
X840366Y-168619D03*
X844366Y-168619D03*
D19*
X833766Y-175219D03*
X833766Y-179219D03*
X833766Y-183219D03*
X833766Y-187219D03*
X833766Y-191219D03*
X833766Y-195219D03*
X833766Y-199219D03*
X833766Y-203219D03*
X833766Y-207219D03*
X833766Y-211219D03*
X833766Y-215219D03*
X833766Y-219219D03*
D20*
X850866Y-185719D03*
X850866Y-208719D03*
X873866Y-208719D03*
X873866Y-185719D03*
D10*
X906919Y-473292D03*
X906919Y-476594D03*
D11*
X852203Y-384437D03*
X863803Y-384437D03*
D10*
X852337Y-473839D03*
X852337Y-477141D03*
X840291Y-472297D03*
X840291Y-475599D03*
D12*
X826635Y-390685D03*
X823333Y-390685D03*
D13*
X823940Y-449432D03*
X818940Y-449432D03*
D14*
X899791Y-390172D03*
X899791Y-383672D03*
D15*
X865091Y-345548D03*
X865091Y-333948D03*
D16*
X888000Y-331500D03*
X888000Y-321000D03*
D17*
X990524Y-285530D03*
X1005524Y-285530D03*
D16*
X916611Y-332378D03*
X906111Y-332378D03*
D18*
X860366Y-465819D03*
X856366Y-465819D03*
X852366Y-465819D03*
X848366Y-465819D03*
X844366Y-465819D03*
X840366Y-465819D03*
X864366Y-465819D03*
X868366Y-465819D03*
X872366Y-465819D03*
X876366Y-465819D03*
X880366Y-465819D03*
X884366Y-465819D03*
D19*
X890966Y-459219D03*
X890966Y-455219D03*
X890966Y-451219D03*
X890966Y-447219D03*
X890966Y-443219D03*
X890966Y-439219D03*
X890966Y-435219D03*
X890966Y-431219D03*
X890966Y-427219D03*
X890966Y-423219D03*
X890966Y-419219D03*
X890966Y-415219D03*
D18*
X884366Y-408619D03*
X880366Y-408619D03*
X876366Y-408619D03*
X872366Y-408619D03*
X868366Y-408619D03*
X860366Y-408619D03*
X864366Y-408619D03*
X856366Y-408619D03*
X852366Y-408619D03*
X848366Y-408619D03*
X840366Y-408619D03*
X844366Y-408619D03*
D19*
X833766Y-415219D03*
X833766Y-419219D03*
X833766Y-423219D03*
X833766Y-427219D03*
X833766Y-431219D03*
X833766Y-435219D03*
X833766Y-439219D03*
X833766Y-443219D03*
X833766Y-447219D03*
X833766Y-451219D03*
X833766Y-455219D03*
X833766Y-459219D03*
D20*
X850866Y-425719D03*
X850866Y-448719D03*
X873866Y-448719D03*
X873866Y-425719D03*
D12*
X822476Y-456000D03*
X825778Y-456000D03*
X814476Y-456000D03*
X817778Y-456000D03*
D10*
X906919Y-713292D03*
X906919Y-716594D03*
D11*
X852203Y-624437D03*
X863803Y-624437D03*
D10*
X852337Y-713839D03*
X852337Y-717141D03*
X840291Y-712297D03*
X840291Y-715599D03*
D12*
X826635Y-630685D03*
X823333Y-630685D03*
D13*
X823940Y-689432D03*
X818940Y-689432D03*
D14*
X898791Y-630172D03*
X898791Y-623672D03*
D15*
X864091Y-604048D03*
X864091Y-592448D03*
D18*
X860366Y-705819D03*
X856366Y-705819D03*
X852366Y-705819D03*
X848366Y-705819D03*
X844366Y-705819D03*
X840366Y-705819D03*
X864366Y-705819D03*
X868366Y-705819D03*
X872366Y-705819D03*
X876366Y-705819D03*
X880366Y-705819D03*
X884366Y-705819D03*
D19*
X890966Y-699219D03*
X890966Y-695219D03*
X890966Y-691219D03*
X890966Y-687219D03*
X890966Y-683219D03*
X890966Y-679219D03*
X890966Y-675219D03*
X890966Y-671219D03*
X890966Y-667219D03*
X890966Y-663219D03*
X890966Y-659219D03*
X890966Y-655219D03*
D18*
X884366Y-648619D03*
X880366Y-648619D03*
X876366Y-648619D03*
X872366Y-648619D03*
X868366Y-648619D03*
X860366Y-648619D03*
X864366Y-648619D03*
X856366Y-648619D03*
X852366Y-648619D03*
X848366Y-648619D03*
X840366Y-648619D03*
X844366Y-648619D03*
D19*
X833766Y-655219D03*
X833766Y-659219D03*
X833766Y-663219D03*
X833766Y-667219D03*
X833766Y-671219D03*
X833766Y-675219D03*
X833766Y-679219D03*
X833766Y-683219D03*
X833766Y-687219D03*
X833766Y-691219D03*
X833766Y-695219D03*
X833766Y-699219D03*
D20*
X850866Y-665719D03*
X850866Y-688719D03*
X873866Y-688719D03*
X873866Y-665719D03*
D12*
X823976Y-695500D03*
X827278Y-695500D03*
X816476Y-696000D03*
X819778Y-696000D03*
D10*
X906919Y-953292D03*
X906919Y-956594D03*
D11*
X852203Y-864437D03*
X863803Y-864437D03*
D10*
X852337Y-953839D03*
X852337Y-957141D03*
X840291Y-952297D03*
X840291Y-955599D03*
D12*
X826635Y-870685D03*
X823333Y-870685D03*
D13*
X823940Y-929432D03*
X818940Y-929432D03*
D14*
X821791Y-956172D03*
X821791Y-949672D03*
D15*
X865091Y-825548D03*
X865091Y-813948D03*
D16*
X888000Y-811500D03*
X888000Y-801000D03*
D17*
X990524Y-765530D03*
X1005524Y-765530D03*
D16*
X916611Y-812378D03*
X906111Y-812378D03*
D18*
X860366Y-945819D03*
X856366Y-945819D03*
X852366Y-945819D03*
X848366Y-945819D03*
X844366Y-945819D03*
X840366Y-945819D03*
X864366Y-945819D03*
X868366Y-945819D03*
X872366Y-945819D03*
X876366Y-945819D03*
X880366Y-945819D03*
X884366Y-945819D03*
D19*
X890966Y-939219D03*
X890966Y-935219D03*
X890966Y-931219D03*
X890966Y-927219D03*
X890966Y-923219D03*
X890966Y-919219D03*
X890966Y-915219D03*
X890966Y-911219D03*
X890966Y-907219D03*
X890966Y-903219D03*
X890966Y-899219D03*
X890966Y-895219D03*
D18*
X884366Y-888619D03*
X880366Y-888619D03*
X876366Y-888619D03*
X872366Y-888619D03*
X868366Y-888619D03*
X860366Y-888619D03*
X864366Y-888619D03*
X856366Y-888619D03*
X852366Y-888619D03*
X848366Y-888619D03*
X840366Y-888619D03*
X844366Y-888619D03*
D19*
X833766Y-895219D03*
X833766Y-899219D03*
X833766Y-903219D03*
X833766Y-907219D03*
X833766Y-911219D03*
X833766Y-915219D03*
X833766Y-919219D03*
X833766Y-923219D03*
X833766Y-927219D03*
X833766Y-931219D03*
X833766Y-935219D03*
X833766Y-939219D03*
D20*
X850866Y-905719D03*
X850866Y-928719D03*
X873866Y-928719D03*
X873866Y-905719D03*
D10*
X1176919Y6708D03*
X1176919Y3406D03*
D11*
X1122203Y95563D03*
X1133803Y95563D03*
D10*
X1122337Y6161D03*
X1122337Y2859D03*
X1110291Y7703D03*
X1110291Y4401D03*
D12*
X1096635Y89315D03*
X1093333Y89315D03*
D13*
X1093940Y30568D03*
X1088940Y30568D03*
D14*
X1091791Y3828D03*
X1091791Y10328D03*
D15*
X1135091Y134452D03*
X1135091Y146052D03*
D16*
X1158000Y148500D03*
X1158000Y159000D03*
D17*
X1260524Y194470D03*
X1275524Y194470D03*
D16*
X1186611Y147622D03*
X1176111Y147622D03*
D18*
X1130366Y14181D03*
X1126366Y14181D03*
X1122366Y14181D03*
X1118366Y14181D03*
X1114366Y14181D03*
X1110366Y14181D03*
X1134366Y14181D03*
X1138366Y14181D03*
X1142366Y14181D03*
X1146366Y14181D03*
X1150366Y14181D03*
X1154366Y14181D03*
D19*
X1160966Y20781D03*
X1160966Y24781D03*
X1160966Y28781D03*
X1160966Y32781D03*
X1160966Y36781D03*
X1160966Y40781D03*
X1160966Y44781D03*
X1160966Y48781D03*
X1160966Y52781D03*
X1160966Y56781D03*
X1160966Y60781D03*
X1160966Y64781D03*
D18*
X1154366Y71381D03*
X1150366Y71381D03*
X1146366Y71381D03*
X1142366Y71381D03*
X1138366Y71381D03*
X1130366Y71381D03*
X1134366Y71381D03*
X1126366Y71381D03*
X1122366Y71381D03*
X1118366Y71381D03*
X1110366Y71381D03*
X1114366Y71381D03*
D19*
X1103766Y64781D03*
X1103766Y60781D03*
X1103766Y56781D03*
X1103766Y52781D03*
X1103766Y48781D03*
X1103766Y44781D03*
X1103766Y40781D03*
X1103766Y36781D03*
X1103766Y32781D03*
X1103766Y28781D03*
X1103766Y24781D03*
X1103766Y20781D03*
D20*
X1120866Y54281D03*
X1120866Y31281D03*
X1143866Y31281D03*
X1143866Y54281D03*
D10*
X1176919Y-233292D03*
X1176919Y-236594D03*
D11*
X1122203Y-144437D03*
X1133803Y-144437D03*
D10*
X1122337Y-233839D03*
X1122337Y-237141D03*
X1110291Y-232297D03*
X1110291Y-235599D03*
D12*
X1096635Y-150685D03*
X1093333Y-150685D03*
D13*
X1093940Y-209432D03*
X1088940Y-209432D03*
D14*
X1091791Y-236172D03*
X1091791Y-229672D03*
D15*
X1134091Y-124048D03*
X1134091Y-112448D03*
D18*
X1130366Y-225819D03*
X1126366Y-225819D03*
X1122366Y-225819D03*
X1118366Y-225819D03*
X1114366Y-225819D03*
X1110366Y-225819D03*
X1134366Y-225819D03*
X1138366Y-225819D03*
X1142366Y-225819D03*
X1146366Y-225819D03*
X1150366Y-225819D03*
X1154366Y-225819D03*
D19*
X1160966Y-219219D03*
X1160966Y-215219D03*
X1160966Y-211219D03*
X1160966Y-207219D03*
X1160966Y-203219D03*
X1160966Y-199219D03*
X1160966Y-195219D03*
X1160966Y-191219D03*
X1160966Y-187219D03*
X1160966Y-183219D03*
X1160966Y-179219D03*
X1160966Y-175219D03*
D18*
X1154366Y-168619D03*
X1150366Y-168619D03*
X1146366Y-168619D03*
X1142366Y-168619D03*
X1138366Y-168619D03*
X1130366Y-168619D03*
X1134366Y-168619D03*
X1126366Y-168619D03*
X1122366Y-168619D03*
X1118366Y-168619D03*
X1110366Y-168619D03*
X1114366Y-168619D03*
D19*
X1103766Y-175219D03*
X1103766Y-179219D03*
X1103766Y-183219D03*
X1103766Y-187219D03*
X1103766Y-191219D03*
X1103766Y-195219D03*
X1103766Y-199219D03*
X1103766Y-203219D03*
X1103766Y-207219D03*
X1103766Y-211219D03*
X1103766Y-215219D03*
X1103766Y-219219D03*
D20*
X1120866Y-185719D03*
X1120866Y-208719D03*
X1143866Y-208719D03*
X1143866Y-185719D03*
D10*
X1176919Y-473292D03*
X1176919Y-476594D03*
D11*
X1122203Y-384437D03*
X1133803Y-384437D03*
D10*
X1122337Y-473839D03*
X1122337Y-477141D03*
X1110291Y-472297D03*
X1110291Y-475599D03*
D12*
X1096635Y-390685D03*
X1093333Y-390685D03*
D13*
X1093940Y-449432D03*
X1088940Y-449432D03*
D14*
X1169791Y-390172D03*
X1169791Y-383672D03*
D15*
X1135091Y-345548D03*
X1135091Y-333948D03*
D16*
X1158000Y-331500D03*
X1158000Y-321000D03*
D17*
X1260524Y-285530D03*
X1275524Y-285530D03*
D16*
X1186611Y-332378D03*
X1176111Y-332378D03*
D18*
X1130366Y-465819D03*
X1126366Y-465819D03*
X1122366Y-465819D03*
X1118366Y-465819D03*
X1114366Y-465819D03*
X1110366Y-465819D03*
X1134366Y-465819D03*
X1138366Y-465819D03*
X1142366Y-465819D03*
X1146366Y-465819D03*
X1150366Y-465819D03*
X1154366Y-465819D03*
D19*
X1160966Y-459219D03*
X1160966Y-455219D03*
X1160966Y-451219D03*
X1160966Y-447219D03*
X1160966Y-443219D03*
X1160966Y-439219D03*
X1160966Y-435219D03*
X1160966Y-431219D03*
X1160966Y-427219D03*
X1160966Y-423219D03*
X1160966Y-419219D03*
X1160966Y-415219D03*
D18*
X1154366Y-408619D03*
X1150366Y-408619D03*
X1146366Y-408619D03*
X1142366Y-408619D03*
X1138366Y-408619D03*
X1130366Y-408619D03*
X1134366Y-408619D03*
X1126366Y-408619D03*
X1122366Y-408619D03*
X1118366Y-408619D03*
X1110366Y-408619D03*
X1114366Y-408619D03*
D19*
X1103766Y-415219D03*
X1103766Y-419219D03*
X1103766Y-423219D03*
X1103766Y-427219D03*
X1103766Y-431219D03*
X1103766Y-435219D03*
X1103766Y-439219D03*
X1103766Y-443219D03*
X1103766Y-447219D03*
X1103766Y-451219D03*
X1103766Y-455219D03*
X1103766Y-459219D03*
D20*
X1120866Y-425719D03*
X1120866Y-448719D03*
X1143866Y-448719D03*
X1143866Y-425719D03*
D12*
X1092476Y-456000D03*
X1095778Y-456000D03*
X1084476Y-456000D03*
X1087778Y-456000D03*
D10*
X1176919Y-713292D03*
X1176919Y-716594D03*
D11*
X1122203Y-624437D03*
X1133803Y-624437D03*
D10*
X1122337Y-713839D03*
X1122337Y-717141D03*
X1110291Y-712297D03*
X1110291Y-715599D03*
D12*
X1096635Y-630685D03*
X1093333Y-630685D03*
D13*
X1093940Y-689432D03*
X1088940Y-689432D03*
D14*
X1168791Y-630172D03*
X1168791Y-623672D03*
D15*
X1134091Y-604048D03*
X1134091Y-592448D03*
D18*
X1130366Y-705819D03*
X1126366Y-705819D03*
X1122366Y-705819D03*
X1118366Y-705819D03*
X1114366Y-705819D03*
X1110366Y-705819D03*
X1134366Y-705819D03*
X1138366Y-705819D03*
X1142366Y-705819D03*
X1146366Y-705819D03*
X1150366Y-705819D03*
X1154366Y-705819D03*
D19*
X1160966Y-699219D03*
X1160966Y-695219D03*
X1160966Y-691219D03*
X1160966Y-687219D03*
X1160966Y-683219D03*
X1160966Y-679219D03*
X1160966Y-675219D03*
X1160966Y-671219D03*
X1160966Y-667219D03*
X1160966Y-663219D03*
X1160966Y-659219D03*
X1160966Y-655219D03*
D18*
X1154366Y-648619D03*
X1150366Y-648619D03*
X1146366Y-648619D03*
X1142366Y-648619D03*
X1138366Y-648619D03*
X1130366Y-648619D03*
X1134366Y-648619D03*
X1126366Y-648619D03*
X1122366Y-648619D03*
X1118366Y-648619D03*
X1110366Y-648619D03*
X1114366Y-648619D03*
D19*
X1103766Y-655219D03*
X1103766Y-659219D03*
X1103766Y-663219D03*
X1103766Y-667219D03*
X1103766Y-671219D03*
X1103766Y-675219D03*
X1103766Y-679219D03*
X1103766Y-683219D03*
X1103766Y-687219D03*
X1103766Y-691219D03*
X1103766Y-695219D03*
X1103766Y-699219D03*
D20*
X1120866Y-665719D03*
X1120866Y-688719D03*
X1143866Y-688719D03*
X1143866Y-665719D03*
D12*
X1093976Y-695500D03*
X1097278Y-695500D03*
X1086476Y-696000D03*
X1089778Y-696000D03*
D10*
X1176919Y-953292D03*
X1176919Y-956594D03*
D11*
X1122203Y-864437D03*
X1133803Y-864437D03*
D10*
X1122337Y-953839D03*
X1122337Y-957141D03*
X1110291Y-952297D03*
X1110291Y-955599D03*
D12*
X1096635Y-870685D03*
X1093333Y-870685D03*
D13*
X1093940Y-929432D03*
X1088940Y-929432D03*
D14*
X1091791Y-956172D03*
X1091791Y-949672D03*
D15*
X1135091Y-825548D03*
X1135091Y-813948D03*
D16*
X1158000Y-811500D03*
X1158000Y-801000D03*
D17*
X1260524Y-765530D03*
X1275524Y-765530D03*
D16*
X1186611Y-812378D03*
X1176111Y-812378D03*
D18*
X1130366Y-945819D03*
X1126366Y-945819D03*
X1122366Y-945819D03*
X1118366Y-945819D03*
X1114366Y-945819D03*
X1110366Y-945819D03*
X1134366Y-945819D03*
X1138366Y-945819D03*
X1142366Y-945819D03*
X1146366Y-945819D03*
X1150366Y-945819D03*
X1154366Y-945819D03*
D19*
X1160966Y-939219D03*
X1160966Y-935219D03*
X1160966Y-931219D03*
X1160966Y-927219D03*
X1160966Y-923219D03*
X1160966Y-919219D03*
X1160966Y-915219D03*
X1160966Y-911219D03*
X1160966Y-907219D03*
X1160966Y-903219D03*
X1160966Y-899219D03*
X1160966Y-895219D03*
D18*
X1154366Y-888619D03*
X1150366Y-888619D03*
X1146366Y-888619D03*
X1142366Y-888619D03*
X1138366Y-888619D03*
X1130366Y-888619D03*
X1134366Y-888619D03*
X1126366Y-888619D03*
X1122366Y-888619D03*
X1118366Y-888619D03*
X1110366Y-888619D03*
X1114366Y-888619D03*
D19*
X1103766Y-895219D03*
X1103766Y-899219D03*
X1103766Y-903219D03*
X1103766Y-907219D03*
X1103766Y-911219D03*
X1103766Y-915219D03*
X1103766Y-919219D03*
X1103766Y-923219D03*
X1103766Y-927219D03*
X1103766Y-931219D03*
X1103766Y-935219D03*
X1103766Y-939219D03*
D20*
X1120866Y-905719D03*
X1120866Y-928719D03*
X1143866Y-928719D03*
X1143866Y-905719D03*
M02*
