G04 EAGLE Gerber X2 export*
%TF.Part,Single*%
%TF.FileFunction,Legend,Top,1*%
%TF.FilePolarity,Positive*%
%TF.GenerationSoftware,Autodesk,EAGLE,9.0.0*%
%TF.CreationDate,2018-06-19T20:39:02Z*%
G75*
%MOMM*%
%FSLAX34Y34*%
%LPD*%
%AMOC8*
5,1,8,0,0,1.08239X$1,22.5*%
G01*
%ADD10C,0.050800*%
%ADD11C,0.025400*%
%ADD12C,0.000000*%
%ADD13C,0.152400*%


D10*
X175254Y35842D02*
X177117Y30254D01*
X178979Y35842D01*
X181234Y35842D02*
X181234Y30254D01*
X181234Y35842D02*
X182786Y35842D01*
X182862Y35840D01*
X182938Y35835D01*
X183014Y35825D01*
X183089Y35812D01*
X183163Y35795D01*
X183237Y35775D01*
X183309Y35751D01*
X183380Y35724D01*
X183450Y35693D01*
X183518Y35659D01*
X183584Y35621D01*
X183648Y35580D01*
X183711Y35537D01*
X183771Y35490D01*
X183828Y35440D01*
X183883Y35387D01*
X183936Y35332D01*
X183986Y35275D01*
X184033Y35215D01*
X184076Y35152D01*
X184117Y35088D01*
X184155Y35022D01*
X184189Y34954D01*
X184220Y34884D01*
X184247Y34813D01*
X184271Y34740D01*
X184291Y34667D01*
X184308Y34593D01*
X184321Y34518D01*
X184331Y34442D01*
X184336Y34366D01*
X184338Y34290D01*
X184338Y31806D01*
X184336Y31727D01*
X184330Y31649D01*
X184320Y31571D01*
X184306Y31494D01*
X184288Y31417D01*
X184267Y31341D01*
X184241Y31267D01*
X184212Y31194D01*
X184179Y31123D01*
X184143Y31053D01*
X184103Y30985D01*
X184060Y30919D01*
X184013Y30856D01*
X183964Y30795D01*
X183911Y30737D01*
X183855Y30681D01*
X183797Y30628D01*
X183736Y30579D01*
X183673Y30532D01*
X183607Y30489D01*
X183539Y30449D01*
X183470Y30413D01*
X183398Y30380D01*
X183325Y30351D01*
X183251Y30325D01*
X183175Y30304D01*
X183098Y30286D01*
X183021Y30272D01*
X182943Y30262D01*
X182865Y30256D01*
X182786Y30254D01*
X181234Y30254D01*
X187086Y30254D02*
X187086Y35842D01*
X188638Y35842D01*
X188714Y35840D01*
X188790Y35835D01*
X188866Y35825D01*
X188941Y35812D01*
X189015Y35795D01*
X189089Y35775D01*
X189161Y35751D01*
X189232Y35724D01*
X189302Y35693D01*
X189370Y35659D01*
X189436Y35621D01*
X189500Y35580D01*
X189563Y35537D01*
X189623Y35490D01*
X189680Y35440D01*
X189735Y35387D01*
X189788Y35332D01*
X189838Y35275D01*
X189885Y35215D01*
X189928Y35152D01*
X189969Y35088D01*
X190007Y35022D01*
X190041Y34954D01*
X190072Y34884D01*
X190099Y34813D01*
X190123Y34740D01*
X190143Y34667D01*
X190160Y34593D01*
X190173Y34518D01*
X190183Y34442D01*
X190188Y34366D01*
X190190Y34290D01*
X190190Y31806D01*
X190188Y31727D01*
X190182Y31649D01*
X190172Y31571D01*
X190158Y31494D01*
X190140Y31417D01*
X190119Y31341D01*
X190093Y31267D01*
X190064Y31194D01*
X190031Y31123D01*
X189995Y31053D01*
X189955Y30985D01*
X189912Y30919D01*
X189865Y30856D01*
X189816Y30795D01*
X189763Y30737D01*
X189707Y30681D01*
X189649Y30628D01*
X189588Y30579D01*
X189525Y30532D01*
X189459Y30489D01*
X189391Y30449D01*
X189322Y30413D01*
X189250Y30380D01*
X189177Y30351D01*
X189103Y30325D01*
X189027Y30304D01*
X188950Y30286D01*
X188873Y30272D01*
X188795Y30262D01*
X188717Y30256D01*
X188638Y30254D01*
X187086Y30254D01*
X133358Y33358D02*
X132427Y33358D01*
X133358Y33358D02*
X133358Y30254D01*
X131496Y30254D01*
X131426Y30256D01*
X131357Y30262D01*
X131288Y30272D01*
X131220Y30285D01*
X131152Y30303D01*
X131086Y30324D01*
X131021Y30349D01*
X130957Y30377D01*
X130895Y30409D01*
X130835Y30444D01*
X130777Y30483D01*
X130722Y30525D01*
X130668Y30570D01*
X130618Y30618D01*
X130570Y30668D01*
X130525Y30722D01*
X130483Y30777D01*
X130444Y30835D01*
X130409Y30895D01*
X130377Y30957D01*
X130349Y31021D01*
X130324Y31086D01*
X130303Y31152D01*
X130285Y31220D01*
X130272Y31288D01*
X130262Y31357D01*
X130256Y31426D01*
X130254Y31496D01*
X130254Y34600D01*
X130256Y34670D01*
X130262Y34739D01*
X130272Y34808D01*
X130285Y34876D01*
X130303Y34944D01*
X130324Y35010D01*
X130349Y35075D01*
X130377Y35139D01*
X130409Y35201D01*
X130444Y35261D01*
X130483Y35319D01*
X130525Y35374D01*
X130570Y35428D01*
X130618Y35478D01*
X130668Y35526D01*
X130722Y35571D01*
X130777Y35613D01*
X130835Y35652D01*
X130895Y35687D01*
X130957Y35719D01*
X131021Y35747D01*
X131086Y35772D01*
X131152Y35793D01*
X131220Y35811D01*
X131288Y35824D01*
X131357Y35834D01*
X131426Y35840D01*
X131496Y35842D01*
X133358Y35842D01*
X136106Y35842D02*
X136106Y30254D01*
X139211Y30254D02*
X136106Y35842D01*
X139211Y35842D02*
X139211Y30254D01*
X141958Y30254D02*
X141958Y35842D01*
X143510Y35842D01*
X143586Y35840D01*
X143662Y35835D01*
X143738Y35825D01*
X143813Y35812D01*
X143887Y35795D01*
X143961Y35775D01*
X144033Y35751D01*
X144104Y35724D01*
X144174Y35693D01*
X144242Y35659D01*
X144308Y35621D01*
X144372Y35580D01*
X144435Y35537D01*
X144495Y35490D01*
X144552Y35440D01*
X144607Y35387D01*
X144660Y35332D01*
X144710Y35275D01*
X144757Y35215D01*
X144800Y35152D01*
X144841Y35088D01*
X144879Y35022D01*
X144913Y34954D01*
X144944Y34884D01*
X144971Y34813D01*
X144995Y34740D01*
X145015Y34667D01*
X145032Y34593D01*
X145045Y34518D01*
X145055Y34442D01*
X145060Y34366D01*
X145062Y34290D01*
X145063Y34290D02*
X145063Y31806D01*
X145062Y31806D02*
X145060Y31727D01*
X145054Y31649D01*
X145044Y31571D01*
X145030Y31494D01*
X145012Y31417D01*
X144991Y31341D01*
X144965Y31267D01*
X144936Y31194D01*
X144903Y31123D01*
X144867Y31053D01*
X144827Y30985D01*
X144784Y30919D01*
X144737Y30856D01*
X144688Y30795D01*
X144635Y30737D01*
X144579Y30681D01*
X144521Y30628D01*
X144460Y30579D01*
X144397Y30532D01*
X144331Y30489D01*
X144263Y30449D01*
X144194Y30413D01*
X144122Y30380D01*
X144049Y30351D01*
X143975Y30325D01*
X143899Y30304D01*
X143822Y30286D01*
X143745Y30272D01*
X143667Y30262D01*
X143589Y30256D01*
X143510Y30254D01*
X141958Y30254D01*
D11*
X-53321Y190748D02*
X-53323Y190699D01*
X-53329Y190651D01*
X-53338Y190603D01*
X-53351Y190556D01*
X-53368Y190510D01*
X-53389Y190466D01*
X-53413Y190424D01*
X-53440Y190383D01*
X-53470Y190345D01*
X-53503Y190309D01*
X-53539Y190276D01*
X-53577Y190246D01*
X-53618Y190218D01*
X-53660Y190195D01*
X-53704Y190174D01*
X-53750Y190157D01*
X-53797Y190144D01*
X-53845Y190135D01*
X-53893Y190129D01*
X-53942Y190127D01*
X-54011Y190129D01*
X-54080Y190134D01*
X-54148Y190143D01*
X-54216Y190156D01*
X-54283Y190172D01*
X-54350Y190192D01*
X-54415Y190215D01*
X-54478Y190242D01*
X-54541Y190271D01*
X-54601Y190305D01*
X-54660Y190341D01*
X-54717Y190380D01*
X-54771Y190422D01*
X-54824Y190467D01*
X-54874Y190515D01*
X-54796Y192300D02*
X-54794Y192349D01*
X-54788Y192397D01*
X-54779Y192445D01*
X-54766Y192492D01*
X-54749Y192538D01*
X-54728Y192582D01*
X-54704Y192624D01*
X-54677Y192665D01*
X-54647Y192703D01*
X-54614Y192739D01*
X-54578Y192772D01*
X-54540Y192802D01*
X-54499Y192829D01*
X-54457Y192853D01*
X-54413Y192874D01*
X-54367Y192891D01*
X-54320Y192904D01*
X-54272Y192913D01*
X-54224Y192919D01*
X-54175Y192921D01*
X-54113Y192919D01*
X-54050Y192914D01*
X-53989Y192906D01*
X-53927Y192894D01*
X-53867Y192879D01*
X-53807Y192861D01*
X-53748Y192840D01*
X-53691Y192816D01*
X-53635Y192788D01*
X-53580Y192758D01*
X-53528Y192724D01*
X-53477Y192688D01*
X-54485Y191756D02*
X-54525Y191782D01*
X-54562Y191810D01*
X-54597Y191840D01*
X-54630Y191874D01*
X-54661Y191909D01*
X-54688Y191947D01*
X-54713Y191987D01*
X-54735Y192028D01*
X-54753Y192071D01*
X-54768Y192116D01*
X-54780Y192161D01*
X-54789Y192207D01*
X-54794Y192253D01*
X-54796Y192300D01*
X-53631Y191292D02*
X-53591Y191266D01*
X-53554Y191238D01*
X-53519Y191208D01*
X-53486Y191174D01*
X-53455Y191139D01*
X-53428Y191101D01*
X-53403Y191061D01*
X-53381Y191020D01*
X-53363Y190977D01*
X-53348Y190932D01*
X-53336Y190887D01*
X-53327Y190841D01*
X-53322Y190795D01*
X-53320Y190748D01*
X-53631Y191291D02*
X-54485Y191757D01*
X-52321Y192921D02*
X-51700Y190127D01*
X-51079Y191990D01*
X-50459Y190127D01*
X-49838Y192921D01*
X-48655Y192921D02*
X-48655Y190127D01*
X-48655Y192921D02*
X-47879Y192921D01*
X-47824Y192919D01*
X-47769Y192913D01*
X-47714Y192903D01*
X-47660Y192890D01*
X-47608Y192872D01*
X-47557Y192851D01*
X-47507Y192826D01*
X-47459Y192798D01*
X-47414Y192766D01*
X-47371Y192731D01*
X-47330Y192694D01*
X-47293Y192653D01*
X-47258Y192610D01*
X-47226Y192565D01*
X-47198Y192517D01*
X-47173Y192467D01*
X-47152Y192416D01*
X-47134Y192364D01*
X-47121Y192310D01*
X-47111Y192255D01*
X-47105Y192200D01*
X-47103Y192145D01*
X-47103Y190903D01*
X-47105Y190848D01*
X-47111Y190793D01*
X-47121Y190738D01*
X-47134Y190684D01*
X-47152Y190632D01*
X-47173Y190581D01*
X-47198Y190531D01*
X-47226Y190483D01*
X-47258Y190438D01*
X-47293Y190395D01*
X-47330Y190354D01*
X-47371Y190317D01*
X-47414Y190282D01*
X-47459Y190250D01*
X-47507Y190222D01*
X-47557Y190197D01*
X-47608Y190176D01*
X-47660Y190158D01*
X-47714Y190145D01*
X-47769Y190135D01*
X-47824Y190129D01*
X-47879Y190127D01*
X-48655Y190127D01*
X-45593Y190127D02*
X-45593Y192921D01*
X-45903Y190127D02*
X-45283Y190127D01*
X-45283Y192921D02*
X-45903Y192921D01*
X-44175Y192145D02*
X-44175Y190903D01*
X-44174Y192145D02*
X-44172Y192200D01*
X-44166Y192255D01*
X-44156Y192310D01*
X-44143Y192364D01*
X-44125Y192416D01*
X-44104Y192467D01*
X-44079Y192517D01*
X-44051Y192565D01*
X-44019Y192610D01*
X-43984Y192653D01*
X-43947Y192694D01*
X-43906Y192731D01*
X-43863Y192766D01*
X-43818Y192798D01*
X-43770Y192826D01*
X-43720Y192851D01*
X-43669Y192872D01*
X-43617Y192890D01*
X-43563Y192903D01*
X-43508Y192913D01*
X-43453Y192919D01*
X-43398Y192921D01*
X-43343Y192919D01*
X-43288Y192913D01*
X-43233Y192903D01*
X-43179Y192890D01*
X-43127Y192872D01*
X-43076Y192851D01*
X-43026Y192826D01*
X-42978Y192798D01*
X-42933Y192766D01*
X-42890Y192731D01*
X-42849Y192694D01*
X-42812Y192653D01*
X-42777Y192610D01*
X-42745Y192565D01*
X-42717Y192517D01*
X-42692Y192467D01*
X-42671Y192416D01*
X-42653Y192364D01*
X-42640Y192310D01*
X-42630Y192255D01*
X-42624Y192200D01*
X-42622Y192145D01*
X-42622Y190903D01*
X-42624Y190848D01*
X-42630Y190793D01*
X-42640Y190738D01*
X-42653Y190684D01*
X-42671Y190632D01*
X-42692Y190581D01*
X-42717Y190531D01*
X-42745Y190483D01*
X-42777Y190438D01*
X-42812Y190395D01*
X-42849Y190354D01*
X-42890Y190317D01*
X-42933Y190282D01*
X-42978Y190250D01*
X-43026Y190222D01*
X-43076Y190197D01*
X-43127Y190176D01*
X-43179Y190158D01*
X-43233Y190145D01*
X-43288Y190135D01*
X-43343Y190129D01*
X-43398Y190127D01*
X-43453Y190129D01*
X-43508Y190135D01*
X-43563Y190145D01*
X-43617Y190158D01*
X-43669Y190176D01*
X-43720Y190197D01*
X-43770Y190222D01*
X-43818Y190250D01*
X-43863Y190282D01*
X-43906Y190317D01*
X-43947Y190354D01*
X-43984Y190395D01*
X-44019Y190438D01*
X-44051Y190483D01*
X-44079Y190531D01*
X-44104Y190581D01*
X-44125Y190632D01*
X-44143Y190684D01*
X-44156Y190738D01*
X-44166Y190793D01*
X-44172Y190848D01*
X-44174Y190903D01*
X-53321Y160748D02*
X-53323Y160699D01*
X-53329Y160651D01*
X-53338Y160603D01*
X-53351Y160556D01*
X-53368Y160510D01*
X-53389Y160466D01*
X-53413Y160424D01*
X-53440Y160383D01*
X-53470Y160345D01*
X-53503Y160309D01*
X-53539Y160276D01*
X-53577Y160246D01*
X-53618Y160218D01*
X-53660Y160195D01*
X-53704Y160174D01*
X-53750Y160157D01*
X-53797Y160144D01*
X-53845Y160135D01*
X-53893Y160129D01*
X-53942Y160127D01*
X-54011Y160129D01*
X-54080Y160134D01*
X-54148Y160143D01*
X-54216Y160156D01*
X-54283Y160172D01*
X-54350Y160192D01*
X-54415Y160215D01*
X-54478Y160242D01*
X-54541Y160271D01*
X-54601Y160305D01*
X-54660Y160341D01*
X-54717Y160380D01*
X-54771Y160422D01*
X-54824Y160467D01*
X-54874Y160515D01*
X-54796Y162300D02*
X-54794Y162349D01*
X-54788Y162397D01*
X-54779Y162445D01*
X-54766Y162492D01*
X-54749Y162538D01*
X-54728Y162582D01*
X-54704Y162624D01*
X-54677Y162665D01*
X-54647Y162703D01*
X-54614Y162739D01*
X-54578Y162772D01*
X-54540Y162802D01*
X-54499Y162829D01*
X-54457Y162853D01*
X-54413Y162874D01*
X-54367Y162891D01*
X-54320Y162904D01*
X-54272Y162913D01*
X-54224Y162919D01*
X-54175Y162921D01*
X-54113Y162919D01*
X-54050Y162914D01*
X-53989Y162906D01*
X-53927Y162894D01*
X-53867Y162879D01*
X-53807Y162861D01*
X-53748Y162840D01*
X-53691Y162816D01*
X-53635Y162788D01*
X-53580Y162758D01*
X-53528Y162724D01*
X-53477Y162688D01*
X-54485Y161756D02*
X-54525Y161782D01*
X-54562Y161810D01*
X-54597Y161840D01*
X-54630Y161874D01*
X-54661Y161909D01*
X-54688Y161947D01*
X-54713Y161987D01*
X-54735Y162028D01*
X-54753Y162071D01*
X-54768Y162116D01*
X-54780Y162161D01*
X-54789Y162207D01*
X-54794Y162253D01*
X-54796Y162300D01*
X-53631Y161292D02*
X-53591Y161266D01*
X-53554Y161238D01*
X-53519Y161208D01*
X-53486Y161174D01*
X-53455Y161139D01*
X-53428Y161101D01*
X-53403Y161061D01*
X-53381Y161020D01*
X-53363Y160977D01*
X-53348Y160932D01*
X-53336Y160887D01*
X-53327Y160841D01*
X-53322Y160795D01*
X-53320Y160748D01*
X-53631Y161291D02*
X-54485Y161757D01*
X-52321Y162921D02*
X-51700Y160127D01*
X-51079Y161990D01*
X-50459Y160127D01*
X-49838Y162921D01*
X-48655Y162921D02*
X-48655Y160127D01*
X-48655Y162921D02*
X-47879Y162921D01*
X-47824Y162919D01*
X-47769Y162913D01*
X-47714Y162903D01*
X-47660Y162890D01*
X-47608Y162872D01*
X-47557Y162851D01*
X-47507Y162826D01*
X-47459Y162798D01*
X-47414Y162766D01*
X-47371Y162731D01*
X-47330Y162694D01*
X-47293Y162653D01*
X-47258Y162610D01*
X-47226Y162565D01*
X-47198Y162517D01*
X-47173Y162467D01*
X-47152Y162416D01*
X-47134Y162364D01*
X-47121Y162310D01*
X-47111Y162255D01*
X-47105Y162200D01*
X-47103Y162145D01*
X-47103Y160903D01*
X-47105Y160848D01*
X-47111Y160793D01*
X-47121Y160738D01*
X-47134Y160684D01*
X-47152Y160632D01*
X-47173Y160581D01*
X-47198Y160531D01*
X-47226Y160483D01*
X-47258Y160438D01*
X-47293Y160395D01*
X-47330Y160354D01*
X-47371Y160317D01*
X-47414Y160282D01*
X-47459Y160250D01*
X-47507Y160222D01*
X-47557Y160197D01*
X-47608Y160176D01*
X-47660Y160158D01*
X-47714Y160145D01*
X-47769Y160135D01*
X-47824Y160129D01*
X-47879Y160127D01*
X-48655Y160127D01*
X-45208Y160127D02*
X-44587Y160127D01*
X-45208Y160127D02*
X-45257Y160129D01*
X-45305Y160135D01*
X-45353Y160144D01*
X-45400Y160157D01*
X-45446Y160174D01*
X-45490Y160195D01*
X-45532Y160219D01*
X-45573Y160246D01*
X-45611Y160276D01*
X-45647Y160309D01*
X-45680Y160345D01*
X-45710Y160383D01*
X-45737Y160424D01*
X-45761Y160466D01*
X-45782Y160510D01*
X-45799Y160556D01*
X-45812Y160603D01*
X-45821Y160651D01*
X-45827Y160699D01*
X-45829Y160748D01*
X-45829Y162300D01*
X-45827Y162349D01*
X-45821Y162397D01*
X-45812Y162445D01*
X-45799Y162492D01*
X-45782Y162538D01*
X-45761Y162582D01*
X-45737Y162624D01*
X-45710Y162665D01*
X-45680Y162703D01*
X-45647Y162739D01*
X-45611Y162772D01*
X-45573Y162802D01*
X-45532Y162829D01*
X-45490Y162853D01*
X-45446Y162874D01*
X-45400Y162891D01*
X-45353Y162904D01*
X-45305Y162913D01*
X-45257Y162919D01*
X-45208Y162921D01*
X-44587Y162921D01*
X-43438Y162921D02*
X-43438Y160127D01*
X-42196Y160127D01*
X-41024Y160127D02*
X-41024Y162921D01*
X-39472Y162921D02*
X-41024Y161214D01*
X-40403Y161834D02*
X-39472Y160127D01*
X-54873Y132921D02*
X-53942Y130127D01*
X-53010Y132921D01*
X-51883Y132921D02*
X-51883Y130127D01*
X-51883Y132921D02*
X-51107Y132921D01*
X-51052Y132919D01*
X-50997Y132913D01*
X-50942Y132903D01*
X-50888Y132890D01*
X-50836Y132872D01*
X-50785Y132851D01*
X-50735Y132826D01*
X-50687Y132798D01*
X-50642Y132766D01*
X-50599Y132731D01*
X-50558Y132694D01*
X-50521Y132653D01*
X-50486Y132610D01*
X-50454Y132565D01*
X-50426Y132517D01*
X-50401Y132467D01*
X-50380Y132416D01*
X-50362Y132364D01*
X-50349Y132310D01*
X-50339Y132255D01*
X-50333Y132200D01*
X-50331Y132145D01*
X-50331Y130903D01*
X-50333Y130848D01*
X-50339Y130793D01*
X-50349Y130738D01*
X-50362Y130684D01*
X-50380Y130632D01*
X-50401Y130581D01*
X-50426Y130531D01*
X-50454Y130483D01*
X-50486Y130438D01*
X-50521Y130395D01*
X-50558Y130354D01*
X-50599Y130317D01*
X-50642Y130282D01*
X-50687Y130250D01*
X-50735Y130222D01*
X-50785Y130197D01*
X-50836Y130176D01*
X-50888Y130158D01*
X-50942Y130145D01*
X-50997Y130135D01*
X-51052Y130129D01*
X-51107Y130127D01*
X-51883Y130127D01*
X-48957Y130127D02*
X-48957Y132921D01*
X-48181Y132921D01*
X-48126Y132919D01*
X-48071Y132913D01*
X-48016Y132903D01*
X-47962Y132890D01*
X-47910Y132872D01*
X-47859Y132851D01*
X-47809Y132826D01*
X-47761Y132798D01*
X-47716Y132766D01*
X-47673Y132731D01*
X-47632Y132694D01*
X-47595Y132653D01*
X-47560Y132610D01*
X-47528Y132565D01*
X-47500Y132517D01*
X-47475Y132467D01*
X-47454Y132416D01*
X-47436Y132364D01*
X-47423Y132310D01*
X-47413Y132255D01*
X-47407Y132200D01*
X-47405Y132145D01*
X-47405Y130903D01*
X-47407Y130848D01*
X-47413Y130793D01*
X-47423Y130738D01*
X-47436Y130684D01*
X-47454Y130632D01*
X-47475Y130581D01*
X-47500Y130531D01*
X-47528Y130483D01*
X-47560Y130438D01*
X-47595Y130395D01*
X-47632Y130354D01*
X-47673Y130317D01*
X-47716Y130282D01*
X-47761Y130250D01*
X-47809Y130222D01*
X-47859Y130197D01*
X-47910Y130176D01*
X-47962Y130158D01*
X-48016Y130145D01*
X-48071Y130135D01*
X-48126Y130129D01*
X-48181Y130127D01*
X-48957Y130127D01*
X-53321Y111679D02*
X-53786Y111679D01*
X-53321Y111679D02*
X-53321Y110127D01*
X-54252Y110127D01*
X-54301Y110129D01*
X-54349Y110135D01*
X-54397Y110144D01*
X-54444Y110157D01*
X-54490Y110174D01*
X-54534Y110195D01*
X-54576Y110219D01*
X-54617Y110246D01*
X-54655Y110276D01*
X-54691Y110309D01*
X-54724Y110345D01*
X-54754Y110383D01*
X-54781Y110424D01*
X-54805Y110466D01*
X-54826Y110510D01*
X-54843Y110556D01*
X-54856Y110603D01*
X-54865Y110651D01*
X-54871Y110699D01*
X-54873Y110748D01*
X-54873Y112300D01*
X-54871Y112349D01*
X-54865Y112397D01*
X-54856Y112445D01*
X-54843Y112492D01*
X-54826Y112538D01*
X-54805Y112582D01*
X-54781Y112624D01*
X-54754Y112665D01*
X-54724Y112703D01*
X-54691Y112739D01*
X-54655Y112772D01*
X-54617Y112802D01*
X-54576Y112829D01*
X-54534Y112853D01*
X-54490Y112874D01*
X-54444Y112891D01*
X-54397Y112904D01*
X-54349Y112913D01*
X-54301Y112919D01*
X-54252Y112921D01*
X-53321Y112921D01*
X-51947Y112921D02*
X-51947Y110127D01*
X-50395Y110127D02*
X-51947Y112921D01*
X-50395Y112921D02*
X-50395Y110127D01*
X-49021Y110127D02*
X-49021Y112921D01*
X-48245Y112921D01*
X-48190Y112919D01*
X-48135Y112913D01*
X-48080Y112903D01*
X-48026Y112890D01*
X-47974Y112872D01*
X-47923Y112851D01*
X-47873Y112826D01*
X-47825Y112798D01*
X-47780Y112766D01*
X-47737Y112731D01*
X-47696Y112694D01*
X-47659Y112653D01*
X-47624Y112610D01*
X-47592Y112565D01*
X-47564Y112517D01*
X-47539Y112467D01*
X-47518Y112416D01*
X-47500Y112364D01*
X-47487Y112310D01*
X-47477Y112255D01*
X-47471Y112200D01*
X-47469Y112145D01*
X-47469Y110903D01*
X-47471Y110848D01*
X-47477Y110793D01*
X-47487Y110738D01*
X-47500Y110684D01*
X-47518Y110632D01*
X-47539Y110581D01*
X-47564Y110531D01*
X-47592Y110483D01*
X-47624Y110438D01*
X-47659Y110395D01*
X-47696Y110354D01*
X-47737Y110317D01*
X-47780Y110282D01*
X-47825Y110250D01*
X-47873Y110222D01*
X-47923Y110197D01*
X-47974Y110176D01*
X-48026Y110158D01*
X-48080Y110145D01*
X-48135Y110135D01*
X-48190Y110129D01*
X-48245Y110127D01*
X-49021Y110127D01*
X-54873Y82921D02*
X-54873Y80127D01*
X-54873Y82921D02*
X-54097Y82921D01*
X-54042Y82919D01*
X-53987Y82913D01*
X-53932Y82903D01*
X-53878Y82890D01*
X-53826Y82872D01*
X-53775Y82851D01*
X-53725Y82826D01*
X-53677Y82798D01*
X-53632Y82766D01*
X-53589Y82731D01*
X-53548Y82694D01*
X-53511Y82653D01*
X-53476Y82610D01*
X-53444Y82565D01*
X-53416Y82517D01*
X-53391Y82467D01*
X-53370Y82416D01*
X-53352Y82364D01*
X-53339Y82310D01*
X-53329Y82255D01*
X-53323Y82200D01*
X-53321Y82145D01*
X-53323Y82090D01*
X-53329Y82035D01*
X-53339Y81980D01*
X-53352Y81926D01*
X-53370Y81874D01*
X-53391Y81823D01*
X-53416Y81773D01*
X-53444Y81725D01*
X-53476Y81680D01*
X-53511Y81637D01*
X-53548Y81596D01*
X-53589Y81559D01*
X-53632Y81524D01*
X-53677Y81492D01*
X-53725Y81464D01*
X-53775Y81439D01*
X-53826Y81418D01*
X-53878Y81400D01*
X-53932Y81387D01*
X-53987Y81377D01*
X-54042Y81371D01*
X-54097Y81369D01*
X-54873Y81369D01*
X-53942Y81369D02*
X-53321Y80127D01*
X-52051Y80127D02*
X-50809Y80127D01*
X-52051Y80127D02*
X-52051Y82921D01*
X-50809Y82921D01*
X-51120Y81679D02*
X-52051Y81679D01*
X-48931Y80127D02*
X-48882Y80129D01*
X-48834Y80135D01*
X-48786Y80144D01*
X-48739Y80157D01*
X-48693Y80174D01*
X-48649Y80195D01*
X-48607Y80218D01*
X-48566Y80246D01*
X-48528Y80276D01*
X-48492Y80309D01*
X-48459Y80345D01*
X-48429Y80383D01*
X-48402Y80424D01*
X-48378Y80466D01*
X-48357Y80510D01*
X-48340Y80556D01*
X-48327Y80603D01*
X-48318Y80651D01*
X-48312Y80699D01*
X-48310Y80748D01*
X-48931Y80127D02*
X-49000Y80129D01*
X-49069Y80134D01*
X-49137Y80143D01*
X-49205Y80156D01*
X-49272Y80172D01*
X-49339Y80192D01*
X-49404Y80215D01*
X-49467Y80242D01*
X-49530Y80271D01*
X-49590Y80305D01*
X-49649Y80341D01*
X-49706Y80380D01*
X-49760Y80422D01*
X-49813Y80467D01*
X-49863Y80515D01*
X-49784Y82300D02*
X-49782Y82349D01*
X-49776Y82397D01*
X-49767Y82445D01*
X-49754Y82492D01*
X-49737Y82538D01*
X-49716Y82582D01*
X-49692Y82624D01*
X-49665Y82665D01*
X-49635Y82703D01*
X-49602Y82739D01*
X-49566Y82772D01*
X-49528Y82802D01*
X-49487Y82829D01*
X-49445Y82853D01*
X-49401Y82874D01*
X-49355Y82891D01*
X-49308Y82904D01*
X-49260Y82913D01*
X-49212Y82919D01*
X-49163Y82921D01*
X-49101Y82919D01*
X-49038Y82914D01*
X-48977Y82906D01*
X-48915Y82894D01*
X-48855Y82879D01*
X-48795Y82861D01*
X-48736Y82840D01*
X-48679Y82816D01*
X-48623Y82788D01*
X-48568Y82758D01*
X-48516Y82724D01*
X-48465Y82688D01*
X-49474Y81756D02*
X-49514Y81782D01*
X-49551Y81810D01*
X-49586Y81840D01*
X-49619Y81874D01*
X-49650Y81909D01*
X-49677Y81947D01*
X-49702Y81987D01*
X-49724Y82028D01*
X-49742Y82071D01*
X-49757Y82116D01*
X-49769Y82161D01*
X-49778Y82207D01*
X-49783Y82253D01*
X-49785Y82300D01*
X-48620Y81292D02*
X-48580Y81266D01*
X-48543Y81238D01*
X-48508Y81208D01*
X-48475Y81174D01*
X-48444Y81139D01*
X-48417Y81101D01*
X-48392Y81061D01*
X-48370Y81020D01*
X-48352Y80977D01*
X-48337Y80932D01*
X-48325Y80887D01*
X-48316Y80841D01*
X-48311Y80795D01*
X-48309Y80748D01*
X-48620Y81291D02*
X-49474Y81757D01*
X-47113Y80127D02*
X-45871Y80127D01*
X-47113Y80127D02*
X-47113Y82921D01*
X-45871Y82921D01*
X-46182Y81679D02*
X-47113Y81679D01*
X-44240Y82921D02*
X-44240Y80127D01*
X-45016Y82921D02*
X-43463Y82921D01*
X-54873Y52921D02*
X-54873Y50127D01*
X-54873Y52921D02*
X-54097Y52921D01*
X-54042Y52919D01*
X-53987Y52913D01*
X-53932Y52903D01*
X-53878Y52890D01*
X-53826Y52872D01*
X-53775Y52851D01*
X-53725Y52826D01*
X-53677Y52798D01*
X-53632Y52766D01*
X-53589Y52731D01*
X-53548Y52694D01*
X-53511Y52653D01*
X-53476Y52610D01*
X-53444Y52565D01*
X-53416Y52517D01*
X-53391Y52467D01*
X-53370Y52416D01*
X-53352Y52364D01*
X-53339Y52310D01*
X-53329Y52255D01*
X-53323Y52200D01*
X-53321Y52145D01*
X-53323Y52090D01*
X-53329Y52035D01*
X-53339Y51980D01*
X-53352Y51926D01*
X-53370Y51874D01*
X-53391Y51823D01*
X-53416Y51773D01*
X-53444Y51725D01*
X-53476Y51680D01*
X-53511Y51637D01*
X-53548Y51596D01*
X-53589Y51559D01*
X-53632Y51524D01*
X-53677Y51492D01*
X-53725Y51464D01*
X-53775Y51439D01*
X-53826Y51418D01*
X-53878Y51400D01*
X-53932Y51387D01*
X-53987Y51377D01*
X-54042Y51371D01*
X-54097Y51369D01*
X-54873Y51369D01*
X-52263Y51524D02*
X-52261Y51619D01*
X-52255Y51714D01*
X-52245Y51808D01*
X-52232Y51902D01*
X-52214Y51995D01*
X-52193Y52088D01*
X-52168Y52180D01*
X-52139Y52270D01*
X-52106Y52359D01*
X-52070Y52447D01*
X-52030Y52533D01*
X-52014Y52575D01*
X-51995Y52615D01*
X-51972Y52653D01*
X-51947Y52690D01*
X-51919Y52725D01*
X-51889Y52757D01*
X-51856Y52787D01*
X-51821Y52814D01*
X-51783Y52839D01*
X-51744Y52860D01*
X-51704Y52878D01*
X-51662Y52894D01*
X-51619Y52906D01*
X-51576Y52914D01*
X-51531Y52919D01*
X-51487Y52921D01*
X-51443Y52919D01*
X-51398Y52914D01*
X-51355Y52906D01*
X-51312Y52894D01*
X-51270Y52878D01*
X-51230Y52860D01*
X-51191Y52839D01*
X-51153Y52814D01*
X-51118Y52787D01*
X-51085Y52757D01*
X-51055Y52725D01*
X-51027Y52690D01*
X-51002Y52653D01*
X-50979Y52615D01*
X-50960Y52575D01*
X-50944Y52533D01*
X-50904Y52447D01*
X-50868Y52359D01*
X-50835Y52270D01*
X-50806Y52179D01*
X-50781Y52088D01*
X-50760Y51995D01*
X-50742Y51902D01*
X-50729Y51808D01*
X-50719Y51714D01*
X-50713Y51619D01*
X-50711Y51524D01*
X-52263Y51524D02*
X-52261Y51429D01*
X-52255Y51334D01*
X-52245Y51240D01*
X-52232Y51146D01*
X-52214Y51053D01*
X-52193Y50960D01*
X-52168Y50869D01*
X-52139Y50778D01*
X-52106Y50689D01*
X-52070Y50601D01*
X-52030Y50515D01*
X-52014Y50473D01*
X-51995Y50433D01*
X-51972Y50395D01*
X-51947Y50358D01*
X-51919Y50323D01*
X-51889Y50291D01*
X-51856Y50261D01*
X-51821Y50234D01*
X-51783Y50209D01*
X-51744Y50188D01*
X-51704Y50170D01*
X-51662Y50154D01*
X-51619Y50142D01*
X-51576Y50134D01*
X-51531Y50129D01*
X-51487Y50127D01*
X-50943Y50515D02*
X-50903Y50601D01*
X-50867Y50689D01*
X-50834Y50778D01*
X-50805Y50868D01*
X-50780Y50960D01*
X-50759Y51053D01*
X-50741Y51146D01*
X-50728Y51240D01*
X-50718Y51334D01*
X-50712Y51429D01*
X-50710Y51524D01*
X-50944Y50515D02*
X-50960Y50473D01*
X-50979Y50433D01*
X-51002Y50395D01*
X-51027Y50358D01*
X-51055Y50323D01*
X-51085Y50291D01*
X-51118Y50261D01*
X-51153Y50234D01*
X-51191Y50209D01*
X-51230Y50188D01*
X-51270Y50170D01*
X-51312Y50154D01*
X-51355Y50142D01*
X-51398Y50134D01*
X-51443Y50129D01*
X-51487Y50127D01*
X-52108Y50748D02*
X-50866Y52300D01*
X-49644Y50282D02*
X-49644Y50127D01*
X-49644Y50282D02*
X-49489Y50282D01*
X-49489Y50127D01*
X-49644Y50127D01*
X-48423Y51524D02*
X-48421Y51619D01*
X-48415Y51714D01*
X-48405Y51808D01*
X-48392Y51902D01*
X-48374Y51995D01*
X-48353Y52088D01*
X-48328Y52180D01*
X-48299Y52270D01*
X-48266Y52359D01*
X-48230Y52447D01*
X-48190Y52533D01*
X-48189Y52533D02*
X-48173Y52575D01*
X-48154Y52615D01*
X-48131Y52653D01*
X-48106Y52690D01*
X-48078Y52725D01*
X-48048Y52757D01*
X-48015Y52787D01*
X-47980Y52814D01*
X-47942Y52839D01*
X-47903Y52860D01*
X-47863Y52878D01*
X-47821Y52894D01*
X-47778Y52906D01*
X-47735Y52914D01*
X-47690Y52919D01*
X-47646Y52921D01*
X-47602Y52919D01*
X-47557Y52914D01*
X-47514Y52906D01*
X-47471Y52894D01*
X-47429Y52878D01*
X-47389Y52860D01*
X-47350Y52839D01*
X-47312Y52814D01*
X-47277Y52787D01*
X-47244Y52757D01*
X-47214Y52725D01*
X-47186Y52690D01*
X-47161Y52653D01*
X-47138Y52615D01*
X-47119Y52575D01*
X-47103Y52533D01*
X-47063Y52447D01*
X-47027Y52359D01*
X-46994Y52270D01*
X-46965Y52179D01*
X-46940Y52088D01*
X-46919Y51995D01*
X-46901Y51902D01*
X-46888Y51808D01*
X-46878Y51714D01*
X-46872Y51619D01*
X-46870Y51524D01*
X-48422Y51524D02*
X-48420Y51429D01*
X-48414Y51334D01*
X-48404Y51240D01*
X-48391Y51146D01*
X-48373Y51053D01*
X-48352Y50960D01*
X-48327Y50869D01*
X-48298Y50778D01*
X-48265Y50689D01*
X-48229Y50601D01*
X-48189Y50515D01*
X-48173Y50473D01*
X-48154Y50433D01*
X-48131Y50395D01*
X-48106Y50358D01*
X-48078Y50323D01*
X-48048Y50291D01*
X-48015Y50261D01*
X-47980Y50234D01*
X-47942Y50209D01*
X-47903Y50188D01*
X-47863Y50170D01*
X-47821Y50154D01*
X-47778Y50142D01*
X-47735Y50134D01*
X-47690Y50129D01*
X-47646Y50127D01*
X-47103Y50515D02*
X-47063Y50601D01*
X-47027Y50689D01*
X-46994Y50778D01*
X-46965Y50868D01*
X-46940Y50960D01*
X-46919Y51053D01*
X-46901Y51146D01*
X-46888Y51240D01*
X-46878Y51334D01*
X-46872Y51429D01*
X-46870Y51524D01*
X-47103Y50515D02*
X-47119Y50473D01*
X-47138Y50433D01*
X-47161Y50395D01*
X-47186Y50358D01*
X-47214Y50323D01*
X-47244Y50291D01*
X-47277Y50261D01*
X-47312Y50234D01*
X-47350Y50209D01*
X-47389Y50188D01*
X-47429Y50170D01*
X-47471Y50154D01*
X-47514Y50142D01*
X-47557Y50134D01*
X-47602Y50129D01*
X-47646Y50127D01*
X-48267Y50748D02*
X-47025Y52300D01*
X-45679Y51679D02*
X-44748Y51679D01*
X-44699Y51677D01*
X-44651Y51671D01*
X-44603Y51662D01*
X-44556Y51649D01*
X-44510Y51632D01*
X-44466Y51611D01*
X-44424Y51587D01*
X-44383Y51560D01*
X-44345Y51530D01*
X-44309Y51497D01*
X-44276Y51461D01*
X-44246Y51423D01*
X-44219Y51382D01*
X-44195Y51340D01*
X-44174Y51296D01*
X-44157Y51250D01*
X-44144Y51203D01*
X-44135Y51155D01*
X-44129Y51107D01*
X-44127Y51058D01*
X-44127Y50903D01*
X-44129Y50848D01*
X-44135Y50793D01*
X-44145Y50738D01*
X-44158Y50684D01*
X-44176Y50632D01*
X-44197Y50581D01*
X-44222Y50531D01*
X-44250Y50483D01*
X-44282Y50438D01*
X-44317Y50395D01*
X-44354Y50354D01*
X-44395Y50317D01*
X-44438Y50282D01*
X-44483Y50250D01*
X-44531Y50222D01*
X-44581Y50197D01*
X-44632Y50176D01*
X-44684Y50158D01*
X-44738Y50145D01*
X-44793Y50135D01*
X-44848Y50129D01*
X-44903Y50127D01*
X-44958Y50129D01*
X-45013Y50135D01*
X-45068Y50145D01*
X-45122Y50158D01*
X-45174Y50176D01*
X-45225Y50197D01*
X-45275Y50222D01*
X-45323Y50250D01*
X-45368Y50282D01*
X-45411Y50317D01*
X-45452Y50354D01*
X-45489Y50395D01*
X-45524Y50438D01*
X-45556Y50483D01*
X-45584Y50531D01*
X-45609Y50581D01*
X-45630Y50632D01*
X-45648Y50684D01*
X-45661Y50738D01*
X-45671Y50793D01*
X-45677Y50848D01*
X-45679Y50903D01*
X-45679Y51679D01*
X-45677Y51749D01*
X-45671Y51818D01*
X-45661Y51887D01*
X-45648Y51955D01*
X-45630Y52023D01*
X-45609Y52089D01*
X-45584Y52154D01*
X-45556Y52218D01*
X-45524Y52280D01*
X-45489Y52340D01*
X-45450Y52398D01*
X-45408Y52453D01*
X-45363Y52507D01*
X-45315Y52557D01*
X-45265Y52605D01*
X-45211Y52650D01*
X-45156Y52692D01*
X-45098Y52731D01*
X-45038Y52766D01*
X-44976Y52798D01*
X-44912Y52826D01*
X-44847Y52851D01*
X-44781Y52872D01*
X-44713Y52890D01*
X-44645Y52903D01*
X-44576Y52913D01*
X-44507Y52919D01*
X-44437Y52921D01*
X-54873Y32921D02*
X-54873Y30127D01*
X-54873Y32921D02*
X-54097Y32921D01*
X-54042Y32919D01*
X-53987Y32913D01*
X-53932Y32903D01*
X-53878Y32890D01*
X-53826Y32872D01*
X-53775Y32851D01*
X-53725Y32826D01*
X-53677Y32798D01*
X-53632Y32766D01*
X-53589Y32731D01*
X-53548Y32694D01*
X-53511Y32653D01*
X-53476Y32610D01*
X-53444Y32565D01*
X-53416Y32517D01*
X-53391Y32467D01*
X-53370Y32416D01*
X-53352Y32364D01*
X-53339Y32310D01*
X-53329Y32255D01*
X-53323Y32200D01*
X-53321Y32145D01*
X-53323Y32090D01*
X-53329Y32035D01*
X-53339Y31980D01*
X-53352Y31926D01*
X-53370Y31874D01*
X-53391Y31823D01*
X-53416Y31773D01*
X-53444Y31725D01*
X-53476Y31680D01*
X-53511Y31637D01*
X-53548Y31596D01*
X-53589Y31559D01*
X-53632Y31524D01*
X-53677Y31492D01*
X-53725Y31464D01*
X-53775Y31439D01*
X-53826Y31418D01*
X-53878Y31400D01*
X-53932Y31387D01*
X-53987Y31377D01*
X-54042Y31371D01*
X-54097Y31369D01*
X-54873Y31369D01*
X-52263Y31524D02*
X-52261Y31619D01*
X-52255Y31714D01*
X-52245Y31808D01*
X-52232Y31902D01*
X-52214Y31995D01*
X-52193Y32088D01*
X-52168Y32180D01*
X-52139Y32270D01*
X-52106Y32359D01*
X-52070Y32447D01*
X-52030Y32533D01*
X-52014Y32575D01*
X-51995Y32615D01*
X-51972Y32653D01*
X-51947Y32690D01*
X-51919Y32725D01*
X-51889Y32757D01*
X-51856Y32787D01*
X-51821Y32814D01*
X-51783Y32839D01*
X-51744Y32860D01*
X-51704Y32878D01*
X-51662Y32894D01*
X-51619Y32906D01*
X-51576Y32914D01*
X-51531Y32919D01*
X-51487Y32921D01*
X-51443Y32919D01*
X-51398Y32914D01*
X-51355Y32906D01*
X-51312Y32894D01*
X-51270Y32878D01*
X-51230Y32860D01*
X-51191Y32839D01*
X-51153Y32814D01*
X-51118Y32787D01*
X-51085Y32757D01*
X-51055Y32725D01*
X-51027Y32690D01*
X-51002Y32653D01*
X-50979Y32615D01*
X-50960Y32575D01*
X-50944Y32533D01*
X-50904Y32447D01*
X-50868Y32359D01*
X-50835Y32270D01*
X-50806Y32179D01*
X-50781Y32088D01*
X-50760Y31995D01*
X-50742Y31902D01*
X-50729Y31808D01*
X-50719Y31714D01*
X-50713Y31619D01*
X-50711Y31524D01*
X-52263Y31524D02*
X-52261Y31429D01*
X-52255Y31334D01*
X-52245Y31240D01*
X-52232Y31146D01*
X-52214Y31053D01*
X-52193Y30960D01*
X-52168Y30869D01*
X-52139Y30778D01*
X-52106Y30689D01*
X-52070Y30601D01*
X-52030Y30515D01*
X-52014Y30473D01*
X-51995Y30433D01*
X-51972Y30395D01*
X-51947Y30358D01*
X-51919Y30323D01*
X-51889Y30291D01*
X-51856Y30261D01*
X-51821Y30234D01*
X-51783Y30209D01*
X-51744Y30188D01*
X-51704Y30170D01*
X-51662Y30154D01*
X-51619Y30142D01*
X-51576Y30134D01*
X-51531Y30129D01*
X-51487Y30127D01*
X-50943Y30515D02*
X-50903Y30601D01*
X-50867Y30689D01*
X-50834Y30778D01*
X-50805Y30868D01*
X-50780Y30960D01*
X-50759Y31053D01*
X-50741Y31146D01*
X-50728Y31240D01*
X-50718Y31334D01*
X-50712Y31429D01*
X-50710Y31524D01*
X-50944Y30515D02*
X-50960Y30473D01*
X-50979Y30433D01*
X-51002Y30395D01*
X-51027Y30358D01*
X-51055Y30323D01*
X-51085Y30291D01*
X-51118Y30261D01*
X-51153Y30234D01*
X-51191Y30209D01*
X-51230Y30188D01*
X-51270Y30170D01*
X-51312Y30154D01*
X-51355Y30142D01*
X-51398Y30134D01*
X-51443Y30129D01*
X-51487Y30127D01*
X-52108Y30748D02*
X-50866Y32300D01*
X-49644Y30282D02*
X-49644Y30127D01*
X-49644Y30282D02*
X-49489Y30282D01*
X-49489Y30127D01*
X-49644Y30127D01*
X-48422Y32300D02*
X-47646Y32921D01*
X-47646Y30127D01*
X-48422Y30127D02*
X-46870Y30127D01*
X-44126Y32223D02*
X-44128Y32273D01*
X-44133Y32322D01*
X-44142Y32372D01*
X-44154Y32420D01*
X-44170Y32467D01*
X-44189Y32513D01*
X-44212Y32558D01*
X-44237Y32601D01*
X-44265Y32642D01*
X-44297Y32681D01*
X-44331Y32717D01*
X-44367Y32751D01*
X-44406Y32783D01*
X-44447Y32811D01*
X-44490Y32836D01*
X-44535Y32859D01*
X-44581Y32878D01*
X-44628Y32894D01*
X-44676Y32906D01*
X-44726Y32915D01*
X-44775Y32920D01*
X-44825Y32922D01*
X-44825Y32921D02*
X-44881Y32919D01*
X-44938Y32914D01*
X-44993Y32905D01*
X-45048Y32893D01*
X-45102Y32877D01*
X-45155Y32858D01*
X-45207Y32835D01*
X-45257Y32810D01*
X-45306Y32781D01*
X-45353Y32749D01*
X-45397Y32715D01*
X-45439Y32678D01*
X-45479Y32638D01*
X-45517Y32595D01*
X-45551Y32551D01*
X-45583Y32504D01*
X-45611Y32455D01*
X-45637Y32405D01*
X-45659Y32353D01*
X-45678Y32300D01*
X-44360Y31680D02*
X-44324Y31716D01*
X-44291Y31754D01*
X-44261Y31795D01*
X-44234Y31837D01*
X-44209Y31882D01*
X-44188Y31928D01*
X-44169Y31975D01*
X-44154Y32023D01*
X-44142Y32072D01*
X-44134Y32122D01*
X-44129Y32172D01*
X-44127Y32223D01*
X-44360Y31679D02*
X-45679Y30127D01*
X-44127Y30127D01*
D12*
X63417Y87000D02*
X63448Y87002D01*
X63479Y87007D01*
X63509Y87016D01*
X63538Y87028D01*
X63565Y87043D01*
X63590Y87061D01*
X63614Y87081D01*
X63634Y87105D01*
X63652Y87130D01*
X63667Y87157D01*
X63679Y87186D01*
X63688Y87216D01*
X63693Y87247D01*
X63695Y87278D01*
X63417Y87000D02*
X63371Y87002D01*
X63325Y87007D01*
X63279Y87016D01*
X63235Y87029D01*
X63191Y87045D01*
X63149Y87065D01*
X63109Y87087D01*
X63070Y87113D01*
X63034Y87142D01*
X63000Y87174D01*
X63034Y87972D02*
X63036Y88003D01*
X63041Y88034D01*
X63050Y88064D01*
X63062Y88093D01*
X63077Y88120D01*
X63095Y88145D01*
X63115Y88169D01*
X63139Y88189D01*
X63164Y88207D01*
X63191Y88222D01*
X63220Y88234D01*
X63250Y88243D01*
X63281Y88248D01*
X63312Y88250D01*
X63354Y88248D01*
X63396Y88243D01*
X63437Y88235D01*
X63477Y88223D01*
X63516Y88208D01*
X63554Y88190D01*
X63590Y88170D01*
X63625Y88146D01*
X63174Y87729D02*
X63147Y87747D01*
X63122Y87768D01*
X63100Y87792D01*
X63081Y87818D01*
X63064Y87846D01*
X63052Y87876D01*
X63042Y87908D01*
X63037Y87940D01*
X63035Y87972D01*
X63555Y87521D02*
X63582Y87503D01*
X63607Y87482D01*
X63629Y87458D01*
X63648Y87432D01*
X63665Y87404D01*
X63677Y87374D01*
X63687Y87342D01*
X63692Y87310D01*
X63694Y87278D01*
X63556Y87521D02*
X63174Y87729D01*
X64029Y88250D02*
X64307Y87000D01*
X64585Y87833D01*
X64862Y87000D01*
X65140Y88250D01*
X65550Y88250D02*
X65550Y87000D01*
X65550Y88250D02*
X65897Y88250D01*
X65933Y88248D01*
X65969Y88242D01*
X66004Y88233D01*
X66038Y88220D01*
X66071Y88204D01*
X66101Y88184D01*
X66129Y88161D01*
X66155Y88135D01*
X66178Y88107D01*
X66198Y88076D01*
X66214Y88044D01*
X66227Y88010D01*
X66236Y87975D01*
X66242Y87939D01*
X66244Y87903D01*
X66244Y87347D01*
X66242Y87311D01*
X66236Y87275D01*
X66227Y87240D01*
X66214Y87206D01*
X66198Y87174D01*
X66178Y87143D01*
X66155Y87115D01*
X66129Y87089D01*
X66101Y87066D01*
X66071Y87046D01*
X66038Y87030D01*
X66004Y87017D01*
X65969Y87008D01*
X65933Y87002D01*
X65897Y87000D01*
X65550Y87000D01*
X66835Y87000D02*
X66835Y88250D01*
X66696Y87000D02*
X66974Y87000D01*
X66974Y88250D02*
X66696Y88250D01*
X67387Y87903D02*
X67387Y87347D01*
X67388Y87903D02*
X67390Y87939D01*
X67396Y87975D01*
X67405Y88010D01*
X67418Y88044D01*
X67434Y88077D01*
X67454Y88107D01*
X67477Y88135D01*
X67503Y88161D01*
X67531Y88184D01*
X67562Y88204D01*
X67594Y88220D01*
X67628Y88233D01*
X67663Y88242D01*
X67699Y88248D01*
X67735Y88250D01*
X67771Y88248D01*
X67807Y88242D01*
X67842Y88233D01*
X67876Y88220D01*
X67909Y88204D01*
X67939Y88184D01*
X67967Y88161D01*
X67993Y88135D01*
X68016Y88107D01*
X68036Y88077D01*
X68052Y88044D01*
X68065Y88010D01*
X68074Y87975D01*
X68080Y87939D01*
X68082Y87903D01*
X68082Y87347D01*
X68080Y87311D01*
X68074Y87275D01*
X68065Y87240D01*
X68052Y87206D01*
X68036Y87174D01*
X68016Y87143D01*
X67993Y87115D01*
X67967Y87089D01*
X67939Y87066D01*
X67909Y87046D01*
X67876Y87030D01*
X67842Y87017D01*
X67807Y87008D01*
X67771Y87002D01*
X67735Y87000D01*
X67699Y87002D01*
X67663Y87008D01*
X67628Y87017D01*
X67594Y87030D01*
X67562Y87046D01*
X67531Y87066D01*
X67503Y87089D01*
X67477Y87115D01*
X67454Y87143D01*
X67434Y87174D01*
X67418Y87206D01*
X67405Y87240D01*
X67396Y87275D01*
X67390Y87311D01*
X67388Y87347D01*
X72417Y87000D02*
X72448Y87002D01*
X72479Y87007D01*
X72509Y87016D01*
X72538Y87028D01*
X72565Y87043D01*
X72590Y87061D01*
X72614Y87081D01*
X72634Y87105D01*
X72652Y87130D01*
X72667Y87157D01*
X72679Y87186D01*
X72688Y87216D01*
X72693Y87247D01*
X72695Y87278D01*
X72417Y87000D02*
X72371Y87002D01*
X72325Y87007D01*
X72279Y87016D01*
X72235Y87029D01*
X72191Y87045D01*
X72149Y87065D01*
X72109Y87087D01*
X72070Y87113D01*
X72034Y87142D01*
X72000Y87174D01*
X72034Y87972D02*
X72036Y88003D01*
X72041Y88034D01*
X72050Y88064D01*
X72062Y88093D01*
X72077Y88120D01*
X72095Y88145D01*
X72115Y88169D01*
X72139Y88189D01*
X72164Y88207D01*
X72191Y88222D01*
X72220Y88234D01*
X72250Y88243D01*
X72281Y88248D01*
X72312Y88250D01*
X72354Y88248D01*
X72396Y88243D01*
X72437Y88235D01*
X72477Y88223D01*
X72516Y88208D01*
X72554Y88190D01*
X72590Y88170D01*
X72625Y88146D01*
X72174Y87729D02*
X72147Y87747D01*
X72122Y87768D01*
X72100Y87792D01*
X72081Y87818D01*
X72064Y87846D01*
X72052Y87876D01*
X72042Y87908D01*
X72037Y87940D01*
X72035Y87972D01*
X72555Y87521D02*
X72582Y87503D01*
X72607Y87482D01*
X72629Y87458D01*
X72648Y87432D01*
X72665Y87404D01*
X72677Y87374D01*
X72687Y87342D01*
X72692Y87310D01*
X72694Y87278D01*
X72556Y87521D02*
X72174Y87729D01*
X73029Y88250D02*
X73307Y87000D01*
X73585Y87833D01*
X73862Y87000D01*
X74140Y88250D01*
X74550Y88250D02*
X74550Y87000D01*
X74550Y88250D02*
X74897Y88250D01*
X74933Y88248D01*
X74969Y88242D01*
X75004Y88233D01*
X75038Y88220D01*
X75071Y88204D01*
X75101Y88184D01*
X75129Y88161D01*
X75155Y88135D01*
X75178Y88107D01*
X75198Y88076D01*
X75214Y88044D01*
X75227Y88010D01*
X75236Y87975D01*
X75242Y87939D01*
X75244Y87903D01*
X75244Y87347D01*
X75242Y87311D01*
X75236Y87275D01*
X75227Y87240D01*
X75214Y87206D01*
X75198Y87174D01*
X75178Y87143D01*
X75155Y87115D01*
X75129Y87089D01*
X75101Y87066D01*
X75071Y87046D01*
X75038Y87030D01*
X75004Y87017D01*
X74969Y87008D01*
X74933Y87002D01*
X74897Y87000D01*
X74550Y87000D01*
X75989Y87000D02*
X76266Y87000D01*
X75989Y87000D02*
X75958Y87002D01*
X75927Y87007D01*
X75897Y87016D01*
X75868Y87028D01*
X75841Y87043D01*
X75816Y87061D01*
X75792Y87081D01*
X75772Y87105D01*
X75754Y87130D01*
X75739Y87157D01*
X75727Y87186D01*
X75718Y87216D01*
X75713Y87247D01*
X75711Y87278D01*
X75711Y87972D01*
X75713Y88003D01*
X75718Y88034D01*
X75727Y88064D01*
X75739Y88093D01*
X75754Y88120D01*
X75772Y88145D01*
X75792Y88169D01*
X75816Y88189D01*
X75841Y88207D01*
X75868Y88222D01*
X75897Y88234D01*
X75927Y88243D01*
X75958Y88248D01*
X75989Y88250D01*
X76266Y88250D01*
X76689Y88250D02*
X76689Y87000D01*
X77244Y87000D01*
X77671Y87000D02*
X77671Y88250D01*
X78365Y88250D02*
X77671Y87486D01*
X77948Y87764D02*
X78365Y87000D01*
X88000Y79250D02*
X88000Y78000D01*
X88000Y79250D02*
X88347Y79250D01*
X88383Y79248D01*
X88419Y79242D01*
X88454Y79233D01*
X88488Y79220D01*
X88521Y79204D01*
X88551Y79184D01*
X88579Y79161D01*
X88605Y79135D01*
X88628Y79107D01*
X88648Y79077D01*
X88664Y79044D01*
X88677Y79010D01*
X88686Y78975D01*
X88692Y78939D01*
X88694Y78903D01*
X88692Y78867D01*
X88686Y78831D01*
X88677Y78796D01*
X88664Y78762D01*
X88648Y78730D01*
X88628Y78699D01*
X88605Y78671D01*
X88579Y78645D01*
X88551Y78622D01*
X88521Y78602D01*
X88488Y78586D01*
X88454Y78573D01*
X88419Y78564D01*
X88383Y78558D01*
X88347Y78556D01*
X88000Y78556D01*
X88417Y78556D02*
X88694Y78000D01*
X89160Y78000D02*
X89716Y78000D01*
X89160Y78000D02*
X89160Y79250D01*
X89716Y79250D01*
X89577Y78694D02*
X89160Y78694D01*
X90476Y78000D02*
X90507Y78002D01*
X90538Y78007D01*
X90568Y78016D01*
X90597Y78028D01*
X90624Y78043D01*
X90649Y78061D01*
X90673Y78081D01*
X90693Y78105D01*
X90711Y78130D01*
X90726Y78157D01*
X90738Y78186D01*
X90747Y78216D01*
X90752Y78247D01*
X90754Y78278D01*
X90476Y78000D02*
X90430Y78002D01*
X90384Y78007D01*
X90338Y78016D01*
X90294Y78029D01*
X90250Y78045D01*
X90208Y78065D01*
X90168Y78087D01*
X90129Y78113D01*
X90093Y78142D01*
X90059Y78174D01*
X90093Y78972D02*
X90095Y79003D01*
X90100Y79034D01*
X90109Y79064D01*
X90121Y79093D01*
X90136Y79120D01*
X90154Y79145D01*
X90174Y79169D01*
X90198Y79189D01*
X90223Y79207D01*
X90250Y79222D01*
X90279Y79234D01*
X90309Y79243D01*
X90340Y79248D01*
X90371Y79250D01*
X90413Y79248D01*
X90455Y79243D01*
X90496Y79235D01*
X90536Y79223D01*
X90575Y79208D01*
X90613Y79190D01*
X90649Y79170D01*
X90684Y79146D01*
X90233Y78729D02*
X90206Y78747D01*
X90181Y78768D01*
X90159Y78792D01*
X90140Y78818D01*
X90123Y78846D01*
X90111Y78876D01*
X90101Y78908D01*
X90096Y78940D01*
X90094Y78972D01*
X90614Y78521D02*
X90641Y78503D01*
X90666Y78482D01*
X90688Y78458D01*
X90707Y78432D01*
X90724Y78404D01*
X90736Y78374D01*
X90746Y78342D01*
X90751Y78310D01*
X90753Y78278D01*
X90614Y78521D02*
X90232Y78729D01*
X91185Y78000D02*
X91740Y78000D01*
X91185Y78000D02*
X91185Y79250D01*
X91740Y79250D01*
X91602Y78694D02*
X91185Y78694D01*
X92394Y79250D02*
X92394Y78000D01*
X92046Y79250D02*
X92741Y79250D01*
X98000Y22526D02*
X99250Y22526D01*
X98000Y22526D02*
X98000Y22874D01*
X98002Y22910D01*
X98008Y22946D01*
X98017Y22981D01*
X98030Y23015D01*
X98046Y23048D01*
X98066Y23078D01*
X98089Y23106D01*
X98115Y23132D01*
X98143Y23155D01*
X98174Y23175D01*
X98206Y23191D01*
X98240Y23204D01*
X98275Y23213D01*
X98311Y23219D01*
X98347Y23221D01*
X98383Y23219D01*
X98419Y23213D01*
X98454Y23204D01*
X98488Y23191D01*
X98521Y23175D01*
X98551Y23155D01*
X98579Y23132D01*
X98605Y23106D01*
X98628Y23078D01*
X98648Y23048D01*
X98664Y23015D01*
X98677Y22981D01*
X98686Y22946D01*
X98692Y22910D01*
X98694Y22874D01*
X98694Y22526D01*
X98625Y23606D02*
X98567Y23608D01*
X98508Y23613D01*
X98451Y23621D01*
X98393Y23632D01*
X98337Y23647D01*
X98281Y23665D01*
X98227Y23686D01*
X98174Y23710D01*
X98147Y23721D01*
X98121Y23735D01*
X98098Y23751D01*
X98076Y23771D01*
X98057Y23792D01*
X98040Y23816D01*
X98026Y23841D01*
X98015Y23868D01*
X98007Y23896D01*
X98002Y23924D01*
X98000Y23953D01*
X98002Y23982D01*
X98007Y24010D01*
X98015Y24038D01*
X98026Y24065D01*
X98040Y24090D01*
X98057Y24114D01*
X98076Y24135D01*
X98098Y24155D01*
X98121Y24171D01*
X98147Y24185D01*
X98174Y24196D01*
X98227Y24220D01*
X98281Y24241D01*
X98337Y24259D01*
X98393Y24274D01*
X98451Y24285D01*
X98508Y24293D01*
X98567Y24298D01*
X98625Y24300D01*
X98625Y23606D02*
X98683Y23608D01*
X98742Y23613D01*
X98799Y23621D01*
X98857Y23632D01*
X98913Y23647D01*
X98969Y23665D01*
X99023Y23686D01*
X99076Y23710D01*
X99103Y23721D01*
X99129Y23735D01*
X99152Y23751D01*
X99174Y23771D01*
X99193Y23792D01*
X99210Y23816D01*
X99224Y23841D01*
X99235Y23868D01*
X99243Y23896D01*
X99248Y23924D01*
X99250Y23953D01*
X99076Y24196D02*
X99023Y24220D01*
X98969Y24241D01*
X98913Y24259D01*
X98857Y24274D01*
X98799Y24285D01*
X98742Y24293D01*
X98683Y24298D01*
X98625Y24300D01*
X99076Y24196D02*
X99103Y24185D01*
X99129Y24171D01*
X99152Y24155D01*
X99174Y24135D01*
X99193Y24114D01*
X99210Y24090D01*
X99224Y24065D01*
X99235Y24038D01*
X99243Y24010D01*
X99248Y23982D01*
X99250Y23953D01*
X98972Y23675D02*
X98278Y24231D01*
X99181Y24706D02*
X99250Y24706D01*
X99181Y24706D02*
X99181Y24775D01*
X99250Y24775D01*
X99250Y24706D01*
X98278Y25181D02*
X98000Y25528D01*
X99250Y25528D01*
X99250Y25181D02*
X99250Y25875D01*
X98313Y27001D02*
X98280Y26999D01*
X98248Y26994D01*
X98216Y26986D01*
X98186Y26974D01*
X98157Y26959D01*
X98129Y26941D01*
X98104Y26921D01*
X98080Y26897D01*
X98060Y26872D01*
X98042Y26845D01*
X98027Y26815D01*
X98015Y26785D01*
X98007Y26753D01*
X98002Y26721D01*
X98000Y26688D01*
X98002Y26649D01*
X98007Y26611D01*
X98017Y26573D01*
X98030Y26537D01*
X98046Y26502D01*
X98066Y26468D01*
X98088Y26437D01*
X98114Y26408D01*
X98143Y26381D01*
X98173Y26358D01*
X98206Y26337D01*
X98241Y26320D01*
X98277Y26306D01*
X98556Y26896D02*
X98532Y26919D01*
X98505Y26940D01*
X98476Y26958D01*
X98445Y26973D01*
X98413Y26985D01*
X98381Y26993D01*
X98347Y26998D01*
X98313Y27000D01*
X98556Y26896D02*
X99250Y26306D01*
X99250Y27000D01*
X54000Y2250D02*
X54000Y1000D01*
X54000Y2250D02*
X54347Y2250D01*
X54383Y2248D01*
X54419Y2242D01*
X54454Y2233D01*
X54488Y2220D01*
X54521Y2204D01*
X54551Y2184D01*
X54579Y2161D01*
X54605Y2135D01*
X54628Y2107D01*
X54648Y2076D01*
X54664Y2044D01*
X54677Y2010D01*
X54686Y1975D01*
X54692Y1939D01*
X54694Y1903D01*
X54692Y1867D01*
X54686Y1831D01*
X54677Y1796D01*
X54664Y1762D01*
X54648Y1729D01*
X54628Y1699D01*
X54605Y1671D01*
X54579Y1645D01*
X54551Y1622D01*
X54521Y1602D01*
X54488Y1586D01*
X54454Y1573D01*
X54419Y1564D01*
X54383Y1558D01*
X54347Y1556D01*
X54000Y1556D01*
X55079Y1625D02*
X55081Y1683D01*
X55086Y1742D01*
X55094Y1799D01*
X55105Y1857D01*
X55120Y1913D01*
X55138Y1969D01*
X55159Y2023D01*
X55183Y2076D01*
X55194Y2103D01*
X55208Y2129D01*
X55224Y2152D01*
X55244Y2174D01*
X55265Y2193D01*
X55289Y2210D01*
X55314Y2224D01*
X55341Y2235D01*
X55369Y2243D01*
X55397Y2248D01*
X55426Y2250D01*
X55455Y2248D01*
X55483Y2243D01*
X55511Y2235D01*
X55538Y2224D01*
X55563Y2210D01*
X55587Y2193D01*
X55608Y2174D01*
X55628Y2152D01*
X55644Y2129D01*
X55658Y2103D01*
X55669Y2076D01*
X55670Y2076D02*
X55694Y2023D01*
X55715Y1969D01*
X55733Y1913D01*
X55748Y1857D01*
X55759Y1799D01*
X55767Y1742D01*
X55772Y1683D01*
X55774Y1625D01*
X55079Y1625D02*
X55081Y1567D01*
X55086Y1508D01*
X55094Y1451D01*
X55105Y1393D01*
X55120Y1337D01*
X55138Y1281D01*
X55159Y1227D01*
X55183Y1174D01*
X55194Y1147D01*
X55208Y1121D01*
X55224Y1098D01*
X55244Y1076D01*
X55265Y1057D01*
X55289Y1040D01*
X55314Y1026D01*
X55341Y1015D01*
X55369Y1007D01*
X55397Y1002D01*
X55426Y1000D01*
X55670Y1174D02*
X55694Y1227D01*
X55715Y1281D01*
X55733Y1337D01*
X55748Y1393D01*
X55759Y1451D01*
X55767Y1508D01*
X55772Y1567D01*
X55774Y1625D01*
X55669Y1174D02*
X55658Y1147D01*
X55644Y1121D01*
X55628Y1098D01*
X55608Y1076D01*
X55587Y1057D01*
X55563Y1040D01*
X55538Y1026D01*
X55511Y1015D01*
X55483Y1007D01*
X55455Y1002D01*
X55426Y1000D01*
X55149Y1278D02*
X55704Y1972D01*
X56179Y1069D02*
X56179Y1000D01*
X56179Y1069D02*
X56249Y1069D01*
X56249Y1000D01*
X56179Y1000D01*
X56654Y1625D02*
X56656Y1683D01*
X56661Y1742D01*
X56669Y1799D01*
X56680Y1857D01*
X56695Y1913D01*
X56713Y1969D01*
X56734Y2023D01*
X56758Y2076D01*
X56769Y2103D01*
X56783Y2129D01*
X56799Y2152D01*
X56819Y2174D01*
X56840Y2193D01*
X56864Y2210D01*
X56889Y2224D01*
X56916Y2235D01*
X56944Y2243D01*
X56972Y2248D01*
X57001Y2250D01*
X57030Y2248D01*
X57058Y2243D01*
X57086Y2235D01*
X57113Y2224D01*
X57138Y2210D01*
X57162Y2193D01*
X57183Y2174D01*
X57203Y2152D01*
X57219Y2129D01*
X57233Y2103D01*
X57244Y2076D01*
X57245Y2076D02*
X57269Y2023D01*
X57290Y1969D01*
X57308Y1913D01*
X57323Y1857D01*
X57334Y1799D01*
X57342Y1742D01*
X57347Y1683D01*
X57349Y1625D01*
X56654Y1625D02*
X56656Y1567D01*
X56661Y1508D01*
X56669Y1451D01*
X56680Y1393D01*
X56695Y1337D01*
X56713Y1281D01*
X56734Y1227D01*
X56758Y1174D01*
X56769Y1147D01*
X56783Y1121D01*
X56799Y1098D01*
X56819Y1076D01*
X56840Y1057D01*
X56864Y1040D01*
X56889Y1026D01*
X56916Y1015D01*
X56944Y1007D01*
X56972Y1002D01*
X57001Y1000D01*
X57245Y1174D02*
X57269Y1227D01*
X57290Y1281D01*
X57308Y1337D01*
X57323Y1393D01*
X57334Y1451D01*
X57342Y1508D01*
X57347Y1567D01*
X57349Y1625D01*
X57244Y1174D02*
X57233Y1147D01*
X57219Y1121D01*
X57203Y1098D01*
X57183Y1076D01*
X57162Y1057D01*
X57138Y1040D01*
X57113Y1026D01*
X57086Y1015D01*
X57058Y1007D01*
X57030Y1002D01*
X57001Y1000D01*
X56724Y1278D02*
X57279Y1972D01*
X57779Y1694D02*
X58196Y1694D01*
X58196Y1695D02*
X58227Y1693D01*
X58258Y1688D01*
X58288Y1679D01*
X58317Y1667D01*
X58344Y1652D01*
X58369Y1634D01*
X58393Y1614D01*
X58413Y1590D01*
X58431Y1565D01*
X58446Y1538D01*
X58458Y1509D01*
X58467Y1479D01*
X58472Y1448D01*
X58474Y1417D01*
X58474Y1347D01*
X58473Y1347D02*
X58471Y1311D01*
X58465Y1275D01*
X58456Y1240D01*
X58443Y1206D01*
X58427Y1173D01*
X58407Y1143D01*
X58384Y1115D01*
X58358Y1089D01*
X58330Y1066D01*
X58300Y1046D01*
X58267Y1030D01*
X58233Y1017D01*
X58198Y1008D01*
X58162Y1002D01*
X58126Y1000D01*
X58090Y1002D01*
X58054Y1008D01*
X58019Y1017D01*
X57985Y1030D01*
X57953Y1046D01*
X57922Y1066D01*
X57894Y1089D01*
X57868Y1115D01*
X57845Y1143D01*
X57825Y1173D01*
X57809Y1206D01*
X57796Y1240D01*
X57787Y1275D01*
X57781Y1311D01*
X57779Y1347D01*
X57779Y1694D01*
X57781Y1740D01*
X57787Y1786D01*
X57796Y1830D01*
X57809Y1875D01*
X57826Y1917D01*
X57846Y1959D01*
X57870Y1998D01*
X57896Y2035D01*
X57926Y2071D01*
X57958Y2103D01*
X57993Y2133D01*
X58031Y2159D01*
X58070Y2183D01*
X58112Y2203D01*
X58154Y2220D01*
X58198Y2233D01*
X58243Y2242D01*
X58289Y2248D01*
X58335Y2250D01*
D13*
X0Y0D02*
X0Y100000D01*
X0Y200000D01*
X200000Y200000D01*
X200000Y0D01*
X100000Y0D01*
X0Y0D01*
X0Y100000D02*
X100000Y100000D01*
X100000Y0D01*
M02*
