G04 EAGLE Gerber X2 export*
%TF.Part,Single*%
%TF.FileFunction,Soldermask,Top,1*%
%TF.FilePolarity,Negative*%
%TF.GenerationSoftware,Autodesk,EAGLE,9.0.0*%
%TF.CreationDate,2018-06-19T20:39:02Z*%
G75*
%MOMM*%
%FSLAX34Y34*%
%LPD*%
%AMOC8*
5,1,8,0,0,1.08239X$1,22.5*%
G01*
%ADD10R,0.457200X0.381000*%
%ADD11R,1.053200X1.103200*%
%ADD12R,0.381000X0.457200*%
%ADD13R,0.453200X0.503200*%
%ADD14R,1.803200X0.553200*%
%ADD15C,2.082800*%
%ADD16R,1.103200X1.053200*%
%ADD17R,0.953200X0.953200*%
%ADD18R,0.853200X1.003200*%
%ADD19R,0.433200X0.883200*%
%ADD20R,4.803200X4.803200*%
%ADD21R,0.883200X0.433200*%
%ADD22C,0.812800*%
%ADD23C,0.863600*%
%ADD24C,2.453200*%
%ADD25C,0.959600*%
%ADD26C,0.909600*%


D10*
X96919Y6708D03*
X96919Y3406D03*
D11*
X42203Y95563D03*
X53803Y95563D03*
D10*
X42337Y6161D03*
X42337Y2859D03*
X30291Y7703D03*
X30291Y4401D03*
D12*
X16635Y89315D03*
X13333Y89315D03*
D13*
X13940Y30568D03*
X8940Y30568D03*
D14*
X11791Y3828D03*
X11791Y10328D03*
D15*
X-23592Y174080D03*
X-23592Y148680D03*
X-23592Y123280D03*
X-23592Y97880D03*
X-23592Y72480D03*
X-23592Y47080D03*
X-23592Y21680D03*
D16*
X55091Y134452D03*
X55091Y146052D03*
D17*
X78000Y148500D03*
X78000Y159000D03*
D18*
X180524Y194470D03*
X195524Y194470D03*
D17*
X106611Y147622D03*
X96111Y147622D03*
D19*
X30366Y14181D03*
D20*
X52366Y42781D03*
D19*
X34366Y14181D03*
X38366Y14181D03*
X42366Y14181D03*
X46366Y14181D03*
X50366Y14181D03*
X54366Y14181D03*
X58366Y14181D03*
X62366Y14181D03*
X66366Y14181D03*
X70366Y14181D03*
X74366Y14181D03*
D21*
X80966Y20781D03*
X80966Y24781D03*
X80966Y28781D03*
X80966Y32781D03*
X80966Y36781D03*
X80966Y40781D03*
X80966Y44781D03*
X80966Y48781D03*
X80966Y52781D03*
X80966Y56781D03*
X80966Y60781D03*
X80966Y64781D03*
D19*
X74366Y71381D03*
X70366Y71381D03*
X66366Y71381D03*
X62366Y71381D03*
X58366Y71381D03*
X54366Y71381D03*
X50366Y71381D03*
X46366Y71381D03*
X42366Y71381D03*
X38366Y71381D03*
X34366Y71381D03*
X30366Y71381D03*
D21*
X23766Y64781D03*
X23766Y60781D03*
X23766Y56781D03*
X23766Y52781D03*
X23766Y48781D03*
X23766Y44781D03*
X23766Y40781D03*
X23766Y36781D03*
X23766Y32781D03*
X23766Y28781D03*
X23766Y24781D03*
X23766Y20781D03*
D22*
X90966Y72998D03*
X38089Y80475D03*
X9312Y80632D03*
X66495Y82027D03*
X74386Y81680D03*
X93684Y45471D03*
X93202Y53091D03*
X92615Y61222D03*
X64690Y5768D03*
X92396Y36639D03*
D23*
X71492Y41715D03*
D22*
X46000Y61500D03*
X46000Y51500D03*
X38500Y44000D03*
X46000Y31500D03*
X36000Y26500D03*
X95558Y14913D03*
X36362Y6057D03*
X24372Y4260D03*
D24*
X140000Y15000D03*
D25*
X14651Y17935D03*
X6585Y17628D03*
D26*
X85493Y12696D03*
D22*
X90593Y3822D03*
D25*
X11000Y57397D03*
X12835Y120835D03*
D22*
X48613Y4541D03*
X77104Y5134D03*
D24*
X185000Y15000D03*
D22*
X56502Y6055D03*
X92083Y24841D03*
M02*
