G04 EAGLE Gerber X2 export*
%TF.Part,Single*%
%TF.FileFunction,Copper,L4,Bot,Mixed*%
%TF.FilePolarity,Positive*%
%TF.GenerationSoftware,Autodesk,EAGLE,9.0.0*%
%TF.CreationDate,2018-06-19T20:47:43Z*%
G75*
%MOMM*%
%FSLAX34Y34*%
%LPD*%
%AMOC8*
5,1,8,0,0,1.08239X$1,22.5*%
G01*
%ADD10R,0.177800X0.254000*%
%ADD11R,0.600000X0.400000*%
%ADD12C,1.879600*%
%ADD13R,0.300000X0.925000*%
%ADD14R,0.800000X0.300000*%
%ADD15R,0.700000X0.750000*%
%ADD16C,0.609600*%
%ADD17C,0.254000*%
%ADD18C,0.152400*%
%ADD19C,0.660400*%
%ADD20C,2.250000*%
%ADD21C,0.756400*%
%ADD22C,0.706400*%

G36*
X45682Y-750D02*
X45682Y-750D01*
X45753Y-748D01*
X45802Y-730D01*
X45854Y-722D01*
X45917Y-688D01*
X45984Y-663D01*
X46025Y-631D01*
X46071Y-606D01*
X46121Y-554D01*
X46177Y-510D01*
X46205Y-466D01*
X46241Y-428D01*
X46271Y-363D01*
X46310Y-303D01*
X46322Y-252D01*
X46344Y-205D01*
X46352Y-134D01*
X46370Y-64D01*
X46366Y-12D01*
X46371Y39D01*
X46356Y110D01*
X46350Y181D01*
X46330Y229D01*
X46319Y280D01*
X46282Y341D01*
X46254Y407D01*
X46209Y463D01*
X46193Y491D01*
X46175Y506D01*
X46149Y538D01*
X44040Y2647D01*
X44040Y6436D01*
X46719Y9114D01*
X50507Y9114D01*
X51262Y8359D01*
X51279Y8347D01*
X51291Y8332D01*
X51378Y8276D01*
X51462Y8215D01*
X51481Y8210D01*
X51498Y8199D01*
X51598Y8173D01*
X51697Y8143D01*
X51717Y8144D01*
X51736Y8139D01*
X51839Y8147D01*
X51943Y8149D01*
X51962Y8156D01*
X51982Y8158D01*
X52076Y8198D01*
X52174Y8234D01*
X52190Y8246D01*
X52208Y8254D01*
X52339Y8359D01*
X54607Y10627D01*
X55793Y10627D01*
X55837Y10635D01*
X55881Y10633D01*
X55957Y10654D01*
X56036Y10667D01*
X56075Y10688D01*
X56118Y10700D01*
X56183Y10745D01*
X56253Y10782D01*
X56284Y10814D01*
X56320Y10840D01*
X56368Y10903D01*
X56422Y10961D01*
X56441Y11001D01*
X56468Y11037D01*
X56493Y11112D01*
X56526Y11184D01*
X56531Y11228D01*
X56545Y11270D01*
X56544Y11349D01*
X56553Y11428D01*
X56544Y11472D01*
X56543Y11516D01*
X56518Y11591D01*
X56501Y11668D01*
X56478Y11707D01*
X56463Y11749D01*
X56383Y11866D01*
X56375Y11880D01*
X56372Y11882D01*
X56368Y11887D01*
X55630Y12739D01*
X55615Y12752D01*
X55593Y12779D01*
X54964Y13409D01*
X54961Y13425D01*
X54934Y13476D01*
X54999Y14374D01*
X54997Y14394D01*
X55001Y14428D01*
X55001Y32639D01*
X54998Y32659D01*
X55000Y32678D01*
X54978Y32780D01*
X54961Y32882D01*
X54952Y32899D01*
X54948Y32919D01*
X54894Y33008D01*
X54846Y33099D01*
X54832Y33113D01*
X54821Y33130D01*
X54743Y33197D01*
X54668Y33268D01*
X54650Y33277D01*
X54634Y33290D01*
X54538Y33329D01*
X54445Y33372D01*
X54425Y33374D01*
X54406Y33382D01*
X54240Y33400D01*
X53692Y33400D01*
X53177Y33915D01*
X53103Y33968D01*
X53034Y34028D01*
X53003Y34040D01*
X52977Y34059D01*
X52890Y34085D01*
X52805Y34120D01*
X52764Y34124D01*
X52742Y34131D01*
X52710Y34130D01*
X52639Y34138D01*
X51686Y34138D01*
X49751Y36073D01*
X49751Y45756D01*
X49745Y45795D01*
X49747Y45834D01*
X49725Y45915D01*
X49711Y45999D01*
X49693Y46033D01*
X49683Y46071D01*
X49636Y46149D01*
X49743Y46899D01*
X49743Y46932D01*
X49751Y47007D01*
X49751Y49819D01*
X52430Y52498D01*
X55722Y52498D01*
X55812Y52512D01*
X55903Y52519D01*
X55933Y52532D01*
X55965Y52537D01*
X56046Y52580D01*
X56129Y52616D01*
X56162Y52641D01*
X56182Y52652D01*
X56204Y52676D01*
X56260Y52721D01*
X57826Y54286D01*
X57870Y54347D01*
X57903Y54382D01*
X57909Y54395D01*
X57938Y54430D01*
X57951Y54460D01*
X57969Y54486D01*
X57996Y54573D01*
X58030Y54658D01*
X58035Y54699D01*
X58042Y54721D01*
X58041Y54753D01*
X58049Y54824D01*
X58049Y58923D01*
X58046Y58943D01*
X58048Y58963D01*
X58026Y59064D01*
X58009Y59166D01*
X58000Y59183D01*
X57996Y59203D01*
X57942Y59292D01*
X57894Y59383D01*
X57880Y59397D01*
X57869Y59414D01*
X57791Y59481D01*
X57716Y59553D01*
X57698Y59561D01*
X57682Y59574D01*
X57586Y59613D01*
X57493Y59656D01*
X57473Y59658D01*
X57454Y59666D01*
X57288Y59684D01*
X56560Y59684D01*
X55913Y59858D01*
X55334Y60192D01*
X54861Y60665D01*
X54527Y61244D01*
X54353Y61891D01*
X54353Y62734D01*
X57783Y62734D01*
X57803Y62737D01*
X57822Y62735D01*
X57924Y62757D01*
X58026Y62773D01*
X58043Y62783D01*
X58063Y62787D01*
X58152Y62840D01*
X58243Y62889D01*
X58257Y62903D01*
X58274Y62913D01*
X58274Y62914D01*
X58342Y62992D01*
X58368Y63020D01*
X58413Y63067D01*
X58421Y63085D01*
X58434Y63101D01*
X58473Y63197D01*
X58516Y63290D01*
X58519Y63310D01*
X58526Y63329D01*
X58545Y63495D01*
X58545Y67306D01*
X59007Y67306D01*
X59653Y67133D01*
X60232Y66798D01*
X60518Y66513D01*
X60592Y66460D01*
X60661Y66400D01*
X60691Y66388D01*
X60717Y66369D01*
X60804Y66343D01*
X60889Y66308D01*
X60930Y66304D01*
X60952Y66297D01*
X60985Y66298D01*
X61056Y66290D01*
X62606Y66290D01*
X63499Y65397D01*
X63499Y61510D01*
X63490Y61481D01*
X63460Y61416D01*
X63454Y61364D01*
X63439Y61314D01*
X63440Y61243D01*
X63433Y61171D01*
X63444Y61121D01*
X63445Y61069D01*
X63470Y61001D01*
X63485Y60931D01*
X63512Y60886D01*
X63529Y60838D01*
X63574Y60782D01*
X63611Y60720D01*
X63651Y60686D01*
X63683Y60646D01*
X63743Y60607D01*
X63798Y60560D01*
X63846Y60541D01*
X63890Y60512D01*
X63959Y60495D01*
X64026Y60468D01*
X64097Y60460D01*
X64128Y60452D01*
X64152Y60454D01*
X64193Y60450D01*
X68309Y60450D01*
X68371Y60434D01*
X68470Y60404D01*
X68490Y60404D01*
X68509Y60399D01*
X68612Y60407D01*
X68716Y60410D01*
X68735Y60417D01*
X68755Y60418D01*
X68828Y60450D01*
X73309Y60450D01*
X73371Y60434D01*
X73470Y60404D01*
X73490Y60404D01*
X73509Y60399D01*
X73612Y60407D01*
X73716Y60410D01*
X73735Y60417D01*
X73755Y60418D01*
X73828Y60450D01*
X74316Y60450D01*
X74406Y60464D01*
X74497Y60471D01*
X74527Y60484D01*
X74559Y60489D01*
X74640Y60532D01*
X74724Y60568D01*
X74756Y60594D01*
X74776Y60604D01*
X74799Y60628D01*
X74855Y60673D01*
X76117Y61935D01*
X77680Y63498D01*
X86030Y63498D01*
X86743Y62784D01*
X86801Y62743D01*
X86853Y62693D01*
X86900Y62671D01*
X86942Y62641D01*
X87011Y62620D01*
X87076Y62590D01*
X87128Y62584D01*
X87178Y62568D01*
X87249Y62570D01*
X87320Y62562D01*
X87371Y62574D01*
X87423Y62575D01*
X87491Y62599D01*
X87561Y62615D01*
X87606Y62641D01*
X87654Y62659D01*
X87710Y62704D01*
X87772Y62741D01*
X87806Y62780D01*
X87846Y62813D01*
X87885Y62873D01*
X87932Y62928D01*
X87951Y62976D01*
X87979Y63020D01*
X87991Y63064D01*
X90721Y65794D01*
X94509Y65794D01*
X97188Y63116D01*
X97188Y60198D01*
X97202Y60108D01*
X97210Y60017D01*
X97222Y59987D01*
X97227Y59956D01*
X97270Y59875D01*
X97306Y59791D01*
X97332Y59759D01*
X97343Y59738D01*
X97366Y59716D01*
X97411Y59660D01*
X101305Y55766D01*
X101305Y34771D01*
X99742Y33208D01*
X95501Y28967D01*
X95489Y28951D01*
X95474Y28938D01*
X95418Y28851D01*
X95357Y28767D01*
X95352Y28748D01*
X95341Y28731D01*
X95315Y28631D01*
X95285Y28532D01*
X95286Y28512D01*
X95281Y28493D01*
X95289Y28390D01*
X95291Y28286D01*
X95298Y28267D01*
X95300Y28247D01*
X95340Y28152D01*
X95376Y28055D01*
X95388Y28039D01*
X95396Y28021D01*
X95501Y27890D01*
X96656Y26735D01*
X96656Y22947D01*
X93977Y20268D01*
X90189Y20268D01*
X87510Y22947D01*
X87510Y26735D01*
X88978Y28202D01*
X88989Y28219D01*
X89005Y28231D01*
X89061Y28318D01*
X89121Y28402D01*
X89127Y28421D01*
X89138Y28438D01*
X89163Y28538D01*
X89194Y28637D01*
X89193Y28657D01*
X89198Y28677D01*
X89190Y28780D01*
X89187Y28883D01*
X89181Y28902D01*
X89179Y28922D01*
X89139Y29017D01*
X89103Y29114D01*
X89090Y29130D01*
X89083Y29148D01*
X88978Y29279D01*
X85398Y32859D01*
X85340Y32901D01*
X85288Y32950D01*
X85240Y32972D01*
X85198Y33003D01*
X85130Y33024D01*
X85065Y33054D01*
X85013Y33060D01*
X84963Y33075D01*
X84891Y33073D01*
X84820Y33081D01*
X84769Y33070D01*
X84717Y33069D01*
X84650Y33044D01*
X84580Y33029D01*
X84535Y33002D01*
X84486Y32984D01*
X84430Y32939D01*
X84369Y32903D01*
X84335Y32863D01*
X84294Y32830D01*
X84255Y32770D01*
X84209Y32716D01*
X84189Y32667D01*
X84161Y32624D01*
X84144Y32554D01*
X84117Y32487D01*
X84109Y32416D01*
X84101Y32385D01*
X84103Y32362D01*
X84098Y32321D01*
X84098Y23293D01*
X83205Y22400D01*
X78838Y22400D01*
X78776Y22416D01*
X78677Y22446D01*
X78657Y22446D01*
X78638Y22451D01*
X78535Y22443D01*
X78431Y22440D01*
X78413Y22433D01*
X78393Y22431D01*
X78319Y22400D01*
X73838Y22400D01*
X73776Y22416D01*
X73677Y22446D01*
X73657Y22446D01*
X73638Y22451D01*
X73535Y22443D01*
X73431Y22440D01*
X73413Y22433D01*
X73393Y22431D01*
X73319Y22400D01*
X69957Y22400D01*
X69867Y22385D01*
X69776Y22378D01*
X69747Y22366D01*
X69715Y22360D01*
X69634Y22318D01*
X69550Y22282D01*
X69518Y22256D01*
X69497Y22245D01*
X69475Y22222D01*
X69419Y22177D01*
X69134Y21892D01*
X68554Y21557D01*
X67908Y21384D01*
X66835Y21384D01*
X66835Y28550D01*
X66835Y35716D01*
X67908Y35716D01*
X68554Y35542D01*
X69134Y35208D01*
X69419Y34923D01*
X69493Y34869D01*
X69562Y34810D01*
X69593Y34798D01*
X69619Y34779D01*
X69706Y34752D01*
X69791Y34718D01*
X69832Y34714D01*
X69854Y34707D01*
X69886Y34708D01*
X69957Y34700D01*
X73309Y34700D01*
X73372Y34684D01*
X73470Y34654D01*
X73490Y34654D01*
X73510Y34649D01*
X73613Y34657D01*
X73716Y34660D01*
X73735Y34667D01*
X73755Y34668D01*
X73828Y34700D01*
X77538Y34700D01*
X77557Y34703D01*
X77577Y34701D01*
X77678Y34723D01*
X77780Y34739D01*
X77798Y34749D01*
X77817Y34753D01*
X77906Y34806D01*
X77998Y34854D01*
X78011Y34869D01*
X78029Y34879D01*
X78096Y34958D01*
X78167Y35033D01*
X78175Y35051D01*
X78188Y35066D01*
X78227Y35162D01*
X78271Y35256D01*
X78273Y35276D01*
X78280Y35294D01*
X78299Y35461D01*
X78299Y38660D01*
X78315Y38723D01*
X78345Y38821D01*
X78344Y38841D01*
X78349Y38861D01*
X78341Y38964D01*
X78339Y39067D01*
X78332Y39086D01*
X78330Y39106D01*
X78299Y39179D01*
X78299Y43660D01*
X78315Y43723D01*
X78345Y43821D01*
X78344Y43841D01*
X78349Y43861D01*
X78341Y43964D01*
X78339Y44067D01*
X78332Y44086D01*
X78330Y44106D01*
X78299Y44179D01*
X78299Y47389D01*
X78296Y47409D01*
X78298Y47428D01*
X78276Y47530D01*
X78259Y47632D01*
X78250Y47649D01*
X78246Y47669D01*
X78192Y47758D01*
X78144Y47849D01*
X78130Y47863D01*
X78119Y47880D01*
X78041Y47947D01*
X77966Y48018D01*
X77948Y48027D01*
X77932Y48040D01*
X77836Y48079D01*
X77743Y48122D01*
X77723Y48124D01*
X77704Y48132D01*
X77538Y48150D01*
X73838Y48150D01*
X73776Y48166D01*
X73677Y48196D01*
X73657Y48196D01*
X73638Y48201D01*
X73534Y48193D01*
X73431Y48190D01*
X73412Y48183D01*
X73392Y48181D01*
X73319Y48150D01*
X68838Y48150D01*
X68776Y48166D01*
X68677Y48196D01*
X68657Y48196D01*
X68638Y48201D01*
X68534Y48193D01*
X68431Y48190D01*
X68412Y48183D01*
X68392Y48181D01*
X68319Y48150D01*
X65626Y48150D01*
X65606Y48147D01*
X65586Y48149D01*
X65485Y48127D01*
X65383Y48110D01*
X65365Y48101D01*
X65346Y48097D01*
X65257Y48044D01*
X65165Y47995D01*
X65152Y47981D01*
X65135Y47971D01*
X65067Y47892D01*
X64996Y47817D01*
X64988Y47799D01*
X64975Y47784D01*
X64936Y47688D01*
X64892Y47594D01*
X64890Y47574D01*
X64883Y47556D01*
X64864Y47389D01*
X64864Y47186D01*
X58324Y47186D01*
X58304Y47183D01*
X58284Y47185D01*
X58183Y47163D01*
X58081Y47147D01*
X58064Y47137D01*
X58044Y47133D01*
X57955Y47080D01*
X57864Y47031D01*
X57850Y47017D01*
X57833Y47007D01*
X57766Y46928D01*
X57694Y46853D01*
X57686Y46835D01*
X57673Y46820D01*
X57634Y46724D01*
X57591Y46630D01*
X57589Y46610D01*
X57581Y46592D01*
X57563Y46425D01*
X57566Y46405D01*
X57564Y46386D01*
X57564Y46385D01*
X57586Y46284D01*
X57602Y46182D01*
X57612Y46164D01*
X57616Y46145D01*
X57669Y46056D01*
X57717Y45965D01*
X57732Y45951D01*
X57742Y45934D01*
X57821Y45866D01*
X57896Y45795D01*
X57914Y45787D01*
X57929Y45774D01*
X58025Y45735D01*
X58119Y45692D01*
X58139Y45689D01*
X58157Y45682D01*
X58324Y45663D01*
X64864Y45663D01*
X64864Y44590D01*
X64691Y43944D01*
X64357Y43365D01*
X64071Y43079D01*
X64018Y43005D01*
X63959Y42936D01*
X63947Y42906D01*
X63928Y42880D01*
X63901Y42793D01*
X63867Y42708D01*
X63862Y42667D01*
X63855Y42645D01*
X63856Y42612D01*
X63848Y42541D01*
X63848Y39189D01*
X63833Y39127D01*
X63802Y39028D01*
X63803Y39008D01*
X63798Y38989D01*
X63806Y38886D01*
X63809Y38782D01*
X63816Y38764D01*
X63817Y38744D01*
X63848Y38670D01*
X63848Y36477D01*
X63852Y36457D01*
X63849Y36437D01*
X63871Y36336D01*
X63888Y36234D01*
X63897Y36217D01*
X63902Y36197D01*
X63955Y36108D01*
X64003Y36017D01*
X64018Y36003D01*
X64028Y35986D01*
X64107Y35919D01*
X64182Y35847D01*
X64200Y35839D01*
X64215Y35826D01*
X64311Y35787D01*
X64405Y35744D01*
X64424Y35742D01*
X64443Y35734D01*
X64610Y35716D01*
X65312Y35716D01*
X65312Y29311D01*
X61074Y29311D01*
X61054Y29308D01*
X61034Y29310D01*
X60933Y29288D01*
X60831Y29272D01*
X60814Y29262D01*
X60794Y29258D01*
X60705Y29205D01*
X60614Y29156D01*
X60613Y29156D01*
X60600Y29142D01*
X60583Y29132D01*
X60583Y29131D01*
X60582Y29131D01*
X60515Y29053D01*
X60444Y28978D01*
X60436Y28960D01*
X60423Y28944D01*
X60384Y28848D01*
X60340Y28755D01*
X60338Y28735D01*
X60331Y28716D01*
X60312Y28550D01*
X60312Y21381D01*
X60296Y21383D01*
X60195Y21361D01*
X60093Y21344D01*
X60075Y21335D01*
X60056Y21331D01*
X59967Y21278D01*
X59875Y21229D01*
X59862Y21215D01*
X59845Y21205D01*
X59777Y21126D01*
X59706Y21051D01*
X59698Y21033D01*
X59685Y21018D01*
X59646Y20922D01*
X59602Y20828D01*
X59600Y20808D01*
X59593Y20790D01*
X59574Y20623D01*
X59574Y15455D01*
X59585Y15391D01*
X59585Y15327D01*
X59604Y15271D01*
X59614Y15212D01*
X59644Y15155D01*
X59665Y15095D01*
X59714Y15024D01*
X59729Y14995D01*
X59743Y14982D01*
X59760Y14957D01*
X63528Y10604D01*
X63618Y10529D01*
X63709Y10451D01*
X63713Y10450D01*
X63717Y10447D01*
X63826Y10404D01*
X63937Y10359D01*
X63943Y10359D01*
X63946Y10357D01*
X63961Y10357D01*
X64104Y10341D01*
X66584Y10341D01*
X69262Y7662D01*
X69262Y3874D01*
X66584Y1196D01*
X62796Y1196D01*
X60991Y3000D01*
X60975Y3012D01*
X60962Y3028D01*
X60875Y3084D01*
X60791Y3144D01*
X60772Y3150D01*
X60755Y3161D01*
X60655Y3186D01*
X60556Y3216D01*
X60536Y3216D01*
X60517Y3221D01*
X60414Y3213D01*
X60310Y3210D01*
X60291Y3203D01*
X60271Y3202D01*
X60177Y3161D01*
X60079Y3126D01*
X60063Y3113D01*
X60045Y3105D01*
X59914Y3000D01*
X58396Y1482D01*
X54607Y1482D01*
X53852Y2237D01*
X53836Y2249D01*
X53823Y2264D01*
X53736Y2321D01*
X53652Y2381D01*
X53633Y2387D01*
X53617Y2397D01*
X53516Y2423D01*
X53417Y2453D01*
X53397Y2453D01*
X53378Y2457D01*
X53275Y2449D01*
X53171Y2447D01*
X53153Y2440D01*
X53133Y2438D01*
X53038Y2398D01*
X52940Y2362D01*
X52925Y2350D01*
X52906Y2342D01*
X52776Y2237D01*
X51077Y538D01*
X51035Y480D01*
X50985Y428D01*
X50963Y381D01*
X50933Y339D01*
X50912Y270D01*
X50882Y205D01*
X50876Y153D01*
X50861Y103D01*
X50863Y32D01*
X50855Y-39D01*
X50866Y-90D01*
X50867Y-142D01*
X50892Y-210D01*
X50907Y-280D01*
X50934Y-324D01*
X50952Y-373D01*
X50996Y-429D01*
X51033Y-491D01*
X51073Y-525D01*
X51105Y-565D01*
X51166Y-604D01*
X51220Y-651D01*
X51268Y-670D01*
X51312Y-698D01*
X51382Y-716D01*
X51448Y-743D01*
X51520Y-751D01*
X51551Y-759D01*
X51574Y-757D01*
X51615Y-761D01*
X74694Y-761D01*
X74765Y-750D01*
X74836Y-748D01*
X74885Y-730D01*
X74937Y-722D01*
X75000Y-688D01*
X75067Y-663D01*
X75108Y-631D01*
X75154Y-606D01*
X75204Y-554D01*
X75260Y-510D01*
X75288Y-466D01*
X75324Y-428D01*
X75354Y-363D01*
X75393Y-303D01*
X75405Y-252D01*
X75427Y-205D01*
X75435Y-134D01*
X75453Y-64D01*
X75449Y-12D01*
X75454Y39D01*
X75439Y110D01*
X75433Y181D01*
X75413Y229D01*
X75402Y280D01*
X75365Y341D01*
X75337Y407D01*
X75292Y463D01*
X75276Y491D01*
X75258Y506D01*
X75232Y538D01*
X72531Y3240D01*
X72531Y7028D01*
X75210Y9706D01*
X78998Y9706D01*
X81677Y7028D01*
X81677Y3240D01*
X78975Y538D01*
X78933Y480D01*
X78884Y428D01*
X78862Y381D01*
X78832Y339D01*
X78811Y270D01*
X78780Y205D01*
X78775Y153D01*
X78759Y103D01*
X78761Y32D01*
X78753Y-39D01*
X78764Y-90D01*
X78766Y-142D01*
X78790Y-210D01*
X78806Y-280D01*
X78832Y-325D01*
X78850Y-373D01*
X78895Y-429D01*
X78932Y-491D01*
X78971Y-525D01*
X79004Y-565D01*
X79064Y-604D01*
X79119Y-651D01*
X79167Y-670D01*
X79211Y-698D01*
X79280Y-716D01*
X79347Y-743D01*
X79418Y-751D01*
X79449Y-759D01*
X79473Y-757D01*
X79514Y-761D01*
X86871Y-761D01*
X86942Y-750D01*
X87014Y-748D01*
X87063Y-730D01*
X87114Y-722D01*
X87177Y-688D01*
X87245Y-663D01*
X87285Y-631D01*
X87331Y-606D01*
X87381Y-554D01*
X87437Y-510D01*
X87465Y-466D01*
X87501Y-428D01*
X87531Y-363D01*
X87570Y-303D01*
X87582Y-252D01*
X87604Y-205D01*
X87612Y-134D01*
X87630Y-64D01*
X87626Y-12D01*
X87631Y39D01*
X87616Y110D01*
X87611Y181D01*
X87590Y229D01*
X87579Y280D01*
X87542Y341D01*
X87514Y407D01*
X87469Y463D01*
X87453Y491D01*
X87435Y506D01*
X87409Y538D01*
X86020Y1928D01*
X86020Y5716D01*
X86644Y6340D01*
X86686Y6398D01*
X86735Y6450D01*
X86757Y6497D01*
X86787Y6540D01*
X86808Y6608D01*
X86839Y6673D01*
X86844Y6725D01*
X86860Y6775D01*
X86858Y6847D01*
X86866Y6918D01*
X86855Y6969D01*
X86853Y7021D01*
X86829Y7088D01*
X86813Y7158D01*
X86787Y7203D01*
X86769Y7252D01*
X86724Y7308D01*
X86687Y7369D01*
X86648Y7403D01*
X86615Y7444D01*
X86555Y7482D01*
X86500Y7529D01*
X86452Y7549D01*
X86408Y7577D01*
X86339Y7594D01*
X86272Y7621D01*
X86201Y7629D01*
X86170Y7637D01*
X86146Y7635D01*
X86105Y7640D01*
X83399Y7640D01*
X80436Y10602D01*
X80436Y14791D01*
X83399Y17753D01*
X87588Y17753D01*
X90550Y14791D01*
X90550Y10602D01*
X89643Y9694D01*
X89601Y9636D01*
X89551Y9584D01*
X89529Y9537D01*
X89499Y9495D01*
X89478Y9426D01*
X89448Y9361D01*
X89442Y9309D01*
X89427Y9259D01*
X89429Y9188D01*
X89421Y9117D01*
X89432Y9066D01*
X89433Y9014D01*
X89458Y8946D01*
X89473Y8876D01*
X89500Y8832D01*
X89517Y8783D01*
X89562Y8727D01*
X89599Y8665D01*
X89639Y8631D01*
X89671Y8591D01*
X89731Y8552D01*
X89786Y8505D01*
X89834Y8486D01*
X89878Y8458D01*
X89948Y8440D01*
X90014Y8413D01*
X90085Y8405D01*
X90117Y8397D01*
X90140Y8399D01*
X90181Y8395D01*
X92487Y8395D01*
X95165Y5716D01*
X95165Y1928D01*
X93776Y538D01*
X93734Y480D01*
X93684Y428D01*
X93662Y381D01*
X93632Y339D01*
X93611Y270D01*
X93581Y205D01*
X93575Y153D01*
X93560Y103D01*
X93562Y32D01*
X93554Y-39D01*
X93565Y-90D01*
X93566Y-142D01*
X93591Y-210D01*
X93606Y-280D01*
X93633Y-325D01*
X93651Y-373D01*
X93695Y-429D01*
X93732Y-491D01*
X93772Y-525D01*
X93804Y-565D01*
X93865Y-604D01*
X93919Y-651D01*
X93967Y-670D01*
X94011Y-698D01*
X94081Y-716D01*
X94147Y-743D01*
X94219Y-751D01*
X94250Y-759D01*
X94273Y-757D01*
X94314Y-761D01*
X199316Y-761D01*
X199336Y-758D01*
X199355Y-760D01*
X199457Y-738D01*
X199559Y-722D01*
X199576Y-712D01*
X199596Y-708D01*
X199685Y-655D01*
X199776Y-606D01*
X199790Y-592D01*
X199807Y-582D01*
X199874Y-503D01*
X199946Y-428D01*
X199954Y-410D01*
X199967Y-395D01*
X200006Y-299D01*
X200049Y-205D01*
X200051Y-185D01*
X200059Y-167D01*
X200077Y0D01*
X200077Y150000D01*
X200074Y150020D01*
X200076Y150039D01*
X200054Y150141D01*
X200038Y150243D01*
X200028Y150260D01*
X200024Y150280D01*
X199971Y150369D01*
X199922Y150460D01*
X199908Y150474D01*
X199898Y150491D01*
X199819Y150558D01*
X199744Y150630D01*
X199726Y150638D01*
X199711Y150651D01*
X199615Y150690D01*
X199521Y150733D01*
X199501Y150735D01*
X199483Y150743D01*
X199316Y150761D01*
X170761Y150761D01*
X170761Y200000D01*
X170758Y200020D01*
X170760Y200039D01*
X170738Y200141D01*
X170722Y200243D01*
X170712Y200260D01*
X170708Y200280D01*
X170655Y200369D01*
X170606Y200460D01*
X170592Y200474D01*
X170582Y200491D01*
X170503Y200558D01*
X170428Y200630D01*
X170410Y200638D01*
X170395Y200651D01*
X170299Y200690D01*
X170205Y200733D01*
X170185Y200735D01*
X170167Y200743D01*
X170000Y200761D01*
X0Y200761D01*
X-20Y200758D01*
X-39Y200760D01*
X-141Y200738D01*
X-243Y200722D01*
X-260Y200712D01*
X-280Y200708D01*
X-369Y200655D01*
X-460Y200606D01*
X-474Y200592D01*
X-491Y200582D01*
X-558Y200503D01*
X-630Y200428D01*
X-638Y200410D01*
X-651Y200395D01*
X-690Y200299D01*
X-733Y200205D01*
X-735Y200185D01*
X-743Y200167D01*
X-761Y200000D01*
X-761Y0D01*
X-758Y-20D01*
X-760Y-39D01*
X-738Y-141D01*
X-722Y-243D01*
X-712Y-260D01*
X-708Y-280D01*
X-655Y-369D01*
X-606Y-460D01*
X-592Y-474D01*
X-582Y-491D01*
X-503Y-558D01*
X-428Y-630D01*
X-410Y-638D01*
X-395Y-651D01*
X-299Y-690D01*
X-205Y-733D01*
X-185Y-735D01*
X-167Y-743D01*
X0Y-761D01*
X45611Y-761D01*
X45682Y-750D01*
G37*
%LPC*%
G36*
X7778Y35962D02*
X7778Y35962D01*
X7758Y35964D01*
X7740Y35972D01*
X7573Y35990D01*
X2270Y35990D01*
X2270Y37325D01*
X2443Y37972D01*
X2778Y38551D01*
X3063Y38836D01*
X3116Y38910D01*
X3176Y38980D01*
X3188Y39010D01*
X3207Y39036D01*
X3234Y39123D01*
X3268Y39208D01*
X3272Y39249D01*
X3279Y39271D01*
X3278Y39303D01*
X3286Y39375D01*
X3286Y44622D01*
X4179Y45516D01*
X7786Y45516D01*
X7877Y45530D01*
X7967Y45537D01*
X7997Y45550D01*
X8029Y45555D01*
X8110Y45598D01*
X8194Y45634D01*
X8226Y45659D01*
X8247Y45670D01*
X8269Y45694D01*
X8325Y45739D01*
X12702Y50116D01*
X13377Y50791D01*
X13419Y50849D01*
X13468Y50901D01*
X13490Y50948D01*
X13520Y50990D01*
X13542Y51059D01*
X13572Y51124D01*
X13577Y51176D01*
X13593Y51225D01*
X13591Y51297D01*
X13599Y51368D01*
X13588Y51419D01*
X13586Y51471D01*
X13562Y51539D01*
X13547Y51609D01*
X13520Y51653D01*
X13502Y51702D01*
X13457Y51758D01*
X13420Y51820D01*
X13381Y51854D01*
X13348Y51894D01*
X13288Y51933D01*
X13234Y51980D01*
X13185Y51999D01*
X13141Y52027D01*
X13072Y52045D01*
X13005Y52072D01*
X12934Y52080D01*
X12903Y52087D01*
X12880Y52086D01*
X12839Y52090D01*
X8802Y52090D01*
X5693Y55199D01*
X5693Y59401D01*
X5692Y59411D01*
X5692Y59417D01*
X5691Y59425D01*
X5692Y59440D01*
X5670Y59542D01*
X5654Y59644D01*
X5644Y59661D01*
X5640Y59681D01*
X5587Y59770D01*
X5538Y59861D01*
X5524Y59875D01*
X5514Y59892D01*
X5435Y59959D01*
X5360Y60030D01*
X5342Y60039D01*
X5327Y60052D01*
X5231Y60091D01*
X5137Y60134D01*
X5117Y60136D01*
X5099Y60144D01*
X4932Y60162D01*
X4862Y60162D01*
X4216Y60335D01*
X3636Y60670D01*
X3163Y61143D01*
X2829Y61722D01*
X2656Y62368D01*
X2656Y63704D01*
X7958Y63704D01*
X7978Y63707D01*
X7998Y63705D01*
X8099Y63727D01*
X8201Y63743D01*
X8203Y63744D01*
X8230Y63732D01*
X8249Y63730D01*
X8268Y63722D01*
X8435Y63704D01*
X13737Y63704D01*
X13737Y62480D01*
X13752Y62390D01*
X13759Y62299D01*
X13772Y62269D01*
X13777Y62237D01*
X13820Y62157D01*
X13855Y62073D01*
X13881Y62040D01*
X13892Y62020D01*
X13915Y61998D01*
X13960Y61942D01*
X15025Y60876D01*
X15041Y60865D01*
X15054Y60849D01*
X15141Y60793D01*
X15225Y60733D01*
X15244Y60727D01*
X15261Y60716D01*
X15361Y60691D01*
X15460Y60661D01*
X15480Y60661D01*
X15499Y60656D01*
X15602Y60664D01*
X15706Y60667D01*
X15725Y60674D01*
X15745Y60675D01*
X15808Y60702D01*
X24191Y60702D01*
X24521Y60372D01*
X24537Y60360D01*
X24550Y60345D01*
X24637Y60289D01*
X24721Y60228D01*
X24740Y60223D01*
X24756Y60212D01*
X24857Y60187D01*
X24956Y60156D01*
X24976Y60157D01*
X24995Y60152D01*
X25098Y60160D01*
X25202Y60162D01*
X25220Y60169D01*
X25240Y60171D01*
X25335Y60211D01*
X25433Y60247D01*
X25448Y60259D01*
X25466Y60267D01*
X25597Y60372D01*
X25928Y60702D01*
X26503Y60702D01*
X26523Y60705D01*
X26543Y60703D01*
X26644Y60725D01*
X26746Y60742D01*
X26763Y60751D01*
X26783Y60755D01*
X26872Y60809D01*
X26963Y60857D01*
X26977Y60871D01*
X26994Y60882D01*
X27061Y60960D01*
X27133Y61035D01*
X27141Y61053D01*
X27154Y61069D01*
X27193Y61165D01*
X27236Y61258D01*
X27238Y61278D01*
X27246Y61297D01*
X27264Y61463D01*
X27264Y62802D01*
X27250Y62892D01*
X27243Y62983D01*
X27230Y63013D01*
X27225Y63045D01*
X27182Y63126D01*
X27146Y63210D01*
X27121Y63242D01*
X27110Y63262D01*
X27086Y63285D01*
X27041Y63340D01*
X21697Y68685D01*
X21623Y68738D01*
X21553Y68798D01*
X21523Y68810D01*
X21497Y68829D01*
X21410Y68856D01*
X21325Y68890D01*
X21284Y68894D01*
X21262Y68901D01*
X21230Y68900D01*
X21158Y68908D01*
X14176Y68908D01*
X14082Y68893D01*
X13987Y68884D01*
X13961Y68873D01*
X13933Y68868D01*
X13849Y68824D01*
X13761Y68786D01*
X13740Y68767D01*
X13715Y68753D01*
X13650Y68684D01*
X13579Y68620D01*
X13566Y68595D01*
X13546Y68575D01*
X13506Y68489D01*
X13459Y68405D01*
X13454Y68377D01*
X13442Y68352D01*
X13432Y68257D01*
X13415Y68163D01*
X13418Y68136D01*
X13415Y68107D01*
X13436Y68014D01*
X13449Y67920D01*
X13463Y67888D01*
X13468Y67867D01*
X13485Y67839D01*
X13516Y67766D01*
X13564Y67684D01*
X13737Y67037D01*
X13737Y65702D01*
X8435Y65702D01*
X8415Y65699D01*
X8395Y65701D01*
X8294Y65679D01*
X8192Y65662D01*
X8190Y65662D01*
X8163Y65674D01*
X8144Y65676D01*
X8125Y65684D01*
X7958Y65702D01*
X2656Y65702D01*
X2656Y67037D01*
X2829Y67684D01*
X3163Y68263D01*
X3449Y68548D01*
X3502Y68622D01*
X3561Y68692D01*
X3574Y68722D01*
X3592Y68748D01*
X3619Y68835D01*
X3653Y68920D01*
X3658Y68961D01*
X3665Y68983D01*
X3664Y69015D01*
X3672Y69087D01*
X3672Y74335D01*
X4565Y75228D01*
X5149Y75228D01*
X5168Y75231D01*
X5188Y75229D01*
X5289Y75251D01*
X5391Y75267D01*
X5409Y75277D01*
X5428Y75281D01*
X5517Y75334D01*
X5609Y75382D01*
X5622Y75397D01*
X5639Y75407D01*
X5707Y75486D01*
X5778Y75561D01*
X5786Y75579D01*
X5799Y75594D01*
X5838Y75690D01*
X5882Y75784D01*
X5884Y75804D01*
X5891Y75822D01*
X5910Y75989D01*
X5910Y77252D01*
X5895Y77342D01*
X5888Y77433D01*
X5875Y77463D01*
X5870Y77495D01*
X5827Y77575D01*
X5792Y77659D01*
X5766Y77691D01*
X5755Y77712D01*
X5732Y77734D01*
X5687Y77790D01*
X4739Y78738D01*
X4739Y82526D01*
X7418Y85205D01*
X11206Y85205D01*
X13885Y82526D01*
X13885Y78738D01*
X11639Y76493D01*
X11628Y76477D01*
X11612Y76464D01*
X11556Y76377D01*
X11496Y76293D01*
X11490Y76274D01*
X11479Y76257D01*
X11454Y76157D01*
X11423Y76058D01*
X11424Y76038D01*
X11419Y76019D01*
X11427Y75916D01*
X11430Y75812D01*
X11437Y75793D01*
X11438Y75774D01*
X11479Y75679D01*
X11514Y75581D01*
X11527Y75566D01*
X11535Y75547D01*
X11639Y75416D01*
X12335Y74721D01*
X12409Y74668D01*
X12479Y74608D01*
X12509Y74596D01*
X12535Y74577D01*
X12622Y74550D01*
X12707Y74516D01*
X12748Y74512D01*
X12770Y74505D01*
X12802Y74506D01*
X12873Y74498D01*
X23789Y74498D01*
X32854Y65433D01*
X32854Y61463D01*
X32857Y61444D01*
X32855Y61424D01*
X32877Y61323D01*
X32894Y61221D01*
X32903Y61203D01*
X32907Y61184D01*
X32960Y61095D01*
X33009Y61003D01*
X33023Y60990D01*
X33033Y60972D01*
X33112Y60905D01*
X33187Y60834D01*
X33205Y60826D01*
X33220Y60813D01*
X33316Y60774D01*
X33410Y60730D01*
X33430Y60728D01*
X33448Y60721D01*
X33615Y60702D01*
X34191Y60702D01*
X34974Y59919D01*
X35032Y59877D01*
X35084Y59828D01*
X35131Y59806D01*
X35173Y59776D01*
X35242Y59755D01*
X35307Y59724D01*
X35359Y59719D01*
X35408Y59703D01*
X35480Y59705D01*
X35551Y59697D01*
X35602Y59708D01*
X35654Y59710D01*
X35722Y59734D01*
X35792Y59750D01*
X35836Y59776D01*
X35885Y59794D01*
X35941Y59839D01*
X36003Y59876D01*
X36037Y59915D01*
X36077Y59948D01*
X36116Y60008D01*
X36163Y60063D01*
X36182Y60111D01*
X36210Y60155D01*
X36228Y60224D01*
X36255Y60291D01*
X36262Y60362D01*
X36270Y60393D01*
X36269Y60417D01*
X36273Y60458D01*
X36273Y75509D01*
X36258Y75599D01*
X36251Y75690D01*
X36239Y75720D01*
X36233Y75752D01*
X36191Y75833D01*
X36155Y75917D01*
X36129Y75949D01*
X36118Y75969D01*
X36095Y75992D01*
X36050Y76048D01*
X33517Y78581D01*
X33517Y82369D01*
X36195Y85048D01*
X39983Y85048D01*
X42662Y82369D01*
X42662Y78581D01*
X41069Y76989D01*
X41016Y76915D01*
X40957Y76845D01*
X40945Y76815D01*
X40926Y76789D01*
X40899Y76702D01*
X40865Y76617D01*
X40860Y76576D01*
X40854Y76554D01*
X40854Y76522D01*
X40847Y76450D01*
X40847Y52498D01*
X35307Y46958D01*
X35262Y46897D01*
X35232Y46864D01*
X35226Y46852D01*
X35194Y46815D01*
X35182Y46785D01*
X35163Y46759D01*
X35137Y46672D01*
X35102Y46587D01*
X35098Y46546D01*
X35091Y46524D01*
X35092Y46491D01*
X35084Y46420D01*
X35084Y37546D01*
X34191Y36653D01*
X25928Y36653D01*
X25597Y36983D01*
X25581Y36995D01*
X25569Y37010D01*
X25482Y37066D01*
X25398Y37126D01*
X25379Y37132D01*
X25362Y37143D01*
X25261Y37168D01*
X25163Y37199D01*
X25143Y37198D01*
X25123Y37203D01*
X25020Y37195D01*
X24917Y37192D01*
X24898Y37186D01*
X24878Y37184D01*
X24783Y37144D01*
X24686Y37108D01*
X24670Y37095D01*
X24652Y37088D01*
X24521Y36983D01*
X24191Y36653D01*
X15928Y36653D01*
X15034Y37546D01*
X15034Y38435D01*
X15031Y38455D01*
X15033Y38474D01*
X15011Y38576D01*
X14995Y38678D01*
X14985Y38695D01*
X14981Y38715D01*
X14928Y38804D01*
X14880Y38895D01*
X14865Y38909D01*
X14855Y38926D01*
X14776Y38993D01*
X14701Y39064D01*
X14683Y39073D01*
X14668Y39086D01*
X14572Y39124D01*
X14478Y39168D01*
X14458Y39170D01*
X14440Y39178D01*
X14273Y39196D01*
X13790Y39196D01*
X13696Y39181D01*
X13601Y39172D01*
X13575Y39161D01*
X13547Y39156D01*
X13463Y39112D01*
X13376Y39073D01*
X13355Y39054D01*
X13330Y39041D01*
X13264Y38972D01*
X13194Y38908D01*
X13180Y38883D01*
X13161Y38863D01*
X13120Y38777D01*
X13074Y38693D01*
X13069Y38665D01*
X13057Y38640D01*
X13046Y38545D01*
X13029Y38451D01*
X13033Y38423D01*
X13030Y38395D01*
X13050Y38302D01*
X13063Y38208D01*
X13078Y38175D01*
X13082Y38155D01*
X13099Y38127D01*
X13131Y38054D01*
X13179Y37971D01*
X13352Y37325D01*
X13352Y35990D01*
X8049Y35990D01*
X8030Y35987D01*
X8010Y35989D01*
X7908Y35967D01*
X7806Y35950D01*
X7805Y35949D01*
X7778Y35962D01*
G37*
%LPD*%
%LPC*%
G36*
X182459Y2225D02*
X182459Y2225D01*
X177764Y4170D01*
X174170Y7764D01*
X172225Y12459D01*
X172225Y17541D01*
X174170Y22236D01*
X177764Y25830D01*
X182459Y27775D01*
X187541Y27775D01*
X192236Y25830D01*
X195830Y22236D01*
X197775Y17541D01*
X197775Y12459D01*
X195830Y7764D01*
X192236Y4170D01*
X187541Y2225D01*
X182459Y2225D01*
G37*
%LPD*%
%LPC*%
G36*
X4387Y12321D02*
X4387Y12321D01*
X1278Y15430D01*
X1278Y19826D01*
X4387Y22935D01*
X8783Y22935D01*
X9926Y21791D01*
X9943Y21780D01*
X9955Y21764D01*
X10042Y21708D01*
X10126Y21648D01*
X10145Y21642D01*
X10162Y21631D01*
X10262Y21606D01*
X10361Y21575D01*
X10381Y21576D01*
X10401Y21571D01*
X10503Y21579D01*
X10607Y21582D01*
X10626Y21589D01*
X10646Y21590D01*
X10741Y21631D01*
X10838Y21666D01*
X10854Y21679D01*
X10872Y21686D01*
X11003Y21791D01*
X12453Y23242D01*
X16850Y23242D01*
X19958Y20133D01*
X19958Y15737D01*
X16850Y12628D01*
X12453Y12628D01*
X11310Y13772D01*
X11294Y13783D01*
X11281Y13799D01*
X11194Y13855D01*
X11110Y13915D01*
X11091Y13921D01*
X11074Y13932D01*
X10974Y13957D01*
X10875Y13988D01*
X10855Y13987D01*
X10836Y13992D01*
X10733Y13984D01*
X10629Y13981D01*
X10610Y13974D01*
X10590Y13973D01*
X10496Y13932D01*
X10398Y13897D01*
X10382Y13884D01*
X10364Y13876D01*
X10233Y13772D01*
X8783Y12321D01*
X4387Y12321D01*
G37*
%LPD*%
%LPC*%
G36*
X72492Y77107D02*
X72492Y77107D01*
X70805Y78794D01*
X70789Y78806D01*
X70777Y78821D01*
X70690Y78877D01*
X70606Y78938D01*
X70587Y78943D01*
X70570Y78954D01*
X70469Y78979D01*
X70371Y79010D01*
X70351Y79009D01*
X70331Y79014D01*
X70228Y79006D01*
X70125Y79004D01*
X70106Y78997D01*
X70086Y78995D01*
X69991Y78955D01*
X69894Y78919D01*
X69878Y78907D01*
X69860Y78899D01*
X69729Y78794D01*
X68390Y77455D01*
X64601Y77455D01*
X61923Y80133D01*
X61923Y83921D01*
X64601Y86600D01*
X68390Y86600D01*
X70076Y84914D01*
X70092Y84902D01*
X70105Y84886D01*
X70192Y84830D01*
X70276Y84770D01*
X70295Y84764D01*
X70312Y84753D01*
X70412Y84728D01*
X70511Y84698D01*
X70531Y84698D01*
X70550Y84693D01*
X70653Y84701D01*
X70757Y84704D01*
X70776Y84711D01*
X70795Y84712D01*
X70890Y84753D01*
X70988Y84788D01*
X71003Y84801D01*
X71022Y84809D01*
X71153Y84914D01*
X72492Y86253D01*
X76280Y86253D01*
X78959Y83574D01*
X78959Y79786D01*
X76280Y77107D01*
X72492Y77107D01*
G37*
%LPD*%
%LPC*%
G36*
X10637Y115528D02*
X10637Y115528D01*
X7528Y118637D01*
X7528Y123033D01*
X10637Y126142D01*
X15033Y126142D01*
X18142Y123033D01*
X18142Y118637D01*
X15033Y115528D01*
X10637Y115528D01*
G37*
%LPD*%
%LPC*%
G36*
X89072Y68425D02*
X89072Y68425D01*
X86394Y71104D01*
X86394Y74892D01*
X89072Y77570D01*
X92860Y77570D01*
X95539Y74892D01*
X95539Y71104D01*
X92860Y68425D01*
X89072Y68425D01*
G37*
%LPD*%
%LPC*%
G36*
X61835Y21384D02*
X61835Y21384D01*
X61835Y27788D01*
X65312Y27788D01*
X65312Y21384D01*
X64239Y21384D01*
X63771Y21510D01*
X63656Y21521D01*
X63542Y21535D01*
X63533Y21533D01*
X63526Y21534D01*
X63504Y21529D01*
X63377Y21510D01*
X62908Y21384D01*
X61835Y21384D01*
G37*
%LPD*%
%LPC*%
G36*
X8810Y30450D02*
X8810Y30450D01*
X8810Y33992D01*
X13352Y33992D01*
X13352Y32656D01*
X13179Y32010D01*
X12844Y31431D01*
X12371Y30958D01*
X11792Y30623D01*
X11145Y30450D01*
X8810Y30450D01*
G37*
%LPD*%
%LPC*%
G36*
X4477Y30450D02*
X4477Y30450D01*
X3830Y30623D01*
X3251Y30958D01*
X2778Y31431D01*
X2443Y32010D01*
X2270Y32656D01*
X2270Y33992D01*
X6812Y33992D01*
X6812Y30450D01*
X4477Y30450D01*
G37*
%LPD*%
%LPC*%
G36*
X54353Y64257D02*
X54353Y64257D01*
X54353Y65100D01*
X54527Y65746D01*
X54861Y66325D01*
X55334Y66798D01*
X55913Y67133D01*
X56560Y67306D01*
X57022Y67306D01*
X57022Y64257D01*
X54353Y64257D01*
G37*
%LPD*%
D10*
X57783Y63495D03*
X61085Y63495D03*
D11*
X8197Y64703D03*
X8197Y71703D03*
X7811Y34991D03*
X7811Y41991D03*
D12*
X-23592Y174080D03*
X-23592Y148680D03*
X-23592Y123280D03*
X-23592Y97880D03*
X-23592Y72480D03*
X-23592Y47080D03*
X-23592Y21680D03*
D13*
X61074Y54300D03*
X66074Y54300D03*
X71074Y54300D03*
X76074Y54300D03*
X81074Y54300D03*
D14*
X83824Y46425D03*
X83824Y41425D03*
X83824Y36425D03*
D13*
X81074Y28550D03*
X76074Y28550D03*
X71074Y28550D03*
X66074Y28550D03*
X61074Y28550D03*
D14*
X58324Y36425D03*
X58324Y41425D03*
X58324Y46425D03*
D15*
X30059Y41927D03*
X30059Y55427D03*
X20059Y55427D03*
X20059Y41927D03*
D16*
X90966Y72998D03*
D17*
X19996Y41991D02*
X7811Y41991D01*
X19996Y41991D02*
X20059Y41927D01*
D18*
X15212Y49391D02*
X7811Y41991D01*
X15212Y49391D02*
X34506Y49391D01*
X38560Y53445D01*
X38560Y80005D02*
X38089Y80475D01*
D16*
X38089Y80475D03*
D18*
X38560Y80005D02*
X38560Y53445D01*
D17*
X22631Y71703D02*
X8197Y71703D01*
X30059Y64275D02*
X30059Y55427D01*
X30059Y64275D02*
X22631Y71703D01*
D18*
X8197Y71703D02*
X8197Y79517D01*
X9312Y80632D01*
D16*
X9312Y80632D03*
X66495Y82027D03*
X74386Y81680D03*
D18*
X83824Y46425D02*
X84778Y45471D01*
X93684Y45471D01*
D16*
X93684Y45471D03*
X93202Y53091D03*
D18*
X78627Y61211D02*
X77288Y59872D01*
X77288Y55514D01*
X76074Y54300D01*
X78627Y61211D02*
X85082Y61211D01*
X93202Y53091D01*
D16*
X92615Y61222D03*
D18*
X94605Y31305D02*
X90186Y31305D01*
X85066Y36425D02*
X83824Y36425D01*
X85066Y36425D02*
X90186Y31305D01*
X94605Y31305D02*
X99018Y35718D01*
X99018Y54819D01*
X92615Y61222D01*
X53377Y50211D02*
X52038Y48872D01*
X53377Y50211D02*
X56985Y50211D01*
X61074Y54300D01*
X61074Y63484D02*
X61085Y63495D01*
X61074Y63484D02*
X61074Y54300D01*
D16*
X64690Y5768D03*
D18*
X57288Y34122D02*
X58324Y35158D01*
X58324Y36425D01*
X57288Y14319D02*
X64690Y5768D01*
X57288Y14319D02*
X57288Y34122D01*
X52038Y46791D02*
X52038Y48872D01*
X52038Y46791D02*
X52039Y46789D01*
X52038Y46779D01*
X52038Y37020D01*
X52633Y36425D02*
X58324Y36425D01*
X52633Y36425D02*
X52038Y37020D01*
X83824Y41425D02*
X87609Y41425D01*
X92396Y36639D01*
D16*
X92396Y36639D03*
D19*
X71492Y41715D03*
D16*
X46000Y61500D03*
X46000Y51500D03*
X38500Y44000D03*
X46000Y31500D03*
X36000Y26500D03*
X95558Y14913D03*
D18*
X48369Y42520D02*
X48654Y44574D01*
X48846Y45958D01*
X41000Y31500D02*
X36000Y26500D01*
X41000Y31500D02*
X46000Y31500D01*
D16*
X36362Y6057D03*
D18*
X57722Y45824D02*
X58324Y46425D01*
D16*
X24372Y4260D03*
D20*
X140000Y15000D03*
D21*
X14651Y17935D03*
X6585Y17628D03*
D22*
X85493Y12696D03*
D16*
X90593Y3822D03*
D21*
X11000Y57397D03*
X12835Y120835D03*
D16*
X48613Y4541D03*
X77104Y5134D03*
D20*
X185000Y15000D03*
D16*
X56502Y6055D03*
X92083Y24841D03*
M02*
