G04 EAGLE Gerber X2 export*
%TF.Part,Single*%
%TF.FileFunction,Legend,Bot,1*%
%TF.FilePolarity,Positive*%
%TF.GenerationSoftware,Autodesk,EAGLE,9.0.0*%
%TF.CreationDate,2018-06-19T20:47:43Z*%
G75*
%MOMM*%
%FSLAX34Y34*%
%LPD*%
%AMOC8*
5,1,8,0,0,1.08239X$1,22.5*%
G01*
%ADD10C,0.050800*%
%ADD11C,0.152400*%


D10*
X69746Y189542D02*
X69746Y195130D01*
X67262Y195130D01*
X67262Y192646D02*
X69746Y192646D01*
X64947Y195130D02*
X64947Y189542D01*
X63084Y192026D02*
X64947Y195130D01*
X63084Y192026D02*
X61222Y195130D01*
X61222Y189542D01*
X58336Y192646D02*
X56783Y192646D01*
X56706Y192644D01*
X56628Y192638D01*
X56552Y192629D01*
X56475Y192615D01*
X56400Y192598D01*
X56326Y192577D01*
X56252Y192552D01*
X56180Y192524D01*
X56110Y192492D01*
X56041Y192457D01*
X55974Y192418D01*
X55909Y192376D01*
X55846Y192331D01*
X55785Y192283D01*
X55727Y192232D01*
X55672Y192178D01*
X55619Y192121D01*
X55570Y192062D01*
X55523Y192000D01*
X55479Y191936D01*
X55439Y191870D01*
X55402Y191802D01*
X55368Y191732D01*
X55338Y191661D01*
X55312Y191588D01*
X55289Y191514D01*
X55270Y191439D01*
X55255Y191364D01*
X55243Y191287D01*
X55235Y191210D01*
X55231Y191133D01*
X55231Y191055D01*
X55235Y190978D01*
X55243Y190901D01*
X55255Y190824D01*
X55270Y190749D01*
X55289Y190674D01*
X55312Y190600D01*
X55338Y190527D01*
X55368Y190456D01*
X55402Y190386D01*
X55439Y190318D01*
X55479Y190252D01*
X55523Y190188D01*
X55570Y190126D01*
X55619Y190067D01*
X55672Y190010D01*
X55727Y189956D01*
X55785Y189905D01*
X55846Y189857D01*
X55909Y189812D01*
X55974Y189770D01*
X56041Y189731D01*
X56110Y189696D01*
X56180Y189664D01*
X56252Y189636D01*
X56326Y189611D01*
X56400Y189590D01*
X56475Y189573D01*
X56552Y189559D01*
X56628Y189550D01*
X56706Y189544D01*
X56783Y189542D01*
X58336Y189542D01*
X58336Y195130D01*
X56783Y195130D01*
X56713Y195128D01*
X56644Y195122D01*
X56575Y195112D01*
X56507Y195099D01*
X56439Y195081D01*
X56373Y195060D01*
X56308Y195035D01*
X56244Y195007D01*
X56182Y194975D01*
X56122Y194940D01*
X56064Y194901D01*
X56009Y194859D01*
X55955Y194814D01*
X55905Y194766D01*
X55857Y194716D01*
X55812Y194662D01*
X55770Y194607D01*
X55731Y194549D01*
X55696Y194489D01*
X55664Y194427D01*
X55636Y194363D01*
X55611Y194298D01*
X55590Y194232D01*
X55572Y194164D01*
X55559Y194096D01*
X55549Y194027D01*
X55543Y193958D01*
X55541Y193888D01*
X55543Y193818D01*
X55549Y193749D01*
X55559Y193680D01*
X55572Y193612D01*
X55590Y193544D01*
X55611Y193478D01*
X55636Y193413D01*
X55664Y193349D01*
X55696Y193287D01*
X55731Y193227D01*
X55770Y193169D01*
X55812Y193114D01*
X55857Y193060D01*
X55905Y193010D01*
X55955Y192962D01*
X56009Y192917D01*
X56064Y192875D01*
X56122Y192836D01*
X56182Y192801D01*
X56244Y192769D01*
X56308Y192741D01*
X56373Y192716D01*
X56439Y192695D01*
X56507Y192677D01*
X56575Y192664D01*
X56644Y192654D01*
X56713Y192648D01*
X56783Y192646D01*
X51929Y195130D02*
X51929Y189542D01*
X53481Y195130D02*
X50376Y195130D01*
X47484Y189542D02*
X45932Y189542D01*
X47484Y189542D02*
X47542Y189544D01*
X47601Y189549D01*
X47658Y189558D01*
X47716Y189571D01*
X47772Y189588D01*
X47827Y189607D01*
X47880Y189631D01*
X47933Y189657D01*
X47983Y189687D01*
X48031Y189720D01*
X48077Y189756D01*
X48121Y189794D01*
X48163Y189836D01*
X48201Y189880D01*
X48237Y189926D01*
X48270Y189974D01*
X48300Y190024D01*
X48326Y190077D01*
X48350Y190130D01*
X48369Y190185D01*
X48386Y190241D01*
X48399Y190299D01*
X48408Y190356D01*
X48413Y190415D01*
X48415Y190473D01*
X48416Y190473D02*
X48416Y192026D01*
X48414Y192096D01*
X48408Y192165D01*
X48398Y192234D01*
X48385Y192302D01*
X48367Y192370D01*
X48346Y192436D01*
X48321Y192501D01*
X48293Y192565D01*
X48261Y192627D01*
X48226Y192687D01*
X48187Y192745D01*
X48145Y192800D01*
X48100Y192854D01*
X48052Y192904D01*
X48002Y192952D01*
X47948Y192997D01*
X47893Y193039D01*
X47835Y193078D01*
X47775Y193113D01*
X47713Y193145D01*
X47649Y193173D01*
X47584Y193198D01*
X47518Y193219D01*
X47450Y193237D01*
X47382Y193250D01*
X47313Y193260D01*
X47244Y193266D01*
X47174Y193268D01*
X47104Y193266D01*
X47035Y193260D01*
X46966Y193250D01*
X46898Y193237D01*
X46830Y193219D01*
X46764Y193198D01*
X46699Y193173D01*
X46635Y193145D01*
X46573Y193113D01*
X46513Y193078D01*
X46455Y193039D01*
X46400Y192997D01*
X46346Y192952D01*
X46296Y192904D01*
X46248Y192854D01*
X46203Y192800D01*
X46161Y192745D01*
X46122Y192687D01*
X46087Y192627D01*
X46055Y192565D01*
X46027Y192501D01*
X46002Y192436D01*
X45981Y192370D01*
X45963Y192302D01*
X45950Y192234D01*
X45940Y192165D01*
X45934Y192096D01*
X45932Y192026D01*
X45932Y191405D01*
X48416Y191405D01*
X42723Y189542D02*
X41481Y189542D01*
X42723Y189542D02*
X42781Y189544D01*
X42840Y189549D01*
X42897Y189558D01*
X42955Y189571D01*
X43011Y189588D01*
X43066Y189607D01*
X43119Y189631D01*
X43172Y189657D01*
X43222Y189687D01*
X43270Y189720D01*
X43316Y189756D01*
X43360Y189794D01*
X43402Y189836D01*
X43440Y189880D01*
X43476Y189926D01*
X43509Y189974D01*
X43539Y190024D01*
X43565Y190077D01*
X43589Y190130D01*
X43608Y190185D01*
X43625Y190241D01*
X43638Y190299D01*
X43647Y190356D01*
X43652Y190415D01*
X43654Y190473D01*
X43654Y192336D01*
X43652Y192394D01*
X43647Y192453D01*
X43638Y192510D01*
X43625Y192568D01*
X43608Y192624D01*
X43589Y192679D01*
X43565Y192732D01*
X43539Y192785D01*
X43509Y192835D01*
X43476Y192883D01*
X43440Y192929D01*
X43402Y192973D01*
X43360Y193015D01*
X43316Y193053D01*
X43270Y193089D01*
X43222Y193122D01*
X43172Y193152D01*
X43119Y193178D01*
X43066Y193202D01*
X43011Y193221D01*
X42955Y193238D01*
X42897Y193251D01*
X42840Y193260D01*
X42781Y193265D01*
X42723Y193267D01*
X41481Y193267D01*
X39272Y195130D02*
X39272Y189542D01*
X39272Y193267D02*
X37719Y193267D01*
X37661Y193265D01*
X37602Y193260D01*
X37545Y193251D01*
X37487Y193238D01*
X37431Y193221D01*
X37376Y193202D01*
X37323Y193178D01*
X37270Y193152D01*
X37220Y193122D01*
X37172Y193089D01*
X37126Y193053D01*
X37082Y193015D01*
X37040Y192973D01*
X37002Y192929D01*
X36966Y192883D01*
X36933Y192835D01*
X36903Y192785D01*
X36877Y192732D01*
X36853Y192679D01*
X36834Y192624D01*
X36817Y192568D01*
X36804Y192510D01*
X36795Y192453D01*
X36790Y192394D01*
X36788Y192336D01*
X36788Y189542D01*
X34151Y189542D02*
X34151Y193267D01*
X32599Y193267D01*
X32541Y193265D01*
X32482Y193260D01*
X32425Y193251D01*
X32367Y193238D01*
X32311Y193221D01*
X32256Y193202D01*
X32203Y193178D01*
X32150Y193152D01*
X32100Y193122D01*
X32052Y193089D01*
X32006Y193053D01*
X31962Y193015D01*
X31920Y192973D01*
X31882Y192929D01*
X31846Y192883D01*
X31813Y192835D01*
X31783Y192785D01*
X31757Y192732D01*
X31733Y192679D01*
X31714Y192624D01*
X31697Y192568D01*
X31684Y192510D01*
X31675Y192453D01*
X31670Y192394D01*
X31668Y192336D01*
X31668Y189542D01*
X29213Y190784D02*
X29213Y192026D01*
X29214Y192026D02*
X29212Y192096D01*
X29206Y192165D01*
X29196Y192234D01*
X29183Y192302D01*
X29165Y192370D01*
X29144Y192436D01*
X29119Y192501D01*
X29091Y192565D01*
X29059Y192627D01*
X29024Y192687D01*
X28985Y192745D01*
X28943Y192800D01*
X28898Y192854D01*
X28850Y192904D01*
X28800Y192952D01*
X28746Y192997D01*
X28691Y193039D01*
X28633Y193078D01*
X28573Y193113D01*
X28511Y193145D01*
X28447Y193173D01*
X28382Y193198D01*
X28316Y193219D01*
X28248Y193237D01*
X28180Y193250D01*
X28111Y193260D01*
X28042Y193266D01*
X27972Y193268D01*
X27902Y193266D01*
X27833Y193260D01*
X27764Y193250D01*
X27696Y193237D01*
X27628Y193219D01*
X27562Y193198D01*
X27497Y193173D01*
X27433Y193145D01*
X27371Y193113D01*
X27311Y193078D01*
X27253Y193039D01*
X27198Y192997D01*
X27144Y192952D01*
X27094Y192904D01*
X27046Y192854D01*
X27001Y192800D01*
X26959Y192745D01*
X26920Y192687D01*
X26885Y192627D01*
X26853Y192565D01*
X26825Y192501D01*
X26800Y192436D01*
X26779Y192370D01*
X26761Y192302D01*
X26748Y192234D01*
X26738Y192165D01*
X26732Y192096D01*
X26730Y192026D01*
X26730Y190784D01*
X26732Y190714D01*
X26738Y190645D01*
X26748Y190576D01*
X26761Y190508D01*
X26779Y190440D01*
X26800Y190374D01*
X26825Y190309D01*
X26853Y190245D01*
X26885Y190183D01*
X26920Y190123D01*
X26959Y190065D01*
X27001Y190010D01*
X27046Y189956D01*
X27094Y189906D01*
X27144Y189858D01*
X27198Y189813D01*
X27253Y189771D01*
X27311Y189732D01*
X27371Y189697D01*
X27433Y189665D01*
X27497Y189637D01*
X27562Y189612D01*
X27628Y189591D01*
X27696Y189573D01*
X27764Y189560D01*
X27833Y189550D01*
X27902Y189544D01*
X27972Y189542D01*
X28042Y189544D01*
X28111Y189550D01*
X28180Y189560D01*
X28248Y189573D01*
X28316Y189591D01*
X28382Y189612D01*
X28447Y189637D01*
X28511Y189665D01*
X28573Y189697D01*
X28633Y189732D01*
X28691Y189771D01*
X28746Y189813D01*
X28800Y189858D01*
X28850Y189906D01*
X28898Y189956D01*
X28943Y190010D01*
X28985Y190065D01*
X29024Y190123D01*
X29059Y190183D01*
X29091Y190245D01*
X29119Y190309D01*
X29144Y190374D01*
X29165Y190440D01*
X29183Y190508D01*
X29196Y190576D01*
X29206Y190645D01*
X29212Y190714D01*
X29214Y190784D01*
X24389Y190473D02*
X24389Y195130D01*
X24389Y190473D02*
X24387Y190415D01*
X24382Y190356D01*
X24373Y190299D01*
X24360Y190241D01*
X24343Y190185D01*
X24324Y190130D01*
X24300Y190077D01*
X24274Y190024D01*
X24244Y189974D01*
X24211Y189926D01*
X24175Y189880D01*
X24137Y189836D01*
X24095Y189794D01*
X24051Y189756D01*
X24005Y189720D01*
X23957Y189687D01*
X23907Y189657D01*
X23854Y189631D01*
X23801Y189607D01*
X23746Y189588D01*
X23690Y189571D01*
X23632Y189558D01*
X23575Y189549D01*
X23516Y189544D01*
X23458Y189542D01*
X21532Y190784D02*
X21532Y192026D01*
X21533Y192026D02*
X21531Y192096D01*
X21525Y192165D01*
X21515Y192234D01*
X21502Y192302D01*
X21484Y192370D01*
X21463Y192436D01*
X21438Y192501D01*
X21410Y192565D01*
X21378Y192627D01*
X21343Y192687D01*
X21304Y192745D01*
X21262Y192800D01*
X21217Y192854D01*
X21169Y192904D01*
X21119Y192952D01*
X21065Y192997D01*
X21010Y193039D01*
X20952Y193078D01*
X20892Y193113D01*
X20830Y193145D01*
X20766Y193173D01*
X20701Y193198D01*
X20635Y193219D01*
X20567Y193237D01*
X20499Y193250D01*
X20430Y193260D01*
X20361Y193266D01*
X20291Y193268D01*
X20221Y193266D01*
X20152Y193260D01*
X20083Y193250D01*
X20015Y193237D01*
X19947Y193219D01*
X19881Y193198D01*
X19816Y193173D01*
X19752Y193145D01*
X19690Y193113D01*
X19630Y193078D01*
X19572Y193039D01*
X19517Y192997D01*
X19463Y192952D01*
X19413Y192904D01*
X19365Y192854D01*
X19320Y192800D01*
X19278Y192745D01*
X19239Y192687D01*
X19204Y192627D01*
X19172Y192565D01*
X19144Y192501D01*
X19119Y192436D01*
X19098Y192370D01*
X19080Y192302D01*
X19067Y192234D01*
X19057Y192165D01*
X19051Y192096D01*
X19049Y192026D01*
X19049Y190784D01*
X19051Y190714D01*
X19057Y190645D01*
X19067Y190576D01*
X19080Y190508D01*
X19098Y190440D01*
X19119Y190374D01*
X19144Y190309D01*
X19172Y190245D01*
X19204Y190183D01*
X19239Y190123D01*
X19278Y190065D01*
X19320Y190010D01*
X19365Y189956D01*
X19413Y189906D01*
X19463Y189858D01*
X19517Y189813D01*
X19572Y189771D01*
X19630Y189732D01*
X19690Y189697D01*
X19752Y189665D01*
X19816Y189637D01*
X19881Y189612D01*
X19947Y189591D01*
X20015Y189573D01*
X20083Y189560D01*
X20152Y189550D01*
X20221Y189544D01*
X20291Y189542D01*
X20361Y189544D01*
X20430Y189550D01*
X20499Y189560D01*
X20567Y189573D01*
X20635Y189591D01*
X20701Y189612D01*
X20766Y189637D01*
X20830Y189665D01*
X20892Y189697D01*
X20952Y189732D01*
X21010Y189771D01*
X21065Y189813D01*
X21119Y189858D01*
X21169Y189906D01*
X21217Y189956D01*
X21262Y190010D01*
X21304Y190065D01*
X21343Y190123D01*
X21378Y190183D01*
X21410Y190245D01*
X21438Y190309D01*
X21463Y190374D01*
X21484Y190440D01*
X21502Y190508D01*
X21515Y190576D01*
X21525Y190645D01*
X21531Y190714D01*
X21533Y190784D01*
X15875Y189542D02*
X14323Y189542D01*
X15875Y189542D02*
X15933Y189544D01*
X15992Y189549D01*
X16049Y189558D01*
X16107Y189571D01*
X16163Y189588D01*
X16218Y189607D01*
X16271Y189631D01*
X16324Y189657D01*
X16374Y189687D01*
X16422Y189720D01*
X16468Y189756D01*
X16512Y189794D01*
X16554Y189836D01*
X16592Y189880D01*
X16628Y189926D01*
X16661Y189974D01*
X16691Y190024D01*
X16717Y190077D01*
X16741Y190130D01*
X16760Y190185D01*
X16777Y190241D01*
X16790Y190299D01*
X16799Y190356D01*
X16804Y190415D01*
X16806Y190473D01*
X16806Y192336D01*
X16804Y192394D01*
X16799Y192453D01*
X16790Y192510D01*
X16777Y192568D01*
X16760Y192624D01*
X16741Y192679D01*
X16717Y192732D01*
X16691Y192785D01*
X16661Y192835D01*
X16628Y192883D01*
X16592Y192929D01*
X16554Y192973D01*
X16512Y193015D01*
X16468Y193053D01*
X16422Y193089D01*
X16374Y193122D01*
X16324Y193152D01*
X16271Y193178D01*
X16218Y193202D01*
X16163Y193221D01*
X16107Y193238D01*
X16049Y193251D01*
X15992Y193260D01*
X15933Y193265D01*
X15875Y193267D01*
X14323Y193267D01*
X14323Y188611D01*
X14325Y188550D01*
X14331Y188489D01*
X14341Y188429D01*
X14355Y188370D01*
X14372Y188312D01*
X14394Y188255D01*
X14419Y188199D01*
X14448Y188146D01*
X14480Y188094D01*
X14515Y188044D01*
X14554Y187997D01*
X14596Y187953D01*
X14640Y187911D01*
X14687Y187872D01*
X14737Y187837D01*
X14788Y187805D01*
X14842Y187776D01*
X14898Y187751D01*
X14955Y187729D01*
X15013Y187712D01*
X15072Y187698D01*
X15132Y187688D01*
X15193Y187682D01*
X15254Y187680D01*
X15254Y187679D02*
X16496Y187679D01*
X11878Y189542D02*
X11878Y193267D01*
X12033Y194820D02*
X12033Y195130D01*
X11723Y195130D01*
X11723Y194820D01*
X12033Y194820D01*
X8714Y189542D02*
X7162Y189542D01*
X8714Y189542D02*
X8772Y189544D01*
X8831Y189549D01*
X8888Y189558D01*
X8946Y189571D01*
X9002Y189588D01*
X9057Y189607D01*
X9110Y189631D01*
X9163Y189657D01*
X9213Y189687D01*
X9261Y189720D01*
X9307Y189756D01*
X9351Y189794D01*
X9393Y189836D01*
X9431Y189880D01*
X9467Y189926D01*
X9500Y189974D01*
X9530Y190024D01*
X9556Y190077D01*
X9580Y190130D01*
X9599Y190185D01*
X9616Y190241D01*
X9629Y190299D01*
X9638Y190356D01*
X9643Y190415D01*
X9645Y190473D01*
X9645Y192026D01*
X9646Y192026D02*
X9644Y192096D01*
X9638Y192165D01*
X9628Y192234D01*
X9615Y192302D01*
X9597Y192370D01*
X9576Y192436D01*
X9551Y192501D01*
X9523Y192565D01*
X9491Y192627D01*
X9456Y192687D01*
X9417Y192745D01*
X9375Y192800D01*
X9330Y192854D01*
X9282Y192904D01*
X9232Y192952D01*
X9178Y192997D01*
X9123Y193039D01*
X9065Y193078D01*
X9005Y193113D01*
X8943Y193145D01*
X8879Y193173D01*
X8814Y193198D01*
X8748Y193219D01*
X8680Y193237D01*
X8612Y193250D01*
X8543Y193260D01*
X8474Y193266D01*
X8404Y193268D01*
X8334Y193266D01*
X8265Y193260D01*
X8196Y193250D01*
X8128Y193237D01*
X8060Y193219D01*
X7994Y193198D01*
X7929Y193173D01*
X7865Y193145D01*
X7803Y193113D01*
X7743Y193078D01*
X7685Y193039D01*
X7630Y192997D01*
X7576Y192952D01*
X7526Y192904D01*
X7478Y192854D01*
X7433Y192800D01*
X7391Y192745D01*
X7352Y192687D01*
X7317Y192627D01*
X7285Y192565D01*
X7257Y192501D01*
X7232Y192436D01*
X7211Y192370D01*
X7193Y192302D01*
X7180Y192234D01*
X7170Y192165D01*
X7164Y192096D01*
X7162Y192026D01*
X7162Y191405D01*
X9645Y191405D01*
X4425Y191715D02*
X2873Y191094D01*
X4425Y191715D02*
X4476Y191737D01*
X4525Y191763D01*
X4573Y191792D01*
X4618Y191825D01*
X4661Y191861D01*
X4702Y191899D01*
X4739Y191941D01*
X4774Y191984D01*
X4806Y192030D01*
X4834Y192079D01*
X4859Y192129D01*
X4880Y192180D01*
X4898Y192233D01*
X4912Y192287D01*
X4922Y192342D01*
X4928Y192398D01*
X4931Y192453D01*
X4930Y192509D01*
X4924Y192565D01*
X4915Y192620D01*
X4903Y192674D01*
X4886Y192728D01*
X4866Y192780D01*
X4842Y192830D01*
X4815Y192879D01*
X4784Y192926D01*
X4750Y192970D01*
X4714Y193012D01*
X4674Y193052D01*
X4632Y193088D01*
X4587Y193122D01*
X4540Y193152D01*
X4492Y193179D01*
X4441Y193203D01*
X4389Y193223D01*
X4335Y193239D01*
X4281Y193252D01*
X4226Y193261D01*
X4170Y193266D01*
X4114Y193267D01*
X4115Y193268D02*
X4004Y193264D01*
X3893Y193258D01*
X3783Y193247D01*
X3673Y193233D01*
X3563Y193216D01*
X3454Y193196D01*
X3346Y193172D01*
X3239Y193144D01*
X3132Y193113D01*
X3027Y193079D01*
X2922Y193042D01*
X2819Y193001D01*
X2717Y192957D01*
X2873Y191094D02*
X2822Y191072D01*
X2773Y191046D01*
X2725Y191017D01*
X2680Y190984D01*
X2637Y190948D01*
X2596Y190910D01*
X2559Y190868D01*
X2524Y190825D01*
X2492Y190779D01*
X2464Y190730D01*
X2439Y190680D01*
X2418Y190629D01*
X2400Y190576D01*
X2386Y190522D01*
X2376Y190467D01*
X2370Y190411D01*
X2367Y190356D01*
X2368Y190300D01*
X2374Y190244D01*
X2383Y190189D01*
X2395Y190135D01*
X2412Y190081D01*
X2432Y190029D01*
X2456Y189979D01*
X2483Y189930D01*
X2514Y189883D01*
X2548Y189839D01*
X2584Y189797D01*
X2624Y189757D01*
X2666Y189721D01*
X2711Y189687D01*
X2758Y189657D01*
X2806Y189630D01*
X2857Y189606D01*
X2909Y189586D01*
X2963Y189570D01*
X3017Y189557D01*
X3072Y189548D01*
X3128Y189543D01*
X3184Y189542D01*
X3183Y189542D02*
X3317Y189545D01*
X3451Y189552D01*
X3585Y189563D01*
X3718Y189576D01*
X3851Y189594D01*
X3984Y189614D01*
X4116Y189638D01*
X4247Y189666D01*
X4378Y189696D01*
X4507Y189730D01*
X4636Y189768D01*
X4764Y189808D01*
X4891Y189852D01*
X68194Y183502D02*
X69746Y183502D01*
X68194Y183502D02*
X68117Y183500D01*
X68039Y183494D01*
X67963Y183485D01*
X67886Y183471D01*
X67811Y183454D01*
X67737Y183433D01*
X67663Y183408D01*
X67591Y183380D01*
X67521Y183348D01*
X67452Y183313D01*
X67385Y183274D01*
X67320Y183232D01*
X67257Y183187D01*
X67196Y183139D01*
X67138Y183088D01*
X67083Y183034D01*
X67030Y182977D01*
X66981Y182918D01*
X66934Y182856D01*
X66890Y182792D01*
X66850Y182726D01*
X66813Y182658D01*
X66779Y182588D01*
X66749Y182517D01*
X66723Y182444D01*
X66700Y182370D01*
X66681Y182295D01*
X66666Y182220D01*
X66654Y182143D01*
X66646Y182066D01*
X66642Y181989D01*
X66642Y181911D01*
X66646Y181834D01*
X66654Y181757D01*
X66666Y181680D01*
X66681Y181605D01*
X66700Y181530D01*
X66723Y181456D01*
X66749Y181383D01*
X66779Y181312D01*
X66813Y181242D01*
X66850Y181174D01*
X66890Y181108D01*
X66934Y181044D01*
X66981Y180982D01*
X67030Y180923D01*
X67083Y180866D01*
X67138Y180812D01*
X67196Y180761D01*
X67257Y180713D01*
X67320Y180668D01*
X67385Y180626D01*
X67452Y180587D01*
X67521Y180552D01*
X67591Y180520D01*
X67663Y180492D01*
X67737Y180467D01*
X67811Y180446D01*
X67886Y180429D01*
X67963Y180415D01*
X68039Y180406D01*
X68117Y180400D01*
X68194Y180398D01*
X69746Y180398D01*
X69746Y185986D01*
X68194Y185986D01*
X68124Y185984D01*
X68055Y185978D01*
X67986Y185968D01*
X67918Y185955D01*
X67850Y185937D01*
X67784Y185916D01*
X67719Y185891D01*
X67655Y185863D01*
X67593Y185831D01*
X67533Y185796D01*
X67475Y185757D01*
X67420Y185715D01*
X67366Y185670D01*
X67316Y185622D01*
X67268Y185572D01*
X67223Y185518D01*
X67181Y185463D01*
X67142Y185405D01*
X67107Y185345D01*
X67075Y185283D01*
X67047Y185219D01*
X67022Y185154D01*
X67001Y185088D01*
X66983Y185020D01*
X66970Y184952D01*
X66960Y184883D01*
X66954Y184814D01*
X66952Y184744D01*
X66954Y184674D01*
X66960Y184605D01*
X66970Y184536D01*
X66983Y184468D01*
X67001Y184400D01*
X67022Y184334D01*
X67047Y184269D01*
X67075Y184205D01*
X67107Y184143D01*
X67142Y184083D01*
X67181Y184025D01*
X67223Y183970D01*
X67268Y183916D01*
X67316Y183866D01*
X67366Y183818D01*
X67420Y183773D01*
X67475Y183731D01*
X67533Y183692D01*
X67593Y183657D01*
X67655Y183625D01*
X67719Y183597D01*
X67784Y183572D01*
X67850Y183551D01*
X67918Y183533D01*
X67986Y183520D01*
X68055Y183510D01*
X68124Y183504D01*
X68194Y183502D01*
X64332Y185986D02*
X64332Y180398D01*
X61848Y180398D01*
X59577Y180398D02*
X57093Y180398D01*
X59577Y180398D02*
X59577Y185986D01*
X57093Y185986D01*
X57714Y183502D02*
X59577Y183502D01*
X55254Y179777D02*
X52771Y179777D01*
X47522Y184589D02*
X47524Y184662D01*
X47530Y184735D01*
X47539Y184808D01*
X47553Y184879D01*
X47570Y184951D01*
X47590Y185021D01*
X47615Y185090D01*
X47643Y185157D01*
X47674Y185223D01*
X47709Y185288D01*
X47747Y185350D01*
X47789Y185410D01*
X47833Y185468D01*
X47881Y185524D01*
X47931Y185577D01*
X47984Y185627D01*
X48040Y185675D01*
X48098Y185719D01*
X48158Y185761D01*
X48221Y185799D01*
X48285Y185834D01*
X48351Y185865D01*
X48418Y185893D01*
X48487Y185918D01*
X48557Y185938D01*
X48629Y185955D01*
X48700Y185969D01*
X48773Y185978D01*
X48846Y185984D01*
X48919Y185986D01*
X49003Y185984D01*
X49086Y185978D01*
X49169Y185969D01*
X49251Y185955D01*
X49333Y185938D01*
X49414Y185916D01*
X49494Y185891D01*
X49572Y185863D01*
X49650Y185831D01*
X49725Y185795D01*
X49799Y185756D01*
X49871Y185713D01*
X49941Y185667D01*
X50008Y185618D01*
X50074Y185565D01*
X50136Y185510D01*
X50196Y185452D01*
X50254Y185391D01*
X50308Y185328D01*
X50360Y185262D01*
X50408Y185194D01*
X50453Y185123D01*
X50495Y185051D01*
X50533Y184976D01*
X50568Y184900D01*
X50599Y184823D01*
X50627Y184744D01*
X47989Y183503D02*
X47935Y183556D01*
X47884Y183613D01*
X47836Y183672D01*
X47791Y183733D01*
X47750Y183796D01*
X47711Y183862D01*
X47676Y183929D01*
X47644Y183998D01*
X47616Y184069D01*
X47592Y184140D01*
X47571Y184213D01*
X47554Y184287D01*
X47540Y184362D01*
X47531Y184437D01*
X47525Y184513D01*
X47523Y184589D01*
X47988Y183502D02*
X50627Y180398D01*
X47522Y180398D01*
X45140Y183192D02*
X45138Y183323D01*
X45133Y183453D01*
X45123Y183583D01*
X45110Y183713D01*
X45094Y183843D01*
X45074Y183972D01*
X45050Y184100D01*
X45022Y184227D01*
X44991Y184354D01*
X44956Y184480D01*
X44918Y184605D01*
X44876Y184729D01*
X44831Y184851D01*
X44782Y184972D01*
X44730Y185092D01*
X44674Y185210D01*
X44675Y185210D02*
X44652Y185270D01*
X44626Y185330D01*
X44597Y185387D01*
X44564Y185443D01*
X44528Y185497D01*
X44490Y185549D01*
X44448Y185599D01*
X44404Y185646D01*
X44357Y185691D01*
X44307Y185733D01*
X44256Y185772D01*
X44202Y185808D01*
X44146Y185841D01*
X44089Y185871D01*
X44030Y185898D01*
X43969Y185921D01*
X43908Y185941D01*
X43845Y185957D01*
X43781Y185970D01*
X43717Y185979D01*
X43653Y185984D01*
X43588Y185986D01*
X43523Y185984D01*
X43459Y185979D01*
X43395Y185970D01*
X43331Y185957D01*
X43268Y185941D01*
X43207Y185921D01*
X43146Y185898D01*
X43087Y185871D01*
X43030Y185841D01*
X42974Y185808D01*
X42920Y185772D01*
X42869Y185733D01*
X42819Y185691D01*
X42772Y185646D01*
X42728Y185599D01*
X42686Y185549D01*
X42648Y185497D01*
X42612Y185443D01*
X42579Y185387D01*
X42550Y185330D01*
X42524Y185270D01*
X42501Y185210D01*
X42502Y185210D02*
X42446Y185092D01*
X42394Y184972D01*
X42345Y184851D01*
X42300Y184729D01*
X42258Y184605D01*
X42220Y184480D01*
X42185Y184354D01*
X42154Y184228D01*
X42126Y184100D01*
X42102Y183972D01*
X42082Y183843D01*
X42066Y183713D01*
X42053Y183583D01*
X42043Y183453D01*
X42038Y183323D01*
X42036Y183192D01*
X45140Y183192D02*
X45138Y183061D01*
X45133Y182931D01*
X45123Y182801D01*
X45110Y182671D01*
X45094Y182541D01*
X45074Y182413D01*
X45050Y182284D01*
X45022Y182157D01*
X44991Y182030D01*
X44956Y181904D01*
X44918Y181779D01*
X44876Y181656D01*
X44831Y181533D01*
X44782Y181412D01*
X44730Y181292D01*
X44674Y181174D01*
X44675Y181174D02*
X44652Y181114D01*
X44626Y181054D01*
X44597Y180997D01*
X44564Y180941D01*
X44528Y180887D01*
X44490Y180835D01*
X44448Y180785D01*
X44404Y180738D01*
X44357Y180693D01*
X44307Y180651D01*
X44256Y180612D01*
X44202Y180576D01*
X44146Y180543D01*
X44089Y180513D01*
X44030Y180486D01*
X43969Y180463D01*
X43908Y180443D01*
X43845Y180427D01*
X43781Y180414D01*
X43717Y180405D01*
X43653Y180400D01*
X43588Y180398D01*
X42502Y181174D02*
X42446Y181292D01*
X42394Y181412D01*
X42345Y181533D01*
X42300Y181655D01*
X42258Y181779D01*
X42220Y181904D01*
X42185Y182030D01*
X42154Y182156D01*
X42126Y182284D01*
X42102Y182412D01*
X42082Y182541D01*
X42066Y182671D01*
X42053Y182801D01*
X42043Y182931D01*
X42038Y183061D01*
X42036Y183192D01*
X42501Y181174D02*
X42524Y181114D01*
X42550Y181054D01*
X42579Y180997D01*
X42612Y180941D01*
X42648Y180887D01*
X42686Y180835D01*
X42728Y180785D01*
X42772Y180738D01*
X42819Y180693D01*
X42869Y180651D01*
X42920Y180612D01*
X42974Y180576D01*
X43030Y180543D01*
X43087Y180513D01*
X43146Y180486D01*
X43207Y180463D01*
X43268Y180443D01*
X43331Y180427D01*
X43395Y180414D01*
X43459Y180405D01*
X43523Y180400D01*
X43588Y180398D01*
X44830Y181640D02*
X42346Y184744D01*
X37409Y184123D02*
X39892Y180398D01*
X37409Y180398D02*
X39892Y184123D01*
X33558Y185986D02*
X33485Y185984D01*
X33412Y185978D01*
X33339Y185969D01*
X33268Y185955D01*
X33196Y185938D01*
X33126Y185918D01*
X33057Y185893D01*
X32990Y185865D01*
X32924Y185834D01*
X32860Y185799D01*
X32797Y185761D01*
X32737Y185719D01*
X32679Y185675D01*
X32623Y185627D01*
X32570Y185577D01*
X32520Y185524D01*
X32472Y185468D01*
X32428Y185410D01*
X32386Y185350D01*
X32348Y185288D01*
X32313Y185223D01*
X32282Y185157D01*
X32254Y185090D01*
X32229Y185021D01*
X32209Y184951D01*
X32192Y184879D01*
X32178Y184808D01*
X32169Y184735D01*
X32163Y184662D01*
X32161Y184589D01*
X33558Y185986D02*
X33642Y185984D01*
X33725Y185978D01*
X33808Y185969D01*
X33890Y185955D01*
X33972Y185938D01*
X34053Y185916D01*
X34133Y185891D01*
X34211Y185863D01*
X34289Y185831D01*
X34364Y185795D01*
X34438Y185756D01*
X34510Y185713D01*
X34580Y185667D01*
X34647Y185618D01*
X34713Y185565D01*
X34775Y185510D01*
X34835Y185452D01*
X34893Y185391D01*
X34947Y185328D01*
X34999Y185262D01*
X35047Y185194D01*
X35092Y185123D01*
X35134Y185051D01*
X35172Y184976D01*
X35207Y184900D01*
X35238Y184823D01*
X35266Y184744D01*
X32627Y183503D02*
X32573Y183556D01*
X32522Y183613D01*
X32474Y183672D01*
X32429Y183733D01*
X32388Y183796D01*
X32349Y183862D01*
X32314Y183929D01*
X32282Y183998D01*
X32254Y184069D01*
X32230Y184140D01*
X32209Y184213D01*
X32192Y184287D01*
X32178Y184362D01*
X32169Y184437D01*
X32163Y184513D01*
X32161Y184589D01*
X32626Y183502D02*
X35265Y180398D01*
X32161Y180398D01*
X29779Y183192D02*
X29777Y183323D01*
X29772Y183453D01*
X29762Y183583D01*
X29749Y183713D01*
X29733Y183843D01*
X29713Y183972D01*
X29689Y184100D01*
X29661Y184227D01*
X29630Y184354D01*
X29595Y184480D01*
X29557Y184605D01*
X29515Y184729D01*
X29470Y184851D01*
X29421Y184972D01*
X29369Y185092D01*
X29313Y185210D01*
X29290Y185270D01*
X29264Y185330D01*
X29235Y185387D01*
X29202Y185443D01*
X29166Y185497D01*
X29128Y185549D01*
X29086Y185599D01*
X29042Y185646D01*
X28995Y185691D01*
X28945Y185733D01*
X28894Y185772D01*
X28840Y185808D01*
X28784Y185841D01*
X28727Y185871D01*
X28668Y185898D01*
X28607Y185921D01*
X28546Y185941D01*
X28483Y185957D01*
X28419Y185970D01*
X28355Y185979D01*
X28291Y185984D01*
X28226Y185986D01*
X28161Y185984D01*
X28097Y185979D01*
X28033Y185970D01*
X27969Y185957D01*
X27906Y185941D01*
X27845Y185921D01*
X27784Y185898D01*
X27725Y185871D01*
X27668Y185841D01*
X27612Y185808D01*
X27558Y185772D01*
X27507Y185733D01*
X27457Y185691D01*
X27410Y185646D01*
X27366Y185599D01*
X27324Y185549D01*
X27286Y185497D01*
X27250Y185443D01*
X27217Y185387D01*
X27188Y185330D01*
X27162Y185270D01*
X27139Y185210D01*
X27140Y185210D02*
X27084Y185092D01*
X27032Y184972D01*
X26983Y184851D01*
X26938Y184729D01*
X26896Y184605D01*
X26858Y184480D01*
X26823Y184354D01*
X26792Y184228D01*
X26764Y184100D01*
X26740Y183972D01*
X26720Y183843D01*
X26704Y183713D01*
X26691Y183583D01*
X26681Y183453D01*
X26676Y183323D01*
X26674Y183192D01*
X29778Y183192D02*
X29776Y183061D01*
X29771Y182931D01*
X29761Y182801D01*
X29748Y182671D01*
X29732Y182541D01*
X29712Y182413D01*
X29688Y182284D01*
X29660Y182157D01*
X29629Y182030D01*
X29594Y181904D01*
X29556Y181779D01*
X29514Y181656D01*
X29469Y181533D01*
X29420Y181412D01*
X29368Y181292D01*
X29312Y181174D01*
X29313Y181174D02*
X29290Y181114D01*
X29264Y181054D01*
X29235Y180997D01*
X29202Y180941D01*
X29166Y180887D01*
X29128Y180835D01*
X29086Y180785D01*
X29042Y180738D01*
X28995Y180693D01*
X28945Y180651D01*
X28894Y180612D01*
X28840Y180576D01*
X28784Y180543D01*
X28727Y180513D01*
X28668Y180486D01*
X28607Y180463D01*
X28546Y180443D01*
X28483Y180427D01*
X28419Y180414D01*
X28355Y180405D01*
X28291Y180400D01*
X28226Y180398D01*
X27140Y181174D02*
X27084Y181292D01*
X27032Y181412D01*
X26983Y181533D01*
X26938Y181655D01*
X26896Y181779D01*
X26858Y181904D01*
X26823Y182030D01*
X26792Y182156D01*
X26764Y182284D01*
X26740Y182412D01*
X26720Y182541D01*
X26704Y182671D01*
X26691Y182801D01*
X26681Y182931D01*
X26676Y183061D01*
X26674Y183192D01*
X27139Y181174D02*
X27162Y181114D01*
X27188Y181054D01*
X27217Y180997D01*
X27250Y180941D01*
X27286Y180887D01*
X27324Y180835D01*
X27366Y180785D01*
X27410Y180738D01*
X27457Y180693D01*
X27507Y180651D01*
X27558Y180612D01*
X27612Y180576D01*
X27668Y180543D01*
X27725Y180513D01*
X27784Y180486D01*
X27845Y180463D01*
X27906Y180443D01*
X27969Y180427D01*
X28033Y180414D01*
X28097Y180405D01*
X28161Y180400D01*
X28226Y180398D01*
X29468Y181640D02*
X26985Y184744D01*
X68504Y171254D02*
X69746Y174979D01*
X67262Y174979D02*
X68504Y171254D01*
X65119Y175600D02*
X63567Y176842D01*
X63567Y171254D01*
X65119Y171254D02*
X62014Y171254D01*
X59871Y170633D02*
X57387Y170633D01*
X55243Y174048D02*
X55241Y174179D01*
X55236Y174309D01*
X55226Y174439D01*
X55213Y174569D01*
X55197Y174699D01*
X55177Y174828D01*
X55153Y174956D01*
X55125Y175083D01*
X55094Y175210D01*
X55059Y175336D01*
X55021Y175461D01*
X54979Y175585D01*
X54934Y175707D01*
X54885Y175828D01*
X54833Y175948D01*
X54777Y176066D01*
X54778Y176066D02*
X54755Y176126D01*
X54729Y176186D01*
X54700Y176243D01*
X54667Y176299D01*
X54631Y176353D01*
X54593Y176405D01*
X54551Y176455D01*
X54507Y176502D01*
X54460Y176547D01*
X54410Y176589D01*
X54359Y176628D01*
X54305Y176664D01*
X54249Y176697D01*
X54192Y176727D01*
X54133Y176754D01*
X54072Y176777D01*
X54011Y176797D01*
X53948Y176813D01*
X53884Y176826D01*
X53820Y176835D01*
X53756Y176840D01*
X53691Y176842D01*
X53626Y176840D01*
X53562Y176835D01*
X53498Y176826D01*
X53434Y176813D01*
X53371Y176797D01*
X53310Y176777D01*
X53249Y176754D01*
X53190Y176727D01*
X53133Y176697D01*
X53077Y176664D01*
X53023Y176628D01*
X52972Y176589D01*
X52922Y176547D01*
X52875Y176502D01*
X52831Y176455D01*
X52789Y176405D01*
X52751Y176353D01*
X52715Y176299D01*
X52682Y176243D01*
X52653Y176186D01*
X52627Y176126D01*
X52604Y176066D01*
X52605Y176066D02*
X52549Y175948D01*
X52497Y175828D01*
X52448Y175707D01*
X52403Y175585D01*
X52361Y175461D01*
X52323Y175336D01*
X52288Y175210D01*
X52257Y175084D01*
X52229Y174956D01*
X52205Y174828D01*
X52185Y174699D01*
X52169Y174569D01*
X52156Y174439D01*
X52146Y174309D01*
X52141Y174179D01*
X52139Y174048D01*
X55243Y174048D02*
X55241Y173917D01*
X55236Y173787D01*
X55226Y173657D01*
X55213Y173527D01*
X55197Y173397D01*
X55177Y173269D01*
X55153Y173140D01*
X55125Y173013D01*
X55094Y172886D01*
X55059Y172760D01*
X55021Y172635D01*
X54979Y172512D01*
X54934Y172389D01*
X54885Y172268D01*
X54833Y172148D01*
X54777Y172030D01*
X54778Y172030D02*
X54755Y171970D01*
X54729Y171910D01*
X54700Y171853D01*
X54667Y171797D01*
X54631Y171743D01*
X54593Y171691D01*
X54551Y171641D01*
X54507Y171594D01*
X54460Y171549D01*
X54410Y171507D01*
X54359Y171468D01*
X54305Y171432D01*
X54249Y171399D01*
X54192Y171369D01*
X54133Y171342D01*
X54072Y171319D01*
X54011Y171299D01*
X53948Y171283D01*
X53884Y171270D01*
X53820Y171261D01*
X53756Y171256D01*
X53691Y171254D01*
X52605Y172030D02*
X52549Y172148D01*
X52497Y172268D01*
X52448Y172389D01*
X52403Y172511D01*
X52361Y172635D01*
X52323Y172760D01*
X52288Y172886D01*
X52257Y173012D01*
X52229Y173140D01*
X52205Y173268D01*
X52185Y173397D01*
X52169Y173527D01*
X52156Y173657D01*
X52146Y173787D01*
X52141Y173917D01*
X52139Y174048D01*
X52604Y172030D02*
X52627Y171970D01*
X52653Y171910D01*
X52682Y171853D01*
X52715Y171797D01*
X52751Y171743D01*
X52789Y171691D01*
X52831Y171641D01*
X52875Y171594D01*
X52922Y171549D01*
X52972Y171507D01*
X53023Y171468D01*
X53077Y171432D01*
X53133Y171399D01*
X53190Y171369D01*
X53249Y171342D01*
X53310Y171319D01*
X53371Y171299D01*
X53434Y171283D01*
X53498Y171270D01*
X53562Y171261D01*
X53626Y171256D01*
X53691Y171254D01*
X54933Y172496D02*
X52449Y175600D01*
X49757Y174358D02*
X47894Y174358D01*
X47894Y174359D02*
X47824Y174357D01*
X47755Y174351D01*
X47686Y174341D01*
X47618Y174328D01*
X47550Y174310D01*
X47484Y174289D01*
X47419Y174264D01*
X47355Y174236D01*
X47293Y174204D01*
X47233Y174169D01*
X47175Y174130D01*
X47120Y174088D01*
X47066Y174043D01*
X47016Y173995D01*
X46968Y173945D01*
X46923Y173891D01*
X46881Y173836D01*
X46842Y173778D01*
X46807Y173718D01*
X46775Y173656D01*
X46747Y173592D01*
X46722Y173527D01*
X46701Y173461D01*
X46683Y173393D01*
X46670Y173325D01*
X46660Y173256D01*
X46654Y173187D01*
X46652Y173117D01*
X46652Y172806D01*
X46653Y172806D02*
X46655Y172729D01*
X46661Y172651D01*
X46670Y172575D01*
X46684Y172498D01*
X46701Y172423D01*
X46722Y172349D01*
X46747Y172275D01*
X46775Y172203D01*
X46807Y172133D01*
X46842Y172064D01*
X46881Y171997D01*
X46923Y171932D01*
X46968Y171869D01*
X47016Y171808D01*
X47067Y171750D01*
X47121Y171695D01*
X47178Y171642D01*
X47237Y171593D01*
X47299Y171546D01*
X47363Y171502D01*
X47429Y171462D01*
X47497Y171425D01*
X47567Y171391D01*
X47638Y171361D01*
X47711Y171335D01*
X47785Y171312D01*
X47860Y171293D01*
X47935Y171278D01*
X48012Y171266D01*
X48089Y171258D01*
X48166Y171254D01*
X48244Y171254D01*
X48321Y171258D01*
X48398Y171266D01*
X48475Y171278D01*
X48550Y171293D01*
X48625Y171312D01*
X48699Y171335D01*
X48772Y171361D01*
X48843Y171391D01*
X48913Y171425D01*
X48981Y171462D01*
X49047Y171502D01*
X49111Y171546D01*
X49173Y171593D01*
X49232Y171642D01*
X49289Y171695D01*
X49343Y171750D01*
X49394Y171808D01*
X49442Y171869D01*
X49487Y171932D01*
X49529Y171997D01*
X49568Y172064D01*
X49603Y172133D01*
X49635Y172203D01*
X49663Y172275D01*
X49688Y172349D01*
X49709Y172423D01*
X49726Y172498D01*
X49740Y172575D01*
X49749Y172651D01*
X49755Y172729D01*
X49757Y172806D01*
X49757Y174358D01*
X49755Y174456D01*
X49749Y174553D01*
X49740Y174650D01*
X49726Y174747D01*
X49709Y174843D01*
X49688Y174938D01*
X49664Y175032D01*
X49635Y175126D01*
X49603Y175218D01*
X49568Y175309D01*
X49529Y175398D01*
X49486Y175486D01*
X49440Y175572D01*
X49391Y175656D01*
X49338Y175738D01*
X49283Y175818D01*
X49224Y175896D01*
X49162Y175971D01*
X49097Y176044D01*
X49029Y176114D01*
X48959Y176182D01*
X48886Y176247D01*
X48811Y176309D01*
X48733Y176368D01*
X48653Y176423D01*
X48571Y176476D01*
X48487Y176525D01*
X48401Y176571D01*
X48313Y176614D01*
X48224Y176653D01*
X48133Y176688D01*
X48041Y176720D01*
X47947Y176749D01*
X47853Y176773D01*
X47758Y176794D01*
X47662Y176811D01*
X47565Y176825D01*
X47468Y176834D01*
X47371Y176840D01*
X47273Y176842D01*
X44215Y173427D02*
X40490Y173427D01*
X38053Y175600D02*
X36500Y176842D01*
X36500Y171254D01*
X34948Y171254D02*
X38053Y171254D01*
X32566Y175600D02*
X31014Y176842D01*
X31014Y171254D01*
X32566Y171254D02*
X29462Y171254D01*
X27025Y173427D02*
X23299Y173427D01*
X19155Y176842D02*
X19082Y176840D01*
X19009Y176834D01*
X18936Y176825D01*
X18865Y176811D01*
X18793Y176794D01*
X18723Y176774D01*
X18654Y176749D01*
X18587Y176721D01*
X18521Y176690D01*
X18457Y176655D01*
X18394Y176617D01*
X18334Y176575D01*
X18276Y176531D01*
X18220Y176483D01*
X18167Y176433D01*
X18117Y176380D01*
X18069Y176324D01*
X18025Y176266D01*
X17983Y176206D01*
X17945Y176144D01*
X17910Y176079D01*
X17879Y176013D01*
X17851Y175946D01*
X17826Y175877D01*
X17806Y175807D01*
X17789Y175735D01*
X17775Y175664D01*
X17766Y175591D01*
X17760Y175518D01*
X17758Y175445D01*
X19155Y176842D02*
X19239Y176840D01*
X19322Y176834D01*
X19405Y176825D01*
X19487Y176811D01*
X19569Y176794D01*
X19650Y176772D01*
X19730Y176747D01*
X19808Y176719D01*
X19886Y176687D01*
X19961Y176651D01*
X20035Y176612D01*
X20107Y176569D01*
X20177Y176523D01*
X20244Y176474D01*
X20310Y176421D01*
X20372Y176366D01*
X20432Y176308D01*
X20490Y176247D01*
X20544Y176184D01*
X20596Y176118D01*
X20644Y176050D01*
X20689Y175979D01*
X20731Y175907D01*
X20769Y175832D01*
X20804Y175756D01*
X20835Y175679D01*
X20863Y175600D01*
X18224Y174359D02*
X18170Y174412D01*
X18119Y174469D01*
X18071Y174528D01*
X18026Y174589D01*
X17985Y174652D01*
X17946Y174718D01*
X17911Y174785D01*
X17879Y174854D01*
X17851Y174925D01*
X17827Y174996D01*
X17806Y175069D01*
X17789Y175143D01*
X17775Y175218D01*
X17766Y175293D01*
X17760Y175369D01*
X17758Y175445D01*
X18223Y174358D02*
X20862Y171254D01*
X17758Y171254D01*
X15376Y174048D02*
X15374Y174179D01*
X15369Y174309D01*
X15359Y174439D01*
X15346Y174569D01*
X15330Y174699D01*
X15310Y174828D01*
X15286Y174956D01*
X15258Y175083D01*
X15227Y175210D01*
X15192Y175336D01*
X15154Y175461D01*
X15112Y175585D01*
X15067Y175707D01*
X15018Y175828D01*
X14966Y175948D01*
X14910Y176066D01*
X14887Y176126D01*
X14861Y176186D01*
X14832Y176243D01*
X14799Y176299D01*
X14763Y176353D01*
X14725Y176405D01*
X14683Y176455D01*
X14639Y176502D01*
X14592Y176547D01*
X14542Y176589D01*
X14491Y176628D01*
X14437Y176664D01*
X14381Y176697D01*
X14324Y176727D01*
X14265Y176754D01*
X14204Y176777D01*
X14143Y176797D01*
X14080Y176813D01*
X14016Y176826D01*
X13952Y176835D01*
X13888Y176840D01*
X13823Y176842D01*
X13758Y176840D01*
X13694Y176835D01*
X13630Y176826D01*
X13566Y176813D01*
X13503Y176797D01*
X13442Y176777D01*
X13381Y176754D01*
X13322Y176727D01*
X13265Y176697D01*
X13209Y176664D01*
X13155Y176628D01*
X13104Y176589D01*
X13054Y176547D01*
X13007Y176502D01*
X12963Y176455D01*
X12921Y176405D01*
X12883Y176353D01*
X12847Y176299D01*
X12814Y176243D01*
X12785Y176186D01*
X12759Y176126D01*
X12736Y176066D01*
X12737Y176066D02*
X12681Y175948D01*
X12629Y175828D01*
X12580Y175707D01*
X12535Y175585D01*
X12493Y175461D01*
X12455Y175336D01*
X12420Y175210D01*
X12389Y175084D01*
X12361Y174956D01*
X12337Y174828D01*
X12317Y174699D01*
X12301Y174569D01*
X12288Y174439D01*
X12278Y174309D01*
X12273Y174179D01*
X12271Y174048D01*
X15375Y174048D02*
X15373Y173917D01*
X15368Y173787D01*
X15358Y173657D01*
X15345Y173527D01*
X15329Y173397D01*
X15309Y173269D01*
X15285Y173140D01*
X15257Y173013D01*
X15226Y172886D01*
X15191Y172760D01*
X15153Y172635D01*
X15111Y172512D01*
X15066Y172389D01*
X15017Y172268D01*
X14965Y172148D01*
X14909Y172030D01*
X14910Y172030D02*
X14887Y171970D01*
X14861Y171910D01*
X14832Y171853D01*
X14799Y171797D01*
X14763Y171743D01*
X14725Y171691D01*
X14683Y171641D01*
X14639Y171594D01*
X14592Y171549D01*
X14542Y171507D01*
X14491Y171468D01*
X14437Y171432D01*
X14381Y171399D01*
X14324Y171369D01*
X14265Y171342D01*
X14204Y171319D01*
X14143Y171299D01*
X14080Y171283D01*
X14016Y171270D01*
X13952Y171261D01*
X13888Y171256D01*
X13823Y171254D01*
X12737Y172030D02*
X12681Y172148D01*
X12629Y172268D01*
X12580Y172389D01*
X12535Y172511D01*
X12493Y172635D01*
X12455Y172760D01*
X12420Y172886D01*
X12389Y173012D01*
X12361Y173140D01*
X12337Y173268D01*
X12317Y173397D01*
X12301Y173527D01*
X12288Y173657D01*
X12278Y173787D01*
X12273Y173917D01*
X12271Y174048D01*
X12736Y172030D02*
X12759Y171970D01*
X12785Y171910D01*
X12814Y171853D01*
X12847Y171797D01*
X12883Y171743D01*
X12921Y171691D01*
X12963Y171641D01*
X13007Y171594D01*
X13054Y171549D01*
X13104Y171507D01*
X13155Y171468D01*
X13209Y171432D01*
X13265Y171399D01*
X13322Y171369D01*
X13381Y171342D01*
X13442Y171319D01*
X13503Y171299D01*
X13566Y171283D01*
X13630Y171270D01*
X13694Y171261D01*
X13758Y171256D01*
X13823Y171254D01*
X15065Y172496D02*
X12582Y175600D01*
X9889Y175600D02*
X8337Y176842D01*
X8337Y171254D01*
X9889Y171254D02*
X6785Y171254D01*
X4403Y172806D02*
X4401Y172883D01*
X4395Y172961D01*
X4386Y173037D01*
X4372Y173114D01*
X4355Y173189D01*
X4334Y173263D01*
X4309Y173337D01*
X4281Y173409D01*
X4249Y173479D01*
X4214Y173548D01*
X4175Y173615D01*
X4133Y173680D01*
X4088Y173743D01*
X4040Y173804D01*
X3989Y173862D01*
X3935Y173917D01*
X3878Y173970D01*
X3819Y174019D01*
X3757Y174066D01*
X3693Y174110D01*
X3627Y174150D01*
X3559Y174187D01*
X3489Y174221D01*
X3418Y174251D01*
X3345Y174277D01*
X3271Y174300D01*
X3196Y174319D01*
X3121Y174334D01*
X3044Y174346D01*
X2967Y174354D01*
X2890Y174358D01*
X2812Y174358D01*
X2735Y174354D01*
X2658Y174346D01*
X2581Y174334D01*
X2506Y174319D01*
X2431Y174300D01*
X2357Y174277D01*
X2284Y174251D01*
X2213Y174221D01*
X2143Y174187D01*
X2075Y174150D01*
X2009Y174110D01*
X1945Y174066D01*
X1883Y174019D01*
X1824Y173970D01*
X1767Y173917D01*
X1713Y173862D01*
X1662Y173804D01*
X1614Y173743D01*
X1569Y173680D01*
X1527Y173615D01*
X1488Y173548D01*
X1453Y173479D01*
X1421Y173409D01*
X1393Y173337D01*
X1368Y173263D01*
X1347Y173189D01*
X1330Y173114D01*
X1316Y173037D01*
X1307Y172961D01*
X1301Y172883D01*
X1299Y172806D01*
X1301Y172729D01*
X1307Y172651D01*
X1316Y172575D01*
X1330Y172498D01*
X1347Y172423D01*
X1368Y172349D01*
X1393Y172275D01*
X1421Y172203D01*
X1453Y172133D01*
X1488Y172064D01*
X1527Y171997D01*
X1569Y171932D01*
X1614Y171869D01*
X1662Y171808D01*
X1713Y171750D01*
X1767Y171695D01*
X1824Y171642D01*
X1883Y171593D01*
X1945Y171546D01*
X2009Y171502D01*
X2075Y171462D01*
X2143Y171425D01*
X2213Y171391D01*
X2284Y171361D01*
X2357Y171335D01*
X2431Y171312D01*
X2506Y171293D01*
X2581Y171278D01*
X2658Y171266D01*
X2735Y171258D01*
X2812Y171254D01*
X2890Y171254D01*
X2967Y171258D01*
X3044Y171266D01*
X3121Y171278D01*
X3196Y171293D01*
X3271Y171312D01*
X3345Y171335D01*
X3418Y171361D01*
X3489Y171391D01*
X3559Y171425D01*
X3627Y171462D01*
X3693Y171502D01*
X3757Y171546D01*
X3819Y171593D01*
X3878Y171642D01*
X3935Y171695D01*
X3989Y171750D01*
X4040Y171808D01*
X4088Y171869D01*
X4133Y171932D01*
X4175Y171997D01*
X4214Y172064D01*
X4249Y172133D01*
X4281Y172203D01*
X4309Y172275D01*
X4334Y172349D01*
X4355Y172423D01*
X4372Y172498D01*
X4386Y172575D01*
X4395Y172651D01*
X4401Y172729D01*
X4403Y172806D01*
X4093Y175600D02*
X4091Y175670D01*
X4085Y175739D01*
X4075Y175808D01*
X4062Y175876D01*
X4044Y175944D01*
X4023Y176010D01*
X3998Y176075D01*
X3970Y176139D01*
X3938Y176201D01*
X3903Y176261D01*
X3864Y176319D01*
X3822Y176374D01*
X3777Y176428D01*
X3729Y176478D01*
X3679Y176526D01*
X3625Y176571D01*
X3570Y176613D01*
X3512Y176652D01*
X3452Y176687D01*
X3390Y176719D01*
X3326Y176747D01*
X3261Y176772D01*
X3195Y176793D01*
X3127Y176811D01*
X3059Y176824D01*
X2990Y176834D01*
X2921Y176840D01*
X2851Y176842D01*
X2781Y176840D01*
X2712Y176834D01*
X2643Y176824D01*
X2575Y176811D01*
X2507Y176793D01*
X2441Y176772D01*
X2376Y176747D01*
X2312Y176719D01*
X2250Y176687D01*
X2190Y176652D01*
X2132Y176613D01*
X2077Y176571D01*
X2023Y176526D01*
X1973Y176478D01*
X1925Y176428D01*
X1880Y176374D01*
X1838Y176319D01*
X1799Y176261D01*
X1764Y176201D01*
X1732Y176139D01*
X1704Y176075D01*
X1679Y176010D01*
X1658Y175944D01*
X1640Y175876D01*
X1627Y175808D01*
X1617Y175739D01*
X1611Y175670D01*
X1609Y175600D01*
X1611Y175530D01*
X1617Y175461D01*
X1627Y175392D01*
X1640Y175324D01*
X1658Y175256D01*
X1679Y175190D01*
X1704Y175125D01*
X1732Y175061D01*
X1764Y174999D01*
X1799Y174939D01*
X1838Y174881D01*
X1880Y174826D01*
X1925Y174772D01*
X1973Y174722D01*
X2023Y174674D01*
X2077Y174629D01*
X2132Y174587D01*
X2190Y174548D01*
X2250Y174513D01*
X2312Y174481D01*
X2376Y174453D01*
X2441Y174428D01*
X2507Y174407D01*
X2575Y174389D01*
X2643Y174376D01*
X2712Y174366D01*
X2781Y174360D01*
X2851Y174358D01*
X2921Y174360D01*
X2990Y174366D01*
X3059Y174376D01*
X3127Y174389D01*
X3195Y174407D01*
X3261Y174428D01*
X3326Y174453D01*
X3390Y174481D01*
X3452Y174513D01*
X3512Y174548D01*
X3570Y174587D01*
X3625Y174629D01*
X3679Y174674D01*
X3729Y174722D01*
X3777Y174772D01*
X3822Y174826D01*
X3864Y174881D01*
X3903Y174939D01*
X3938Y174999D01*
X3970Y175061D01*
X3998Y175125D01*
X4023Y175190D01*
X4044Y175256D01*
X4062Y175324D01*
X4075Y175392D01*
X4085Y175461D01*
X4091Y175530D01*
X4093Y175600D01*
D11*
X0Y100000D02*
X0Y0D01*
X0Y100000D02*
X0Y200000D01*
X200000Y200000D01*
X200000Y0D01*
X100000Y0D01*
X0Y0D01*
X0Y100000D02*
X100000Y100000D01*
X100000Y0D01*
M02*
