G04 EAGLE Gerber X2 export*
%TF.Part,Single*%
%TF.FileFunction,Paste,Top*%
%TF.FilePolarity,Positive*%
%TF.GenerationSoftware,Autodesk,EAGLE,9.0.0*%
%TF.CreationDate,2018-06-19T20:47:43Z*%
G75*
%MOMM*%
%FSLAX34Y34*%
%LPD*%
%AMOC8*
5,1,8,0,0,1.08239X$1,22.5*%
G01*
%ADD10R,0.254000X0.177800*%
%ADD11R,0.850000X0.900000*%
%ADD12R,0.177800X0.254000*%
%ADD13R,0.250000X0.300000*%
%ADD14R,1.600000X0.350000*%
%ADD15R,0.900000X0.850000*%
%ADD16R,0.750000X0.750000*%
%ADD17R,0.650000X0.800000*%
%ADD18R,0.201250X0.595000*%
%ADD19R,0.595000X0.201250*%
%ADD20R,1.321200X1.321200*%


D10*
X96919Y6708D03*
X96919Y3406D03*
D11*
X42203Y95563D03*
X53803Y95563D03*
D10*
X42337Y6161D03*
X42337Y2859D03*
X30291Y7703D03*
X30291Y4401D03*
D12*
X16635Y89315D03*
X13333Y89315D03*
D13*
X13940Y30568D03*
X8940Y30568D03*
D14*
X11791Y3828D03*
X11791Y10328D03*
D15*
X55091Y134452D03*
X55091Y146052D03*
D16*
X78000Y148500D03*
X78000Y159000D03*
D17*
X180524Y194470D03*
X195524Y194470D03*
D16*
X106611Y147622D03*
X96111Y147622D03*
D18*
X50366Y14181D03*
X46366Y14181D03*
X42366Y14181D03*
X38366Y14181D03*
X34366Y14181D03*
X30366Y14181D03*
X54366Y14181D03*
X58366Y14181D03*
X62366Y14181D03*
X66366Y14181D03*
X70366Y14181D03*
X74366Y14181D03*
D19*
X80966Y20781D03*
X80966Y24781D03*
X80966Y28781D03*
X80966Y32781D03*
X80966Y36781D03*
X80966Y40781D03*
X80966Y44781D03*
X80966Y48781D03*
X80966Y52781D03*
X80966Y56781D03*
X80966Y60781D03*
X80966Y64781D03*
D18*
X74366Y71381D03*
X70366Y71381D03*
X66366Y71381D03*
X62366Y71381D03*
X58366Y71381D03*
X50366Y71381D03*
X54366Y71381D03*
X46366Y71381D03*
X42366Y71381D03*
X38366Y71381D03*
X30366Y71381D03*
X34366Y71381D03*
D19*
X23766Y64781D03*
X23766Y60781D03*
X23766Y56781D03*
X23766Y52781D03*
X23766Y48781D03*
X23766Y44781D03*
X23766Y40781D03*
X23766Y36781D03*
X23766Y32781D03*
X23766Y28781D03*
X23766Y24781D03*
X23766Y20781D03*
D20*
X40866Y54281D03*
X40866Y31281D03*
X63866Y31281D03*
X63866Y54281D03*
M02*
