M48
;GenerationSoftware,Autodesk,EAGLE,9.0.0*%
;CreationDate,2018-06-20T06:24:11Z*%
FMAT,2
ICI,OFF
METRIC,TZ,000.000
T6C0.203
T5C0.254
T4C0.300
T3C0.350
T2C1.016
T1C1.500
%
G90
M71
T1
X95000Y-22500
X99500Y1500
X95000Y1500
X72500Y-94500
X99500Y-22500
X68000Y-94500
X95000Y-46500
X99500Y-46500
X95000Y-70500
X72500Y-70500
X68000Y-70500
X72500Y-46500
X68000Y-46500
X99500Y-70500
X95000Y-94500
X99500Y-94500
X122000Y1500
X126500Y1500
X72500Y-22500
X14000Y1500
X122000Y-22500
X68000Y-22500
X72500Y1500
X68000Y1500
X126500Y-22500
X122000Y-46500
X45500Y-94500
X126500Y-46500
X18500Y1500
X41000Y-94500
X122000Y-70500
X45500Y-70500
X41000Y-70500
X126500Y-70500
X122000Y-94500
X45500Y-46500
X41000Y-46500
X126500Y-94500
X45500Y-22500
X41000Y-22500
X45500Y1500
X41000Y1500
X18500Y-94500
X14000Y-94500
X18500Y-70500
X14000Y-70500
X18500Y-46500
X14000Y-46500
X18500Y-22500
X14000Y-22500
T2
X78641Y-81132
X105641Y-91292
X105641Y-88752
X105641Y-86212
X105641Y-83672
X105641Y-81132
X105641Y-78592
X105641Y-69832
X105641Y-67292
X105641Y-64752
X105641Y-62212
X105641Y-59672
X105641Y-57132
X105641Y-54592
X105641Y-45832
X105641Y-43292
X105641Y-40752
X105641Y-38212
X105641Y-35672
X105641Y-33132
X105641Y-30592
X105641Y-21832
X105641Y-19292
X105641Y-16752
X105641Y-14212
X105641Y-93832
X105641Y-11672
X105641Y-9132
X105641Y-6592
X105641Y2168
X105641Y4708
X-2359Y17408
X-2359Y14868
X-2359Y12328
X-2359Y9788
X-2359Y7248
X-2359Y4708
X-2359Y2168
X-2359Y-6592
X78641Y-78592
X-2359Y-9132
X-2359Y-11672
X78641Y-69832
X78641Y-67292
X78641Y-83672
X78641Y-64752
X78641Y-62212
X78641Y-59672
X78641Y-57132
X78641Y-54592
X78641Y-45832
X78641Y-43292
X78641Y-40752
X78641Y-38212
X78641Y-35672
X78641Y-33132
X78641Y-30592
X-2359Y-14212
X78641Y-21832
X78641Y-19292
X78641Y-16752
X78641Y-14212
X78641Y-11672
X78641Y-9132
X78641Y-6592
X78641Y-86212
X-2359Y-16752
X78641Y2168
X-2359Y-19292
X-2359Y-21832
X78641Y4708
X78641Y7248
X78641Y-88752
X-2359Y-30592
X78641Y9788
X78641Y12328
X78641Y14868
X78641Y17408
X51641Y-93832
X51641Y-91292
X51641Y-88752
X51641Y-86212
X51641Y-83672
X51641Y-81132
X51641Y-78592
X51641Y-69832
X51641Y-67292
X-2359Y-33132
X51641Y-64752
X51641Y-62212
X51641Y-59672
X51641Y-57132
X51641Y-54592
X51641Y-45832
X51641Y-43292
X78641Y-91292
X105641Y7248
X-2359Y-35672
X-2359Y-38212
X-2359Y-40752
X105641Y9788
X-2359Y-43292
X-2359Y-45832
X-2359Y-54592
X-2359Y-57132
X-2359Y-59672
X-2359Y-62212
X-2359Y-64752
X-2359Y-67292
X-2359Y-69832
X-2359Y-78592
X-2359Y-81132
X-2359Y-83672
X-2359Y-86212
X-2359Y-88752
X-2359Y-91292
X-2359Y-93832
X24641Y17408
X24641Y14868
X24641Y12328
X24641Y9788
X105641Y12328
X24641Y7248
X24641Y4708
X24641Y2168
X24641Y-6592
X24641Y-9132
X24641Y-11672
X24641Y-14212
X24641Y-16752
X24641Y-19292
X24641Y-21832
X51641Y-40752
X24641Y-30592
X24641Y-33132
X51641Y-38212
X51641Y-35672
X78641Y-93832
X51641Y-33132
X24641Y-35672
X51641Y-30592
X51641Y-21832
X51641Y-19292
X51641Y-16752
X51641Y-14212
X51641Y-11672
X51641Y-9132
X51641Y-6592
X51641Y2168
X51641Y4708
X51641Y7248
X51641Y9788
X24641Y-38212
X51641Y12328
X51641Y14868
X51641Y17408
X24641Y-93832
X24641Y-91292
X24641Y-88752
X24641Y-86212
X24641Y-83672
X105641Y17408
X24641Y-40752
X24641Y-43292
X24641Y-45832
X24641Y-81132
X24641Y-54592
X24641Y-57132
X24641Y-78592
X24641Y-69832
X105641Y14868
X24641Y-67292
X24641Y-64752
X24641Y-62212
X24641Y-59672
T3
X1283Y-83917
X1100Y-90260
X123000Y-68000
X658Y-94237
X1465Y-94207
X84300Y-9700
X1300Y-71100
X1283Y-59917
X88000Y-10000
X1100Y-66260
X90000Y-10000
X11000Y-68000
X13000Y-68000
X15000Y-68000
X17000Y-68000
X19000Y-68000
X19000Y-66000
X92000Y-10000
X28465Y1793
X27658Y1763
X94000Y-10000
X17000Y-64000
X28100Y5740
X28283Y12083
X17000Y-66000
X15000Y-66000
X13000Y-66000
X11000Y-66000
X11000Y-64000
X13000Y-64000
X15000Y-64000
X15000Y-62000
X13000Y-62000
X11000Y-62000
X17000Y-62000
X19000Y-64000
X19000Y-62000
X19000Y-60000
X17000Y-60000
X96000Y-10000
X15000Y-60000
X13000Y-60000
X11000Y-60000
X9000Y-60000
X7000Y-60000
X19000Y-58000
X17000Y-58000
X15000Y-58000
X13000Y-58000
X30300Y-9700
X34000Y-10000
X36000Y-10000
X38000Y-10000
X40000Y-10000
X42000Y-10000
X44000Y-10000
X46000Y-10000
X34000Y-12000
X36000Y-12000
X38000Y-12000
X40000Y-12000
X42000Y-12000
X44000Y-12000
X46000Y-12000
X46000Y-14000
X46000Y-16000
X44000Y-14000
X38000Y-14000
X40000Y-14000
X42000Y-14000
X42000Y-16000
X40000Y-16000
X38000Y-16000
X38000Y-18000
X40000Y-18000
X42000Y-18000
X44000Y-18000
X44000Y-16000
X46000Y-18000
X46000Y-20000
X44000Y-20000
X42000Y-20000
X40000Y-20000
X38000Y-20000
X28465Y-22207
X27658Y-22237
X98000Y-10000
X11000Y-58000
X28100Y-18260
X28283Y-11917
X9000Y-58000
X7000Y-58000
X3300Y-57700
X100000Y-10000
X1400Y-47300
X1283Y-35917
X1100Y-42260
X119000Y-18000
X88000Y-12000
X90000Y-12000
X1283Y-11917
X1100Y-18260
X92000Y-12000
X658Y-22237
X1465Y-22207
X94000Y-12000
X11000Y-20000
X13000Y-20000
X15000Y-20000
X17000Y-20000
X19000Y-20000
X19000Y-18000
X109283Y-83917
X17000Y-16000
X96000Y-12000
X109100Y-90260
X28100Y-42260
X28283Y-35917
X98000Y-12000
X108658Y-94237
X17000Y-18000
X28400Y-47300
X109465Y-94207
X15000Y-18000
X100000Y-12000
X109300Y-71100
X13000Y-18000
X109283Y-59917
X109100Y-66260
X3300Y-9700
X119000Y-68000
X121000Y-68000
X11000Y-18000
X125000Y-68000
X127000Y-68000
X100000Y-14000
X127000Y-66000
X125000Y-64000
X125000Y-66000
X123000Y-66000
X121000Y-66000
X119000Y-66000
X119000Y-64000
X11000Y-16000
X30300Y-57700
X34000Y-58000
X36000Y-58000
X38000Y-58000
X40000Y-58000
X42000Y-58000
X44000Y-58000
X46000Y-58000
X34000Y-60000
X36000Y-60000
X38000Y-60000
X40000Y-60000
X42000Y-60000
X44000Y-60000
X46000Y-60000
X46000Y-62000
X46000Y-64000
X44000Y-62000
X38000Y-62000
X40000Y-62000
X42000Y-62000
X42000Y-64000
X40000Y-64000
X38000Y-64000
X38000Y-66000
X40000Y-66000
X42000Y-66000
X44000Y-66000
X44000Y-64000
X46000Y-66000
X46000Y-68000
X44000Y-68000
X42000Y-68000
X40000Y-68000
X38000Y-68000
X100000Y-16000
X121000Y-64000
X28100Y-66260
X28283Y-59917
X123000Y-64000
X123000Y-62000
X13000Y-16000
X121000Y-62000
X28300Y-71100
X119000Y-62000
X125000Y-62000
X127000Y-64000
X127000Y-62000
X127000Y-60000
X125000Y-60000
X123000Y-60000
X121000Y-60000
X119000Y-60000
X117000Y-60000
X115000Y-60000
X127000Y-58000
X82283Y12083
X125000Y-58000
X123000Y-58000
X121000Y-58000
X119000Y-58000
X117000Y-58000
X115000Y-58000
X111300Y-57700
X15000Y-16000
X15000Y-14000
X28465Y-94207
X27658Y-94237
X82100Y5740
X98000Y-14000
X28100Y-90260
X28283Y-83917
X109400Y-47300
X13000Y-14000
X11000Y-14000
X109283Y-35917
X109100Y-42260
X81658Y1763
X1283Y12083
X82465Y1793
X1100Y5740
X109283Y-11917
X109100Y-18260
X7000Y-10000
X108658Y-22237
X109465Y-22207
X119000Y-20000
X92000Y-14000
X121000Y-20000
X123000Y-20000
X125000Y-20000
X127000Y-20000
X127000Y-18000
X125000Y-16000
X125000Y-18000
X123000Y-18000
X17000Y-14000
X55465Y1793
X54658Y1763
X94000Y-14000
X121000Y-18000
X55100Y5740
X55283Y12083
X119000Y-16000
X121000Y-16000
X96000Y-14000
X123000Y-16000
X123000Y-14000
X121000Y-14000
X119000Y-14000
X125000Y-14000
X127000Y-16000
X127000Y-14000
X127000Y-12000
X125000Y-12000
X123000Y-12000
X121000Y-12000
X119000Y-12000
X96000Y-16000
X117000Y-12000
X115000Y-12000
X127000Y-10000
X125000Y-10000
X123000Y-10000
X121000Y-10000
X119000Y-10000
X117000Y-10000
X658Y1763
X57300Y-9700
X61000Y-10000
X63000Y-10000
X65000Y-10000
X67000Y-10000
X69000Y-10000
X71000Y-10000
X73000Y-10000
X61000Y-12000
X63000Y-12000
X65000Y-12000
X67000Y-12000
X69000Y-12000
X71000Y-12000
X73000Y-12000
X73000Y-14000
X73000Y-16000
X71000Y-14000
X65000Y-14000
X67000Y-14000
X69000Y-14000
X69000Y-16000
X67000Y-16000
X65000Y-16000
X65000Y-18000
X67000Y-18000
X69000Y-18000
X71000Y-18000
X71000Y-16000
X73000Y-18000
X73000Y-20000
X71000Y-20000
X69000Y-20000
X67000Y-20000
X65000Y-20000
X55465Y-22207
X54658Y-22237
X94000Y-16000
X115000Y-10000
X55100Y-18260
X55283Y-11917
X111300Y-9700
X1465Y1793
X19000Y-16000
X92000Y-16000
X19000Y-14000
X109283Y12083
X109100Y5740
X92000Y-18000
X108658Y1763
X109465Y1793
X19000Y-12000
X94000Y-18000
X17000Y-12000
X82283Y-83917
X82100Y-90260
X96000Y-18000
X98000Y-18000
X81658Y-94237
X82465Y-94207
X15000Y-12000
X98000Y-16000
X82300Y-71100
X13000Y-12000
X11000Y-12000
X100000Y-18000
X82283Y-59917
X55100Y-42260
X55283Y-35917
X82100Y-66260
X100000Y-20000
X9000Y-12000
X55400Y-47300
X92000Y-68000
X94000Y-68000
X96000Y-68000
X98000Y-68000
X100000Y-68000
X100000Y-66000
X98000Y-64000
X98000Y-66000
X96000Y-66000
X94000Y-66000
X92000Y-66000
X92000Y-64000
X94000Y-64000
X98000Y-20000
X96000Y-64000
X96000Y-62000
X94000Y-62000
X92000Y-62000
X98000Y-62000
X100000Y-64000
X100000Y-62000
X96000Y-20000
X57300Y-57700
X61000Y-58000
X63000Y-58000
X65000Y-58000
X67000Y-58000
X69000Y-58000
X71000Y-58000
X73000Y-58000
X61000Y-60000
X63000Y-60000
X65000Y-60000
X67000Y-60000
X69000Y-60000
X71000Y-60000
X73000Y-60000
X73000Y-62000
X73000Y-64000
X71000Y-62000
X65000Y-62000
X67000Y-62000
X69000Y-62000
X69000Y-64000
X67000Y-64000
X65000Y-64000
X65000Y-66000
X67000Y-66000
X69000Y-66000
X71000Y-66000
X71000Y-64000
X73000Y-66000
X73000Y-68000
X71000Y-68000
X69000Y-68000
X67000Y-68000
X65000Y-68000
X94000Y-20000
X100000Y-60000
X55100Y-66260
X55283Y-59917
X98000Y-60000
X96000Y-60000
X7000Y-12000
X94000Y-60000
X55300Y-71100
X92000Y-60000
X90000Y-60000
X88000Y-60000
X100000Y-58000
X98000Y-58000
X96000Y-58000
X94000Y-58000
X92000Y-58000
X90000Y-58000
X88000Y-58000
X84300Y-57700
X19000Y-10000
X92000Y-20000
X82465Y-22207
X82400Y-47300
X17000Y-10000
X82283Y-35917
X82100Y-42260
X81658Y-22237
X15000Y-10000
X9000Y-10000
X13000Y-10000
X55465Y-94207
X54658Y-94237
X82100Y-18260
X11000Y-10000
X55100Y-90260
X55283Y-83917
X82283Y-11917
T4
X62549Y-94730
X8549Y-94730
X89549Y-22730
X89549Y-46730
X8549Y-70730
X35549Y1270
X62549Y-70730
X35549Y-22730
X8549Y-46730
X89549Y-70730
X62549Y-46730
X8549Y-22730
X89549Y-94730
X35549Y-46730
X116549Y-94730
X116549Y-70730
X116549Y1270
X35549Y-70730
X62549Y-22730
X35549Y-94730
X8549Y1270
X62549Y1270
X89549Y1270
X116549Y-22730
X116549Y-46730
T5
X115149Y-43828
X61149Y4172
X115149Y-67828
X61149Y-19828
X34149Y-91828
X115149Y-19828
X34149Y-67828
X115149Y4172
X115149Y-91828
X88149Y4172
X61149Y-43828
X34149Y-43828
X88149Y-91828
X7149Y-43828
X61149Y-67828
X7149Y-67828
X7149Y4172
X34149Y-19828
X61149Y-91828
X7149Y-19828
X88149Y-19828
X88149Y-67828
X34149Y4172
X7149Y-91828
X88149Y-43828
T6
X84600Y-21350
X90556Y-22509
X84636Y-23394
X83437Y-23574
X85600Y-20850
X84850Y-19600
X85600Y-18850
X85600Y-17850
X90240Y-20336
X87469Y-23423
X90261Y-17878
X90320Y-18691
X90368Y-19453
X88439Y-15832
X87650Y-15797
X81931Y-15937
X84809Y-15952
X90097Y-16700
X90208Y2484
X86650Y605
X88710Y513
X85861Y454
X90059Y382
X83437Y426
X84636Y606
X90556Y1491
X84600Y2650
X85600Y3150
X84850Y4400
X85600Y5150
X85600Y6150
X90240Y3664
X87469Y577
X90261Y6122
X90320Y5309
X90368Y4547
X88439Y8168
X87650Y8203
X81931Y8063
X84809Y8048
X90097Y7300
X63208Y-93516
X59650Y-95395
X90059Y-23618
X61710Y-95487
X58861Y-95546
X85861Y-23546
X88710Y-23487
X63059Y-95618
X86650Y-23395
X90208Y-21516
X90097Y-40700
X84809Y-39952
X81931Y-39937
X87650Y-39797
X88439Y-39832
X90368Y-43453
X90320Y-42691
X90261Y-41878
X87469Y-47423
X90240Y-44336
X56437Y-95574
X85600Y-41850
X85600Y-42850
X84850Y-43600
X85600Y-44850
X84600Y-45350
X90556Y-46509
X84636Y-47394
X57636Y-95394
X63556Y-94509
X90059Y-47618
X57600Y-93350
X58600Y-92850
X85861Y-47546
X88710Y-47487
X57850Y-91600
X58600Y-90850
X88500Y-38500
X86650Y-47395
X90100Y-45403
X90097Y-64700
X84809Y-63952
X81931Y-63937
X87650Y-63797
X88439Y-63832
X90368Y-67453
X90320Y-66691
X90261Y-65878
X87469Y-71423
X90240Y-68336
X58600Y-89850
X85600Y-65850
X85600Y-66850
X84850Y-67600
X85600Y-68850
X84600Y-69350
X90556Y-70509
X84636Y-71394
X63240Y-92336
X60469Y-95423
X9097Y7300
X63320Y-90691
X63368Y-91453
X61439Y-87832
X60650Y-87797
X54931Y-87937
X57809Y-87952
X63097Y-88700
X63208Y-69516
X59650Y-71395
X61400Y-62500
X61710Y-71487
X58861Y-71546
X63059Y-71618
X57636Y-71394
X63556Y-70509
X57600Y-69350
X58600Y-68850
X57850Y-67600
X58600Y-66850
X58600Y-65850
X63240Y-68336
X60469Y-71423
X63261Y-65878
X63320Y-66691
X63368Y-67453
X61439Y-63832
X60650Y-63797
X54931Y-63937
X57809Y-63952
X63097Y-64700
X63100Y-45403
X59650Y-47395
X61500Y-38500
X61710Y-47487
X90059Y-71618
X58861Y-47546
X63059Y-47618
X85861Y-71546
X88710Y-71487
X57636Y-47394
X88400Y-62500
X63556Y-46509
X86650Y-71395
X90208Y-69516
X90097Y-88700
X84809Y-87952
X81931Y-87937
X87650Y-87797
X88439Y-87832
X90368Y-91453
X90320Y-90691
X90261Y-89878
X87469Y-95423
X90240Y-92336
X57600Y-45350
X85600Y-89850
X85600Y-90850
X84850Y-91600
X85600Y-92850
X84600Y-93350
X90556Y-94509
X84636Y-95394
X83437Y-95574
X58600Y-44850
X57850Y-43600
X58600Y-42850
X58600Y-41850
X90059Y-95618
X63240Y-44336
X60469Y-47423
X85861Y-95546
X88710Y-95487
X63261Y-41878
X86650Y-95395
X90208Y-93516
X117097Y7300
X111809Y8048
X108931Y8063
X114650Y8203
X115439Y8168
X117368Y4547
X117320Y5309
X117261Y6122
X114469Y577
X117240Y3664
X63320Y-42691
X112600Y6150
X112600Y5150
X111850Y4400
X112600Y3150
X111600Y2650
X117556Y1491
X111636Y606
X110437Y426
X63368Y-43453
X61439Y-39832
X60650Y-39797
X54931Y-39937
X117059Y382
X57809Y-39952
X63097Y-40700
X112861Y454
X115710Y513
X63208Y-21516
X113650Y605
X117208Y2484
X117097Y-16700
X111809Y-15952
X108931Y-15937
X114650Y-15797
X115439Y-15832
X117368Y-19453
X117320Y-18691
X117261Y-17878
X114469Y-23423
X117240Y-20336
X59650Y-23395
X112600Y-17850
X112600Y-18850
X111850Y-19600
X112600Y-20850
X111600Y-21350
X117556Y-22509
X111636Y-23394
X110437Y-23574
X61710Y-23487
X58861Y-23546
X63059Y-23618
X56437Y-23574
X57636Y-23394
X63556Y-22509
X57600Y-21350
X58600Y-20850
X57850Y-19600
X58600Y-18850
X58600Y-17850
X63240Y-20336
X60469Y-23423
X63261Y-17878
X63320Y-18691
X63368Y-19453
X61439Y-15832
X60650Y-15797
X54931Y-15937
X57809Y-15952
X63097Y-16700
X63208Y2484
X59650Y605
X61710Y513
X58861Y454
X27931Y-39937
X63059Y382
X56437Y426
X57636Y606
X63556Y1491
X57600Y2650
X58600Y3150
X57850Y4400
X58600Y5150
X58600Y6150
X63240Y3664
X60469Y577
X63261Y6122
X63320Y5309
X117059Y-23618
X63368Y4547
X61439Y8168
X112861Y-23546
X115710Y-23487
X60650Y8203
X113650Y-23395
X117208Y-21516
X117097Y-40700
X111809Y-39952
X108931Y-39937
X114650Y-39797
X115439Y-39832
X117368Y-43453
X117320Y-42691
X117261Y-41878
X114469Y-47423
X117240Y-44336
X54931Y8063
X112600Y-41850
X112600Y-42850
X111850Y-43600
X112600Y-44850
X111600Y-45350
X117556Y-46509
X111636Y-47394
X57809Y8048
X63097Y7300
X117059Y-47618
X36208Y-93516
X32650Y-95395
X112861Y-47546
X115710Y-47487
X34710Y-95487
X31861Y-95546
X115500Y-38500
X113650Y-47395
X117100Y-45403
X117097Y-64700
X111809Y-63952
X108931Y-63937
X114650Y-63797
X115439Y-63832
X117368Y-67453
X117320Y-66691
X117261Y-65878
X114469Y-71423
X117240Y-68336
X36059Y-95618
X112600Y-65850
X112600Y-66850
X111850Y-67600
X112600Y-68850
X111600Y-69350
X117556Y-70509
X111636Y-71394
X29437Y-95574
X30636Y-95394
X36556Y-94509
X30600Y-93350
X31600Y-92850
X30850Y-91600
X31600Y-90850
X31600Y-89850
X36240Y-92336
X33469Y-95423
X36262Y-89878
X36320Y-90691
X36368Y-91453
X34439Y-87832
X33650Y-87797
X27931Y-87937
X30809Y-87952
X36097Y-88700
X36208Y-69516
X32650Y-71395
X34400Y-62500
X34710Y-71487
X31861Y-71546
X36059Y-71618
X30636Y-71394
X36556Y-70509
X30600Y-69350
X31600Y-68850
X30850Y-67600
X31600Y-66850
X31600Y-65850
X36240Y-68336
X33469Y-71423
X36262Y-65878
X36320Y-66691
X36368Y-67453
X34439Y-63832
X117059Y-71618
X33650Y-63797
X27931Y-63937
X112861Y-71546
X115710Y-71487
X30809Y-63952
X115400Y-62500
X36097Y-64700
X113650Y-71395
X117208Y-69516
X117097Y-88700
X111809Y-87952
X108931Y-87937
X114650Y-87797
X115439Y-87832
X117368Y-91453
X117320Y-90691
X117261Y-89878
X114469Y-95423
X117240Y-92336
X36100Y-45403
X112600Y-89850
X112600Y-90850
X111850Y-91600
X112600Y-92850
X111600Y-93350
X117556Y-94509
X111636Y-95394
X110437Y-95574
X32650Y-47395
X34500Y-38500
X34710Y-47487
X31861Y-47546
X117059Y-95618
X36059Y-47618
X30636Y-47394
X112861Y-95546
X115710Y-95487
X36556Y-46509
X113650Y-95395
X117208Y-93516
X30600Y-45350
X31600Y-44850
X30850Y-43600
X31600Y-42850
X31600Y-41850
X36240Y-44336
X33469Y-47423
X36262Y-41878
X36320Y-42691
X36368Y-43453
X34439Y-39832
X33650Y-39797
X30809Y-39952
X36097Y-40700
X36208Y-21516
X32650Y-23395
X34710Y-23487
X31861Y-23546
X36059Y-23618
X29437Y-23574
X30636Y-23394
X36556Y-22509
X30600Y-21350
X31600Y-20850
X30850Y-19600
X31600Y-18850
X31600Y-17850
X36240Y-20336
X33469Y-23423
X36262Y-17878
X36320Y-18691
X36368Y-19453
X34439Y-15832
X33650Y-15797
X27931Y-15937
X30809Y-15952
X36097Y-16700
X36208Y2484
X32650Y605
X34710Y513
X31861Y454
X36059Y382
X29437Y426
X30636Y606
X36556Y1491
X30600Y2650
X31600Y3150
X30850Y4400
X31600Y5150
X31600Y6150
X36240Y3664
X33469Y577
X36262Y6122
X36320Y5309
X36368Y4547
X34439Y8168
X33650Y8203
X27931Y8063
X30809Y8048
X36097Y7300
X9208Y-93516
X5650Y-95395
X7710Y-95487
X4861Y-95546
X9059Y-95618
X2437Y-95574
X3636Y-95394
X9556Y-94509
X3600Y-93350
X4600Y-92850
X3850Y-91600
X4600Y-90850
X4600Y-89850
X9240Y-92336
X6469Y-95423
X9262Y-89878
X9320Y-90691
X9368Y-91453
X7439Y-87832
X6650Y-87797
X931Y-87937
X3809Y-87952
X9097Y-88700
X9208Y-69516
X5650Y-71395
X7400Y-62500
X7710Y-71487
X4861Y-71546
X9059Y-71618
X3636Y-71394
X9556Y-70509
X3600Y-69350
X4600Y-68850
X3850Y-67600
X4600Y-66850
X4600Y-65850
X9240Y-68336
X6469Y-71423
X9262Y-65878
X9320Y-66691
X9368Y-67453
X7439Y-63832
X6650Y-63797
X931Y-63937
X3809Y-63952
X9097Y-64700
X9100Y-45403
X5650Y-47395
X7500Y-38500
X7710Y-47487
X4861Y-47546
X9059Y-47618
X3636Y-47394
X9556Y-46509
X3600Y-45350
X4600Y-44850
X3850Y-43600
X4600Y-42850
X4600Y-41850
X9240Y-44336
X6469Y-47423
X9262Y-41878
X9320Y-42691
X9368Y-43453
X7439Y-39832
X6650Y-39797
X931Y-39937
X3809Y-39952
X9097Y-40700
X9208Y-21516
X5650Y-23395
X7710Y-23487
X4861Y-23546
X9059Y-23618
X2437Y-23574
X3636Y-23394
X9556Y-22509
X3600Y-21350
X4600Y-20850
X3850Y-19600
X4600Y-18850
X4600Y-17850
X9240Y-20336
X6469Y-23423
X9262Y-17878
X9320Y-18691
X9368Y-19453
X7439Y-15832
X6650Y-15797
X931Y-15937
X3809Y-15952
X9097Y-16700
X9208Y2484
X5650Y605
X7710Y513
X4861Y454
X9059Y382
X2437Y426
X3636Y606
X9556Y1491
X3600Y2650
X4600Y3150
X3850Y4400
X4600Y5150
X4600Y6150
X9240Y3664
X6469Y577
X9262Y6122
X9320Y5309
X9368Y4547
X7439Y8168
X6650Y8203
X931Y8063
X3809Y8048
X63261Y-89878
M30