M48
;GenerationSoftware,Autodesk,EAGLE,9.0.0*%
;CreationDate,2018-06-19T20:39:02Z*%
FMAT,2
ICI,OFF
METRIC,TZ,000.000
T6C0.203
T5C0.254
T4C0.300
T3C0.350
T2C1.016
T1C1.500
%
G90
M71
T1
X14000Y1500
X18500Y1500
T2
X-2359Y2168
X-2359Y4708
X-2359Y7248
X-2359Y9788
X-2359Y12328
X-2359Y14868
X-2359Y17408
T3
X1465Y1793
X1283Y12083
X1100Y5740
X658Y1763
T4
X8549Y1270
T5
X7149Y4172
T6
X3600Y2650
X9556Y1491
X3636Y606
X2437Y426
X931Y8063
X6650Y8203
X4600Y3150
X3850Y4400
X9059Y382
X4600Y5150
X4600Y6150
X4861Y454
X7710Y513
X3809Y8048
X5650Y605
X9208Y2484
X9240Y3664
X6469Y577
X9262Y6122
X9320Y5309
X9368Y4547
X7439Y8168
X9097Y7300
M30