G04 EAGLE Gerber X2 export*
%TF.Part,Single*%
%TF.FileFunction,Soldermask,Top,1*%
%TF.FilePolarity,Negative*%
%TF.GenerationSoftware,Autodesk,EAGLE,9.0.0*%
%TF.CreationDate,2018-06-20T06:24:19Z*%
G75*
%MOMM*%
%FSLAX34Y34*%
%LPD*%
%AMOC8*
5,1,8,0,0,1.08239X$1,22.5*%
G01*
%ADD10R,0.457200X0.381000*%
%ADD11R,1.053200X1.103200*%
%ADD12R,0.381000X0.457200*%
%ADD13R,0.453200X0.503200*%
%ADD14R,1.803200X0.553200*%
%ADD15C,2.082800*%
%ADD16R,1.103200X1.053200*%
%ADD17R,0.953200X0.953200*%
%ADD18R,0.853200X1.003200*%
%ADD19R,0.433200X0.883200*%
%ADD20R,4.803200X4.803200*%
%ADD21R,0.883200X0.433200*%
%ADD22C,0.812800*%
%ADD23C,0.863600*%
%ADD24C,2.453200*%
%ADD25C,0.959600*%
%ADD26C,0.909600*%


D10*
X96919Y6708D03*
X96919Y3406D03*
D11*
X42203Y95563D03*
X53803Y95563D03*
D10*
X42337Y6161D03*
X42337Y2859D03*
X30291Y7703D03*
X30291Y4401D03*
D12*
X16635Y89315D03*
X13333Y89315D03*
D13*
X13940Y30568D03*
X8940Y30568D03*
D14*
X11791Y3828D03*
X11791Y10328D03*
D15*
X-23592Y174080D03*
X-23592Y148680D03*
X-23592Y123280D03*
X-23592Y97880D03*
X-23592Y72480D03*
X-23592Y47080D03*
X-23592Y21680D03*
D16*
X55091Y134452D03*
X55091Y146052D03*
D17*
X78000Y148500D03*
X78000Y159000D03*
D18*
X180524Y194470D03*
X195524Y194470D03*
D17*
X106611Y147622D03*
X96111Y147622D03*
D19*
X30366Y14181D03*
D20*
X52366Y42781D03*
D19*
X34366Y14181D03*
X38366Y14181D03*
X42366Y14181D03*
X46366Y14181D03*
X50366Y14181D03*
X54366Y14181D03*
X58366Y14181D03*
X62366Y14181D03*
X66366Y14181D03*
X70366Y14181D03*
X74366Y14181D03*
D21*
X80966Y20781D03*
X80966Y24781D03*
X80966Y28781D03*
X80966Y32781D03*
X80966Y36781D03*
X80966Y40781D03*
X80966Y44781D03*
X80966Y48781D03*
X80966Y52781D03*
X80966Y56781D03*
X80966Y60781D03*
X80966Y64781D03*
D19*
X74366Y71381D03*
X70366Y71381D03*
X66366Y71381D03*
X62366Y71381D03*
X58366Y71381D03*
X54366Y71381D03*
X50366Y71381D03*
X46366Y71381D03*
X42366Y71381D03*
X38366Y71381D03*
X34366Y71381D03*
X30366Y71381D03*
D21*
X23766Y64781D03*
X23766Y60781D03*
X23766Y56781D03*
X23766Y52781D03*
X23766Y48781D03*
X23766Y44781D03*
X23766Y40781D03*
X23766Y36781D03*
X23766Y32781D03*
X23766Y28781D03*
X23766Y24781D03*
X23766Y20781D03*
D10*
X96919Y-233292D03*
X96919Y-236594D03*
D11*
X42203Y-144437D03*
X53803Y-144437D03*
D10*
X42337Y-233839D03*
X42337Y-237141D03*
X30291Y-232297D03*
X30291Y-235599D03*
D12*
X16635Y-150685D03*
X13333Y-150685D03*
D13*
X13940Y-209432D03*
X8940Y-209432D03*
D14*
X11791Y-236172D03*
X11791Y-229672D03*
D15*
X-23592Y-65920D03*
X-23592Y-91320D03*
X-23592Y-116720D03*
X-23592Y-142120D03*
X-23592Y-167520D03*
X-23592Y-192920D03*
X-23592Y-218320D03*
D16*
X54091Y-124048D03*
X54091Y-112448D03*
D19*
X30366Y-225819D03*
D20*
X52366Y-197219D03*
D19*
X34366Y-225819D03*
X38366Y-225819D03*
X42366Y-225819D03*
X46366Y-225819D03*
X50366Y-225819D03*
X54366Y-225819D03*
X58366Y-225819D03*
X62366Y-225819D03*
X66366Y-225819D03*
X70366Y-225819D03*
X74366Y-225819D03*
D21*
X80966Y-219219D03*
X80966Y-215219D03*
X80966Y-211219D03*
X80966Y-207219D03*
X80966Y-203219D03*
X80966Y-199219D03*
X80966Y-195219D03*
X80966Y-191219D03*
X80966Y-187219D03*
X80966Y-183219D03*
X80966Y-179219D03*
X80966Y-175219D03*
D19*
X74366Y-168619D03*
X70366Y-168619D03*
X66366Y-168619D03*
X62366Y-168619D03*
X58366Y-168619D03*
X54366Y-168619D03*
X50366Y-168619D03*
X46366Y-168619D03*
X42366Y-168619D03*
X38366Y-168619D03*
X34366Y-168619D03*
X30366Y-168619D03*
D21*
X23766Y-175219D03*
X23766Y-179219D03*
X23766Y-183219D03*
X23766Y-187219D03*
X23766Y-191219D03*
X23766Y-195219D03*
X23766Y-199219D03*
X23766Y-203219D03*
X23766Y-207219D03*
X23766Y-211219D03*
X23766Y-215219D03*
X23766Y-219219D03*
D10*
X96919Y-473292D03*
X96919Y-476594D03*
D11*
X42203Y-384437D03*
X53803Y-384437D03*
D10*
X42337Y-473839D03*
X42337Y-477141D03*
X30291Y-472297D03*
X30291Y-475599D03*
D12*
X16635Y-390685D03*
X13333Y-390685D03*
D13*
X13940Y-449432D03*
X8940Y-449432D03*
D14*
X89791Y-390172D03*
X89791Y-383672D03*
D15*
X-23592Y-305920D03*
X-23592Y-331320D03*
X-23592Y-356720D03*
X-23592Y-382120D03*
X-23592Y-407520D03*
X-23592Y-432920D03*
X-23592Y-458320D03*
D16*
X55091Y-345548D03*
X55091Y-333948D03*
D17*
X78000Y-331500D03*
X78000Y-321000D03*
D18*
X180524Y-285530D03*
X195524Y-285530D03*
D17*
X106611Y-332378D03*
X96111Y-332378D03*
D19*
X30366Y-465819D03*
D20*
X52366Y-437219D03*
D19*
X34366Y-465819D03*
X38366Y-465819D03*
X42366Y-465819D03*
X46366Y-465819D03*
X50366Y-465819D03*
X54366Y-465819D03*
X58366Y-465819D03*
X62366Y-465819D03*
X66366Y-465819D03*
X70366Y-465819D03*
X74366Y-465819D03*
D21*
X80966Y-459219D03*
X80966Y-455219D03*
X80966Y-451219D03*
X80966Y-447219D03*
X80966Y-443219D03*
X80966Y-439219D03*
X80966Y-435219D03*
X80966Y-431219D03*
X80966Y-427219D03*
X80966Y-423219D03*
X80966Y-419219D03*
X80966Y-415219D03*
D19*
X74366Y-408619D03*
X70366Y-408619D03*
X66366Y-408619D03*
X62366Y-408619D03*
X58366Y-408619D03*
X54366Y-408619D03*
X50366Y-408619D03*
X46366Y-408619D03*
X42366Y-408619D03*
X38366Y-408619D03*
X34366Y-408619D03*
X30366Y-408619D03*
D21*
X23766Y-415219D03*
X23766Y-419219D03*
X23766Y-423219D03*
X23766Y-427219D03*
X23766Y-431219D03*
X23766Y-435219D03*
X23766Y-439219D03*
X23766Y-443219D03*
X23766Y-447219D03*
X23766Y-451219D03*
X23766Y-455219D03*
X23766Y-459219D03*
D12*
X12476Y-456000D03*
X15778Y-456000D03*
X4476Y-456000D03*
X7778Y-456000D03*
D10*
X96919Y-713292D03*
X96919Y-716594D03*
D11*
X42203Y-624437D03*
X53803Y-624437D03*
D10*
X42337Y-713839D03*
X42337Y-717141D03*
X30291Y-712297D03*
X30291Y-715599D03*
D12*
X16635Y-630685D03*
X13333Y-630685D03*
D13*
X13940Y-689432D03*
X8940Y-689432D03*
D14*
X88791Y-630172D03*
X88791Y-623672D03*
D15*
X-23592Y-545920D03*
X-23592Y-571320D03*
X-23592Y-596720D03*
X-23592Y-622120D03*
X-23592Y-647520D03*
X-23592Y-672920D03*
X-23592Y-698320D03*
D16*
X54091Y-604048D03*
X54091Y-592448D03*
D19*
X30366Y-705819D03*
D20*
X52366Y-677219D03*
D19*
X34366Y-705819D03*
X38366Y-705819D03*
X42366Y-705819D03*
X46366Y-705819D03*
X50366Y-705819D03*
X54366Y-705819D03*
X58366Y-705819D03*
X62366Y-705819D03*
X66366Y-705819D03*
X70366Y-705819D03*
X74366Y-705819D03*
D21*
X80966Y-699219D03*
X80966Y-695219D03*
X80966Y-691219D03*
X80966Y-687219D03*
X80966Y-683219D03*
X80966Y-679219D03*
X80966Y-675219D03*
X80966Y-671219D03*
X80966Y-667219D03*
X80966Y-663219D03*
X80966Y-659219D03*
X80966Y-655219D03*
D19*
X74366Y-648619D03*
X70366Y-648619D03*
X66366Y-648619D03*
X62366Y-648619D03*
X58366Y-648619D03*
X54366Y-648619D03*
X50366Y-648619D03*
X46366Y-648619D03*
X42366Y-648619D03*
X38366Y-648619D03*
X34366Y-648619D03*
X30366Y-648619D03*
D21*
X23766Y-655219D03*
X23766Y-659219D03*
X23766Y-663219D03*
X23766Y-667219D03*
X23766Y-671219D03*
X23766Y-675219D03*
X23766Y-679219D03*
X23766Y-683219D03*
X23766Y-687219D03*
X23766Y-691219D03*
X23766Y-695219D03*
X23766Y-699219D03*
D12*
X13976Y-695500D03*
X17278Y-695500D03*
X6476Y-696000D03*
X9778Y-696000D03*
D10*
X96919Y-953292D03*
X96919Y-956594D03*
D11*
X42203Y-864437D03*
X53803Y-864437D03*
D10*
X42337Y-953839D03*
X42337Y-957141D03*
X30291Y-952297D03*
X30291Y-955599D03*
D12*
X16635Y-870685D03*
X13333Y-870685D03*
D13*
X13940Y-929432D03*
X8940Y-929432D03*
D14*
X11791Y-956172D03*
X11791Y-949672D03*
D15*
X-23592Y-785920D03*
X-23592Y-811320D03*
X-23592Y-836720D03*
X-23592Y-862120D03*
X-23592Y-887520D03*
X-23592Y-912920D03*
X-23592Y-938320D03*
D16*
X55091Y-825548D03*
X55091Y-813948D03*
D17*
X78000Y-811500D03*
X78000Y-801000D03*
D18*
X180524Y-765530D03*
X195524Y-765530D03*
D17*
X106611Y-812378D03*
X96111Y-812378D03*
D19*
X30366Y-945819D03*
D20*
X52366Y-917219D03*
D19*
X34366Y-945819D03*
X38366Y-945819D03*
X42366Y-945819D03*
X46366Y-945819D03*
X50366Y-945819D03*
X54366Y-945819D03*
X58366Y-945819D03*
X62366Y-945819D03*
X66366Y-945819D03*
X70366Y-945819D03*
X74366Y-945819D03*
D21*
X80966Y-939219D03*
X80966Y-935219D03*
X80966Y-931219D03*
X80966Y-927219D03*
X80966Y-923219D03*
X80966Y-919219D03*
X80966Y-915219D03*
X80966Y-911219D03*
X80966Y-907219D03*
X80966Y-903219D03*
X80966Y-899219D03*
X80966Y-895219D03*
D19*
X74366Y-888619D03*
X70366Y-888619D03*
X66366Y-888619D03*
X62366Y-888619D03*
X58366Y-888619D03*
X54366Y-888619D03*
X50366Y-888619D03*
X46366Y-888619D03*
X42366Y-888619D03*
X38366Y-888619D03*
X34366Y-888619D03*
X30366Y-888619D03*
D21*
X23766Y-895219D03*
X23766Y-899219D03*
X23766Y-903219D03*
X23766Y-907219D03*
X23766Y-911219D03*
X23766Y-915219D03*
X23766Y-919219D03*
X23766Y-923219D03*
X23766Y-927219D03*
X23766Y-931219D03*
X23766Y-935219D03*
X23766Y-939219D03*
D10*
X366919Y6708D03*
X366919Y3406D03*
D11*
X312203Y95563D03*
X323803Y95563D03*
D10*
X312337Y6161D03*
X312337Y2859D03*
X300291Y7703D03*
X300291Y4401D03*
D12*
X286635Y89315D03*
X283333Y89315D03*
D13*
X283940Y30568D03*
X278940Y30568D03*
D14*
X281791Y3828D03*
X281791Y10328D03*
D15*
X246408Y174080D03*
X246408Y148680D03*
X246408Y123280D03*
X246408Y97880D03*
X246408Y72480D03*
X246408Y47080D03*
X246408Y21680D03*
D16*
X325091Y134452D03*
X325091Y146052D03*
D17*
X348000Y148500D03*
X348000Y159000D03*
D18*
X450524Y194470D03*
X465524Y194470D03*
D17*
X376611Y147622D03*
X366111Y147622D03*
D19*
X300366Y14181D03*
D20*
X322366Y42781D03*
D19*
X304366Y14181D03*
X308366Y14181D03*
X312366Y14181D03*
X316366Y14181D03*
X320366Y14181D03*
X324366Y14181D03*
X328366Y14181D03*
X332366Y14181D03*
X336366Y14181D03*
X340366Y14181D03*
X344366Y14181D03*
D21*
X350966Y20781D03*
X350966Y24781D03*
X350966Y28781D03*
X350966Y32781D03*
X350966Y36781D03*
X350966Y40781D03*
X350966Y44781D03*
X350966Y48781D03*
X350966Y52781D03*
X350966Y56781D03*
X350966Y60781D03*
X350966Y64781D03*
D19*
X344366Y71381D03*
X340366Y71381D03*
X336366Y71381D03*
X332366Y71381D03*
X328366Y71381D03*
X324366Y71381D03*
X320366Y71381D03*
X316366Y71381D03*
X312366Y71381D03*
X308366Y71381D03*
X304366Y71381D03*
X300366Y71381D03*
D21*
X293766Y64781D03*
X293766Y60781D03*
X293766Y56781D03*
X293766Y52781D03*
X293766Y48781D03*
X293766Y44781D03*
X293766Y40781D03*
X293766Y36781D03*
X293766Y32781D03*
X293766Y28781D03*
X293766Y24781D03*
X293766Y20781D03*
D10*
X366919Y-233292D03*
X366919Y-236594D03*
D11*
X312203Y-144437D03*
X323803Y-144437D03*
D10*
X312337Y-233839D03*
X312337Y-237141D03*
X300291Y-232297D03*
X300291Y-235599D03*
D12*
X286635Y-150685D03*
X283333Y-150685D03*
D13*
X283940Y-209432D03*
X278940Y-209432D03*
D14*
X281791Y-236172D03*
X281791Y-229672D03*
D15*
X246408Y-65920D03*
X246408Y-91320D03*
X246408Y-116720D03*
X246408Y-142120D03*
X246408Y-167520D03*
X246408Y-192920D03*
X246408Y-218320D03*
D16*
X324091Y-124048D03*
X324091Y-112448D03*
D19*
X300366Y-225819D03*
D20*
X322366Y-197219D03*
D19*
X304366Y-225819D03*
X308366Y-225819D03*
X312366Y-225819D03*
X316366Y-225819D03*
X320366Y-225819D03*
X324366Y-225819D03*
X328366Y-225819D03*
X332366Y-225819D03*
X336366Y-225819D03*
X340366Y-225819D03*
X344366Y-225819D03*
D21*
X350966Y-219219D03*
X350966Y-215219D03*
X350966Y-211219D03*
X350966Y-207219D03*
X350966Y-203219D03*
X350966Y-199219D03*
X350966Y-195219D03*
X350966Y-191219D03*
X350966Y-187219D03*
X350966Y-183219D03*
X350966Y-179219D03*
X350966Y-175219D03*
D19*
X344366Y-168619D03*
X340366Y-168619D03*
X336366Y-168619D03*
X332366Y-168619D03*
X328366Y-168619D03*
X324366Y-168619D03*
X320366Y-168619D03*
X316366Y-168619D03*
X312366Y-168619D03*
X308366Y-168619D03*
X304366Y-168619D03*
X300366Y-168619D03*
D21*
X293766Y-175219D03*
X293766Y-179219D03*
X293766Y-183219D03*
X293766Y-187219D03*
X293766Y-191219D03*
X293766Y-195219D03*
X293766Y-199219D03*
X293766Y-203219D03*
X293766Y-207219D03*
X293766Y-211219D03*
X293766Y-215219D03*
X293766Y-219219D03*
D10*
X366919Y-473292D03*
X366919Y-476594D03*
D11*
X312203Y-384437D03*
X323803Y-384437D03*
D10*
X312337Y-473839D03*
X312337Y-477141D03*
X300291Y-472297D03*
X300291Y-475599D03*
D12*
X286635Y-390685D03*
X283333Y-390685D03*
D13*
X283940Y-449432D03*
X278940Y-449432D03*
D14*
X359791Y-390172D03*
X359791Y-383672D03*
D15*
X246408Y-305920D03*
X246408Y-331320D03*
X246408Y-356720D03*
X246408Y-382120D03*
X246408Y-407520D03*
X246408Y-432920D03*
X246408Y-458320D03*
D16*
X325091Y-345548D03*
X325091Y-333948D03*
D17*
X348000Y-331500D03*
X348000Y-321000D03*
D18*
X450524Y-285530D03*
X465524Y-285530D03*
D17*
X376611Y-332378D03*
X366111Y-332378D03*
D19*
X300366Y-465819D03*
D20*
X322366Y-437219D03*
D19*
X304366Y-465819D03*
X308366Y-465819D03*
X312366Y-465819D03*
X316366Y-465819D03*
X320366Y-465819D03*
X324366Y-465819D03*
X328366Y-465819D03*
X332366Y-465819D03*
X336366Y-465819D03*
X340366Y-465819D03*
X344366Y-465819D03*
D21*
X350966Y-459219D03*
X350966Y-455219D03*
X350966Y-451219D03*
X350966Y-447219D03*
X350966Y-443219D03*
X350966Y-439219D03*
X350966Y-435219D03*
X350966Y-431219D03*
X350966Y-427219D03*
X350966Y-423219D03*
X350966Y-419219D03*
X350966Y-415219D03*
D19*
X344366Y-408619D03*
X340366Y-408619D03*
X336366Y-408619D03*
X332366Y-408619D03*
X328366Y-408619D03*
X324366Y-408619D03*
X320366Y-408619D03*
X316366Y-408619D03*
X312366Y-408619D03*
X308366Y-408619D03*
X304366Y-408619D03*
X300366Y-408619D03*
D21*
X293766Y-415219D03*
X293766Y-419219D03*
X293766Y-423219D03*
X293766Y-427219D03*
X293766Y-431219D03*
X293766Y-435219D03*
X293766Y-439219D03*
X293766Y-443219D03*
X293766Y-447219D03*
X293766Y-451219D03*
X293766Y-455219D03*
X293766Y-459219D03*
D12*
X282476Y-456000D03*
X285778Y-456000D03*
X274476Y-456000D03*
X277778Y-456000D03*
D10*
X366919Y-713292D03*
X366919Y-716594D03*
D11*
X312203Y-624437D03*
X323803Y-624437D03*
D10*
X312337Y-713839D03*
X312337Y-717141D03*
X300291Y-712297D03*
X300291Y-715599D03*
D12*
X286635Y-630685D03*
X283333Y-630685D03*
D13*
X283940Y-689432D03*
X278940Y-689432D03*
D14*
X358791Y-630172D03*
X358791Y-623672D03*
D15*
X246408Y-545920D03*
X246408Y-571320D03*
X246408Y-596720D03*
X246408Y-622120D03*
X246408Y-647520D03*
X246408Y-672920D03*
X246408Y-698320D03*
D16*
X324091Y-604048D03*
X324091Y-592448D03*
D19*
X300366Y-705819D03*
D20*
X322366Y-677219D03*
D19*
X304366Y-705819D03*
X308366Y-705819D03*
X312366Y-705819D03*
X316366Y-705819D03*
X320366Y-705819D03*
X324366Y-705819D03*
X328366Y-705819D03*
X332366Y-705819D03*
X336366Y-705819D03*
X340366Y-705819D03*
X344366Y-705819D03*
D21*
X350966Y-699219D03*
X350966Y-695219D03*
X350966Y-691219D03*
X350966Y-687219D03*
X350966Y-683219D03*
X350966Y-679219D03*
X350966Y-675219D03*
X350966Y-671219D03*
X350966Y-667219D03*
X350966Y-663219D03*
X350966Y-659219D03*
X350966Y-655219D03*
D19*
X344366Y-648619D03*
X340366Y-648619D03*
X336366Y-648619D03*
X332366Y-648619D03*
X328366Y-648619D03*
X324366Y-648619D03*
X320366Y-648619D03*
X316366Y-648619D03*
X312366Y-648619D03*
X308366Y-648619D03*
X304366Y-648619D03*
X300366Y-648619D03*
D21*
X293766Y-655219D03*
X293766Y-659219D03*
X293766Y-663219D03*
X293766Y-667219D03*
X293766Y-671219D03*
X293766Y-675219D03*
X293766Y-679219D03*
X293766Y-683219D03*
X293766Y-687219D03*
X293766Y-691219D03*
X293766Y-695219D03*
X293766Y-699219D03*
D12*
X283976Y-695500D03*
X287278Y-695500D03*
X276476Y-696000D03*
X279778Y-696000D03*
D10*
X366919Y-953292D03*
X366919Y-956594D03*
D11*
X312203Y-864437D03*
X323803Y-864437D03*
D10*
X312337Y-953839D03*
X312337Y-957141D03*
X300291Y-952297D03*
X300291Y-955599D03*
D12*
X286635Y-870685D03*
X283333Y-870685D03*
D13*
X283940Y-929432D03*
X278940Y-929432D03*
D14*
X281791Y-956172D03*
X281791Y-949672D03*
D15*
X246408Y-785920D03*
X246408Y-811320D03*
X246408Y-836720D03*
X246408Y-862120D03*
X246408Y-887520D03*
X246408Y-912920D03*
X246408Y-938320D03*
D16*
X325091Y-825548D03*
X325091Y-813948D03*
D17*
X348000Y-811500D03*
X348000Y-801000D03*
D18*
X450524Y-765530D03*
X465524Y-765530D03*
D17*
X376611Y-812378D03*
X366111Y-812378D03*
D19*
X300366Y-945819D03*
D20*
X322366Y-917219D03*
D19*
X304366Y-945819D03*
X308366Y-945819D03*
X312366Y-945819D03*
X316366Y-945819D03*
X320366Y-945819D03*
X324366Y-945819D03*
X328366Y-945819D03*
X332366Y-945819D03*
X336366Y-945819D03*
X340366Y-945819D03*
X344366Y-945819D03*
D21*
X350966Y-939219D03*
X350966Y-935219D03*
X350966Y-931219D03*
X350966Y-927219D03*
X350966Y-923219D03*
X350966Y-919219D03*
X350966Y-915219D03*
X350966Y-911219D03*
X350966Y-907219D03*
X350966Y-903219D03*
X350966Y-899219D03*
X350966Y-895219D03*
D19*
X344366Y-888619D03*
X340366Y-888619D03*
X336366Y-888619D03*
X332366Y-888619D03*
X328366Y-888619D03*
X324366Y-888619D03*
X320366Y-888619D03*
X316366Y-888619D03*
X312366Y-888619D03*
X308366Y-888619D03*
X304366Y-888619D03*
X300366Y-888619D03*
D21*
X293766Y-895219D03*
X293766Y-899219D03*
X293766Y-903219D03*
X293766Y-907219D03*
X293766Y-911219D03*
X293766Y-915219D03*
X293766Y-919219D03*
X293766Y-923219D03*
X293766Y-927219D03*
X293766Y-931219D03*
X293766Y-935219D03*
X293766Y-939219D03*
D10*
X636919Y6708D03*
X636919Y3406D03*
D11*
X582203Y95563D03*
X593803Y95563D03*
D10*
X582337Y6161D03*
X582337Y2859D03*
X570291Y7703D03*
X570291Y4401D03*
D12*
X556635Y89315D03*
X553333Y89315D03*
D13*
X553940Y30568D03*
X548940Y30568D03*
D14*
X551791Y3828D03*
X551791Y10328D03*
D15*
X516408Y174080D03*
X516408Y148680D03*
X516408Y123280D03*
X516408Y97880D03*
X516408Y72480D03*
X516408Y47080D03*
X516408Y21680D03*
D16*
X595091Y134452D03*
X595091Y146052D03*
D17*
X618000Y148500D03*
X618000Y159000D03*
D18*
X720524Y194470D03*
X735524Y194470D03*
D17*
X646611Y147622D03*
X636111Y147622D03*
D19*
X570366Y14181D03*
D20*
X592366Y42781D03*
D19*
X574366Y14181D03*
X578366Y14181D03*
X582366Y14181D03*
X586366Y14181D03*
X590366Y14181D03*
X594366Y14181D03*
X598366Y14181D03*
X602366Y14181D03*
X606366Y14181D03*
X610366Y14181D03*
X614366Y14181D03*
D21*
X620966Y20781D03*
X620966Y24781D03*
X620966Y28781D03*
X620966Y32781D03*
X620966Y36781D03*
X620966Y40781D03*
X620966Y44781D03*
X620966Y48781D03*
X620966Y52781D03*
X620966Y56781D03*
X620966Y60781D03*
X620966Y64781D03*
D19*
X614366Y71381D03*
X610366Y71381D03*
X606366Y71381D03*
X602366Y71381D03*
X598366Y71381D03*
X594366Y71381D03*
X590366Y71381D03*
X586366Y71381D03*
X582366Y71381D03*
X578366Y71381D03*
X574366Y71381D03*
X570366Y71381D03*
D21*
X563766Y64781D03*
X563766Y60781D03*
X563766Y56781D03*
X563766Y52781D03*
X563766Y48781D03*
X563766Y44781D03*
X563766Y40781D03*
X563766Y36781D03*
X563766Y32781D03*
X563766Y28781D03*
X563766Y24781D03*
X563766Y20781D03*
D10*
X636919Y-233292D03*
X636919Y-236594D03*
D11*
X582203Y-144437D03*
X593803Y-144437D03*
D10*
X582337Y-233839D03*
X582337Y-237141D03*
X570291Y-232297D03*
X570291Y-235599D03*
D12*
X556635Y-150685D03*
X553333Y-150685D03*
D13*
X553940Y-209432D03*
X548940Y-209432D03*
D14*
X551791Y-236172D03*
X551791Y-229672D03*
D15*
X516408Y-65920D03*
X516408Y-91320D03*
X516408Y-116720D03*
X516408Y-142120D03*
X516408Y-167520D03*
X516408Y-192920D03*
X516408Y-218320D03*
D16*
X594091Y-124048D03*
X594091Y-112448D03*
D19*
X570366Y-225819D03*
D20*
X592366Y-197219D03*
D19*
X574366Y-225819D03*
X578366Y-225819D03*
X582366Y-225819D03*
X586366Y-225819D03*
X590366Y-225819D03*
X594366Y-225819D03*
X598366Y-225819D03*
X602366Y-225819D03*
X606366Y-225819D03*
X610366Y-225819D03*
X614366Y-225819D03*
D21*
X620966Y-219219D03*
X620966Y-215219D03*
X620966Y-211219D03*
X620966Y-207219D03*
X620966Y-203219D03*
X620966Y-199219D03*
X620966Y-195219D03*
X620966Y-191219D03*
X620966Y-187219D03*
X620966Y-183219D03*
X620966Y-179219D03*
X620966Y-175219D03*
D19*
X614366Y-168619D03*
X610366Y-168619D03*
X606366Y-168619D03*
X602366Y-168619D03*
X598366Y-168619D03*
X594366Y-168619D03*
X590366Y-168619D03*
X586366Y-168619D03*
X582366Y-168619D03*
X578366Y-168619D03*
X574366Y-168619D03*
X570366Y-168619D03*
D21*
X563766Y-175219D03*
X563766Y-179219D03*
X563766Y-183219D03*
X563766Y-187219D03*
X563766Y-191219D03*
X563766Y-195219D03*
X563766Y-199219D03*
X563766Y-203219D03*
X563766Y-207219D03*
X563766Y-211219D03*
X563766Y-215219D03*
X563766Y-219219D03*
D10*
X636919Y-473292D03*
X636919Y-476594D03*
D11*
X582203Y-384437D03*
X593803Y-384437D03*
D10*
X582337Y-473839D03*
X582337Y-477141D03*
X570291Y-472297D03*
X570291Y-475599D03*
D12*
X556635Y-390685D03*
X553333Y-390685D03*
D13*
X553940Y-449432D03*
X548940Y-449432D03*
D14*
X629791Y-390172D03*
X629791Y-383672D03*
D15*
X516408Y-305920D03*
X516408Y-331320D03*
X516408Y-356720D03*
X516408Y-382120D03*
X516408Y-407520D03*
X516408Y-432920D03*
X516408Y-458320D03*
D16*
X595091Y-345548D03*
X595091Y-333948D03*
D17*
X618000Y-331500D03*
X618000Y-321000D03*
D18*
X720524Y-285530D03*
X735524Y-285530D03*
D17*
X646611Y-332378D03*
X636111Y-332378D03*
D19*
X570366Y-465819D03*
D20*
X592366Y-437219D03*
D19*
X574366Y-465819D03*
X578366Y-465819D03*
X582366Y-465819D03*
X586366Y-465819D03*
X590366Y-465819D03*
X594366Y-465819D03*
X598366Y-465819D03*
X602366Y-465819D03*
X606366Y-465819D03*
X610366Y-465819D03*
X614366Y-465819D03*
D21*
X620966Y-459219D03*
X620966Y-455219D03*
X620966Y-451219D03*
X620966Y-447219D03*
X620966Y-443219D03*
X620966Y-439219D03*
X620966Y-435219D03*
X620966Y-431219D03*
X620966Y-427219D03*
X620966Y-423219D03*
X620966Y-419219D03*
X620966Y-415219D03*
D19*
X614366Y-408619D03*
X610366Y-408619D03*
X606366Y-408619D03*
X602366Y-408619D03*
X598366Y-408619D03*
X594366Y-408619D03*
X590366Y-408619D03*
X586366Y-408619D03*
X582366Y-408619D03*
X578366Y-408619D03*
X574366Y-408619D03*
X570366Y-408619D03*
D21*
X563766Y-415219D03*
X563766Y-419219D03*
X563766Y-423219D03*
X563766Y-427219D03*
X563766Y-431219D03*
X563766Y-435219D03*
X563766Y-439219D03*
X563766Y-443219D03*
X563766Y-447219D03*
X563766Y-451219D03*
X563766Y-455219D03*
X563766Y-459219D03*
D12*
X552476Y-456000D03*
X555778Y-456000D03*
X544476Y-456000D03*
X547778Y-456000D03*
D10*
X636919Y-713292D03*
X636919Y-716594D03*
D11*
X582203Y-624437D03*
X593803Y-624437D03*
D10*
X582337Y-713839D03*
X582337Y-717141D03*
X570291Y-712297D03*
X570291Y-715599D03*
D12*
X556635Y-630685D03*
X553333Y-630685D03*
D13*
X553940Y-689432D03*
X548940Y-689432D03*
D14*
X628791Y-630172D03*
X628791Y-623672D03*
D15*
X516408Y-545920D03*
X516408Y-571320D03*
X516408Y-596720D03*
X516408Y-622120D03*
X516408Y-647520D03*
X516408Y-672920D03*
X516408Y-698320D03*
D16*
X594091Y-604048D03*
X594091Y-592448D03*
D19*
X570366Y-705819D03*
D20*
X592366Y-677219D03*
D19*
X574366Y-705819D03*
X578366Y-705819D03*
X582366Y-705819D03*
X586366Y-705819D03*
X590366Y-705819D03*
X594366Y-705819D03*
X598366Y-705819D03*
X602366Y-705819D03*
X606366Y-705819D03*
X610366Y-705819D03*
X614366Y-705819D03*
D21*
X620966Y-699219D03*
X620966Y-695219D03*
X620966Y-691219D03*
X620966Y-687219D03*
X620966Y-683219D03*
X620966Y-679219D03*
X620966Y-675219D03*
X620966Y-671219D03*
X620966Y-667219D03*
X620966Y-663219D03*
X620966Y-659219D03*
X620966Y-655219D03*
D19*
X614366Y-648619D03*
X610366Y-648619D03*
X606366Y-648619D03*
X602366Y-648619D03*
X598366Y-648619D03*
X594366Y-648619D03*
X590366Y-648619D03*
X586366Y-648619D03*
X582366Y-648619D03*
X578366Y-648619D03*
X574366Y-648619D03*
X570366Y-648619D03*
D21*
X563766Y-655219D03*
X563766Y-659219D03*
X563766Y-663219D03*
X563766Y-667219D03*
X563766Y-671219D03*
X563766Y-675219D03*
X563766Y-679219D03*
X563766Y-683219D03*
X563766Y-687219D03*
X563766Y-691219D03*
X563766Y-695219D03*
X563766Y-699219D03*
D12*
X553976Y-695500D03*
X557278Y-695500D03*
X546476Y-696000D03*
X549778Y-696000D03*
D10*
X636919Y-953292D03*
X636919Y-956594D03*
D11*
X582203Y-864437D03*
X593803Y-864437D03*
D10*
X582337Y-953839D03*
X582337Y-957141D03*
X570291Y-952297D03*
X570291Y-955599D03*
D12*
X556635Y-870685D03*
X553333Y-870685D03*
D13*
X553940Y-929432D03*
X548940Y-929432D03*
D14*
X551791Y-956172D03*
X551791Y-949672D03*
D15*
X516408Y-785920D03*
X516408Y-811320D03*
X516408Y-836720D03*
X516408Y-862120D03*
X516408Y-887520D03*
X516408Y-912920D03*
X516408Y-938320D03*
D16*
X595091Y-825548D03*
X595091Y-813948D03*
D17*
X618000Y-811500D03*
X618000Y-801000D03*
D18*
X720524Y-765530D03*
X735524Y-765530D03*
D17*
X646611Y-812378D03*
X636111Y-812378D03*
D19*
X570366Y-945819D03*
D20*
X592366Y-917219D03*
D19*
X574366Y-945819D03*
X578366Y-945819D03*
X582366Y-945819D03*
X586366Y-945819D03*
X590366Y-945819D03*
X594366Y-945819D03*
X598366Y-945819D03*
X602366Y-945819D03*
X606366Y-945819D03*
X610366Y-945819D03*
X614366Y-945819D03*
D21*
X620966Y-939219D03*
X620966Y-935219D03*
X620966Y-931219D03*
X620966Y-927219D03*
X620966Y-923219D03*
X620966Y-919219D03*
X620966Y-915219D03*
X620966Y-911219D03*
X620966Y-907219D03*
X620966Y-903219D03*
X620966Y-899219D03*
X620966Y-895219D03*
D19*
X614366Y-888619D03*
X610366Y-888619D03*
X606366Y-888619D03*
X602366Y-888619D03*
X598366Y-888619D03*
X594366Y-888619D03*
X590366Y-888619D03*
X586366Y-888619D03*
X582366Y-888619D03*
X578366Y-888619D03*
X574366Y-888619D03*
X570366Y-888619D03*
D21*
X563766Y-895219D03*
X563766Y-899219D03*
X563766Y-903219D03*
X563766Y-907219D03*
X563766Y-911219D03*
X563766Y-915219D03*
X563766Y-919219D03*
X563766Y-923219D03*
X563766Y-927219D03*
X563766Y-931219D03*
X563766Y-935219D03*
X563766Y-939219D03*
D10*
X906919Y6708D03*
X906919Y3406D03*
D11*
X852203Y95563D03*
X863803Y95563D03*
D10*
X852337Y6161D03*
X852337Y2859D03*
X840291Y7703D03*
X840291Y4401D03*
D12*
X826635Y89315D03*
X823333Y89315D03*
D13*
X823940Y30568D03*
X818940Y30568D03*
D14*
X821791Y3828D03*
X821791Y10328D03*
D15*
X786408Y174080D03*
X786408Y148680D03*
X786408Y123280D03*
X786408Y97880D03*
X786408Y72480D03*
X786408Y47080D03*
X786408Y21680D03*
D16*
X865091Y134452D03*
X865091Y146052D03*
D17*
X888000Y148500D03*
X888000Y159000D03*
D18*
X990524Y194470D03*
X1005524Y194470D03*
D17*
X916611Y147622D03*
X906111Y147622D03*
D19*
X840366Y14181D03*
D20*
X862366Y42781D03*
D19*
X844366Y14181D03*
X848366Y14181D03*
X852366Y14181D03*
X856366Y14181D03*
X860366Y14181D03*
X864366Y14181D03*
X868366Y14181D03*
X872366Y14181D03*
X876366Y14181D03*
X880366Y14181D03*
X884366Y14181D03*
D21*
X890966Y20781D03*
X890966Y24781D03*
X890966Y28781D03*
X890966Y32781D03*
X890966Y36781D03*
X890966Y40781D03*
X890966Y44781D03*
X890966Y48781D03*
X890966Y52781D03*
X890966Y56781D03*
X890966Y60781D03*
X890966Y64781D03*
D19*
X884366Y71381D03*
X880366Y71381D03*
X876366Y71381D03*
X872366Y71381D03*
X868366Y71381D03*
X864366Y71381D03*
X860366Y71381D03*
X856366Y71381D03*
X852366Y71381D03*
X848366Y71381D03*
X844366Y71381D03*
X840366Y71381D03*
D21*
X833766Y64781D03*
X833766Y60781D03*
X833766Y56781D03*
X833766Y52781D03*
X833766Y48781D03*
X833766Y44781D03*
X833766Y40781D03*
X833766Y36781D03*
X833766Y32781D03*
X833766Y28781D03*
X833766Y24781D03*
X833766Y20781D03*
D10*
X906919Y-233292D03*
X906919Y-236594D03*
D11*
X852203Y-144437D03*
X863803Y-144437D03*
D10*
X852337Y-233839D03*
X852337Y-237141D03*
X840291Y-232297D03*
X840291Y-235599D03*
D12*
X826635Y-150685D03*
X823333Y-150685D03*
D13*
X823940Y-209432D03*
X818940Y-209432D03*
D14*
X821791Y-236172D03*
X821791Y-229672D03*
D15*
X786408Y-65920D03*
X786408Y-91320D03*
X786408Y-116720D03*
X786408Y-142120D03*
X786408Y-167520D03*
X786408Y-192920D03*
X786408Y-218320D03*
D16*
X864091Y-124048D03*
X864091Y-112448D03*
D19*
X840366Y-225819D03*
D20*
X862366Y-197219D03*
D19*
X844366Y-225819D03*
X848366Y-225819D03*
X852366Y-225819D03*
X856366Y-225819D03*
X860366Y-225819D03*
X864366Y-225819D03*
X868366Y-225819D03*
X872366Y-225819D03*
X876366Y-225819D03*
X880366Y-225819D03*
X884366Y-225819D03*
D21*
X890966Y-219219D03*
X890966Y-215219D03*
X890966Y-211219D03*
X890966Y-207219D03*
X890966Y-203219D03*
X890966Y-199219D03*
X890966Y-195219D03*
X890966Y-191219D03*
X890966Y-187219D03*
X890966Y-183219D03*
X890966Y-179219D03*
X890966Y-175219D03*
D19*
X884366Y-168619D03*
X880366Y-168619D03*
X876366Y-168619D03*
X872366Y-168619D03*
X868366Y-168619D03*
X864366Y-168619D03*
X860366Y-168619D03*
X856366Y-168619D03*
X852366Y-168619D03*
X848366Y-168619D03*
X844366Y-168619D03*
X840366Y-168619D03*
D21*
X833766Y-175219D03*
X833766Y-179219D03*
X833766Y-183219D03*
X833766Y-187219D03*
X833766Y-191219D03*
X833766Y-195219D03*
X833766Y-199219D03*
X833766Y-203219D03*
X833766Y-207219D03*
X833766Y-211219D03*
X833766Y-215219D03*
X833766Y-219219D03*
D10*
X906919Y-473292D03*
X906919Y-476594D03*
D11*
X852203Y-384437D03*
X863803Y-384437D03*
D10*
X852337Y-473839D03*
X852337Y-477141D03*
X840291Y-472297D03*
X840291Y-475599D03*
D12*
X826635Y-390685D03*
X823333Y-390685D03*
D13*
X823940Y-449432D03*
X818940Y-449432D03*
D14*
X899791Y-390172D03*
X899791Y-383672D03*
D15*
X786408Y-305920D03*
X786408Y-331320D03*
X786408Y-356720D03*
X786408Y-382120D03*
X786408Y-407520D03*
X786408Y-432920D03*
X786408Y-458320D03*
D16*
X865091Y-345548D03*
X865091Y-333948D03*
D17*
X888000Y-331500D03*
X888000Y-321000D03*
D18*
X990524Y-285530D03*
X1005524Y-285530D03*
D17*
X916611Y-332378D03*
X906111Y-332378D03*
D19*
X840366Y-465819D03*
D20*
X862366Y-437219D03*
D19*
X844366Y-465819D03*
X848366Y-465819D03*
X852366Y-465819D03*
X856366Y-465819D03*
X860366Y-465819D03*
X864366Y-465819D03*
X868366Y-465819D03*
X872366Y-465819D03*
X876366Y-465819D03*
X880366Y-465819D03*
X884366Y-465819D03*
D21*
X890966Y-459219D03*
X890966Y-455219D03*
X890966Y-451219D03*
X890966Y-447219D03*
X890966Y-443219D03*
X890966Y-439219D03*
X890966Y-435219D03*
X890966Y-431219D03*
X890966Y-427219D03*
X890966Y-423219D03*
X890966Y-419219D03*
X890966Y-415219D03*
D19*
X884366Y-408619D03*
X880366Y-408619D03*
X876366Y-408619D03*
X872366Y-408619D03*
X868366Y-408619D03*
X864366Y-408619D03*
X860366Y-408619D03*
X856366Y-408619D03*
X852366Y-408619D03*
X848366Y-408619D03*
X844366Y-408619D03*
X840366Y-408619D03*
D21*
X833766Y-415219D03*
X833766Y-419219D03*
X833766Y-423219D03*
X833766Y-427219D03*
X833766Y-431219D03*
X833766Y-435219D03*
X833766Y-439219D03*
X833766Y-443219D03*
X833766Y-447219D03*
X833766Y-451219D03*
X833766Y-455219D03*
X833766Y-459219D03*
D12*
X822476Y-456000D03*
X825778Y-456000D03*
X814476Y-456000D03*
X817778Y-456000D03*
D10*
X906919Y-713292D03*
X906919Y-716594D03*
D11*
X852203Y-624437D03*
X863803Y-624437D03*
D10*
X852337Y-713839D03*
X852337Y-717141D03*
X840291Y-712297D03*
X840291Y-715599D03*
D12*
X826635Y-630685D03*
X823333Y-630685D03*
D13*
X823940Y-689432D03*
X818940Y-689432D03*
D14*
X898791Y-630172D03*
X898791Y-623672D03*
D15*
X786408Y-545920D03*
X786408Y-571320D03*
X786408Y-596720D03*
X786408Y-622120D03*
X786408Y-647520D03*
X786408Y-672920D03*
X786408Y-698320D03*
D16*
X864091Y-604048D03*
X864091Y-592448D03*
D19*
X840366Y-705819D03*
D20*
X862366Y-677219D03*
D19*
X844366Y-705819D03*
X848366Y-705819D03*
X852366Y-705819D03*
X856366Y-705819D03*
X860366Y-705819D03*
X864366Y-705819D03*
X868366Y-705819D03*
X872366Y-705819D03*
X876366Y-705819D03*
X880366Y-705819D03*
X884366Y-705819D03*
D21*
X890966Y-699219D03*
X890966Y-695219D03*
X890966Y-691219D03*
X890966Y-687219D03*
X890966Y-683219D03*
X890966Y-679219D03*
X890966Y-675219D03*
X890966Y-671219D03*
X890966Y-667219D03*
X890966Y-663219D03*
X890966Y-659219D03*
X890966Y-655219D03*
D19*
X884366Y-648619D03*
X880366Y-648619D03*
X876366Y-648619D03*
X872366Y-648619D03*
X868366Y-648619D03*
X864366Y-648619D03*
X860366Y-648619D03*
X856366Y-648619D03*
X852366Y-648619D03*
X848366Y-648619D03*
X844366Y-648619D03*
X840366Y-648619D03*
D21*
X833766Y-655219D03*
X833766Y-659219D03*
X833766Y-663219D03*
X833766Y-667219D03*
X833766Y-671219D03*
X833766Y-675219D03*
X833766Y-679219D03*
X833766Y-683219D03*
X833766Y-687219D03*
X833766Y-691219D03*
X833766Y-695219D03*
X833766Y-699219D03*
D12*
X823976Y-695500D03*
X827278Y-695500D03*
X816476Y-696000D03*
X819778Y-696000D03*
D10*
X906919Y-953292D03*
X906919Y-956594D03*
D11*
X852203Y-864437D03*
X863803Y-864437D03*
D10*
X852337Y-953839D03*
X852337Y-957141D03*
X840291Y-952297D03*
X840291Y-955599D03*
D12*
X826635Y-870685D03*
X823333Y-870685D03*
D13*
X823940Y-929432D03*
X818940Y-929432D03*
D14*
X821791Y-956172D03*
X821791Y-949672D03*
D15*
X786408Y-785920D03*
X786408Y-811320D03*
X786408Y-836720D03*
X786408Y-862120D03*
X786408Y-887520D03*
X786408Y-912920D03*
X786408Y-938320D03*
D16*
X865091Y-825548D03*
X865091Y-813948D03*
D17*
X888000Y-811500D03*
X888000Y-801000D03*
D18*
X990524Y-765530D03*
X1005524Y-765530D03*
D17*
X916611Y-812378D03*
X906111Y-812378D03*
D19*
X840366Y-945819D03*
D20*
X862366Y-917219D03*
D19*
X844366Y-945819D03*
X848366Y-945819D03*
X852366Y-945819D03*
X856366Y-945819D03*
X860366Y-945819D03*
X864366Y-945819D03*
X868366Y-945819D03*
X872366Y-945819D03*
X876366Y-945819D03*
X880366Y-945819D03*
X884366Y-945819D03*
D21*
X890966Y-939219D03*
X890966Y-935219D03*
X890966Y-931219D03*
X890966Y-927219D03*
X890966Y-923219D03*
X890966Y-919219D03*
X890966Y-915219D03*
X890966Y-911219D03*
X890966Y-907219D03*
X890966Y-903219D03*
X890966Y-899219D03*
X890966Y-895219D03*
D19*
X884366Y-888619D03*
X880366Y-888619D03*
X876366Y-888619D03*
X872366Y-888619D03*
X868366Y-888619D03*
X864366Y-888619D03*
X860366Y-888619D03*
X856366Y-888619D03*
X852366Y-888619D03*
X848366Y-888619D03*
X844366Y-888619D03*
X840366Y-888619D03*
D21*
X833766Y-895219D03*
X833766Y-899219D03*
X833766Y-903219D03*
X833766Y-907219D03*
X833766Y-911219D03*
X833766Y-915219D03*
X833766Y-919219D03*
X833766Y-923219D03*
X833766Y-927219D03*
X833766Y-931219D03*
X833766Y-935219D03*
X833766Y-939219D03*
D10*
X1176919Y6708D03*
X1176919Y3406D03*
D11*
X1122203Y95563D03*
X1133803Y95563D03*
D10*
X1122337Y6161D03*
X1122337Y2859D03*
X1110291Y7703D03*
X1110291Y4401D03*
D12*
X1096635Y89315D03*
X1093333Y89315D03*
D13*
X1093940Y30568D03*
X1088940Y30568D03*
D14*
X1091791Y3828D03*
X1091791Y10328D03*
D15*
X1056408Y174080D03*
X1056408Y148680D03*
X1056408Y123280D03*
X1056408Y97880D03*
X1056408Y72480D03*
X1056408Y47080D03*
X1056408Y21680D03*
D16*
X1135091Y134452D03*
X1135091Y146052D03*
D17*
X1158000Y148500D03*
X1158000Y159000D03*
D18*
X1260524Y194470D03*
X1275524Y194470D03*
D17*
X1186611Y147622D03*
X1176111Y147622D03*
D19*
X1110366Y14181D03*
D20*
X1132366Y42781D03*
D19*
X1114366Y14181D03*
X1118366Y14181D03*
X1122366Y14181D03*
X1126366Y14181D03*
X1130366Y14181D03*
X1134366Y14181D03*
X1138366Y14181D03*
X1142366Y14181D03*
X1146366Y14181D03*
X1150366Y14181D03*
X1154366Y14181D03*
D21*
X1160966Y20781D03*
X1160966Y24781D03*
X1160966Y28781D03*
X1160966Y32781D03*
X1160966Y36781D03*
X1160966Y40781D03*
X1160966Y44781D03*
X1160966Y48781D03*
X1160966Y52781D03*
X1160966Y56781D03*
X1160966Y60781D03*
X1160966Y64781D03*
D19*
X1154366Y71381D03*
X1150366Y71381D03*
X1146366Y71381D03*
X1142366Y71381D03*
X1138366Y71381D03*
X1134366Y71381D03*
X1130366Y71381D03*
X1126366Y71381D03*
X1122366Y71381D03*
X1118366Y71381D03*
X1114366Y71381D03*
X1110366Y71381D03*
D21*
X1103766Y64781D03*
X1103766Y60781D03*
X1103766Y56781D03*
X1103766Y52781D03*
X1103766Y48781D03*
X1103766Y44781D03*
X1103766Y40781D03*
X1103766Y36781D03*
X1103766Y32781D03*
X1103766Y28781D03*
X1103766Y24781D03*
X1103766Y20781D03*
D10*
X1176919Y-233292D03*
X1176919Y-236594D03*
D11*
X1122203Y-144437D03*
X1133803Y-144437D03*
D10*
X1122337Y-233839D03*
X1122337Y-237141D03*
X1110291Y-232297D03*
X1110291Y-235599D03*
D12*
X1096635Y-150685D03*
X1093333Y-150685D03*
D13*
X1093940Y-209432D03*
X1088940Y-209432D03*
D14*
X1091791Y-236172D03*
X1091791Y-229672D03*
D15*
X1056408Y-65920D03*
X1056408Y-91320D03*
X1056408Y-116720D03*
X1056408Y-142120D03*
X1056408Y-167520D03*
X1056408Y-192920D03*
X1056408Y-218320D03*
D16*
X1134091Y-124048D03*
X1134091Y-112448D03*
D19*
X1110366Y-225819D03*
D20*
X1132366Y-197219D03*
D19*
X1114366Y-225819D03*
X1118366Y-225819D03*
X1122366Y-225819D03*
X1126366Y-225819D03*
X1130366Y-225819D03*
X1134366Y-225819D03*
X1138366Y-225819D03*
X1142366Y-225819D03*
X1146366Y-225819D03*
X1150366Y-225819D03*
X1154366Y-225819D03*
D21*
X1160966Y-219219D03*
X1160966Y-215219D03*
X1160966Y-211219D03*
X1160966Y-207219D03*
X1160966Y-203219D03*
X1160966Y-199219D03*
X1160966Y-195219D03*
X1160966Y-191219D03*
X1160966Y-187219D03*
X1160966Y-183219D03*
X1160966Y-179219D03*
X1160966Y-175219D03*
D19*
X1154366Y-168619D03*
X1150366Y-168619D03*
X1146366Y-168619D03*
X1142366Y-168619D03*
X1138366Y-168619D03*
X1134366Y-168619D03*
X1130366Y-168619D03*
X1126366Y-168619D03*
X1122366Y-168619D03*
X1118366Y-168619D03*
X1114366Y-168619D03*
X1110366Y-168619D03*
D21*
X1103766Y-175219D03*
X1103766Y-179219D03*
X1103766Y-183219D03*
X1103766Y-187219D03*
X1103766Y-191219D03*
X1103766Y-195219D03*
X1103766Y-199219D03*
X1103766Y-203219D03*
X1103766Y-207219D03*
X1103766Y-211219D03*
X1103766Y-215219D03*
X1103766Y-219219D03*
D10*
X1176919Y-473292D03*
X1176919Y-476594D03*
D11*
X1122203Y-384437D03*
X1133803Y-384437D03*
D10*
X1122337Y-473839D03*
X1122337Y-477141D03*
X1110291Y-472297D03*
X1110291Y-475599D03*
D12*
X1096635Y-390685D03*
X1093333Y-390685D03*
D13*
X1093940Y-449432D03*
X1088940Y-449432D03*
D14*
X1169791Y-390172D03*
X1169791Y-383672D03*
D15*
X1056408Y-305920D03*
X1056408Y-331320D03*
X1056408Y-356720D03*
X1056408Y-382120D03*
X1056408Y-407520D03*
X1056408Y-432920D03*
X1056408Y-458320D03*
D16*
X1135091Y-345548D03*
X1135091Y-333948D03*
D17*
X1158000Y-331500D03*
X1158000Y-321000D03*
D18*
X1260524Y-285530D03*
X1275524Y-285530D03*
D17*
X1186611Y-332378D03*
X1176111Y-332378D03*
D19*
X1110366Y-465819D03*
D20*
X1132366Y-437219D03*
D19*
X1114366Y-465819D03*
X1118366Y-465819D03*
X1122366Y-465819D03*
X1126366Y-465819D03*
X1130366Y-465819D03*
X1134366Y-465819D03*
X1138366Y-465819D03*
X1142366Y-465819D03*
X1146366Y-465819D03*
X1150366Y-465819D03*
X1154366Y-465819D03*
D21*
X1160966Y-459219D03*
X1160966Y-455219D03*
X1160966Y-451219D03*
X1160966Y-447219D03*
X1160966Y-443219D03*
X1160966Y-439219D03*
X1160966Y-435219D03*
X1160966Y-431219D03*
X1160966Y-427219D03*
X1160966Y-423219D03*
X1160966Y-419219D03*
X1160966Y-415219D03*
D19*
X1154366Y-408619D03*
X1150366Y-408619D03*
X1146366Y-408619D03*
X1142366Y-408619D03*
X1138366Y-408619D03*
X1134366Y-408619D03*
X1130366Y-408619D03*
X1126366Y-408619D03*
X1122366Y-408619D03*
X1118366Y-408619D03*
X1114366Y-408619D03*
X1110366Y-408619D03*
D21*
X1103766Y-415219D03*
X1103766Y-419219D03*
X1103766Y-423219D03*
X1103766Y-427219D03*
X1103766Y-431219D03*
X1103766Y-435219D03*
X1103766Y-439219D03*
X1103766Y-443219D03*
X1103766Y-447219D03*
X1103766Y-451219D03*
X1103766Y-455219D03*
X1103766Y-459219D03*
D12*
X1092476Y-456000D03*
X1095778Y-456000D03*
X1084476Y-456000D03*
X1087778Y-456000D03*
D10*
X1176919Y-713292D03*
X1176919Y-716594D03*
D11*
X1122203Y-624437D03*
X1133803Y-624437D03*
D10*
X1122337Y-713839D03*
X1122337Y-717141D03*
X1110291Y-712297D03*
X1110291Y-715599D03*
D12*
X1096635Y-630685D03*
X1093333Y-630685D03*
D13*
X1093940Y-689432D03*
X1088940Y-689432D03*
D14*
X1168791Y-630172D03*
X1168791Y-623672D03*
D15*
X1056408Y-545920D03*
X1056408Y-571320D03*
X1056408Y-596720D03*
X1056408Y-622120D03*
X1056408Y-647520D03*
X1056408Y-672920D03*
X1056408Y-698320D03*
D16*
X1134091Y-604048D03*
X1134091Y-592448D03*
D19*
X1110366Y-705819D03*
D20*
X1132366Y-677219D03*
D19*
X1114366Y-705819D03*
X1118366Y-705819D03*
X1122366Y-705819D03*
X1126366Y-705819D03*
X1130366Y-705819D03*
X1134366Y-705819D03*
X1138366Y-705819D03*
X1142366Y-705819D03*
X1146366Y-705819D03*
X1150366Y-705819D03*
X1154366Y-705819D03*
D21*
X1160966Y-699219D03*
X1160966Y-695219D03*
X1160966Y-691219D03*
X1160966Y-687219D03*
X1160966Y-683219D03*
X1160966Y-679219D03*
X1160966Y-675219D03*
X1160966Y-671219D03*
X1160966Y-667219D03*
X1160966Y-663219D03*
X1160966Y-659219D03*
X1160966Y-655219D03*
D19*
X1154366Y-648619D03*
X1150366Y-648619D03*
X1146366Y-648619D03*
X1142366Y-648619D03*
X1138366Y-648619D03*
X1134366Y-648619D03*
X1130366Y-648619D03*
X1126366Y-648619D03*
X1122366Y-648619D03*
X1118366Y-648619D03*
X1114366Y-648619D03*
X1110366Y-648619D03*
D21*
X1103766Y-655219D03*
X1103766Y-659219D03*
X1103766Y-663219D03*
X1103766Y-667219D03*
X1103766Y-671219D03*
X1103766Y-675219D03*
X1103766Y-679219D03*
X1103766Y-683219D03*
X1103766Y-687219D03*
X1103766Y-691219D03*
X1103766Y-695219D03*
X1103766Y-699219D03*
D12*
X1093976Y-695500D03*
X1097278Y-695500D03*
X1086476Y-696000D03*
X1089778Y-696000D03*
D10*
X1176919Y-953292D03*
X1176919Y-956594D03*
D11*
X1122203Y-864437D03*
X1133803Y-864437D03*
D10*
X1122337Y-953839D03*
X1122337Y-957141D03*
X1110291Y-952297D03*
X1110291Y-955599D03*
D12*
X1096635Y-870685D03*
X1093333Y-870685D03*
D13*
X1093940Y-929432D03*
X1088940Y-929432D03*
D14*
X1091791Y-956172D03*
X1091791Y-949672D03*
D15*
X1056408Y-785920D03*
X1056408Y-811320D03*
X1056408Y-836720D03*
X1056408Y-862120D03*
X1056408Y-887520D03*
X1056408Y-912920D03*
X1056408Y-938320D03*
D16*
X1135091Y-825548D03*
X1135091Y-813948D03*
D17*
X1158000Y-811500D03*
X1158000Y-801000D03*
D18*
X1260524Y-765530D03*
X1275524Y-765530D03*
D17*
X1186611Y-812378D03*
X1176111Y-812378D03*
D19*
X1110366Y-945819D03*
D20*
X1132366Y-917219D03*
D19*
X1114366Y-945819D03*
X1118366Y-945819D03*
X1122366Y-945819D03*
X1126366Y-945819D03*
X1130366Y-945819D03*
X1134366Y-945819D03*
X1138366Y-945819D03*
X1142366Y-945819D03*
X1146366Y-945819D03*
X1150366Y-945819D03*
X1154366Y-945819D03*
D21*
X1160966Y-939219D03*
X1160966Y-935219D03*
X1160966Y-931219D03*
X1160966Y-927219D03*
X1160966Y-923219D03*
X1160966Y-919219D03*
X1160966Y-915219D03*
X1160966Y-911219D03*
X1160966Y-907219D03*
X1160966Y-903219D03*
X1160966Y-899219D03*
X1160966Y-895219D03*
D19*
X1154366Y-888619D03*
X1150366Y-888619D03*
X1146366Y-888619D03*
X1142366Y-888619D03*
X1138366Y-888619D03*
X1134366Y-888619D03*
X1130366Y-888619D03*
X1126366Y-888619D03*
X1122366Y-888619D03*
X1118366Y-888619D03*
X1114366Y-888619D03*
X1110366Y-888619D03*
D21*
X1103766Y-895219D03*
X1103766Y-899219D03*
X1103766Y-903219D03*
X1103766Y-907219D03*
X1103766Y-911219D03*
X1103766Y-915219D03*
X1103766Y-919219D03*
X1103766Y-923219D03*
X1103766Y-927219D03*
X1103766Y-931219D03*
X1103766Y-935219D03*
X1103766Y-939219D03*
D22*
X90966Y72998D03*
X38089Y80475D03*
X9312Y80632D03*
X66495Y82027D03*
X74386Y81680D03*
X93684Y45471D03*
X93202Y53091D03*
X92615Y61222D03*
X64690Y5768D03*
X92396Y36639D03*
D23*
X71492Y41715D03*
D22*
X46000Y61500D03*
X46000Y51500D03*
X38500Y44000D03*
X46000Y31500D03*
X36000Y26500D03*
X95558Y14913D03*
X36362Y6057D03*
X24372Y4260D03*
D24*
X140000Y15000D03*
D25*
X14651Y17935D03*
X6585Y17628D03*
D26*
X85493Y12696D03*
D22*
X90593Y3822D03*
D25*
X11000Y57397D03*
X12835Y120835D03*
D22*
X48613Y4541D03*
X77104Y5134D03*
D24*
X185000Y15000D03*
D22*
X56502Y6055D03*
X92083Y24841D03*
X90966Y-167002D03*
X38089Y-159525D03*
X9312Y-159368D03*
X66495Y-157973D03*
X74386Y-158320D03*
X93684Y-194529D03*
X93202Y-186909D03*
X92615Y-178778D03*
X64690Y-234232D03*
X92396Y-203361D03*
D23*
X71492Y-198285D03*
D22*
X46000Y-178500D03*
X46000Y-188500D03*
X38500Y-196000D03*
X46000Y-208500D03*
X36000Y-213500D03*
X95558Y-225087D03*
X36362Y-233944D03*
X24372Y-235741D03*
D24*
X140000Y-225000D03*
D25*
X33000Y-97000D03*
X70000Y-100000D03*
X90000Y-100000D03*
X110000Y-100000D03*
X130000Y-100000D03*
X150000Y-100000D03*
X170000Y-100000D03*
X190000Y-100000D03*
X70000Y-120000D03*
X90000Y-120000D03*
X110000Y-120000D03*
X130000Y-120000D03*
X150000Y-120000D03*
X170000Y-120000D03*
X190000Y-120000D03*
X190000Y-140000D03*
X190000Y-160000D03*
X170000Y-140000D03*
X110000Y-140000D03*
X130000Y-140000D03*
X150000Y-140000D03*
X150000Y-160000D03*
X130000Y-160000D03*
X110000Y-160000D03*
X110000Y-180000D03*
X130000Y-180000D03*
X150000Y-180000D03*
X170000Y-180000D03*
X170000Y-160000D03*
X190000Y-180000D03*
X190000Y-200000D03*
X170000Y-200000D03*
X150000Y-200000D03*
X130000Y-200000D03*
X110000Y-200000D03*
X14651Y-222065D03*
X6585Y-222372D03*
D26*
X85493Y-227304D03*
D22*
X90593Y-236178D03*
D25*
X11000Y-182603D03*
X12835Y-119165D03*
D22*
X48613Y-235459D03*
X77104Y-234866D03*
D24*
X185000Y-225000D03*
D22*
X56502Y-233945D03*
X92083Y-215159D03*
X90966Y-407002D03*
X38089Y-399525D03*
X9312Y-399368D03*
X66495Y-397973D03*
X74386Y-398320D03*
X93684Y-434529D03*
X93202Y-426909D03*
X92615Y-418778D03*
X64690Y-474232D03*
X92396Y-443361D03*
D23*
X71492Y-438285D03*
D22*
X46000Y-418500D03*
X46000Y-428500D03*
X38500Y-436000D03*
X46000Y-448500D03*
X36000Y-453500D03*
X95558Y-465087D03*
X36362Y-473944D03*
D24*
X140000Y-465000D03*
D26*
X85493Y-467304D03*
D22*
X90593Y-476178D03*
D25*
X11000Y-422603D03*
X12835Y-359165D03*
D22*
X48613Y-475459D03*
X77104Y-474866D03*
D24*
X185000Y-465000D03*
D25*
X14000Y-473000D03*
D22*
X75000Y-385000D03*
X56502Y-473945D03*
X91000Y-454029D03*
X90966Y-647002D03*
X38089Y-639525D03*
X9312Y-639368D03*
X66495Y-637973D03*
X74386Y-638320D03*
X93684Y-674529D03*
X93202Y-666909D03*
X92615Y-658778D03*
X64690Y-714232D03*
X92396Y-683361D03*
D23*
X71492Y-678285D03*
D22*
X46000Y-658500D03*
X46000Y-668500D03*
X38500Y-676000D03*
X46000Y-688500D03*
X36000Y-693500D03*
X95558Y-705087D03*
X36362Y-713944D03*
D24*
X140000Y-705000D03*
D25*
X33000Y-577000D03*
X70000Y-580000D03*
X90000Y-580000D03*
X110000Y-580000D03*
X130000Y-580000D03*
X150000Y-580000D03*
X170000Y-580000D03*
X190000Y-580000D03*
X70000Y-600000D03*
X90000Y-600000D03*
X110000Y-600000D03*
X130000Y-600000D03*
X150000Y-600000D03*
X170000Y-600000D03*
X190000Y-600000D03*
X190000Y-620000D03*
X190000Y-640000D03*
X170000Y-620000D03*
X110000Y-620000D03*
X130000Y-620000D03*
X150000Y-620000D03*
X150000Y-640000D03*
X130000Y-640000D03*
X110000Y-640000D03*
X110000Y-660000D03*
X130000Y-660000D03*
X150000Y-660000D03*
X170000Y-660000D03*
X170000Y-640000D03*
X190000Y-660000D03*
X190000Y-680000D03*
X170000Y-680000D03*
X150000Y-680000D03*
X130000Y-680000D03*
X110000Y-680000D03*
D26*
X85493Y-707304D03*
D22*
X90593Y-716178D03*
D25*
X11000Y-662603D03*
X12835Y-599165D03*
D22*
X48613Y-715459D03*
X77104Y-714866D03*
D24*
X185000Y-705000D03*
D22*
X74000Y-625000D03*
D25*
X13000Y-711000D03*
D22*
X56502Y-713945D03*
X92083Y-695159D03*
X90966Y-887002D03*
X38089Y-879525D03*
X9312Y-879368D03*
X66495Y-877973D03*
X74386Y-878320D03*
X93684Y-914529D03*
X93202Y-906909D03*
X92615Y-898778D03*
X64690Y-954232D03*
X92396Y-923361D03*
D23*
X71492Y-918285D03*
D22*
X46000Y-898500D03*
X46000Y-908500D03*
X38500Y-916000D03*
X46000Y-928500D03*
X36000Y-933500D03*
X95558Y-945087D03*
X36362Y-953944D03*
X24372Y-955741D03*
D24*
X140000Y-945000D03*
D25*
X14651Y-942065D03*
X6585Y-942372D03*
D26*
X85493Y-947304D03*
D22*
X90593Y-956178D03*
D25*
X11000Y-902603D03*
X12835Y-839165D03*
D22*
X48613Y-955459D03*
X77104Y-954866D03*
D24*
X185000Y-945000D03*
D22*
X56502Y-953945D03*
X92083Y-935159D03*
X360966Y72998D03*
X308089Y80475D03*
X279312Y80632D03*
X336495Y82027D03*
X344386Y81680D03*
X363684Y45471D03*
X363202Y53091D03*
X362615Y61222D03*
X334690Y5768D03*
X362396Y36639D03*
D23*
X341492Y41715D03*
D22*
X316000Y61500D03*
X316000Y51500D03*
X308500Y44000D03*
X316000Y31500D03*
X306000Y26500D03*
X365558Y14913D03*
X306362Y6057D03*
X294372Y4260D03*
D24*
X410000Y15000D03*
D25*
X284651Y17935D03*
X276585Y17628D03*
D26*
X355493Y12696D03*
D22*
X360593Y3822D03*
D25*
X281000Y57397D03*
X282835Y120835D03*
D22*
X318613Y4541D03*
X347104Y5134D03*
D24*
X455000Y15000D03*
D22*
X326502Y6055D03*
X362083Y24841D03*
X360966Y-167002D03*
X308089Y-159525D03*
X279312Y-159368D03*
X336495Y-157973D03*
X344386Y-158320D03*
X363684Y-194529D03*
X363202Y-186909D03*
X362615Y-178778D03*
X334690Y-234232D03*
X362396Y-203361D03*
D23*
X341492Y-198285D03*
D22*
X316000Y-178500D03*
X316000Y-188500D03*
X308500Y-196000D03*
X316000Y-208500D03*
X306000Y-213500D03*
X365558Y-225087D03*
X306362Y-233944D03*
X294372Y-235741D03*
D24*
X410000Y-225000D03*
D25*
X303000Y-97000D03*
X340000Y-100000D03*
X360000Y-100000D03*
X380000Y-100000D03*
X400000Y-100000D03*
X420000Y-100000D03*
X440000Y-100000D03*
X460000Y-100000D03*
X340000Y-120000D03*
X360000Y-120000D03*
X380000Y-120000D03*
X400000Y-120000D03*
X420000Y-120000D03*
X440000Y-120000D03*
X460000Y-120000D03*
X460000Y-140000D03*
X460000Y-160000D03*
X440000Y-140000D03*
X380000Y-140000D03*
X400000Y-140000D03*
X420000Y-140000D03*
X420000Y-160000D03*
X400000Y-160000D03*
X380000Y-160000D03*
X380000Y-180000D03*
X400000Y-180000D03*
X420000Y-180000D03*
X440000Y-180000D03*
X440000Y-160000D03*
X460000Y-180000D03*
X460000Y-200000D03*
X440000Y-200000D03*
X420000Y-200000D03*
X400000Y-200000D03*
X380000Y-200000D03*
X284651Y-222065D03*
X276585Y-222372D03*
D26*
X355493Y-227304D03*
D22*
X360593Y-236178D03*
D25*
X281000Y-182603D03*
X282835Y-119165D03*
D22*
X318613Y-235459D03*
X347104Y-234866D03*
D24*
X455000Y-225000D03*
D22*
X326502Y-233945D03*
X362083Y-215159D03*
X360966Y-407002D03*
X308089Y-399525D03*
X279312Y-399368D03*
X336495Y-397973D03*
X344386Y-398320D03*
X363684Y-434529D03*
X363202Y-426909D03*
X362615Y-418778D03*
X334690Y-474232D03*
X362396Y-443361D03*
D23*
X341492Y-438285D03*
D22*
X316000Y-418500D03*
X316000Y-428500D03*
X308500Y-436000D03*
X316000Y-448500D03*
X306000Y-453500D03*
X365558Y-465087D03*
X306362Y-473944D03*
D24*
X410000Y-465000D03*
D26*
X355493Y-467304D03*
D22*
X360593Y-476178D03*
D25*
X281000Y-422603D03*
X282835Y-359165D03*
D22*
X318613Y-475459D03*
X347104Y-474866D03*
D24*
X455000Y-465000D03*
D25*
X284000Y-473000D03*
D22*
X345000Y-385000D03*
X326502Y-473945D03*
X361000Y-454029D03*
X360966Y-647002D03*
X308089Y-639525D03*
X279312Y-639368D03*
X336495Y-637973D03*
X344386Y-638320D03*
X363684Y-674529D03*
X363202Y-666909D03*
X362615Y-658778D03*
X334690Y-714232D03*
X362396Y-683361D03*
D23*
X341492Y-678285D03*
D22*
X316000Y-658500D03*
X316000Y-668500D03*
X308500Y-676000D03*
X316000Y-688500D03*
X306000Y-693500D03*
X365558Y-705087D03*
X306362Y-713944D03*
D24*
X410000Y-705000D03*
D25*
X303000Y-577000D03*
X340000Y-580000D03*
X360000Y-580000D03*
X380000Y-580000D03*
X400000Y-580000D03*
X420000Y-580000D03*
X440000Y-580000D03*
X460000Y-580000D03*
X340000Y-600000D03*
X360000Y-600000D03*
X380000Y-600000D03*
X400000Y-600000D03*
X420000Y-600000D03*
X440000Y-600000D03*
X460000Y-600000D03*
X460000Y-620000D03*
X460000Y-640000D03*
X440000Y-620000D03*
X380000Y-620000D03*
X400000Y-620000D03*
X420000Y-620000D03*
X420000Y-640000D03*
X400000Y-640000D03*
X380000Y-640000D03*
X380000Y-660000D03*
X400000Y-660000D03*
X420000Y-660000D03*
X440000Y-660000D03*
X440000Y-640000D03*
X460000Y-660000D03*
X460000Y-680000D03*
X440000Y-680000D03*
X420000Y-680000D03*
X400000Y-680000D03*
X380000Y-680000D03*
D26*
X355493Y-707304D03*
D22*
X360593Y-716178D03*
D25*
X281000Y-662603D03*
X282835Y-599165D03*
D22*
X318613Y-715459D03*
X347104Y-714866D03*
D24*
X455000Y-705000D03*
D22*
X344000Y-625000D03*
D25*
X283000Y-711000D03*
D22*
X326502Y-713945D03*
X362083Y-695159D03*
X360966Y-887002D03*
X308089Y-879525D03*
X279312Y-879368D03*
X336495Y-877973D03*
X344386Y-878320D03*
X363684Y-914529D03*
X363202Y-906909D03*
X362615Y-898778D03*
X334690Y-954232D03*
X362396Y-923361D03*
D23*
X341492Y-918285D03*
D22*
X316000Y-898500D03*
X316000Y-908500D03*
X308500Y-916000D03*
X316000Y-928500D03*
X306000Y-933500D03*
X365558Y-945087D03*
X306362Y-953944D03*
X294372Y-955741D03*
D24*
X410000Y-945000D03*
D25*
X284651Y-942065D03*
X276585Y-942372D03*
D26*
X355493Y-947304D03*
D22*
X360593Y-956178D03*
D25*
X281000Y-902603D03*
X282835Y-839165D03*
D22*
X318613Y-955459D03*
X347104Y-954866D03*
D24*
X455000Y-945000D03*
D22*
X326502Y-953945D03*
X362083Y-935159D03*
X630966Y72998D03*
X578089Y80475D03*
X549312Y80632D03*
X606495Y82027D03*
X614386Y81680D03*
X633684Y45471D03*
X633202Y53091D03*
X632615Y61222D03*
X604690Y5768D03*
X632396Y36639D03*
D23*
X611492Y41715D03*
D22*
X586000Y61500D03*
X586000Y51500D03*
X578500Y44000D03*
X586000Y31500D03*
X576000Y26500D03*
X635558Y14913D03*
X576362Y6057D03*
X564372Y4260D03*
D24*
X680000Y15000D03*
D25*
X554651Y17935D03*
X546585Y17628D03*
D26*
X625493Y12696D03*
D22*
X630593Y3822D03*
D25*
X551000Y57397D03*
X552835Y120835D03*
D22*
X588613Y4541D03*
X617104Y5134D03*
D24*
X725000Y15000D03*
D22*
X596502Y6055D03*
X632083Y24841D03*
X630966Y-167002D03*
X578089Y-159525D03*
X549312Y-159368D03*
X606495Y-157973D03*
X614386Y-158320D03*
X633684Y-194529D03*
X633202Y-186909D03*
X632615Y-178778D03*
X604690Y-234232D03*
X632396Y-203361D03*
D23*
X611492Y-198285D03*
D22*
X586000Y-178500D03*
X586000Y-188500D03*
X578500Y-196000D03*
X586000Y-208500D03*
X576000Y-213500D03*
X635558Y-225087D03*
X576362Y-233944D03*
X564372Y-235741D03*
D24*
X680000Y-225000D03*
D25*
X573000Y-97000D03*
X610000Y-100000D03*
X630000Y-100000D03*
X650000Y-100000D03*
X670000Y-100000D03*
X690000Y-100000D03*
X710000Y-100000D03*
X730000Y-100000D03*
X610000Y-120000D03*
X630000Y-120000D03*
X650000Y-120000D03*
X670000Y-120000D03*
X690000Y-120000D03*
X710000Y-120000D03*
X730000Y-120000D03*
X730000Y-140000D03*
X730000Y-160000D03*
X710000Y-140000D03*
X650000Y-140000D03*
X670000Y-140000D03*
X690000Y-140000D03*
X690000Y-160000D03*
X670000Y-160000D03*
X650000Y-160000D03*
X650000Y-180000D03*
X670000Y-180000D03*
X690000Y-180000D03*
X710000Y-180000D03*
X710000Y-160000D03*
X730000Y-180000D03*
X730000Y-200000D03*
X710000Y-200000D03*
X690000Y-200000D03*
X670000Y-200000D03*
X650000Y-200000D03*
X554651Y-222065D03*
X546585Y-222372D03*
D26*
X625493Y-227304D03*
D22*
X630593Y-236178D03*
D25*
X551000Y-182603D03*
X552835Y-119165D03*
D22*
X588613Y-235459D03*
X617104Y-234866D03*
D24*
X725000Y-225000D03*
D22*
X596502Y-233945D03*
X632083Y-215159D03*
X630966Y-407002D03*
X578089Y-399525D03*
X549312Y-399368D03*
X606495Y-397973D03*
X614386Y-398320D03*
X633684Y-434529D03*
X633202Y-426909D03*
X632615Y-418778D03*
X604690Y-474232D03*
X632396Y-443361D03*
D23*
X611492Y-438285D03*
D22*
X586000Y-418500D03*
X586000Y-428500D03*
X578500Y-436000D03*
X586000Y-448500D03*
X576000Y-453500D03*
X635558Y-465087D03*
X576362Y-473944D03*
D24*
X680000Y-465000D03*
D26*
X625493Y-467304D03*
D22*
X630593Y-476178D03*
D25*
X551000Y-422603D03*
X552835Y-359165D03*
D22*
X588613Y-475459D03*
X617104Y-474866D03*
D24*
X725000Y-465000D03*
D25*
X554000Y-473000D03*
D22*
X615000Y-385000D03*
X596502Y-473945D03*
X631000Y-454029D03*
X630966Y-647002D03*
X578089Y-639525D03*
X549312Y-639368D03*
X606495Y-637973D03*
X614386Y-638320D03*
X633684Y-674529D03*
X633202Y-666909D03*
X632615Y-658778D03*
X604690Y-714232D03*
X632396Y-683361D03*
D23*
X611492Y-678285D03*
D22*
X586000Y-658500D03*
X586000Y-668500D03*
X578500Y-676000D03*
X586000Y-688500D03*
X576000Y-693500D03*
X635558Y-705087D03*
X576362Y-713944D03*
D24*
X680000Y-705000D03*
D25*
X573000Y-577000D03*
X610000Y-580000D03*
X630000Y-580000D03*
X650000Y-580000D03*
X670000Y-580000D03*
X690000Y-580000D03*
X710000Y-580000D03*
X730000Y-580000D03*
X610000Y-600000D03*
X630000Y-600000D03*
X650000Y-600000D03*
X670000Y-600000D03*
X690000Y-600000D03*
X710000Y-600000D03*
X730000Y-600000D03*
X730000Y-620000D03*
X730000Y-640000D03*
X710000Y-620000D03*
X650000Y-620000D03*
X670000Y-620000D03*
X690000Y-620000D03*
X690000Y-640000D03*
X670000Y-640000D03*
X650000Y-640000D03*
X650000Y-660000D03*
X670000Y-660000D03*
X690000Y-660000D03*
X710000Y-660000D03*
X710000Y-640000D03*
X730000Y-660000D03*
X730000Y-680000D03*
X710000Y-680000D03*
X690000Y-680000D03*
X670000Y-680000D03*
X650000Y-680000D03*
D26*
X625493Y-707304D03*
D22*
X630593Y-716178D03*
D25*
X551000Y-662603D03*
X552835Y-599165D03*
D22*
X588613Y-715459D03*
X617104Y-714866D03*
D24*
X725000Y-705000D03*
D22*
X614000Y-625000D03*
D25*
X553000Y-711000D03*
D22*
X596502Y-713945D03*
X632083Y-695159D03*
X630966Y-887002D03*
X578089Y-879525D03*
X549312Y-879368D03*
X606495Y-877973D03*
X614386Y-878320D03*
X633684Y-914529D03*
X633202Y-906909D03*
X632615Y-898778D03*
X604690Y-954232D03*
X632396Y-923361D03*
D23*
X611492Y-918285D03*
D22*
X586000Y-898500D03*
X586000Y-908500D03*
X578500Y-916000D03*
X586000Y-928500D03*
X576000Y-933500D03*
X635558Y-945087D03*
X576362Y-953944D03*
X564372Y-955741D03*
D24*
X680000Y-945000D03*
D25*
X554651Y-942065D03*
X546585Y-942372D03*
D26*
X625493Y-947304D03*
D22*
X630593Y-956178D03*
D25*
X551000Y-902603D03*
X552835Y-839165D03*
D22*
X588613Y-955459D03*
X617104Y-954866D03*
D24*
X725000Y-945000D03*
D22*
X596502Y-953945D03*
X632083Y-935159D03*
X900966Y72998D03*
X848089Y80475D03*
X819312Y80632D03*
X876495Y82027D03*
X884386Y81680D03*
X903684Y45471D03*
X903202Y53091D03*
X902615Y61222D03*
X874690Y5768D03*
X902396Y36639D03*
D23*
X881492Y41715D03*
D22*
X856000Y61500D03*
X856000Y51500D03*
X848500Y44000D03*
X856000Y31500D03*
X846000Y26500D03*
X905558Y14913D03*
X846362Y6057D03*
X834372Y4260D03*
D24*
X950000Y15000D03*
D25*
X824651Y17935D03*
X816585Y17628D03*
D26*
X895493Y12696D03*
D22*
X900593Y3822D03*
D25*
X821000Y57397D03*
X822835Y120835D03*
D22*
X858613Y4541D03*
X887104Y5134D03*
D24*
X995000Y15000D03*
D22*
X866502Y6055D03*
X902083Y24841D03*
X900966Y-167002D03*
X848089Y-159525D03*
X819312Y-159368D03*
X876495Y-157973D03*
X884386Y-158320D03*
X903684Y-194529D03*
X903202Y-186909D03*
X902615Y-178778D03*
X874690Y-234232D03*
X902396Y-203361D03*
D23*
X881492Y-198285D03*
D22*
X856000Y-178500D03*
X856000Y-188500D03*
X848500Y-196000D03*
X856000Y-208500D03*
X846000Y-213500D03*
X905558Y-225087D03*
X846362Y-233944D03*
X834372Y-235741D03*
D24*
X950000Y-225000D03*
D25*
X843000Y-97000D03*
X880000Y-100000D03*
X900000Y-100000D03*
X920000Y-100000D03*
X940000Y-100000D03*
X960000Y-100000D03*
X980000Y-100000D03*
X1000000Y-100000D03*
X880000Y-120000D03*
X900000Y-120000D03*
X920000Y-120000D03*
X940000Y-120000D03*
X960000Y-120000D03*
X980000Y-120000D03*
X1000000Y-120000D03*
X1000000Y-140000D03*
X1000000Y-160000D03*
X980000Y-140000D03*
X920000Y-140000D03*
X940000Y-140000D03*
X960000Y-140000D03*
X960000Y-160000D03*
X940000Y-160000D03*
X920000Y-160000D03*
X920000Y-180000D03*
X940000Y-180000D03*
X960000Y-180000D03*
X980000Y-180000D03*
X980000Y-160000D03*
X1000000Y-180000D03*
X1000000Y-200000D03*
X980000Y-200000D03*
X960000Y-200000D03*
X940000Y-200000D03*
X920000Y-200000D03*
X824651Y-222065D03*
X816585Y-222372D03*
D26*
X895493Y-227304D03*
D22*
X900593Y-236178D03*
D25*
X821000Y-182603D03*
X822835Y-119165D03*
D22*
X858613Y-235459D03*
X887104Y-234866D03*
D24*
X995000Y-225000D03*
D22*
X866502Y-233945D03*
X902083Y-215159D03*
X900966Y-407002D03*
X848089Y-399525D03*
X819312Y-399368D03*
X876495Y-397973D03*
X884386Y-398320D03*
X903684Y-434529D03*
X903202Y-426909D03*
X902615Y-418778D03*
X874690Y-474232D03*
X902396Y-443361D03*
D23*
X881492Y-438285D03*
D22*
X856000Y-418500D03*
X856000Y-428500D03*
X848500Y-436000D03*
X856000Y-448500D03*
X846000Y-453500D03*
X905558Y-465087D03*
X846362Y-473944D03*
D24*
X950000Y-465000D03*
D26*
X895493Y-467304D03*
D22*
X900593Y-476178D03*
D25*
X821000Y-422603D03*
X822835Y-359165D03*
D22*
X858613Y-475459D03*
X887104Y-474866D03*
D24*
X995000Y-465000D03*
D25*
X824000Y-473000D03*
D22*
X885000Y-385000D03*
X866502Y-473945D03*
X901000Y-454029D03*
X900966Y-647002D03*
X848089Y-639525D03*
X819312Y-639368D03*
X876495Y-637973D03*
X884386Y-638320D03*
X903684Y-674529D03*
X903202Y-666909D03*
X902615Y-658778D03*
X874690Y-714232D03*
X902396Y-683361D03*
D23*
X881492Y-678285D03*
D22*
X856000Y-658500D03*
X856000Y-668500D03*
X848500Y-676000D03*
X856000Y-688500D03*
X846000Y-693500D03*
X905558Y-705087D03*
X846362Y-713944D03*
D24*
X950000Y-705000D03*
D25*
X843000Y-577000D03*
X880000Y-580000D03*
X900000Y-580000D03*
X920000Y-580000D03*
X940000Y-580000D03*
X960000Y-580000D03*
X980000Y-580000D03*
X1000000Y-580000D03*
X880000Y-600000D03*
X900000Y-600000D03*
X920000Y-600000D03*
X940000Y-600000D03*
X960000Y-600000D03*
X980000Y-600000D03*
X1000000Y-600000D03*
X1000000Y-620000D03*
X1000000Y-640000D03*
X980000Y-620000D03*
X920000Y-620000D03*
X940000Y-620000D03*
X960000Y-620000D03*
X960000Y-640000D03*
X940000Y-640000D03*
X920000Y-640000D03*
X920000Y-660000D03*
X940000Y-660000D03*
X960000Y-660000D03*
X980000Y-660000D03*
X980000Y-640000D03*
X1000000Y-660000D03*
X1000000Y-680000D03*
X980000Y-680000D03*
X960000Y-680000D03*
X940000Y-680000D03*
X920000Y-680000D03*
D26*
X895493Y-707304D03*
D22*
X900593Y-716178D03*
D25*
X821000Y-662603D03*
X822835Y-599165D03*
D22*
X858613Y-715459D03*
X887104Y-714866D03*
D24*
X995000Y-705000D03*
D22*
X884000Y-625000D03*
D25*
X823000Y-711000D03*
D22*
X866502Y-713945D03*
X902083Y-695159D03*
X900966Y-887002D03*
X848089Y-879525D03*
X819312Y-879368D03*
X876495Y-877973D03*
X884386Y-878320D03*
X903684Y-914529D03*
X903202Y-906909D03*
X902615Y-898778D03*
X874690Y-954232D03*
X902396Y-923361D03*
D23*
X881492Y-918285D03*
D22*
X856000Y-898500D03*
X856000Y-908500D03*
X848500Y-916000D03*
X856000Y-928500D03*
X846000Y-933500D03*
X905558Y-945087D03*
X846362Y-953944D03*
X834372Y-955741D03*
D24*
X950000Y-945000D03*
D25*
X824651Y-942065D03*
X816585Y-942372D03*
D26*
X895493Y-947304D03*
D22*
X900593Y-956178D03*
D25*
X821000Y-902603D03*
X822835Y-839165D03*
D22*
X858613Y-955459D03*
X887104Y-954866D03*
D24*
X995000Y-945000D03*
D22*
X866502Y-953945D03*
X902083Y-935159D03*
X1170966Y72998D03*
X1118089Y80475D03*
X1089312Y80632D03*
X1146495Y82027D03*
X1154386Y81680D03*
X1173684Y45471D03*
X1173202Y53091D03*
X1172615Y61222D03*
X1144690Y5768D03*
X1172396Y36639D03*
D23*
X1151492Y41715D03*
D22*
X1126000Y61500D03*
X1126000Y51500D03*
X1118500Y44000D03*
X1126000Y31500D03*
X1116000Y26500D03*
X1175558Y14913D03*
X1116362Y6057D03*
X1104372Y4260D03*
D24*
X1220000Y15000D03*
D25*
X1094651Y17935D03*
X1086585Y17628D03*
D26*
X1165493Y12696D03*
D22*
X1170593Y3822D03*
D25*
X1091000Y57397D03*
X1092835Y120835D03*
D22*
X1128613Y4541D03*
X1157104Y5134D03*
D24*
X1265000Y15000D03*
D22*
X1136502Y6055D03*
X1172083Y24841D03*
X1170966Y-167002D03*
X1118089Y-159525D03*
X1089312Y-159368D03*
X1146495Y-157973D03*
X1154386Y-158320D03*
X1173684Y-194529D03*
X1173202Y-186909D03*
X1172615Y-178778D03*
X1144690Y-234232D03*
X1172396Y-203361D03*
D23*
X1151492Y-198285D03*
D22*
X1126000Y-178500D03*
X1126000Y-188500D03*
X1118500Y-196000D03*
X1126000Y-208500D03*
X1116000Y-213500D03*
X1175558Y-225087D03*
X1116362Y-233944D03*
X1104372Y-235741D03*
D24*
X1220000Y-225000D03*
D25*
X1113000Y-97000D03*
X1150000Y-100000D03*
X1170000Y-100000D03*
X1190000Y-100000D03*
X1210000Y-100000D03*
X1230000Y-100000D03*
X1250000Y-100000D03*
X1270000Y-100000D03*
X1150000Y-120000D03*
X1170000Y-120000D03*
X1190000Y-120000D03*
X1210000Y-120000D03*
X1230000Y-120000D03*
X1250000Y-120000D03*
X1270000Y-120000D03*
X1270000Y-140000D03*
X1270000Y-160000D03*
X1250000Y-140000D03*
X1190000Y-140000D03*
X1210000Y-140000D03*
X1230000Y-140000D03*
X1230000Y-160000D03*
X1210000Y-160000D03*
X1190000Y-160000D03*
X1190000Y-180000D03*
X1210000Y-180000D03*
X1230000Y-180000D03*
X1250000Y-180000D03*
X1250000Y-160000D03*
X1270000Y-180000D03*
X1270000Y-200000D03*
X1250000Y-200000D03*
X1230000Y-200000D03*
X1210000Y-200000D03*
X1190000Y-200000D03*
X1094651Y-222065D03*
X1086585Y-222372D03*
D26*
X1165493Y-227304D03*
D22*
X1170593Y-236178D03*
D25*
X1091000Y-182603D03*
X1092835Y-119165D03*
D22*
X1128613Y-235459D03*
X1157104Y-234866D03*
D24*
X1265000Y-225000D03*
D22*
X1136502Y-233945D03*
X1172083Y-215159D03*
X1170966Y-407002D03*
X1118089Y-399525D03*
X1089312Y-399368D03*
X1146495Y-397973D03*
X1154386Y-398320D03*
X1173684Y-434529D03*
X1173202Y-426909D03*
X1172615Y-418778D03*
X1144690Y-474232D03*
X1172396Y-443361D03*
D23*
X1151492Y-438285D03*
D22*
X1126000Y-418500D03*
X1126000Y-428500D03*
X1118500Y-436000D03*
X1126000Y-448500D03*
X1116000Y-453500D03*
X1175558Y-465087D03*
X1116362Y-473944D03*
D24*
X1220000Y-465000D03*
D26*
X1165493Y-467304D03*
D22*
X1170593Y-476178D03*
D25*
X1091000Y-422603D03*
X1092835Y-359165D03*
D22*
X1128613Y-475459D03*
X1157104Y-474866D03*
D24*
X1265000Y-465000D03*
D25*
X1094000Y-473000D03*
D22*
X1155000Y-385000D03*
X1136502Y-473945D03*
X1171000Y-454029D03*
X1170966Y-647002D03*
X1118089Y-639525D03*
X1089312Y-639368D03*
X1146495Y-637973D03*
X1154386Y-638320D03*
X1173684Y-674529D03*
X1173202Y-666909D03*
X1172615Y-658778D03*
X1144690Y-714232D03*
X1172396Y-683361D03*
D23*
X1151492Y-678285D03*
D22*
X1126000Y-658500D03*
X1126000Y-668500D03*
X1118500Y-676000D03*
X1126000Y-688500D03*
X1116000Y-693500D03*
X1175558Y-705087D03*
X1116362Y-713944D03*
D24*
X1220000Y-705000D03*
D25*
X1113000Y-577000D03*
X1150000Y-580000D03*
X1170000Y-580000D03*
X1190000Y-580000D03*
X1210000Y-580000D03*
X1230000Y-580000D03*
X1250000Y-580000D03*
X1270000Y-580000D03*
X1150000Y-600000D03*
X1170000Y-600000D03*
X1190000Y-600000D03*
X1210000Y-600000D03*
X1230000Y-600000D03*
X1250000Y-600000D03*
X1270000Y-600000D03*
X1270000Y-620000D03*
X1270000Y-640000D03*
X1250000Y-620000D03*
X1190000Y-620000D03*
X1210000Y-620000D03*
X1230000Y-620000D03*
X1230000Y-640000D03*
X1210000Y-640000D03*
X1190000Y-640000D03*
X1190000Y-660000D03*
X1210000Y-660000D03*
X1230000Y-660000D03*
X1250000Y-660000D03*
X1250000Y-640000D03*
X1270000Y-660000D03*
X1270000Y-680000D03*
X1250000Y-680000D03*
X1230000Y-680000D03*
X1210000Y-680000D03*
X1190000Y-680000D03*
D26*
X1165493Y-707304D03*
D22*
X1170593Y-716178D03*
D25*
X1091000Y-662603D03*
X1092835Y-599165D03*
D22*
X1128613Y-715459D03*
X1157104Y-714866D03*
D24*
X1265000Y-705000D03*
D22*
X1154000Y-625000D03*
D25*
X1093000Y-711000D03*
D22*
X1136502Y-713945D03*
X1172083Y-695159D03*
X1170966Y-887002D03*
X1118089Y-879525D03*
X1089312Y-879368D03*
X1146495Y-877973D03*
X1154386Y-878320D03*
X1173684Y-914529D03*
X1173202Y-906909D03*
X1172615Y-898778D03*
X1144690Y-954232D03*
X1172396Y-923361D03*
D23*
X1151492Y-918285D03*
D22*
X1126000Y-898500D03*
X1126000Y-908500D03*
X1118500Y-916000D03*
X1126000Y-928500D03*
X1116000Y-933500D03*
X1175558Y-945087D03*
X1116362Y-953944D03*
X1104372Y-955741D03*
D24*
X1220000Y-945000D03*
D25*
X1094651Y-942065D03*
X1086585Y-942372D03*
D26*
X1165493Y-947304D03*
D22*
X1170593Y-956178D03*
D25*
X1091000Y-902603D03*
X1092835Y-839165D03*
D22*
X1128613Y-955459D03*
X1157104Y-954866D03*
D24*
X1265000Y-945000D03*
D22*
X1136502Y-953945D03*
X1172083Y-935159D03*
M02*
