M48
;GenerationSoftware,Autodesk,EAGLE,9.0.0*%
;CreationDate,2018-06-20T01:15:48Z*%
FMAT,2
ICI,OFF
METRIC,TZ,000.000
T6C0.203
T5C0.254
T4C0.300
T3C0.350
T2C1.016
T1C1.500
%
G90
M71
T1
X18500Y1500
X14000Y1500
T2
X-2359Y2168
X-2359Y4708
X-2359Y7248
X-2359Y9788
X-2359Y12328
X-2359Y14868
X-2359Y17408
T3
X19000Y8000
X15000Y8000
X1283Y12083
X1100Y5740
X17000Y8000
X658Y1763
X1465Y1793
X11000Y4000
X13000Y4000
X15000Y4000
X17000Y4000
X3300Y14300
X7000Y14000
X9000Y14000
X11000Y14000
X13000Y14000
X15000Y14000
X17000Y14000
X19000Y14000
X7000Y12000
X9000Y12000
X11000Y12000
X13000Y12000
X15000Y12000
X17000Y12000
X19000Y12000
X19000Y10000
X19000Y4000
X17000Y10000
X11000Y10000
X13000Y10000
X15000Y10000
X19000Y6000
X13000Y8000
X11000Y8000
X11000Y6000
X13000Y6000
X15000Y6000
X17000Y6000
T4
X8549Y1270
T5
X7149Y4172
T6
X9240Y3664
X6469Y577
X2437Y426
X3636Y606
X9556Y1491
X3600Y2650
X4600Y3150
X3850Y4400
X9059Y382
X4600Y5150
X4600Y6150
X4861Y454
X7710Y513
X9262Y6122
X5650Y605
X9208Y2484
X9320Y5309
X9368Y4547
X7439Y8168
X6650Y8203
X931Y8063
X3809Y8048
X9097Y7300
M30