G04 EAGLE Gerber X2 export*
%TF.Part,Single*%
%TF.FileFunction,Copper,L3,Inr,Mixed*%
%TF.FilePolarity,Positive*%
%TF.GenerationSoftware,Autodesk,EAGLE,9.0.0*%
%TF.CreationDate,2018-06-20T01:15:49Z*%
G75*
%MOMM*%
%FSLAX34Y34*%
%LPD*%
%AMOC8*
5,1,8,0,0,1.08239X$1,22.5*%
G01*
%ADD10C,1.524000*%
%ADD11C,0.609600*%
%ADD12C,0.152400*%
%ADD13C,0.660400*%
%ADD14C,2.250000*%
%ADD15C,0.756400*%
%ADD16C,0.706400*%

G36*
X45682Y-750D02*
X45682Y-750D01*
X45753Y-748D01*
X45802Y-730D01*
X45854Y-722D01*
X45917Y-688D01*
X45984Y-663D01*
X46025Y-631D01*
X46071Y-606D01*
X46121Y-554D01*
X46177Y-510D01*
X46205Y-466D01*
X46241Y-428D01*
X46271Y-363D01*
X46310Y-303D01*
X46322Y-252D01*
X46344Y-205D01*
X46352Y-134D01*
X46370Y-64D01*
X46366Y-12D01*
X46371Y39D01*
X46356Y110D01*
X46350Y181D01*
X46330Y229D01*
X46319Y280D01*
X46282Y341D01*
X46254Y407D01*
X46209Y463D01*
X46193Y491D01*
X46175Y506D01*
X46149Y538D01*
X44040Y2647D01*
X44040Y6436D01*
X46719Y9114D01*
X50507Y9114D01*
X51262Y8359D01*
X51279Y8347D01*
X51291Y8332D01*
X51378Y8276D01*
X51462Y8215D01*
X51481Y8210D01*
X51498Y8199D01*
X51598Y8173D01*
X51697Y8143D01*
X51717Y8144D01*
X51736Y8139D01*
X51839Y8147D01*
X51943Y8149D01*
X51962Y8156D01*
X51982Y8158D01*
X52076Y8198D01*
X52174Y8234D01*
X52190Y8246D01*
X52208Y8254D01*
X52339Y8359D01*
X54607Y10627D01*
X58396Y10627D01*
X60200Y8822D01*
X60217Y8811D01*
X60229Y8795D01*
X60316Y8739D01*
X60400Y8679D01*
X60419Y8673D01*
X60436Y8662D01*
X60536Y8637D01*
X60635Y8607D01*
X60655Y8607D01*
X60675Y8602D01*
X60777Y8610D01*
X60881Y8613D01*
X60900Y8620D01*
X60920Y8621D01*
X61015Y8662D01*
X61112Y8697D01*
X61128Y8710D01*
X61146Y8718D01*
X61277Y8822D01*
X62796Y10341D01*
X66584Y10341D01*
X69262Y7662D01*
X69262Y3874D01*
X66584Y1196D01*
X62796Y1196D01*
X60991Y3000D01*
X60975Y3012D01*
X60962Y3028D01*
X60875Y3084D01*
X60791Y3144D01*
X60772Y3150D01*
X60755Y3161D01*
X60655Y3186D01*
X60556Y3216D01*
X60536Y3216D01*
X60517Y3221D01*
X60414Y3213D01*
X60310Y3210D01*
X60291Y3203D01*
X60271Y3202D01*
X60177Y3161D01*
X60079Y3126D01*
X60063Y3113D01*
X60045Y3105D01*
X59914Y3000D01*
X58396Y1482D01*
X54607Y1482D01*
X53852Y2237D01*
X53836Y2249D01*
X53823Y2264D01*
X53736Y2321D01*
X53652Y2381D01*
X53633Y2387D01*
X53617Y2397D01*
X53516Y2423D01*
X53417Y2453D01*
X53397Y2453D01*
X53378Y2457D01*
X53275Y2449D01*
X53171Y2447D01*
X53153Y2440D01*
X53133Y2438D01*
X53038Y2398D01*
X52940Y2362D01*
X52925Y2350D01*
X52906Y2342D01*
X52776Y2237D01*
X51077Y538D01*
X51035Y480D01*
X50985Y428D01*
X50963Y381D01*
X50933Y339D01*
X50912Y270D01*
X50882Y205D01*
X50876Y153D01*
X50861Y103D01*
X50863Y32D01*
X50855Y-39D01*
X50866Y-90D01*
X50867Y-142D01*
X50892Y-210D01*
X50907Y-280D01*
X50934Y-324D01*
X50952Y-373D01*
X50996Y-429D01*
X51033Y-491D01*
X51073Y-525D01*
X51105Y-565D01*
X51166Y-604D01*
X51220Y-651D01*
X51268Y-670D01*
X51312Y-698D01*
X51382Y-716D01*
X51448Y-743D01*
X51520Y-751D01*
X51551Y-759D01*
X51574Y-757D01*
X51615Y-761D01*
X74694Y-761D01*
X74765Y-750D01*
X74836Y-748D01*
X74885Y-730D01*
X74937Y-722D01*
X75000Y-688D01*
X75067Y-663D01*
X75108Y-631D01*
X75154Y-606D01*
X75204Y-554D01*
X75260Y-510D01*
X75288Y-466D01*
X75324Y-428D01*
X75354Y-363D01*
X75393Y-303D01*
X75405Y-252D01*
X75427Y-205D01*
X75435Y-134D01*
X75453Y-64D01*
X75449Y-12D01*
X75454Y39D01*
X75439Y110D01*
X75433Y181D01*
X75413Y229D01*
X75402Y280D01*
X75365Y341D01*
X75337Y407D01*
X75292Y463D01*
X75276Y491D01*
X75258Y506D01*
X75232Y538D01*
X72531Y3240D01*
X72531Y7028D01*
X75210Y9706D01*
X78998Y9706D01*
X81677Y7028D01*
X81677Y3240D01*
X78975Y538D01*
X78933Y480D01*
X78884Y428D01*
X78862Y381D01*
X78832Y339D01*
X78811Y270D01*
X78780Y205D01*
X78775Y153D01*
X78759Y103D01*
X78761Y32D01*
X78753Y-39D01*
X78764Y-90D01*
X78766Y-142D01*
X78790Y-210D01*
X78806Y-280D01*
X78832Y-325D01*
X78850Y-373D01*
X78895Y-429D01*
X78932Y-491D01*
X78971Y-525D01*
X79004Y-565D01*
X79064Y-604D01*
X79119Y-651D01*
X79167Y-670D01*
X79211Y-698D01*
X79280Y-716D01*
X79347Y-743D01*
X79418Y-751D01*
X79449Y-759D01*
X79473Y-757D01*
X79514Y-761D01*
X86871Y-761D01*
X86942Y-750D01*
X87014Y-748D01*
X87063Y-730D01*
X87114Y-722D01*
X87177Y-688D01*
X87245Y-663D01*
X87285Y-631D01*
X87331Y-606D01*
X87381Y-554D01*
X87437Y-510D01*
X87465Y-466D01*
X87501Y-428D01*
X87531Y-363D01*
X87570Y-303D01*
X87582Y-252D01*
X87604Y-205D01*
X87612Y-134D01*
X87630Y-64D01*
X87626Y-12D01*
X87631Y39D01*
X87616Y110D01*
X87611Y181D01*
X87590Y229D01*
X87579Y280D01*
X87542Y341D01*
X87514Y407D01*
X87469Y463D01*
X87453Y491D01*
X87435Y506D01*
X87409Y538D01*
X86020Y1928D01*
X86020Y5716D01*
X86644Y6340D01*
X86686Y6398D01*
X86735Y6450D01*
X86757Y6497D01*
X86787Y6540D01*
X86808Y6608D01*
X86839Y6673D01*
X86844Y6725D01*
X86860Y6775D01*
X86858Y6847D01*
X86866Y6918D01*
X86855Y6969D01*
X86853Y7021D01*
X86829Y7088D01*
X86813Y7158D01*
X86787Y7203D01*
X86769Y7252D01*
X86724Y7308D01*
X86687Y7369D01*
X86648Y7403D01*
X86615Y7444D01*
X86555Y7482D01*
X86500Y7529D01*
X86452Y7549D01*
X86408Y7577D01*
X86339Y7594D01*
X86272Y7621D01*
X86201Y7629D01*
X86170Y7637D01*
X86146Y7635D01*
X86105Y7640D01*
X83399Y7640D01*
X80436Y10602D01*
X80436Y14791D01*
X83399Y17753D01*
X87588Y17753D01*
X90550Y14791D01*
X90550Y10602D01*
X89643Y9694D01*
X89601Y9636D01*
X89551Y9584D01*
X89529Y9537D01*
X89499Y9495D01*
X89478Y9426D01*
X89448Y9361D01*
X89442Y9309D01*
X89427Y9259D01*
X89429Y9188D01*
X89421Y9117D01*
X89432Y9066D01*
X89433Y9014D01*
X89458Y8946D01*
X89473Y8876D01*
X89500Y8832D01*
X89517Y8783D01*
X89562Y8727D01*
X89599Y8665D01*
X89639Y8631D01*
X89671Y8591D01*
X89731Y8552D01*
X89786Y8505D01*
X89834Y8486D01*
X89878Y8458D01*
X89948Y8440D01*
X90014Y8413D01*
X90085Y8405D01*
X90117Y8397D01*
X90140Y8399D01*
X90181Y8395D01*
X92487Y8395D01*
X95165Y5716D01*
X95165Y1928D01*
X93776Y538D01*
X93734Y480D01*
X93684Y428D01*
X93662Y381D01*
X93632Y339D01*
X93611Y270D01*
X93581Y205D01*
X93575Y153D01*
X93560Y103D01*
X93562Y32D01*
X93554Y-39D01*
X93565Y-90D01*
X93566Y-142D01*
X93591Y-210D01*
X93606Y-280D01*
X93633Y-325D01*
X93651Y-373D01*
X93695Y-429D01*
X93732Y-491D01*
X93772Y-525D01*
X93804Y-565D01*
X93865Y-604D01*
X93919Y-651D01*
X93967Y-670D01*
X94011Y-698D01*
X94081Y-716D01*
X94147Y-743D01*
X94219Y-751D01*
X94250Y-759D01*
X94273Y-757D01*
X94314Y-761D01*
X199316Y-761D01*
X199336Y-758D01*
X199355Y-760D01*
X199457Y-738D01*
X199559Y-722D01*
X199576Y-712D01*
X199596Y-708D01*
X199685Y-655D01*
X199776Y-606D01*
X199790Y-592D01*
X199807Y-582D01*
X199874Y-503D01*
X199946Y-428D01*
X199954Y-410D01*
X199967Y-395D01*
X200006Y-299D01*
X200049Y-205D01*
X200051Y-185D01*
X200059Y-167D01*
X200077Y0D01*
X200077Y147500D01*
X200074Y147520D01*
X200076Y147539D01*
X200054Y147641D01*
X200038Y147743D01*
X200028Y147760D01*
X200024Y147780D01*
X199971Y147869D01*
X199922Y147960D01*
X199908Y147974D01*
X199898Y147991D01*
X199819Y148058D01*
X199744Y148130D01*
X199726Y148138D01*
X199711Y148151D01*
X199615Y148190D01*
X199521Y148233D01*
X199501Y148235D01*
X199483Y148243D01*
X199316Y148261D01*
X0Y148261D01*
X-20Y148258D01*
X-39Y148260D01*
X-141Y148238D01*
X-243Y148222D01*
X-260Y148212D01*
X-280Y148208D01*
X-369Y148155D01*
X-460Y148106D01*
X-474Y148092D01*
X-491Y148082D01*
X-558Y148003D01*
X-630Y147928D01*
X-638Y147910D01*
X-651Y147895D01*
X-690Y147799D01*
X-733Y147705D01*
X-735Y147685D01*
X-743Y147667D01*
X-761Y147500D01*
X-761Y129399D01*
X-759Y129384D01*
X-760Y129373D01*
X-748Y129315D01*
X-747Y129308D01*
X-739Y129218D01*
X-727Y129188D01*
X-722Y129156D01*
X-679Y129075D01*
X-643Y128991D01*
X-617Y128959D01*
X-606Y128938D01*
X-583Y128916D01*
X-538Y128860D01*
X6229Y122093D01*
X6287Y122052D01*
X6339Y122002D01*
X6386Y121980D01*
X6428Y121950D01*
X6497Y121929D01*
X6562Y121899D01*
X6614Y121893D01*
X6663Y121877D01*
X6735Y121879D01*
X6806Y121871D01*
X6857Y121883D01*
X6909Y121884D01*
X6977Y121908D01*
X7047Y121924D01*
X7091Y121950D01*
X7140Y121968D01*
X7196Y122013D01*
X7258Y122050D01*
X7292Y122089D01*
X7332Y122122D01*
X7371Y122182D01*
X7418Y122237D01*
X7437Y122285D01*
X7465Y122329D01*
X7483Y122398D01*
X7510Y122465D01*
X7518Y122536D01*
X7525Y122567D01*
X7524Y122591D01*
X7528Y122632D01*
X7528Y123033D01*
X10637Y126142D01*
X15033Y126142D01*
X18142Y123033D01*
X18142Y118637D01*
X15033Y115528D01*
X14632Y115528D01*
X14561Y115517D01*
X14489Y115515D01*
X14440Y115497D01*
X14389Y115488D01*
X14326Y115455D01*
X14258Y115430D01*
X14218Y115398D01*
X14172Y115373D01*
X14122Y115321D01*
X14066Y115276D01*
X14038Y115233D01*
X14002Y115195D01*
X13972Y115130D01*
X13933Y115070D01*
X13920Y115019D01*
X13899Y114972D01*
X13891Y114901D01*
X13873Y114831D01*
X13877Y114779D01*
X13871Y114727D01*
X13887Y114657D01*
X13892Y114586D01*
X13913Y114538D01*
X13924Y114487D01*
X13961Y114425D01*
X13989Y114360D01*
X14033Y114304D01*
X14050Y114276D01*
X14068Y114261D01*
X14093Y114229D01*
X33665Y94657D01*
X33665Y91996D01*
X33679Y91906D01*
X33687Y91815D01*
X33699Y91786D01*
X33704Y91754D01*
X33747Y91673D01*
X33783Y91589D01*
X33809Y91557D01*
X33819Y91536D01*
X33843Y91514D01*
X33888Y91458D01*
X36710Y88635D01*
X36784Y88582D01*
X36854Y88523D01*
X36884Y88510D01*
X36910Y88492D01*
X36997Y88465D01*
X37082Y88431D01*
X37123Y88426D01*
X37145Y88419D01*
X37177Y88420D01*
X37249Y88412D01*
X61788Y88412D01*
X61878Y88427D01*
X61969Y88434D01*
X61998Y88447D01*
X62030Y88452D01*
X62111Y88495D01*
X62195Y88530D01*
X62227Y88556D01*
X62248Y88567D01*
X62270Y88590D01*
X62326Y88635D01*
X63339Y89648D01*
X69652Y89648D01*
X72824Y86476D01*
X72898Y86423D01*
X72968Y86363D01*
X72998Y86351D01*
X73024Y86332D01*
X73111Y86306D01*
X73196Y86271D01*
X73237Y86267D01*
X73259Y86260D01*
X73291Y86261D01*
X73363Y86253D01*
X76280Y86253D01*
X78959Y83574D01*
X78959Y79786D01*
X76280Y77107D01*
X72492Y77107D01*
X70805Y78794D01*
X70789Y78806D01*
X70777Y78821D01*
X70690Y78877D01*
X70606Y78938D01*
X70587Y78943D01*
X70570Y78954D01*
X70469Y78979D01*
X70371Y79010D01*
X70351Y79009D01*
X70331Y79014D01*
X70228Y79006D01*
X70125Y79004D01*
X70106Y78997D01*
X70086Y78995D01*
X69991Y78955D01*
X69894Y78919D01*
X69878Y78907D01*
X69860Y78899D01*
X69729Y78794D01*
X68390Y77455D01*
X64601Y77455D01*
X61923Y80133D01*
X61923Y83078D01*
X61919Y83097D01*
X61922Y83117D01*
X61900Y83218D01*
X61883Y83320D01*
X61874Y83338D01*
X61869Y83357D01*
X61816Y83446D01*
X61768Y83538D01*
X61753Y83551D01*
X61743Y83568D01*
X61664Y83636D01*
X61589Y83707D01*
X61571Y83715D01*
X61556Y83728D01*
X61460Y83767D01*
X61366Y83811D01*
X61347Y83813D01*
X61328Y83820D01*
X61161Y83839D01*
X43030Y83839D01*
X42960Y83827D01*
X42888Y83825D01*
X42839Y83807D01*
X42788Y83799D01*
X42724Y83766D01*
X42657Y83741D01*
X42616Y83708D01*
X42570Y83684D01*
X42521Y83632D01*
X42465Y83587D01*
X42437Y83543D01*
X42401Y83506D01*
X42371Y83441D01*
X42332Y83380D01*
X42319Y83330D01*
X42297Y83283D01*
X42289Y83211D01*
X42272Y83142D01*
X42276Y83090D01*
X42270Y83038D01*
X42285Y82968D01*
X42291Y82896D01*
X42311Y82849D01*
X42322Y82798D01*
X42359Y82736D01*
X42387Y82670D01*
X42432Y82614D01*
X42449Y82587D01*
X42466Y82571D01*
X42492Y82539D01*
X42662Y82369D01*
X42662Y78581D01*
X40665Y76584D01*
X40623Y76526D01*
X40574Y76474D01*
X40552Y76426D01*
X40521Y76384D01*
X40500Y76316D01*
X40470Y76251D01*
X40464Y76199D01*
X40449Y76149D01*
X40451Y76077D01*
X40443Y76006D01*
X40454Y75955D01*
X40455Y75903D01*
X40480Y75836D01*
X40495Y75766D01*
X40522Y75721D01*
X40540Y75672D01*
X40585Y75616D01*
X40621Y75555D01*
X40661Y75521D01*
X40693Y75480D01*
X40754Y75441D01*
X40808Y75395D01*
X40856Y75375D01*
X40900Y75347D01*
X40970Y75330D01*
X41036Y75303D01*
X41108Y75295D01*
X41139Y75287D01*
X41162Y75289D01*
X41203Y75284D01*
X86471Y75284D01*
X86561Y75299D01*
X86652Y75306D01*
X86682Y75319D01*
X86714Y75324D01*
X86794Y75367D01*
X86878Y75403D01*
X86910Y75428D01*
X86931Y75439D01*
X86953Y75463D01*
X87009Y75507D01*
X89072Y77570D01*
X92860Y77570D01*
X95539Y74892D01*
X95539Y71104D01*
X92860Y68425D01*
X89072Y68425D01*
X87009Y70488D01*
X86935Y70541D01*
X86866Y70601D01*
X86836Y70613D01*
X86809Y70631D01*
X86722Y70658D01*
X86638Y70692D01*
X86597Y70697D01*
X86574Y70704D01*
X86542Y70703D01*
X86471Y70711D01*
X0Y70711D01*
X-20Y70708D01*
X-39Y70710D01*
X-141Y70688D01*
X-243Y70671D01*
X-260Y70662D01*
X-280Y70658D01*
X-369Y70604D01*
X-460Y70556D01*
X-474Y70542D01*
X-491Y70531D01*
X-558Y70453D01*
X-630Y70378D01*
X-638Y70360D01*
X-651Y70345D01*
X-690Y70248D01*
X-733Y70155D01*
X-735Y70135D01*
X-743Y70116D01*
X-761Y69950D01*
X-761Y27889D01*
X-758Y27869D01*
X-760Y27850D01*
X-738Y27748D01*
X-722Y27646D01*
X-712Y27629D01*
X-708Y27609D01*
X-655Y27520D01*
X-606Y27429D01*
X-592Y27415D01*
X-582Y27398D01*
X-503Y27331D01*
X-428Y27259D01*
X-410Y27251D01*
X-395Y27238D01*
X-299Y27199D01*
X-205Y27156D01*
X-185Y27154D01*
X-167Y27146D01*
X0Y27128D01*
X31063Y27128D01*
X34515Y23676D01*
X34589Y23623D01*
X34658Y23563D01*
X34688Y23551D01*
X34715Y23532D01*
X34801Y23505D01*
X34886Y23471D01*
X34927Y23467D01*
X34950Y23460D01*
X34982Y23461D01*
X35053Y23453D01*
X36947Y23453D01*
X37037Y23467D01*
X37128Y23475D01*
X37158Y23487D01*
X37190Y23492D01*
X37270Y23535D01*
X37354Y23571D01*
X37386Y23597D01*
X37407Y23608D01*
X37429Y23631D01*
X37485Y23676D01*
X40937Y27128D01*
X87588Y27128D01*
X87678Y27142D01*
X87769Y27150D01*
X87799Y27162D01*
X87831Y27167D01*
X87911Y27210D01*
X87995Y27246D01*
X88027Y27272D01*
X88048Y27283D01*
X88070Y27306D01*
X88126Y27351D01*
X90189Y29414D01*
X93977Y29414D01*
X96656Y26735D01*
X96656Y22947D01*
X93977Y20268D01*
X90189Y20268D01*
X88126Y22331D01*
X88052Y22384D01*
X87983Y22444D01*
X87952Y22456D01*
X87926Y22475D01*
X87839Y22502D01*
X87754Y22536D01*
X87714Y22540D01*
X87691Y22547D01*
X87659Y22546D01*
X87588Y22554D01*
X43147Y22554D01*
X43057Y22540D01*
X42966Y22532D01*
X42936Y22520D01*
X42904Y22515D01*
X42824Y22472D01*
X42740Y22436D01*
X42708Y22410D01*
X42687Y22399D01*
X42665Y22376D01*
X42609Y22331D01*
X39157Y18879D01*
X32843Y18879D01*
X29391Y22331D01*
X29317Y22384D01*
X29248Y22444D01*
X29218Y22456D01*
X29192Y22475D01*
X29105Y22502D01*
X29020Y22536D01*
X28979Y22540D01*
X28957Y22547D01*
X28924Y22546D01*
X28853Y22554D01*
X19375Y22554D01*
X19304Y22543D01*
X19232Y22541D01*
X19183Y22523D01*
X19132Y22515D01*
X19068Y22481D01*
X19001Y22456D01*
X18960Y22424D01*
X18914Y22399D01*
X18865Y22347D01*
X18809Y22303D01*
X18781Y22259D01*
X18745Y22221D01*
X18715Y22156D01*
X18676Y22096D01*
X18663Y22045D01*
X18641Y21998D01*
X18634Y21927D01*
X18616Y21857D01*
X18620Y21805D01*
X18614Y21754D01*
X18630Y21683D01*
X18635Y21612D01*
X18656Y21564D01*
X18667Y21513D01*
X18703Y21452D01*
X18731Y21386D01*
X18776Y21330D01*
X18793Y21302D01*
X18811Y21287D01*
X18836Y21255D01*
X19958Y20133D01*
X19958Y15737D01*
X16850Y12628D01*
X12453Y12628D01*
X11310Y13772D01*
X11294Y13783D01*
X11281Y13799D01*
X11194Y13855D01*
X11110Y13915D01*
X11091Y13921D01*
X11074Y13932D01*
X10974Y13957D01*
X10875Y13987D01*
X10855Y13987D01*
X10836Y13992D01*
X10733Y13984D01*
X10629Y13981D01*
X10610Y13974D01*
X10590Y13973D01*
X10496Y13932D01*
X10398Y13897D01*
X10382Y13884D01*
X10364Y13876D01*
X10233Y13772D01*
X8783Y12321D01*
X4387Y12321D01*
X1278Y15430D01*
X1278Y19826D01*
X2707Y21255D01*
X2748Y21313D01*
X2798Y21365D01*
X2820Y21412D01*
X2850Y21454D01*
X2871Y21523D01*
X2901Y21588D01*
X2907Y21640D01*
X2923Y21690D01*
X2921Y21761D01*
X2929Y21832D01*
X2917Y21883D01*
X2916Y21935D01*
X2892Y22003D01*
X2876Y22073D01*
X2850Y22118D01*
X2832Y22166D01*
X2787Y22222D01*
X2750Y22284D01*
X2711Y22318D01*
X2678Y22358D01*
X2618Y22397D01*
X2563Y22444D01*
X2515Y22463D01*
X2471Y22491D01*
X2402Y22509D01*
X2335Y22536D01*
X2264Y22544D01*
X2233Y22552D01*
X2209Y22550D01*
X2168Y22554D01*
X0Y22554D01*
X-20Y22551D01*
X-39Y22553D01*
X-141Y22531D01*
X-243Y22515D01*
X-260Y22505D01*
X-280Y22501D01*
X-369Y22448D01*
X-460Y22399D01*
X-474Y22385D01*
X-491Y22375D01*
X-558Y22296D01*
X-630Y22221D01*
X-638Y22203D01*
X-651Y22188D01*
X-690Y22092D01*
X-733Y21998D01*
X-735Y21978D01*
X-743Y21960D01*
X-761Y21793D01*
X-761Y0D01*
X-758Y-20D01*
X-760Y-39D01*
X-738Y-141D01*
X-722Y-243D01*
X-712Y-260D01*
X-708Y-280D01*
X-655Y-369D01*
X-606Y-460D01*
X-592Y-474D01*
X-582Y-491D01*
X-503Y-558D01*
X-428Y-630D01*
X-410Y-638D01*
X-395Y-651D01*
X-299Y-690D01*
X-205Y-733D01*
X-185Y-735D01*
X-167Y-743D01*
X0Y-761D01*
X45611Y-761D01*
X45682Y-750D01*
G37*
%LPC*%
G36*
X182459Y2225D02*
X182459Y2225D01*
X177764Y4170D01*
X174170Y7764D01*
X172225Y12459D01*
X172225Y17541D01*
X174170Y22236D01*
X177764Y25830D01*
X182459Y27775D01*
X187541Y27775D01*
X192236Y25830D01*
X195830Y22236D01*
X197775Y17541D01*
X197775Y12459D01*
X195830Y7764D01*
X192236Y4170D01*
X187541Y2225D01*
X182459Y2225D01*
G37*
%LPD*%
%LPC*%
G36*
X90501Y32066D02*
X90501Y32066D01*
X87823Y34745D01*
X87823Y38533D01*
X90451Y41161D01*
X90462Y41177D01*
X90478Y41189D01*
X90534Y41277D01*
X90594Y41360D01*
X90600Y41379D01*
X90611Y41396D01*
X90636Y41497D01*
X90667Y41596D01*
X90666Y41615D01*
X90671Y41635D01*
X90663Y41738D01*
X90660Y41841D01*
X90653Y41860D01*
X90652Y41880D01*
X90612Y41975D01*
X90576Y42072D01*
X90563Y42088D01*
X90556Y42106D01*
X90451Y42237D01*
X89111Y43577D01*
X89111Y47365D01*
X90248Y48502D01*
X90260Y48518D01*
X90275Y48530D01*
X90331Y48617D01*
X90392Y48701D01*
X90398Y48720D01*
X90408Y48737D01*
X90434Y48838D01*
X90464Y48936D01*
X90464Y48956D01*
X90468Y48976D01*
X90460Y49079D01*
X90458Y49182D01*
X90451Y49201D01*
X90449Y49221D01*
X90409Y49316D01*
X90373Y49413D01*
X90361Y49429D01*
X90353Y49447D01*
X90248Y49578D01*
X88630Y51197D01*
X88630Y54985D01*
X89969Y56324D01*
X89981Y56340D01*
X89996Y56353D01*
X90052Y56440D01*
X90113Y56524D01*
X90118Y56543D01*
X90129Y56560D01*
X90155Y56660D01*
X90185Y56759D01*
X90184Y56779D01*
X90189Y56798D01*
X90181Y56901D01*
X90179Y57005D01*
X90172Y57024D01*
X90170Y57044D01*
X90130Y57138D01*
X90094Y57236D01*
X90082Y57252D01*
X90074Y57270D01*
X89969Y57401D01*
X88042Y59328D01*
X88042Y63116D01*
X90721Y65794D01*
X94509Y65794D01*
X97188Y63116D01*
X97188Y59328D01*
X95848Y57988D01*
X95837Y57972D01*
X95821Y57960D01*
X95765Y57872D01*
X95705Y57789D01*
X95699Y57770D01*
X95688Y57753D01*
X95663Y57652D01*
X95632Y57553D01*
X95633Y57534D01*
X95628Y57514D01*
X95636Y57411D01*
X95639Y57308D01*
X95646Y57289D01*
X95647Y57269D01*
X95688Y57174D01*
X95723Y57077D01*
X95736Y57061D01*
X95744Y57043D01*
X95848Y56912D01*
X97775Y54985D01*
X97775Y51197D01*
X96638Y50060D01*
X96627Y50044D01*
X96611Y50031D01*
X96555Y49944D01*
X96495Y49860D01*
X96489Y49841D01*
X96478Y49824D01*
X96453Y49724D01*
X96422Y49625D01*
X96423Y49605D01*
X96418Y49586D01*
X96426Y49483D01*
X96429Y49379D01*
X96436Y49360D01*
X96437Y49341D01*
X96478Y49246D01*
X96513Y49148D01*
X96526Y49133D01*
X96534Y49114D01*
X96638Y48983D01*
X98257Y47365D01*
X98257Y43577D01*
X95629Y40949D01*
X95617Y40933D01*
X95602Y40920D01*
X95546Y40833D01*
X95485Y40749D01*
X95480Y40730D01*
X95469Y40713D01*
X95443Y40613D01*
X95413Y40514D01*
X95414Y40494D01*
X95409Y40475D01*
X95417Y40372D01*
X95419Y40268D01*
X95426Y40249D01*
X95428Y40229D01*
X95468Y40134D01*
X95504Y40037D01*
X95516Y40021D01*
X95524Y40003D01*
X95629Y39872D01*
X96968Y38533D01*
X96968Y34745D01*
X94290Y32066D01*
X90501Y32066D01*
G37*
%LPD*%
%LPC*%
G36*
X8802Y52090D02*
X8802Y52090D01*
X5693Y55199D01*
X5693Y59595D01*
X8802Y62704D01*
X13198Y62704D01*
X16307Y59595D01*
X16307Y55199D01*
X13198Y52090D01*
X8802Y52090D01*
G37*
%LPD*%
D10*
X-23592Y174080D03*
X-23592Y148680D03*
X-23592Y123280D03*
X-23592Y97880D03*
X-23592Y72480D03*
X-23592Y47080D03*
X-23592Y21680D03*
D11*
X90966Y72998D03*
D12*
X-23075Y72998D01*
X-23592Y72480D01*
D11*
X38089Y80475D03*
X9312Y80632D03*
X66495Y82027D03*
X74386Y81680D03*
D12*
X64286Y87361D02*
X63050Y86126D01*
X64286Y87361D02*
X68705Y87361D01*
X74386Y81680D01*
X35986Y86126D02*
X31378Y90734D01*
X31378Y93710D01*
X-23592Y148680D01*
X35986Y86126D02*
X63050Y86126D01*
D11*
X93684Y45471D03*
X93202Y53091D03*
X92615Y61222D03*
X64690Y5768D03*
X92396Y36639D03*
D13*
X71492Y41715D03*
D11*
X46000Y61500D03*
X46000Y51500D03*
X38500Y44000D03*
X46000Y31500D03*
X36000Y26500D03*
X95558Y14913D03*
X36362Y6057D03*
X24372Y4260D03*
D14*
X140000Y15000D03*
D15*
X33000Y143000D03*
X70000Y140000D03*
X90000Y140000D03*
X110000Y140000D03*
X130000Y140000D03*
X150000Y140000D03*
X170000Y140000D03*
X190000Y140000D03*
X70000Y120000D03*
X90000Y120000D03*
X110000Y120000D03*
X130000Y120000D03*
X150000Y120000D03*
X170000Y120000D03*
X190000Y120000D03*
X190000Y100000D03*
X190000Y80000D03*
X170000Y100000D03*
X110000Y100000D03*
X130000Y100000D03*
X150000Y100000D03*
X150000Y80000D03*
X130000Y80000D03*
X110000Y80000D03*
X110000Y60000D03*
X130000Y60000D03*
X150000Y60000D03*
X170000Y60000D03*
X170000Y80000D03*
X190000Y60000D03*
X190000Y40000D03*
X170000Y40000D03*
X150000Y40000D03*
X130000Y40000D03*
X110000Y40000D03*
X14651Y17935D03*
X6585Y17628D03*
D16*
X85493Y12696D03*
D11*
X90593Y3822D03*
D15*
X11000Y57397D03*
X12835Y120835D03*
D11*
X48613Y4541D03*
X77104Y5134D03*
D14*
X185000Y15000D03*
D11*
X56502Y6055D03*
X92083Y24841D03*
D12*
X-20431Y24841D02*
X-23592Y21680D01*
X33791Y21166D02*
X38209Y21166D01*
X41884Y24841D02*
X92083Y24841D01*
X30116Y24841D02*
X-20431Y24841D01*
X38209Y21166D02*
X41884Y24841D01*
X33791Y21166D02*
X30116Y24841D01*
M02*
